<?xml version="1.0" encoding="UTF-8" standalone="no"?>
<!DOCTYPE svg PUBLIC "-//W3C//DTD SVG 1.1//EN"
 "http://www.w3.org/Graphics/SVG/1.1/DTD/svg11.dtd">
<!-- Generated by graphviz version 2.40.1 (20161225.0304)
 -->
<!-- Title: dependencies Pages: 1 -->
<svg width="504pt" height="276pt"
 viewBox="0.00 0.00 504.00 276.00" xmlns="http://www.w3.org/2000/svg" xmlns:xlink="http://www.w3.org/1999/xlink">
<g id="graph0" class="graph" transform="scale(1 1) rotate(0) translate(4 272)">
<title>dependencies</title>
<polygon fill="#ffffff" stroke="transparent" points="-4,4 -4,-272 500,-272 500,4 -4,4"/>
<text text-anchor="start" x="227.0091" y="-42.4" font-family="sans-serif" font-weight="bold" font-size="14.00" fill="#000000">Legend</text>
<polygon fill="#ffffb3" stroke="transparent" points="14,-10 14,-30 34,-30 34,-10 14,-10"/>
<text text-anchor="start" x="37.629" y="-15.4" font-family="sans-serif" font-size="14.00" fill="#000000"> &#160;Declarations</text>
<polygon fill="#8dd3c7" stroke="transparent" points="127,-10 127,-30 147,-30 147,-10 127,-10"/>
<text text-anchor="start" x="150.7251" y="-15.4" font-family="sans-serif" font-size="14.00" fill="#000000"> &#160;Module</text>
<polygon fill="#80b1d3" stroke="transparent" points="213,-10 213,-30 233,-30 233,-10 213,-10"/>
<text text-anchor="start" x="236.7812" y="-15.4" font-family="sans-serif" font-size="14.00" fill="#000000"> &#160;Bootstrap</text>
<polygon fill="#fdb462" stroke="transparent" points="310,-10 310,-30 330,-30 330,-10 310,-10"/>
<text text-anchor="start" x="333.6732" y="-15.4" font-family="sans-serif" font-size="14.00" fill="#000000"> &#160;Providers</text>
<polygon fill="#fb8072" stroke="transparent" points="406,-10 406,-30 426,-30 426,-10 406,-10"/>
<text text-anchor="start" x="429.7258" y="-15.4" font-family="sans-serif" font-size="14.00" fill="#000000"> &#160;Exports</text>
<g id="clust1" class="cluster">
<title>cluster_AddInterviewModule</title>
<polygon fill="none" stroke="#000000" stroke-dasharray="1,5" points="91,-70 91,-260 405,-260 405,-70 91,-70"/>
</g>
<g id="clust2" class="cluster">
<title>cluster_AddInterviewModule_declarations</title>
<polygon fill="none" stroke="#000000" points="221,-143 221,-195 397,-195 397,-143 221,-143"/>
</g>
<g id="clust3" class="cluster">
<title>cluster_AddInterviewModule_AddInterviewComponent_providers</title>
<polygon fill="none" stroke="#000000" points="223,-78 223,-130 395,-130 395,-78 223,-78"/>
</g>
<g id="clust4" class="cluster">
<title>cluster_AddInterviewModule_imports</title>
<polygon fill="none" stroke="#000000" points="99,-143 99,-195 213,-195 213,-143 99,-143"/>
</g>
<!-- AddInterviewComponent -->
<g id="node1" class="node">
<title>AddInterviewComponent</title>
<polygon fill="#ffffb3" stroke="#000000" points="388.5772,-187 229.4228,-187 229.4228,-151 388.5772,-151 388.5772,-187"/>
<text text-anchor="middle" x="309" y="-164.8" font-family="Times,serif" font-size="14.00" fill="#000000">AddInterviewComponent</text>
</g>
<!-- AddInterviewModule -->
<g id="node2" class="node">
<title>AddInterviewModule</title>
<polygon fill="#8dd3c7" stroke="#000000" points="306.7949,-252 303.7949,-256 282.7949,-256 279.7949,-252 169.2051,-252 169.2051,-216 306.7949,-216 306.7949,-252"/>
<text text-anchor="middle" x="238" y="-229.8" font-family="Times,serif" font-size="14.00" fill="#000000">AddInterviewModule</text>
</g>
<!-- AddInterviewComponent&#45;&gt;AddInterviewModule -->
<g id="edge1" class="edge">
<title>AddInterviewComponent&#45;&gt;AddInterviewModule</title>
<path fill="none" stroke="#000000" d="M268.0544,-187.1061C268.0544,-187.1061 268.0544,-205.991 268.0544,-205.991"/>
<polygon fill="#000000" stroke="#000000" points="264.5544,-205.9909 268.0544,-215.991 271.5544,-205.991 264.5544,-205.9909"/>
</g>
<!-- CompanyService -->
<g id="node3" class="node">
<title>CompanyService</title>
<ellipse fill="#fdb462" stroke="#000000" cx="309" cy="-104" rx="77.5897" ry="18"/>
<text text-anchor="middle" x="309" y="-99.8" font-family="Times,serif" font-size="14.00" fill="#000000">CompanyService</text>
</g>
<!-- CompanyService&#45;&gt;AddInterviewComponent -->
<g id="edge2" class="edge">
<title>CompanyService&#45;&gt;AddInterviewComponent</title>
<path fill="none" stroke="#000000" d="M309,-122.1061C309,-122.1061 309,-140.991 309,-140.991"/>
<polygon fill="#000000" stroke="#000000" points="305.5001,-140.9909 309,-150.991 312.5001,-140.991 305.5001,-140.9909"/>
</g>
<!-- SharedModule -->
<g id="node4" class="node">
<title>SharedModule</title>
<polygon fill="#8dd3c7" stroke="#000000" points="205.4231,-187 202.4231,-191 181.4231,-191 178.4231,-187 106.5769,-187 106.5769,-151 205.4231,-151 205.4231,-187"/>
<text text-anchor="middle" x="156" y="-164.8" font-family="Times,serif" font-size="14.00" fill="#000000">SharedModule</text>
</g>
<!-- SharedModule&#45;&gt;AddInterviewModule -->
<g id="edge3" class="edge">
<title>SharedModule&#45;&gt;AddInterviewModule</title>
<path fill="none" stroke="#000000" d="M187.2819,-187.1061C187.2819,-187.1061 187.2819,-205.991 187.2819,-205.991"/>
<polygon fill="#000000" stroke="#000000" points="183.782,-205.9909 187.2819,-215.991 190.782,-205.991 183.782,-205.9909"/>
</g>
</g>
</svg>
