<svg id="Layer_1" data-name="Layer 1" xmlns="http://www.w3.org/2000/svg" viewBox="0 0 100 100"><title>Allergy-Nuts</title><circle cx="49.5" cy="49.56" r="48" style="fill:#d67b42"/><path d="M49.5,1.56c-1,0-1.94,0-2.9.09a48,48,0,0,1,0,95.82c1,0,1.93.09,2.9.09a48,48,0,0,0,0-96Z" style="fill:#be652b"/><path d="M49.5,91.76A42.2,42.2,0,0,1,19.66,19.71,42.2,42.2,0,1,1,79.34,79.4,41.93,41.93,0,0,1,49.5,91.76Z" style="fill:#a75224"/><path d="M38.74,33.91A13.91,13.91,0,0,0,28,50.34a5,5,0,1,0,9.83-2,3.86,3.86,0,0,1,3-4.56,5,5,0,1,0-2-9.83Z" style="fill:#f5b460"/><path d="M44.68,37.8a5,5,0,0,0-5.94-3.89,14,14,0,0,0-2.15.63,5,5,0,0,1-1.6,9.2,3.86,3.86,0,0,0-3,4.56,5,5,0,0,1-2,5.12,5,5,0,0,0,7.81-5.12,3.86,3.86,0,0,1,3-4.56,5,5,0,0,0,3.9-5.94Z" style="fill:#e69955"/><path d="M57.22,52.37a5,5,0,0,0,6.93-1.54,13.9,13.9,0,0,0-4.27-19.19,5,5,0,0,0-5.39,8.48,3.85,3.85,0,0,1,1.19,5.32,5,5,0,0,0,1.54,6.93Z" style="fill:#f5b460"/><path d="M66,40.35a13.84,13.84,0,0,0-6.11-8.71,5,5,0,0,0-5.59.14,13.88,13.88,0,0,1,4.07,19A5.16,5.16,0,0,1,57,52.24l.2.13a5,5,0,0,0,6.93-1.54A13.81,13.81,0,0,0,66,40.35Z" style="fill:#e69955"/><path d="M29.12,62a3.86,3.86,0,0,1-3.86-3.85,5,5,0,0,0-10,0,13.92,13.92,0,0,0,13.9,13.9,5,5,0,0,0,0-10Z" style="fill:#f5b460"/><path d="M29.12,62a3.86,3.86,0,0,1-3.86-3.85,5,5,0,0,0-7.92-4.1,5,5,0,0,1,2.13,4.1A3.86,3.86,0,0,0,23.32,62a5,5,0,0,1,2.16,9.56,13.67,13.67,0,0,0,3.64.49,5,5,0,0,0,0-10Z" style="fill:#e69955"/><path d="M50.8,48.58a5,5,0,0,0-8.34,5.61,3.86,3.86,0,0,1-1,5.35A5,5,0,1,0,47,67.87,13.91,13.91,0,0,0,50.8,48.58Z" style="fill:#f5b460"/><path d="M50.8,48.58a5,5,0,0,0-7-1.36l-.09.06A5.07,5.07,0,0,1,45,48.58a13.91,13.91,0,0,1-3.68,19.23,5,5,0,0,0,5.71.06A13.91,13.91,0,0,0,50.8,48.58Z" style="fill:#e69955"/><path d="M58.09,70.86a5,5,0,0,0-6.82,2A3.85,3.85,0,0,1,46,74.34a5,5,0,0,0-4.85,8.8,13.91,13.91,0,0,0,18.89-5.46,5,5,0,0,0-2-6.82Z" style="fill:#f5b460"/><path d="M58.09,70.86a5,5,0,0,0-5.32.29,5,5,0,0,1,1.5,6.53A13.79,13.79,0,0,1,46,84.32c-.32.09-.65.17-1,.24a13.32,13.32,0,0,0,2.89.31,14,14,0,0,0,3.88-.55,13.84,13.84,0,0,0,8.31-6.64A5,5,0,0,0,58.09,70.86Z" style="fill:#e69955"/><path d="M52,25.33a3.88,3.88,0,0,1,5.45.16,5,5,0,0,0,7.31-6.89A13.91,13.91,0,0,0,45.11,18,5,5,0,1,0,52,25.33Z" style="fill:#f5b460"/><path d="M64.76,18.6a13.79,13.79,0,0,0-9.71-4.35,14,14,0,0,0-3.31.29A13.85,13.85,0,0,1,59,18.6a5,5,0,0,1-.21,7.1,4.7,4.7,0,0,1-.55.45,5,5,0,0,0,6.56-7.55Z" style="fill:#e69955"/><path d="M72.25,58.41a3.84,3.84,0,0,1-5.45,0,5,5,0,0,0-7.11,7.11,13.93,13.93,0,0,0,19.66,0,5,5,0,0,0-7.1-7.11Z" style="fill:#f5b460"/><path d="M79.35,58.41a5,5,0,0,0-6.45-.55,6.87,6.87,0,0,1,.66.55,5,5,0,0,1,0,7.11,13.74,13.74,0,0,1-6.93,3.75,14,14,0,0,0,2.89.31,13.86,13.86,0,0,0,9.83-4.07,5,5,0,0,0,0-7.1Z" style="fill:#e69955"/><path d="M22.9,40.63a5,5,0,0,0,4.62-5.39,3.86,3.86,0,0,1,3.55-4.14,5,5,0,0,0-.76-10A13.92,13.92,0,0,0,17.51,36a5,5,0,0,0,5.39,4.62Z" style="fill:#f5b460"/><path d="M35.7,25.71a5,5,0,0,0-5.39-4.63,13.75,13.75,0,0,0-3,.58,5,5,0,0,1-2,9.44,3.86,3.86,0,0,0-3.55,4.14,5,5,0,0,1-2.11,4.48,5,5,0,0,0,7.9-4.48,3.86,3.86,0,0,1,3.55-4.14A5,5,0,0,0,35.7,25.71Z" style="fill:#e69955"/><path d="M79.9,31.45a5,5,0,0,0-7.53,6.64A3.87,3.87,0,0,1,72,43.54a5,5,0,0,0,6.65,7.53A13.91,13.91,0,0,0,79.9,31.45Z" style="fill:#f5b460"/><path d="M79.9,31.45a5,5,0,0,0-6.66-.78,5.29,5.29,0,0,1,.87.78,13.92,13.92,0,0,1-1.22,19.62,4.46,4.46,0,0,1-.43.33,5,5,0,0,0,6.23-.33A13.91,13.91,0,0,0,79.9,31.45Z" style="fill:#e69955"/></svg>