<svg id="Layer_1" data-name="Layer 1" xmlns="http://www.w3.org/2000/svg" viewBox="0 0 100 100"><title>Allergy-Shellfish</title><path d="M93.91,34.37a1.69,1.69,0,0,1,1.61,1.18A48,48,0,1,1,79.25,11.81a1.74,1.74,0,0,1,.66,1.35v7.2A14,14,0,0,0,93.91,34.37Z" style="fill:#bb5335"/><path d="M95.62,35.9C94.44,43.3,90.92,53,80.94,58.49a34.2,34.2,0,0,1-9,3.38A32.71,32.71,0,0,1,49.47,92.69a37.53,37.53,0,0,1-29.89-2.54C3,80.77,4.65,59.73,4.81,57.58A16.9,16.9,0,0,1,16.36,42.79,7.67,7.67,0,0,1,26,47.67L29,56.62A22.09,22.09,0,0,0,56.43,70.89l.46-.15a28,28,0,0,0,12.54-8.39A38.89,38.89,0,0,1,51,60.68a32.71,32.71,0,0,1-22-33.87,28,28,0,0,0,14.8,11.83l.46.15A22.09,22.09,0,0,0,71.94,24.85l3-8.91a7.63,7.63,0,0,1,3.9-4.4A48,48,0,0,1,95.62,35.9Z" style="fill:#f7b95f"/><path d="M94.42,32.36a30.61,30.61,0,0,1-3.64,9.25c-8,13-24.67,18.16-39.08,13.22A31.22,31.22,0,0,1,31.15,29.75a28,28,0,0,0,12.71,8.89l.46.15A22.09,22.09,0,0,0,71.94,24.85l3-8.91a7.63,7.63,0,0,1,3.9-4.4A48.14,48.14,0,0,1,94.42,32.36ZM56.89,70.74l-.46.15A22.09,22.09,0,0,1,29,56.62L26,47.67a7.67,7.67,0,0,0-9.68-4.88A16.88,16.88,0,0,0,5.44,54.1c.13,1.25-.34,10.95,4.5,19.05,7.82,13.1,24.46,18.46,38.92,13.69A31.24,31.24,0,0,0,69.71,62,28,28,0,0,1,56.89,70.74Z" style="fill:#f9c77e"/><path d="M45.06,41.07a11.77,11.77,0,0,1,.81-1.84,21.7,21.7,0,0,0,9.34.22,10.38,10.38,0,0,1-.49,4.94c-1.37,4-4.65,6.51-7.32,5.59S43.68,45.08,45.06,41.07ZM84.58,21.19A23.36,23.36,0,0,0,88,20.75a47.83,47.83,0,0,0-9.1-9.21,7.63,7.63,0,0,0-3.9,4.4l-1,3.08A20.18,20.18,0,0,0,84.58,21.19ZM38.19,41.42c1.72.59,3.79-.73,5-3a27.85,27.85,0,0,1-6.75-3.62C35.4,37.76,36.19,40.73,38.19,41.42Zm26.92-6.68a22.18,22.18,0,0,1-7,3.94,12,12,0,0,0,1.21,7.49c2.33,4.77,6.8,7.37,10,5.82s3.86-6.69,1.53-11.45A11.73,11.73,0,0,0,65.11,34.74ZM80.9,24.07a14.21,14.21,0,0,0-8.56-.41l-.4,1.19a22.4,22.4,0,0,1-3.79,6.83c1.15,2.68,4,5.2,7.9,6.52,5.86,2,11.69.47,13-3.43S86.75,26.07,80.9,24.07Zm-26,47.24a21.77,21.77,0,0,1-9.33.11A10.08,10.08,0,0,0,46,76.36c1.32,4,4.57,6.56,7.25,5.68s3.78-4.86,2.45-8.88A11.46,11.46,0,0,0,54.87,71.31Zm2.71-.81c1.17,2.32,3.22,3.66,5,3.09,2-.66,2.82-3.63,1.84-6.63A27.77,27.77,0,0,1,57.58,70.5ZM27.06,50.76l-1-3.09a7.67,7.67,0,0,0-9.68-4.88,16.85,16.85,0,0,0-9.16,7.3,20.71,20.71,0,0,0,9.19,2.71A20.18,20.18,0,0,0,27.06,50.76Zm5.63,12.73A22.09,22.09,0,0,1,29,56.62l-.4-1.2a14.36,14.36,0,0,0-8.56.3c-5.88,1.94-9.6,6.69-8.3,10.61s7.1,5.53,13,3.59C28.57,68.64,31.5,66.16,32.69,63.49Zm3,3.1a11.69,11.69,0,0,0-5.78,5.72c-2.39,4.74-1.76,9.88,1.4,11.47s7.66-1,10.05-5.7a12,12,0,0,0,1.29-7.47A22.24,22.24,0,0,1,35.69,66.59Z" style="fill:#fbdfba"/><path d="M37.31,21.13l-6.6,19.25a32.6,32.6,0,0,1,0-21.24,33.31,33.31,0,0,1,4-7.91A9.2,9.2,0,0,1,37.31,21.13ZM65.66,53a32.67,32.67,0,0,0-5.53-6.91,9.19,9.19,0,0,0-.52,10.24L69.78,73.28q.25-.66.48-1.32A32.53,32.53,0,0,0,65.66,53Z" style="fill:#f45751"/><path d="M40.92,14a9.19,9.19,0,0,1,.39,10.24L30.94,41c-.16-.44-.31-.89-.46-1.33A32.77,32.77,0,0,1,40.92,14ZM70.28,51.4a32.4,32.4,0,0,0-3.87-7.95,9.19,9.19,0,0,0-2.76,9.86L70,72.63A32.54,32.54,0,0,0,70.28,51.4Z" style="fill:#f56d59"/></svg>