<svg id="Layer_1" data-name="Layer 1" xmlns="http://www.w3.org/2000/svg" viewBox="0 0 100 100"><title>Allergy-Wheat</title><circle cx="49.74" cy="49.7" r="48" style="fill:#a34a28"/><path d="M97.19,57l-9.52-9.52A13.7,13.7,0,0,0,84,47a11.22,11.22,0,0,0-8.88,4.17l-4.4-4.4a1.46,1.46,0,0,0-.07-.19l-.08,0L39.87,15.93A13.79,13.79,0,0,0,37,13.1,12.11,12.11,0,0,0,32.88,22a11.78,11.78,0,0,0,3.83,8.55l.1,2.73-2.64-2.64h0a12.05,12.05,0,0,0-6.93-3.63A12.13,12.13,0,0,0,31.07,37.9h0l6.18,6.18,0,1-2.63-2.64h0a12.14,12.14,0,0,0-6.93-3.63,12.11,12.11,0,0,0,3.83,10.84h0l6.18,6.18,0,1L35,54.12h0a12.1,12.1,0,0,0-6.87-3.56A12,12,0,0,0,28,52.44a12.14,12.14,0,0,0,3.42,8.43h0l.07.06.08.09,6.57,6.57.19,4.92,4.31,4.31L37.92,80l1.26,1.86L54.75,97.44A48,48,0,0,0,97.19,57Z" style="opacity:0.100000001490116;isolation:isolate"/><path d="M36.43,23.68l2.25-.08,1.85,48.82-2.24.08Z" style="fill:#fed35b"/><path d="M49,49.77a12.18,12.18,0,0,0-9.09,14.64A12.19,12.19,0,0,0,49,49.77Z" style="fill:#fed35b"/><path d="M28.14,50.56A12.18,12.18,0,0,1,38.31,64.47,12.18,12.18,0,0,1,28.14,50.56Z" style="fill:#fed35b"/><path d="M48.58,38a12.18,12.18,0,0,0-9.09,14.64A12.19,12.19,0,0,0,48.58,38Z" style="fill:#fed35b"/><path d="M27.69,38.81A12.18,12.18,0,0,1,37.86,52.72,12.18,12.18,0,0,1,27.69,38.81Z" style="fill:#fed35b"/><path d="M48.13,26.27A12.18,12.18,0,0,0,39,40.9a12.17,12.17,0,0,0,9.09-14.63Z" style="fill:#fed35b"/><path d="M37,13.1h0c-5.92,5.43-5.49,13.76,1,18.6C43.93,26.27,43.49,17.94,37,13.1Z" style="fill:#fed35b"/><path d="M27.24,27.06A12.2,12.2,0,0,1,37.42,41,12.19,12.19,0,0,1,27.24,27.06Z" style="fill:#fed35b"/><path d="M78.4,52.62l1.26,1.86L39.2,81.9,37.94,80Z" style="fill:#fed35b"/><path d="M62.89,77.08a12.18,12.18,0,0,0-17.23,0,12.19,12.19,0,0,0,17.23,0Z" style="fill:#feda6f"/><path d="M51.17,59.76a12.19,12.19,0,0,1-6.43,16,12.19,12.19,0,0,1,6.43-16Z" style="fill:#feda6f"/><path d="M72.62,70.48a12.17,12.17,0,0,0-17.22,0,12.17,12.17,0,0,0,17.22,0Z" style="fill:#feda6f"/><path d="M60.9,53.17a12.18,12.18,0,0,1-6.42,16,12.18,12.18,0,0,1,6.42-16Z" style="fill:#feda6f"/><path d="M82.36,63.89a12.18,12.18,0,0,0-17.23,0,12.19,12.19,0,0,0,17.23,0Z" style="fill:#feda6f"/><path d="M87.67,47.51h0c-7.74-2.15-14.58,2.62-15.27,10.66C80.14,60.32,87,55.55,87.67,47.51Z" style="fill:#feda6f"/><path d="M70.64,46.58a12.19,12.19,0,0,1-6.42,16,12.18,12.18,0,0,1,6.42-16Z" style="fill:#feda6f"/></svg>