<svg id="Layer_1" data-name="Layer 1" xmlns="http://www.w3.org/2000/svg" viewBox="0 0 100 100"><title>Allergy-Milk</title><circle cx="50.15" cy="49.56" r="48" style="fill:#fb7833"/><path d="M98.15,49.56c0-1.09-.05-2.17-.12-3.23L67.53,15.82H32.78v9.77l-6,8.42V80.76L43,97a49.1,49.1,0,0,0,7.12.53A48,48,0,0,0,98.15,49.56Z" style="opacity:0.100000001490116;isolation:isolate"/><path d="M73.55,34V78.24l-12,5.05L26.76,80.76V34l6-8.42V15.82H67.53v9.77Z" style="fill:#ededed"/><path d="M73.55,78.23l-12,5.06V34l6-8.42,6,8.42Z" style="fill:#b1b2b6"/><path d="M67.53,25.59H32.78l-6,8.42H61.51Z" style="fill:#dbd8dd"/><path d="M32.78,15.82H67.53v9.77H32.78Z" style="fill:#ededed"/><path d="M57.31,34v0H52v0h-4.4v0H31.81v0h-5V47.68a2.63,2.63,0,0,0,2.39,2.67,2.53,2.53,0,0,0,2.66-2.53V43.5a2.53,2.53,0,0,1,5.05,0V44a2.61,2.61,0,0,0,2.39,2.66,2.52,2.52,0,0,0,2.66-2.52V39.82a2,2,0,1,1,4.09,0v9a3.43,3.43,0,0,0,3,3.47,3.34,3.34,0,0,0,3.67-3.32V47.68a1.81,1.81,0,0,1,1.8-1.8h.18a1.81,1.81,0,0,1,1.8,1.8,2.63,2.63,0,0,0,2.39,2.67,2.54,2.54,0,0,0,2.66-2.53V34Z" style="fill:#4288b9"/><path d="M59.25,67.07A2.1,2.1,0,0,0,57,69.19v3.94a2.21,2.21,0,0,1-2.42,2.23,2.65,2.65,0,0,1-2.42-2.6v-.87a3.21,3.21,0,0,0-2.92-3.14h0a2.68,2.68,0,0,0-2.93,2.7V74a2.61,2.61,0,0,1-2.85,2.63h0a3.13,3.13,0,0,1-2.86-3.06V68a2.52,2.52,0,0,0-2.3-2.47A2.11,2.11,0,0,0,36,67.6v1.81a2.09,2.09,0,0,1-2.29,2.11,2.51,2.51,0,0,1-2.3-2.46v-.63A2.51,2.51,0,0,0,29.06,66a2.09,2.09,0,0,0-2.3,2.11V80.76l34.75,2.53,0-13.76A2.51,2.51,0,0,0,59.25,67.07Z" style="fill:#4288b9"/><path d="M63.94,78.83l-.64.27V70.79l.64-.27Z" style="fill:#344d5b"/><path d="M66.61,77.69l-.32.14V69.52l.32-.13Z" style="fill:#344d5b"/><path d="M65.68,78.09l-1.11.47V70.25l1.11-.47Z" style="fill:#344d5b"/><path d="M67.87,77.16l-.64.27v-8.3l.64-.28Z" style="fill:#344d5b"/><path d="M70.54,76l-.31.13V67.85l.31-.13Z" style="fill:#344d5b"/><path d="M69.61,76.42l-1.11.47V68.58l1.11-.47Z" style="fill:#344d5b"/><path d="M71.79,75.49l-.77.33V67.51l.77-.32Z" style="fill:#344d5b"/><path d="M34.61,60.41v-6.1l1.22.07,1.44,4.41c.13.41.23.71.29.92l.32-1,1.46-4.16,1.09.06v6.1l-.78,0V55.6l-1.77,5-.73,0-1.76-5.3v5.2Z" style="fill:#293b44"/><path d="M41.87,60.83v-6.1l.8.05v6.1Z" style="fill:#293b44"/><path d="M44.06,61v-6.1l.81,0v5.38l3,.17v.72Z" style="fill:#293b44"/><path d="M48.79,61.23V55.14l.81,0v3l3-2.85,1.1.06-2.56,2.32,2.67,3.79-1.06-.06L50.6,58.25l-1,.92v2.11Z" style="fill:#293b44"/></svg>