<svg id="Layer_1" data-name="Layer 1" xmlns="http://www.w3.org/2000/svg" viewBox="0 0 100 100"><title>Allergy-Soybeans</title><circle cx="50.15" cy="49.7" r="48" style="fill:#c66312"/><path d="M33.85,31.63c3.82,2.87,8.36,3.27,10.14.9s.14-6.62-3.68-9.49-8.35-3.27-10.14-.9S30,28.77,33.85,31.63Z" style="fill:#fff3da"/><path d="M20.9,45.83c0,4.77,2.41,8.64,5.38,8.64s5.37-3.87,5.37-8.64-2.4-8.64-5.37-8.64-5.38,3.87-5.38,8.64Z" style="fill:#fff3da"/><path d="M47.87,49.09c3.82-2.87,8.36-3.27,10.14-.9s.14,6.62-3.68,9.49S46,61,44.19,58.58s-.13-6.63,3.68-9.49ZM32.47,81C41,80.94,48.66,76.6,51,66.59a16.65,16.65,0,0,0,9.29-5.84,16.65,16.65,0,0,0,4.06-10.2,16.63,16.63,0,0,0,9.29-5.83c4.23-5.08,3.68-9.11,4-12.9C81,27.11,82.28,24,80.56,18.45c-3.88,5.86-3.77,5.65-7.89,5.5-7.58-.28-14.86,1-18.67,7.05a17,17,0,0,0-2.84,8.6,17.66,17.66,0,0,0-13.35,16C26.33,59.53,22.44,66.3,19,77.54A30,30,0,0,0,32.42,81Zm25.59-39c-1.79-2.38-.14-6.62,3.67-9.49s8.36-3.27,10.14-.9S72,38.16,68.19,41,59.84,44.3,58.06,41.93ZM33.25,64.47c4.35-1.95,8.87-1.34,10.08,1.38S42,72.33,37.64,74.29s-8.87,1.33-10.08-1.38S28.89,66.43,33.25,64.47Z" style="fill:#a8b55d"/><path d="M44.19,58.58c1.79,2.37,6.33,2,10.14-.9S59.8,50.56,58,48.19s-6.32-2-10.14.9S42.41,56.2,44.19,58.58Z" style="fill:#fff3da"/><path d="M27.56,72.91c1.21,2.72,5.73,3.33,10.08,1.38s6.91-5.74,5.69-8.44-5.73-3.33-10.08-1.38S26.35,70.21,27.56,72.91Z" style="fill:#fff3da"/><path d="M62.65,74.43c1.79,2.38,6.33,2,10.14-.89s5.46-7.12,3.68-9.49-6.32-2-10.14.9S60.87,72.06,62.65,74.43Z" style="fill:#fff3da"/><path d="M58.06,41.93c1.78,2.37,6.32,2,10.13-.9s5.47-7.12,3.68-9.49-6.32-2-10.14.9-5.46,7.11-3.67,9.49Z" style="fill:#fff3da"/></svg>