<svg id="Layer_1" data-name="Layer 1" xmlns="http://www.w3.org/2000/svg" viewBox="0 0 100 100"><title>Allergy Egg</title><circle cx="49.74" cy="49.56" r="48" style="fill:#ff9a00"/><path d="M97.59,53.37,70.86,26.64c-2.34-2.48-4.84-4-7.27-4-4.46,0-9.09,5.12-12.65,11.77l-8.16-8.15C40.56,24,38.2,22.62,35.9,22.62c-9.45,0-19.72,23.07-18.79,34.89a18,18,0,0,0,5.63,12.15L50.62,97.55A48,48,0,0,0,97.59,53.37Z" style="fill:#e67500"/><path d="M35.9,22.62c-9.45,0-19.72,23.07-18.79,34.89S27.69,74.74,35.9,74.74s17.86-5.41,18.79-17.23S45.35,22.62,35.9,22.62Z" style="fill:#fff5cb"/><path d="M54.69,57.51C53.76,69.33,44.11,74.74,35.9,74.74V22.62C45.35,22.62,55.62,45.69,54.69,57.51Z" style="fill:#ffec97"/><path d="M63.59,22.62c-9.45,0-19.73,23.07-18.8,34.89s10.59,17.23,18.8,17.23,17.85-5.41,18.79-17.23S73,22.62,63.59,22.62Z" style="fill:#fff"/><path d="M82.38,57.51C81.44,69.33,71.8,74.74,63.59,74.74V22.62C73,22.62,83.31,45.69,82.38,57.51Z" style="fill:#fff5cb"/></svg>