<svg id="Layer_1" data-name="Layer 1" xmlns="http://www.w3.org/2000/svg" viewBox="0 0 100 100"><title>Allergy-Fish</title><circle cx="49.59" cy="49.7" r="48" style="fill:#4aaad3"/><path d="M78.48,43,33.43,45.35c-2-2-2.06-6,.32-9.61a14.45,14.45,0,0,1,1.4-1.8,16.5,16.5,0,0,1,4.12-3.22,18.33,18.33,0,0,1,2.1-1A24.1,24.1,0,0,1,47,28.16c.81-.13,1.67-.23,2.54-.29a37.53,37.53,0,0,1,5.51,0l1.47.13.91.11a46.47,46.47,0,0,1,4.9.84q1.2.27,2.28.6a27.88,27.88,0,0,1,5.94,2.49,17.74,17.74,0,0,1,2.06,1.34C78.48,37.77,78.48,43,78.48,43Z" style="fill:#7f6e5d"/><path d="M79.63,52.28a21.45,21.45,0,0,1-7.1,13c-.31.29-.64.56-1,.83s-.6.47-.93.69A25,25,0,0,1,64.53,70c-.54.2-1.09.4-1.67.56-.19.07-.37.11-.55.17A22.87,22.87,0,0,1,57,71.6c-.52,0-1,0-1.56,0a29.65,29.65,0,0,1-6.82-.94s0,0,0,0c-.46-.12-.91-.24-1.36-.38a33.55,33.55,0,0,1-5.86-2.4c-.35-.19-.7-.37-1-.57l-1-.6a24.4,24.4,0,0,1-2.79-2c-.31-.26-.6-.53-.88-.79s-.54-.55-.8-.82c-2.56-2.84-3.1-5.69-.33-7.3Z" style="fill:#7f6e5d"/><path d="M39.84,40.53a1.21,1.21,0,0,1-.64.2,1.18,1.18,0,0,1-1-.52A14.65,14.65,0,0,0,34.06,36a1.18,1.18,0,0,1-.31-.24,14.45,14.45,0,0,1,1.4-1.8c2.54,1.3,4.91,4.84,5,5a1.15,1.15,0,0,1,.17.87A1.16,1.16,0,0,1,39.84,40.53Z" style="fill:#2c2f38"/><path d="M45,36.11a1.16,1.16,0,0,1-1.72,1,1.17,1.17,0,0,1-.59-1c0-.09-.19-2-3.13-5a1.17,1.17,0,0,1-.27-.42,18.33,18.33,0,0,1,2.1-1C44.87,33.31,45,35.82,45,36.11Z" style="fill:#2c2f38"/><path d="M50.41,34.15a1.16,1.16,0,0,1-1.1.8,1.19,1.19,0,0,1-.37-.06,1.15,1.15,0,0,1-.73-1.45,6.14,6.14,0,0,0,.23-1.65,4.1,4.1,0,0,0-1.11-3,1,1,0,0,1-.32-.67c.81-.13,1.67-.23,2.54-.29A7.38,7.38,0,0,1,50.41,34.15Z" style="fill:#2c2f38"/><path d="M56.43,34.34a1.22,1.22,0,0,1-.85.5h-.11a1.16,1.16,0,0,1-.87-1.93,5.09,5.09,0,0,0,.51-4.52,1.06,1.06,0,0,1,0-.5l1.47.13.91.11A7.36,7.36,0,0,1,56.43,34.34Z" style="fill:#2c2f38"/><path d="M64.62,29.57c-.09,3.45-1.26,4.8-1.49,5A1.16,1.16,0,0,1,61.46,33c.06-.06.83-1.06.85-3.75a1.27,1.27,0,0,1,0-.28Q63.54,29.24,64.62,29.57Z" style="fill:#2c2f38"/><path d="M72.62,33.4a8.83,8.83,0,0,1-2.44,4.54,1.15,1.15,0,0,1-1.94-.49,1.13,1.13,0,0,1,.28-1.12,6,6,0,0,0,1.87-3.72,1.18,1.18,0,0,1,.17-.55A17.74,17.74,0,0,1,72.62,33.4Z" style="fill:#2c2f38"/><path d="M40.3,59.57c-.06.15-1.25,3.66-3.74,5.11-.31-.26-.6-.53-.88-.79s-.54-.55-.8-.82a.84.84,0,0,1,.34-.28c1.55-.77,2.61-3.11,2.89-3.95a1.16,1.16,0,0,1,.86-.77,1.18,1.18,0,0,1,1.1.37A1.16,1.16,0,0,1,40.3,59.57Z" style="fill:#2c2f38"/><path d="M45,61.52c0,.28-.11,2.78-3.61,6.38-.35-.19-.7-.37-1-.57l-1-.6a1.57,1.57,0,0,1,.19-.26c3-3,3.13-5,3.13-5a1.16,1.16,0,0,1,2.31,0Z" style="fill:#2c2f38"/><path d="M49,70.41a1.59,1.59,0,0,1-.37.27s0,0,0,0c-.46-.12-.91-.24-1.36-.38a1.14,1.14,0,0,1,.1-1.51c1.77-1.77.89-4.58.88-4.6a1.16,1.16,0,0,1,2.2-.73C50.47,63.63,51.76,67.64,49,70.41Z" style="fill:#2c2f38"/><path d="M57.3,71.12a1.17,1.17,0,0,1-.31.48c-.52,0-1,0-1.56,0a1.18,1.18,0,0,1-.32-1.23,5,5,0,0,0-.61-4.65,1.15,1.15,0,0,1-.21-1.14,1.13,1.13,0,0,1,.87-.75,1.15,1.15,0,0,1,1.09.38A7.28,7.28,0,0,1,57.3,71.12Z" style="fill:#2c2f38"/><path d="M64.62,69.61a1.22,1.22,0,0,1-.09.42c-.54.2-1.09.4-1.67.56a1.11,1.11,0,0,1-.55-1c0-2.83-.84-3.83-.85-3.84a1.18,1.18,0,0,1,.07-1.62,1.14,1.14,0,0,1,1.6,0C63.37,64.42,64.62,65.85,64.62,69.61Z" style="fill:#2c2f38"/><path d="M72.53,65.31c-.31.29-.64.56-1,.83s-.6.47-.93.69a1.23,1.23,0,0,1-.23-.61,6.72,6.72,0,0,0-2-2.74,1.15,1.15,0,0,1,0-1.63,1.16,1.16,0,0,1,1.64,0A10.35,10.35,0,0,1,72.53,65.31Z" style="fill:#2c2f38"/><path d="M30.69,54.59c-2.32,0-4.65,2.31-8.15,4.62-2.6,1.71-4.7-2.4-5.53-4.23a9.47,9.47,0,0,1,.1-8.31c.9-1.74,3-5.22,5.43-3.63,3.49,2.31,5.82,4.62,8.15,4.62S38.84,35,52.82,33.79,74.94,40.73,83.09,46.5c0,0-9.31,19.64-25.62,18.48S36.52,54.59,30.69,54.59Z" style="fill:#cbb292"/><path d="M58.36,53.36a4.81,4.81,0,0,1-2.57-.63A4,4,0,0,1,54,49a4.55,4.55,0,0,1,1.9-4c2.87-1.9,7.75,0,8.3.24a1.16,1.16,0,0,1-.87,2.14c-1.1-.45-4.59-1.49-6.15-.45-.21.14-.85.57-.87,2.11,0,1.29.5,1.61.66,1.71,1.36.84,5-.3,7.09-1.39a1.16,1.16,0,0,1,1,2.06A17.44,17.44,0,0,1,58.36,53.36Z" style="fill:#7f6e5d"/><path d="M71.55,61.52l-.19,0c-.16,0-3.79-.66-5-3.31-.72-1.54-.47-3.35.74-5.35a1.15,1.15,0,0,1,1-.59,1.13,1.13,0,0,1,1,.6,1.16,1.16,0,0,1,0,1.18,3.52,3.52,0,0,0-.63,3.19c.6,1.29,2.63,1.89,3.29,2a1.16,1.16,0,0,1-.18,2.3Z" style="fill:#2c2f38"/><path d="M65.67,65a1,1,0,0,1-.41-.08c-.89-.33-3.86-1.65-4.8-4.36a6.22,6.22,0,0,1,.86-5.36,1.15,1.15,0,0,1,1-.58,1.16,1.16,0,0,1,1,1.77,4.07,4.07,0,0,0-.66,3.41c.63,1.81,3,2.79,3.44,3A1.15,1.15,0,0,1,65.67,65Z" style="fill:#2c2f38"/><path d="M21.88,50a1.18,1.18,0,0,1-.52-.13l-4.62-2.31a1.14,1.14,0,0,1-.64-1,1.14,1.14,0,0,1,1.67-1.1l4.62,2.31A1.16,1.16,0,0,1,21.88,50Z" style="fill:#7f6e5d"/><path d="M17.26,56.9a1.16,1.16,0,0,1-.52-2.19l4.62-2.31a1.14,1.14,0,0,1,1.18,0,1.17,1.17,0,0,1,.53,1.05,1.14,1.14,0,0,1-.68,1l-4.62,2.31A1.14,1.14,0,0,1,17.26,56.9Z" style="fill:#7f6e5d"/><path d="M34.58,52.28a1.16,1.16,0,0,1,0-2.31s2.21-.14,7.49-3.3c6.25-3.75,13.52-.2,13.82-.05a1.16,1.16,0,0,1-1,2.07c-.06,0-6.45-3.14-11.6,0C37.38,52.17,34.85,52.28,34.58,52.28Z" style="fill:#7f6e5d"/><path d="M75,45.11A2.31,2.31,0,1,1,72.7,42.8,2.31,2.31,0,0,1,75,45.11Z" style="fill:#fff"/><path d="M73.86,45.11A1.16,1.16,0,1,1,72.7,44,1.16,1.16,0,0,1,73.86,45.11Z" style="fill:#2c2f38"/><path d="M75,50.88a2.31,2.31,0,1,1-2.31-2.31A2.3,2.3,0,0,1,75,50.88Z" style="fill:#fff"/><path d="M73.86,50.88a1.16,1.16,0,1,1-2.31,0,1.16,1.16,0,0,1,2.31,0Z" style="fill:#2c2f38"/><path d="M72.7,44a1.16,1.16,0,0,1-2.21.47A2.35,2.35,0,0,1,72,42.9,1.17,1.17,0,0,1,72.7,44Z" style="fill:#fff"/><path d="M72.7,49.73a1.15,1.15,0,0,1-.91,1.12,1.18,1.18,0,0,1-1.3-.65A2.34,2.34,0,0,1,72,48.67,1.17,1.17,0,0,1,72.7,49.73Z" style="fill:#fff"/></svg>