<svg id="Layer_1" data-name="Layer 1" xmlns="http://www.w3.org/2000/svg" viewBox="0 0 100 100"><title>Allergy-Peanuts</title><path d="M98.5,49.7a48,48,0,1,1-48-48A48,48,0,0,1,98.5,49.7Z" style="fill:#f5cf51"/><path d="M39.83,43.16l-.56.55c-17.54,17-39.49-5-22.53-22.53l.55-.56c10.32-10.31,23.76-14,32.06-9.52C53.89,19.41,50.14,32.85,39.83,43.16Z" style="fill:#d58a2d"/><path d="M39.83,43.16l-.56.55A21.38,21.38,0,0,1,30,49.25a14.25,14.25,0,0,1-3.2-1.31A1.74,1.74,0,0,1,27,44.79a37.94,37.94,0,0,0,9.45-5.74c6.88-5.51,11-11.79,9.2-14a1.8,1.8,0,0,0-.19-.2c-2.12,3.27-6.13,7.48-11.18,11.53a64.45,64.45,0,0,1-10.71,7.07,1.75,1.75,0,0,1-2.26-.62,1,1,0,0,1-.11-.17,1.74,1.74,0,0,1,.51-2.35,66.8,66.8,0,0,0,8.77-7.62c5.49-5.49,9.35-10.53,8.62-11.26S33.29,24.51,27.8,30A84.91,84.91,0,0,0,22,36.32a1.74,1.74,0,0,1-3.09-1v0a1.74,1.74,0,0,1,.25-1,70.43,70.43,0,0,1,5.36-7.63A54.91,54.91,0,0,1,36.07,15.45a1.62,1.62,0,0,0-.19-.18,2.19,2.19,0,0,0-1.53-.42.48.48,0,0,1-.28-.89A33.88,33.88,0,0,1,45.25,9.61a15.2,15.2,0,0,1,4.1,1.49C53.89,19.41,50.14,32.85,39.83,43.16Z" style="fill:#e2902a"/><path d="M30.77,62l.42-.41c13.51-12.86,38,11.67,25.19,25.18l-.42.43c-7.88,7.88-19.87,9-28.48,3.28C21.74,81.85,22.89,69.87,30.77,62Z" style="fill:#bb5335"/><path d="M41.53,59.59c.21-.21.41-.42.63-.62s.53-.5.79-.73c11.88,2.34,23,18.47,13.43,28.51l-.42.43a22.89,22.89,0,0,1-24.7,5.28C28.43,81.92,32,69.1,41.53,59.59Z" style="fill:#d25e3e"/><path d="M52.22,74.87a11.79,11.79,0,0,1-9.75.61,11.81,11.81,0,0,1,.6-9.76A12,12,0,0,1,35,59v0C47.42,53.57,64.38,70.52,59,82.93h0A12,12,0,0,1,52.22,74.87Z" style="fill:#e5846a"/><path d="M90.37,54a6.6,6.6,0,0,1,4,11.17l-.08.08C85.48,74,70,72.79,59.78,62.55s-11.43-25.7-2.66-34.47L57.2,28A6.61,6.61,0,0,1,68.38,32a24.86,24.86,0,0,0,7.31,14.69A24.83,24.83,0,0,0,90.37,54Z" style="fill:#fae8b1"/><path d="M96,62.12C87.13,66.7,75,64.46,66.41,55.92S55.62,35.2,60.21,26.31A6.63,6.63,0,0,1,68.38,32a24.86,24.86,0,0,0,7.31,14.69A24.83,24.83,0,0,0,90.37,54,6.63,6.63,0,0,1,96,62.12ZM9.56,53.68a4.7,4.7,0,0,0,1.26,5.24,4.7,4.7,0,0,0,5.24,1.26,4.66,4.66,0,0,0-1.26-5.24A4.66,4.66,0,0,0,9.56,53.68ZM81.23,33.56a4.7,4.7,0,0,0,1.26-5.24,4.7,4.7,0,0,0-5.24,1.26A4.69,4.69,0,0,0,76,34.82,4.69,4.69,0,0,0,81.23,33.56Z" style="fill:#fbf1d1"/><path d="M70,86.06a4.69,4.69,0,0,1-5.24,1.26,5.16,5.16,0,0,1,6.5-6.5A4.7,4.7,0,0,1,70,86.06Zm-2.22-66a4.69,4.69,0,0,0-1.26-5.24,4.66,4.66,0,0,0-5.24-1.26,4.7,4.7,0,0,0,1.26,5.24A4.69,4.69,0,0,0,67.76,20.09ZM40.36,49.21a5.17,5.17,0,0,0,6.51,6.5,4.69,4.69,0,0,0-1.27-5.24A4.69,4.69,0,0,0,40.36,49.21Z" style="fill:#a0452c"/></svg>