<svg id="Layer_1" data-name="Layer 1" xmlns="http://www.w3.org/2000/svg" viewBox="0 0 916.17 151.17"><title>AlumniLogo</title><path d="M112.6,115.4h-65l-12.4,30H2L64.4,5.4h32l62.6,140H125ZM102.4,90.8,80.2,37.2,58,90.8Z"/><path d="M188.6,5.4H221V119h70.2v26.4H188.6Z"/><path d="M338.1,131.2q-16.69-16.6-16.7-47.4V5.4h32.4V82.6q0,37.61,31.2,37.6,15.19,0,23.2-9.1t8-28.5V5.4h32V83.8q0,30.8-16.7,47.4t-46.7,16.6Q354.8,147.8,338.1,131.2Z"/><path d="M622.6,145.4l-.2-84-41.2,69.2H566.6l-41-67.4v82.2H495.2V5.4H522l52.4,87L626,5.4h26.6l.4,140Z"/><path d="M829.6,5.4v140H803l-69.8-85v85h-32V5.4H728l69.6,85V5.4Z"/><path d="M877.8,5.4h32.4v140H877.8Z"/></svg>