<svg xmlns="http://www.w3.org/2000/svg" viewBox="0 0 771 705"><title>cancer_header</title><g id="Shadow"><g style="opacity:0.5"><path d="M353.08,613c-22,.06-43.93.59-65.85,3-8.27.92-16.36,3-24.65,3.78-16.55,1.64-32.8,4.69-49.41,6.1-13.37,1.14-26.8,1.81-40.14,3.25A140.57,140.57,0,0,1,134.28,628c-9.19-1.65-18.41-2.58-27.44-5.24-10.11-3-21.08-5.09-31.61-5-15,.11-29.62.12-44,5.36-5,1.84-11.21,4.87-15,8.73-8.77,8.84-9.95,30.9-1.2,40.07,14.74,15.43,46.2,21.48,66.86,21.77,22.65.31,44.64-1.38,67.32-2.37,21.07-.93,42.08-2.24,63.19-2.19,43.1.09,86.21,0,129.24-2.9,40.42-2.72,80.95-1.79,121.46-1.79,41.54,0,82.81.33,124.05,5.89,18,2.41,36.28,3.26,54.34,5,16.18,1.52,31.72,0,47.83-1.44a113.4,113.4,0,0,0,39.26-10.58c9.73-4.67,27.07-19.2,30.05-30.36,8.37-31.3-117.87-30.55-137.25-30.47-21.68.07-43.54.79-65.2,0-9.12-.35-18.1-2.14-27-4.1s-17.79-1.46-26.77-2.28c-37.47-3.43-75-2.93-112.6-2.93C377.56,613.08,365.32,613,353.08,613Z" style="fill:#eed5d5"/></g></g><g id="Object"><polygon points="719.14 228.69 714.31 216.67 709.08 218.51 710.56 227.48 707.69 227.2 713.08 236.99 718.77 235.81 719.14 228.69" style="fill:#eac1a4"/><polygon points="676.94 318.89 717.58 291.99 710.14 234.28 721.56 232.52 745.43 298.7 687.53 346.57 676.94 318.89" style="fill:#d67086"/><path d="M31.91,199.76l79.92,79.37,12.57-32.71L37.49,159.65c-9.76-9.63-10.12-22.59-10.12-22.59-2.14,5.42-4.36,10.8-6.47,16.23-3,7.7-7.37,16.4-4.88,23.77C19,185.92,25.4,193.42,31.91,199.76Z" style="fill:#4f5dc1"/><path d="M37.49,159.65l.07.07,0-.09c1.29-5.07,11.8-6.68,11.8-6.68s10.39-2.23,13.4,2l.07.07,0-.09c5.27-11.58,2-22.95,1.45-24.52l-.09-.18S61.7,125,44.8,128.06s-17.4,9-17.4,9l0,.2C27.47,138.9,28.43,150.71,37.49,159.65Z" style="fill:#3742a5"/><path d="M82.46,190.45,36.16,293.06,12.72,267,62.91,155c5.68-12.47,1.39-24.7,1.39-24.7,3.93,4.3,7.93,8.53,11.85,12.85,5.54,6.13,12.74,12.69,13,20.47C89.56,172.93,86.27,182.22,82.46,190.45Z" style="fill:#5d66d3"/><polygon points="78.07 200.16 67.01 234.61 63.92 231.54 78.07 200.16" style="fill:#3742a5"/><polygon points="75.72 639.11 74.82 646.16 88.01 655.02 95.96 648.88 89.82 640.92 76.63 632.06 75.72 639.11" style="fill:#353a85"/><polygon points="75.28 636.74 85.45 546.85 73.21 446.2 75.96 424.8 130.63 422.72 132.61 457.56 123.43 546.98 88.9 641.34 75.28 636.74" style="fill:#292949"/><polygon points="135.77 323.25 163.27 330.74 189.24 351.99 237.38 331.11 242.7 344.49 190.94 378.93 158.8 375.94 135.77 323.25" style="fill:#3b3387"/><polygon points="170.75 432.79 170.89 523.51 152.63 640.3 139.49 640.17 132.26 532.17 115.36 424.07 170.75 432.79" style="fill:#292949"/><polygon points="139.51 645.71 153.65 652.96 160.83 645.92 153.79 638.74 139.58 638.6 139.51 645.71" style="fill:#353a85"/><path d="M67.55,463.65c.13-3.93.35-7.22.38-8.39.28-10.54,1.22-21.06,2.54-31.54,1.18-9.38,2.67-32.67,4.28-42,1.33-7.7,6-26.92,9.28-34.06,8.31-17.76,5.74-19.4,42.21-24.67,16-2.32,19.76,7.65,32.82,19.1,1.29,1.13,1.22,7.85,1.52,9.64.53,3.13,1.09,6.26,1.74,9.38.51,2.45,1.07,4.89,1.7,7.32h0s11,49.91,18.23,60.52,22.24,25.42-2.83,34.47A90.12,90.12,0,0,1,165.87,467s-20.5-2.28-31-2.2a179.6,179.6,0,0,0-29,2.7c-6.38,1.07-12.9,2.62-18.61,5.6-5.45,2.85-9.38,7-14.91,10a2.87,2.87,0,0,1-1.69.49C67.44,483.08,67.29,471.92,67.55,463.65Z" style="fill:#3b3387"/><path d="M20.12,291.33s5.27-2.48,5.27-3.15S24.7,278,24.7,278l-3.39-2L20,272s4.05-6.76,3.38-8.79-6.09,6.76-6.09,6.76l-2,5.42-.67,8.79Z" style="fill:#d6c7ac"/><path d="M126.28,328c-1.84.91-6.18,1.24-10.71-.54a2.35,2.35,0,0,1-1.52-2.21,63.11,63.11,0,0,1,.66-8.23c-3.4-1.19-7.32-3-7.91-6.54a9.9,9.9,0,0,1,.2-3.38q1.19-6.93,2.39-13.86a12.43,12.43,0,0,1,1.44-4.61c1.53-2.41,4.49-3.46,7.29-3.94,7.16-1.25,15,.3,20.5,5a11.1,11.1,0,0,1,3.47,4.57c1,2.8.25,5.9-.51,8.78-.7,2.66-1.39,5.32-2.09,8-.81,3.06-2,6.54-4.92,7.68-1.56.61-3.41.43-4.83,1.34C127.24,321.62,127.58,325.33,126.28,328Z" style="fill:#eac1a4"/><path d="M167.58,281.91a29.36,29.36,0,0,1,2.31-3.32c1.83-2.26,4.09-4.2,5.57-6.71s2-5.91.23-8.23a9,9,0,0,0-4.81-2.76,34.88,34.88,0,0,0-18.36-.34c-5.71,1.45-10.83,3.86-16.59,1.71-5.41-2-9.31-1.19-15,.82-6.12,2.19-14.33,2.7-19.87,5.78a16.4,16.4,0,0,0-5.59,5.52,24.61,24.61,0,0,0-.07,26,35,35,0,0,0,3.83,4.83c2.88,3.13,6.34,7,10.31,8.16.09-3.55-3.14-14.75-.42-17.66,4.33-4.62,14.12-3,19.49-1.87,5.85,1.24,11.07,5.38,16.88,6.27,4.18.64,9.51-1.41,13.06-3.57C163,293.89,165,286.12,167.58,281.91Z" style="fill:#292949"/><polygon points="94.34 330.8 65.65 338.17 31.11 284.47 16.52 288.4 40.83 365.71 96.76 372.44 94.34 330.8" style="fill:#3b3387"/><polygon points="580.03 225.33 574.11 208.58 566.85 210.8 568.36 223.16 564.43 222.62 571.24 236.33 579.11 235.05 580.03 225.33" style="fill:#aa6755"/><polygon points="572.09 484.65 574.69 544.96 567.07 647.5 555.66 648.32 541.8 555.18 522.63 476.36 572.09 484.65" style="fill:#292949"/><polygon points="556.07 653.12 568.84 658.41 574.57 651.8 567.97 646.08 555.63 646.95 556.07 653.12" style="fill:#353a85"/><polygon points="491.35 463.31 488.84 508.89 496.27 644.44 507.69 645.01 524.81 556.11 539.9 458.62 491.35 463.31" style="fill:#292949"/><polygon points="507.38 649.83 494.73 655.38 488.86 648.9 495.34 643.03 507.69 643.65 507.38 649.83" style="fill:#353a85"/><path d="M557.75,329l-35.64-3.82s-19.82,2.12-33.28,49.2c-7.48,26.2-9.76,67.47-10.31,98.93.85,4.49,5.74,24.15,26.41,20.81,35.51-5.72,54.41-11.45,69.87-8.59,13.17,2.87,12.06-15.27,10.61-29.11l-5.25-42.82Z" style="fill:#e0e0e2"/><path d="M550.87,284.65c-9-2-18.23-3.76-27.22-2-2,.39-4.08,1.08-5.15,2.78a7.64,7.64,0,0,0-.84,2.17c-2.27,8.43-5.15,20.94.41,28.71a13.83,13.83,0,0,0,4,3.61,19.6,19.6,0,0,0,6.64,2.61,35.35,35.35,0,0,1-2,6.12c2.06,3.11,11.65,3.48,13.42.5l.3-7.71a18.82,18.82,0,0,0,3.36-1.75,21.71,21.71,0,0,0,8.37-11.38c1.7-5,4.11-9.73,5.67-14.82.57-1.85,1-4,0-5.65s-3.28-2.39-5.29-2.83Z" style="fill:#aa6755"/><path d="M521,289.47a27.9,27.9,0,0,1,15.28-3.78c12.62.91,17.24,10.18,17.91,21.78,3.48-4.41,10-10,10.4-15.66.32-4.65-.32-11-2.93-15-2.44-3.76-8.68-5.83-12.39-8l-10.49-6.16a7.2,7.2,0,0,0-2.31-1,7.1,7.1,0,0,0-3,.33l-24.8,6.41c-1.59.41-3.39,1-4,2.54a5.12,5.12,0,0,0,.07,2.95c.94,4.29,2.74,8.68,3.18,13,.51,2.52,2,15.47,6.49,14,1.31-2.14,1.51-4.79,2.53-7.09A10.24,10.24,0,0,1,521,289.47Z" style="fill:#292949"/><polygon points="522.11 325.19 508.94 329.2 460.83 379.6 457.97 396.2 480.97 434.18 487.18 420.26 477.44 392.19 492.9 381.31 513.52 334.93 522.11 325.19" style="fill:#e0e0e2"/><polygon points="550.19 332.06 574.69 305.59 568.92 233.87 579.68 229.14 594.33 301.9 589.84 320.03 562.38 357.92 550.19 332.06" style="fill:#e0e0e2"/><path d="M486.54,138.6l70,102.7L577,208.47,501,96.3c-8.56-12.47-6.25-26.59-6.25-26.59-3.45,5.43-7,10.79-10.4,16.24-4.85,7.71-11.41,16.22-10.25,24.73C475.45,120.91,480.81,130.38,486.54,138.6Z" style="fill:#7399dd"/><path d="M501,96.3l.06.09.07-.09c2.45-5.22,14.17-4.77,14.17-4.77s11.73-.26,14.1,5l.07.09.06-.09c8.13-11.44,6.9-24.46,6.68-26.26l0-.22s-1.68-6.3-20.64-6.45-20.74,6.11-20.74,6.11l-.06.21C494.44,71.72,493,84.72,501,96.3Z" style="fill:#5c87c6"/><path d="M543.26,139.06,471.67,240.59l-19.95-33.15L529.49,96.53c8.75-12.32,6.65-26.48,6.65-26.48C539.51,75.53,543,81,546.3,86.46c4.73,7.8,11.16,16.41,9.87,24.9C554.62,121.57,549.11,130.94,543.26,139.06Z" style="fill:#8cabef"/><polygon points="536.48 148.68 517.3 183.7 514.59 179.72 536.48 148.68" style="fill:#5c87c6"/><path d="M642.86,171.54,699.52,273l21.77-28.86L659.8,133.36c-6.94-12.31-3.62-25.27-3.62-25.27-3.66,4.77-7.39,9.47-11,14.26-5.15,6.78-12,14.15-11.59,22.17C634,154.16,638.21,163.41,642.86,171.54Z" style="fill:#ddbaba"/><path d="M659.8,133.36l.05.09.06-.08c2.72-4.65,13.59-3.26,13.59-3.26s10.94.74,12.71,5.83l0,.09.07-.08c8.52-10,8.45-22.2,8.4-23.9l0-.2s-1-6-18.68-7.72-19.81,4-19.81,4l-.07.19C655.76,110,653.35,121.93,659.8,133.36Z" style="fill:#cea1a1"/><path d="M695.62,176.68l-75.07,88.57-15.82-32.53L686.33,136c9.17-10.75,8.39-24.1,8.39-24.1,2.68,5.38,5.44,10.72,8.09,16.12,3.76,7.65,9,16.2,7.12,24C707.64,161.34,701.74,169.6,695.62,176.68Z" style="fill:#eed5d5"/><polygon points="688.51 185.06 667.75 216.07 665.55 212.15 688.51 185.06" style="fill:#cea1a1"/><polygon points="655.78 645.92 655.97 647.9 656.6 654.51 669.97 660.23 675.7 653.19 668.7 647.03 668.06 646.75 667.98 647.57 655.78 645.92" style="fill:#353a85"/><path d="M655.1,645.82l.68.1-.44-4.62,12.72,5.45L678.64,535.3l1.3-5.27c-10,.15-21.88.3-33.86.39Z" style="fill:#eac1a4"/><polygon points="655.78 645.92 667.98 647.57 668.06 646.75 655.34 641.3 655.78 645.92" style="fill:#909497"/><path d="M601.65,530.36l2.46,29.18,24.68,75.64,12.05-1.61.2,1.48h.07l-8.89-77.95,7.61-26.62C625.84,530.55,612.15,530.55,601.65,530.36Z" style="fill:#eac1a4"/><polygon points="628.79 635.17 628.03 635.28 622.51 642.85 629.81 648.71 641.74 640.29 641.04 635.05 629.26 636.62 628.79 635.17" style="fill:#353a85"/><polygon points="628.79 635.17 629.26 636.62 641.04 635.05 640.84 633.57 628.79 635.17" style="fill:#3e3d3b"/><path d="M685.27,360.73c1.55,7.3,7.33,12.65,13,17.72a307.12,307.12,0,0,0-12.64-28.2A25,25,0,0,0,685.27,360.73Z" style="fill:#d67086"/><path d="M707.22,410.57a20,20,0,0,1-4.94,3.73c-4.62,2.47-10,3.25-15.23,3.24-4.2,0-8.46-.48-12.56.41s-8.16,3.57-9.2,7.64c-.57,2.25-.38,5.07-2.32,6.33a5.93,5.93,0,0,1-3.15.68c-3.32.09-7.09,0-9.32-2.46-3.46-3.81-1.44-11.46-6.11-13.62-1.36-.64-2.94-.54-4.43-.79-6.31-1.07-9.39-8.21-8.79-14.77A16.29,16.29,0,0,1,632,397c2.6-7.27,8.65-12.67,13.22-18.9,8.94-12.16,15-28.4,9.48-42.79a40.08,40.08,0,0,1-1.45-4.11,9.81,9.81,0,0,1-.35-2.34c-.08-4.29,3.11-7.83,5.18-11.59q.28-.53.54-1.11A19.27,19.27,0,0,0,659.7,313l-.89.42a14.33,14.33,0,0,1-7.07,3.37L627,328.63,617.06,369l-6.81,27.72-.1.41-25.6,132.42c3.05.39,9.17.63,17.1.77,10.5.19,24.19.19,38.18.11l6.25-.05c12-.09,23.86-.24,33.86-.39,15.33-.22,26.23-.44,26.23-.44S715.49,461.15,707.22,410.57Z" style="fill:#d67086"/><path d="M571.46,392.27c-1.5-.79-13.82,0-13.23,1.16a21.86,21.86,0,0,0,2.43,3.52c-3.73,1.43-14.9,3-8.11,8.24,2.94,2.25,12,1.53,15-.19l.2-.11L574,394.52A6.2,6.2,0,0,0,571.46,392.27Z" style="fill:#e2d0b5"/><path d="M627.09,369.12l-53,25.27-.08.13-6.23,10.37-1.62,2.69c25.78,1.41,51.8-9.3,77.46-15.16Z" style="fill:#d67086"/><path d="M651.74,316.83a14.33,14.33,0,0,0,7.07-3.37Z" style="fill:#eac1a4"/><path d="M652.92,280.66c-2.65-2.33-5.67-2.75-9-2.78-1.6,0-2.13.4-2.95.26a3.92,3.92,0,0,1-1.4-.62c-1.21-.75-2.28-2.71-2.85-4.31-3.12,2-5.39,5.54-6,11-.68,5.9-.67,12.13,1.36,18s6.34,11.47,11.94,13.66c.33.13.65.24,1,.34a14.27,14.27,0,0,0,6.79.61l7.07-3.37c.35-.3.69-.61,1-.94C662.15,302.47,659.64,286.59,652.92,280.66Z" style="fill:#eac1a4"/><path d="M700.56,380.54l-2.32-2.09c.51,1.32,1,2.65,1.53,4s1,2.73,1.51,4.12c.33.9.64,1.81.94,2.74-.3-.93-.61-1.84-.94-2.74-.5-1.39-1-2.77-1.51-4.12s-1-2.69-1.53-4c-5.64-5.07-11.42-10.42-13-17.72a25,25,0,0,1,.33-10.48c1.2-5.61,3.47-11.23,4.06-17,1-9.82.21-23.92-2.18-33.52-2.57-10.27-8.15-19.56-14.85-27.65-8.13-9.81-23.24-20.79-33.94-7.94l-.36.45a19.73,19.73,0,0,0-3.63-1.4c-7.4,6.23-9.3,16.25-8.52,25.46s5.43,19.69,2.8,28.84a9.88,9.88,0,0,0-.57,2.66,2.37,2.37,0,0,0,1.29,2.22,3.37,3.37,0,0,0,1.64.07c4.53-.59,9.45-1.37,12.52-4.75a7.63,7.63,0,0,0,1.09-1.51c-.33-.1-.65-.21-1-.34-5.6-2.19-9.92-7.75-11.94-13.66s-2-12.14-1.36-18c.63-5.43,2.9-9,6-11,.57,1.6,1.64,3.56,2.85,4.31a3.92,3.92,0,0,0,1.4.62c.82.14,1.35-.27,2.95-.26,3.36,0,6.38.45,9,2.78,6.72,5.93,9.23,21.81,6.91,31.86,6.34-6.32,8.88-18.06,4.7-26.84-.23-.49-.48-1-.75-1.46.27.48.52,1,.75,1.46,4.18,8.78,1.64,20.52-4.7,26.84,0,.17-.08.34-.13.52a19.27,19.27,0,0,1-1.05,3.14q-.25.58-.54,1.11c-2.07,3.76-5.26,7.3-5.18,11.59a9.81,9.81,0,0,0,.35,2.34,40.08,40.08,0,0,0,1.45,4.11c5.5,14.39-.54,30.63-9.48,42.79-4.57,6.23-10.62,11.63-13.22,18.9a16.29,16.29,0,0,0-.86,3.94c-.6,6.56,2.48,13.7,8.79,14.77,1.49.25,3.07.15,4.43.79,4.67,2.16,2.65,9.81,6.11,13.62,2.23,2.47,6,2.55,9.32,2.46a5.93,5.93,0,0,0,3.15-.68c1.94-1.26,1.75-4.08,2.32-6.33,1-4.07,5.1-6.74,9.2-7.64s8.36-.42,12.56-.41c5.24,0,10.61-.77,15.23-3.24a20,20,0,0,0,4.94-3.73c-.18-1.08-.36-2.16-.56-3.22.2,1.06.38,2.14.56,3.22a15.84,15.84,0,0,0,4.37-8.28C713,393.92,706.84,386.26,700.56,380.54ZM652.77,273.61a25.27,25.27,0,0,1,2.55,1.49A25.27,25.27,0,0,0,652.77,273.61Z" style="fill:#292949"/><polygon points="186.54 254.23 184.64 241.41 190.08 240.36 193.33 248.85 195.67 247.16 195.96 258.33 190.45 260.18 186.54 254.23" style="fill:#aa6755"/><polygon points="268.88 320.83 219.84 308.08 197.13 254.51 186.38 258.76 199.18 327.94 255.67 357.03 268.88 320.83" style="fill:#dddae8"/><polygon points="224.63 640.82 223.97 647.25 236.17 654.98 243.24 649.21 237.47 642.13 225.28 634.4 224.63 640.82" style="fill:#353a85"/><polygon points="224.15 444.89 222.17 464.4 239.59 551.57 224.16 638.69 236.65 642.53 277 538.95 279.22 507.28 273.75 441.69 224.15 444.89" style="fill:#353a85"/><polygon points="318.75 451.53 319.15 533.94 302.9 640.08 290.97 640 284.08 541.91 268.4 443.77 318.75 451.53" style="fill:#353a85"/><polygon points="291 645.03 303.87 651.58 310.37 645.16 303.95 638.66 291.04 638.58 291 645.03" style="fill:#353a85"/><path d="M328.81,439.44c-8.62-26.68-9.53-54.7-12-82.5-.74-8.2-1.53-16.58-4.94-24.07-3.92-8.61-10.4-13.15-17.95-15.63-9.61-3.16-20.95-3-30.94-3.58-9.48-.3-17.87,35.33-27.54,52.61-5.93,10.59-12,20-16,31.5-3.84,11.08-7.52,22.36-9.75,33.89-3.37,17.41-12,29.57-3.76,35.49.75.25,1.48.5,2.17.75a202.92,202.92,0,0,0,41.7,10.29,166.38,166.38,0,0,0,38.11.72c17.35-1.71,34.15-4.16,49.45-13.2Q333,452.57,328.81,439.44Z" style="fill:#dddae8"/><path d="M258.3,287.13c5.4-16.3,29.19-22,34.72-3,1.66,5.69,2.67,11.73,1.54,17.56s-4.69,11.41-10.12,13.8l-.1,0c.21,1.51.43,3,.64,4.54a1,1,0,0,1-1.09,1.4l-5.41.81a6.1,6.1,0,0,1-2.69,0c-1.88-.61-2.67-2.87-2.75-4.84,0-.48,0-1,0-1.43C262.35,312.3,254.77,297.79,258.3,287.13Z" style="fill:#aa6755"/><path d="M287.29,259.29c4.35-.65,8.06,3.58,12.08,5.8,3.35,1.84,7.14,2.33,10.6,3.86s6.88,4.72,6.95,8.72c3.51-1.83,7.32-3.7,11.25-2.94s7.59,5.45,6,9.33c-1.4,3.47-5.92,4.28-7.43,7.7-2.38,5.4,4.06,13.78-.34,17.37-1.05.86-2.49,1.07-3.53,1.95-1.29,1.1-1.7,3-2.28,4.68-2.6,7.62-10.28,12.6-17.87,11.58a20.11,20.11,0,0,1-10.16-12c-2-6.3,1.34-8.5,1.91-14.41A25.82,25.82,0,0,0,289,282.58c-2.65-3.26-6.44-6.08-10.44-6.46-1.63-.16-1.12,1.2-3-.06a8.07,8.07,0,0,1-2.08-3.56C277.89,269,281.55,260.15,287.29,259.29Z" style="fill:#292949"/><path d="M240.17,267.67c-2.25.63-4.69.54-6.83,1.48-3.22,1.41-3,4.75-3.93,7.65-1,3.21-2.48,7.52-4.6,10-1.52,1.8-3.66,2.83-5.52,4.22s-3.56,3.43-3.52,5.94,1.63,4.5,1.86,6.86c.29,3.54-.33,5.34.76,8.95.56,1.86,1.19,3.84,2.59,5.11,1.84,1.67,4.47,1.64,6.77,1.25s4.68-1,7-.26c4.92,1.66,4,6.64,5.31,10.82,2,6.35,9.37,10.06,15,7.8,4.78-1.91,7.54-7.46,7.33-12.94-.11-2.75-1.2-5.3-1.28-8.05s1.41-6.31-1-8.41a22.83,22.83,0,0,1-1.86-1.37,3.83,3.83,0,0,1-.8-1.73,7.63,7.63,0,0,1,1.26-6.26c.93-1.2,2.25-2.08,2.82-3.53.65-1.67.14-3.61,0-5.45a11,11,0,0,1,5.87-10.53c2.44-1.13,4.64-1.8,6.77-3.52.33-.26,5.18-4.55,5.31-3.62a9.68,9.68,0,0,0-2.12-4.32,19.2,19.2,0,0,0-5.52-5.48c-7.14-4.12-7.49,5.46-13.22,4.2-1.39-.31-2.43-1.58-3.68-2.33-2.35-1.43-5.24-.92-7.64.15S242.7,267,240.17,267.67Z" style="fill:#292949"/><path d="M228.89,125.37l114,151.39,28.81-51.45L247.82,59.92c-13.94-18.37-11.42-40-11.42-40-4.87,8.5-9.87,16.93-14.69,25.47-6.83,12.1-16.21,25.52-13.83,38.4C210.73,99.23,219.57,113.26,228.89,125.37Z" style="fill:#c4607a"/><path d="M247.82,59.92l.1.14.09-.14c3.36-8.12,21.25-8.28,21.25-8.28s17.84-1.22,21.83,6.61l.1.14.09-.15c11.56-18,8.76-37.74,8.3-40.47l-.1-.32s-3-9.48-31.9-8.36-31.14,10.79-31.14,10.79l-.07.33C236.12,23,234.88,42.87,247.82,59.92Z" style="fill:#af4b6a"/><path d="M315.29,122,213.53,281.77,180.77,232.7,291.28,58.24c12.45-19.39,8.24-40.8,8.24-40.8,5.52,8.11,11.16,16.13,16.64,24.26,7.76,11.54,18.17,24.2,16.81,37.22C331.34,94.57,323.62,109.24,315.29,122Z" style="fill:#d67086"/><polygon points="305.66 137.15 278.95 191.85 274.54 186 305.66 137.15" style="fill:#af4b6a"/><polygon points="339.77 232.99 335.46 220.77 330.15 222.39 331.26 231.41 328.39 231.01 333.36 241.01 339.1 240.08 339.77 232.99" style="fill:#aa6755"/><polygon points="293.77 321.31 335.52 296.15 330.55 238.19 342.03 236.91 363.06 304.05 303.17 349.42 293.77 321.31" style="fill:#dddae8"/><polygon points="394.26 327.46 402.69 334.25 401.72 349.3 384.63 384.62 331.89 392.27 313.36 392.52 310.5 387.3 314.65 382.4 322.73 381.84 322.79 377.28 330.95 380.06 366.87 371.37 385.6 340.56 394.26 327.46" style="fill:#eac1a4"/><path d="M374.42,643l12.26-10.45c3.5-1.6,7.18-2.66,10.12-2.51a5.67,5.67,0,0,1,4.88,2.53,5.74,5.74,0,0,1,.32,5.29,6.87,6.87,0,0,1-1.09,1.62h0c-.37.43-.77.83-1.17,1.23l-.83.8c-2.56,2.55-6.83,6.71-8.5,7.62-2.44,1.34-7.85,4.94-13.88.4l.08-.06A6,6,0,0,1,374.42,643Z" style="fill:#353a85"/><path d="M387.52,548.27l.4,13.75,2,66.9-5,7.58s-1.2,6.16,6,6c2.13-.05,10.06-9.34,10.06-9.34l-.91-4.44,7.32-49.88.54-14.55,3.19-16.06Z" style="fill:#eac1a4"/><path d="M459.33,629.45c2.22-.6,4.27-.42,5.86.95a6.22,6.22,0,0,1,2.12,5.32,11.57,11.57,0,0,1-1.37,3.7c-3.11,6.07-11.68,19.74-20.76,16.81-3.82-1.24-5.12-5.24-4.2-8.69C442.37,642.34,451.87,631.47,459.33,629.45Z" style="fill:#353a85"/><path d="M416.48,541.42l.81,19.8,35.93,71.3s-6,9.5-2.46,10.49,14-1.54,14.43-12.53c-3.54-13.46-17.73-59.28-17.73-59.28l-7-12,1-21.9Z" style="fill:#eac1a4"/><path d="M462.9,477.13c.54-5.81-.71-21.06-2.41-26.57-6.17-20.11-7.12-29.94-6.47-46.08s1.26-63.8,1.26-63.8l-9.66-19.09-35.87-.44-15.49,6.31s-7.38,62.74-9.21,83.45c-1.31,14.78-2.85,27.56-4.9,44.67,0,0-5.36,39-1.19,81.18,0,0,.75,14,1.29,15.23.06.41.1.64.1.64h.24l66.31,2.66,1-23.91q3.76-11.37,7.24-22.86C458.06,498.81,461.9,487.9,462.9,477.13Z" style="fill:#474ebb"/><path d="M403,299.48c-1.68,5.57,1.44,11.27,4.17,16.14,1.12,2,2.86,4.76,1.23,6.91-1.83,2.41-6.09,1.74-7.9-.19a11.49,11.49,0,0,1-2.36-4.92c-2.23-7.85-5.35-18.85-4.32-27,.82-6.51,9.3-17.79,17.39-13.31a8.61,8.61,0,0,1,3.13,3.7,6.7,6.7,0,0,1,1,2.69c.24,3.8-3.45,4.63-5.93,6.56A19.2,19.2,0,0,0,403,299.48Z" style="fill:#292949"/><path d="M416,320.26c-5.49-.92-9.94-5-12.22-9.7s-2.66-10.1-2.35-15.3c1-17.32,24-17.36,32.46-4.55C441.24,301.88,432,322.94,416,320.26Z" style="fill:#eac1a4"/><path d="M432.57,298.85c.1,2.11,1.08,4.38,1.29,6.54.38,4-.72,9.1.59,12.79a24.44,24.44,0,0,0,12.15-5.36c3.16-2.7,2.78-6.92,3.63-11.05.78-3.82,1.74-7.66,1.68-11.56-.35-21.36-21.14-33.86-40.26-25-7.24,3.35-10.71,12.47-5.74,18.75,5.34,6.76,16.85,4.38,23.37,9.5A11.43,11.43,0,0,1,432.57,298.85Z" style="fill:#292949"/><path d="M415.61,318.45c.22,1.31.45,2.61.68,3.91.1.59,0,2.29.48,2.71a1.36,1.36,0,0,0,1,.18c1-.08,10-.86,9.89-1.43a32.16,32.16,0,0,0-.84-4.5c-.34-1.19-.4-3.41-1.07-4.32a16.15,16.15,0,0,1-4.95,2q-2.61.63-5.25,1.17Z" style="fill:#eac1a4"/><path d="M383.78,363.73c-15.56-1.57-35.33,6.36-40.28,19.57-4.41-13.4-28.16-22.06-43.76-21.1-41.19,2.54-56,48.12-39.19,79.31,9.05,16.78,22.25,31.56,36.7,44.88,12.11,11.16,43.43,34.93,43.53,34.85.09.08,32.33-22.43,44.86-33.1,15-12.74,28.75-27,38.46-43.4C442.14,414.25,424.83,367.9,383.78,363.73Z" style="fill:#d67086"/><polygon points="443.46 321.69 454.98 322.22 463.61 335.82 471.13 377.05 420.19 424.01 404.42 435.93 398.68 433.23 399.17 426.38 405.76 420.79 402.94 416.83 411.7 414.08 450.87 372.89 444.26 338.45 443.46 321.69" style="fill:#eac1a4"/></g></svg>