<svg id="Layer_1" data-name="Layer 1" xmlns="http://www.w3.org/2000/svg" viewBox="0 0 191.54 53.67"><title>CityLogo</title><path d="M15.05,49.54a25,25,0,0,1-9.79-9.29A25.63,25.63,0,0,1,1.7,26.82,25.62,25.62,0,0,1,5.26,13.4a25,25,0,0,1,9.79-9.29,29.13,29.13,0,0,1,14-3.35A29.49,29.49,0,0,1,40.9,3.06a23.76,23.76,0,0,1,8.89,6.63L42.31,16.6a16.1,16.1,0,0,0-12.68-5.9,16.8,16.8,0,0,0-8.35,2.05,14.57,14.57,0,0,0-5.72,5.72,16.8,16.8,0,0,0-2.05,8.35,16.84,16.84,0,0,0,2.05,8.36,14.63,14.63,0,0,0,5.72,5.72A16.8,16.8,0,0,0,29.63,43a16,16,0,0,0,12.68-6l7.48,6.91a23.23,23.23,0,0,1-8.92,6.69A29.62,29.62,0,0,1,29,52.89,29,29,0,0,1,15.05,49.54Z"/><path d="M64.84,1.62H76.5V52H64.84Z"/><path d="M106.1,11.13H90V1.62h43.92v9.51H117.76V52H106.1Z"/><path d="M170.61,34.17V52H158.94V34L139.43,1.62h12.39L165.28,24l13.46-22.4h11.45Z"/></svg>