<?xml version="1.0" encoding="utf-8"?>
<!-- Generator: Adobe Illustrator 22.0.1, SVG Export Plug-In . SVG Version: 6.00 Build 0)  -->
<svg version="1.1" id="Layer_1" xmlns="http://www.w3.org/2000/svg" xmlns:xlink="http://www.w3.org/1999/xlink" x="0px" y="0px"
	 viewBox="0 0 423.1 48.2" enable-background="new 0 0 423.1 48.2" xml:space="preserve">
<g>
	<path fill="#00ADEE" d="M420,19.8c-1.4-0.8-3-1.4-4.6-1.8c-1.4-0.4-2.8-0.7-4.3-0.9V46v0.8h-0.8h-4.7h-0.8V46V17.1
		c-1.5,0.2-2.9,0.5-4.3,0.9c-1.6,0.5-3.2,1.1-4.7,1.8l-0.7,0.4l-0.3-0.8l-1.7-4l-0.3-0.6l0.6-0.3c1.1-0.6,2.2-1.1,3.3-1.5
		c1.1-0.4,2.3-0.8,3.5-1.1c1.2-0.3,2.5-0.5,3.7-0.7c1.2-0.2,2.5-0.2,3.8-0.2c1.3,0,2.5,0.1,3.8,0.2c1.3,0.2,2.5,0.4,3.7,0.7
		c1.2,0.3,2.4,0.7,3.6,1.1c1.2,0.4,2.3,1,3.3,1.6l0.6,0.3l-0.3,0.6l-1.6,4l-0.3,0.8L420,19.8z M380.1,30.9c-1.2,0-2.4,0.1-3.4,0.4
		c-1,0.3-1.9,0.6-2.6,1.1c-0.7,0.5-1.3,1-1.6,1.6c-0.3,0.6-0.5,1.3-0.5,2c0,0.5,0.1,1,0.2,1.4c0.2,0.4,0.4,0.9,0.7,1.3
		c0.7,0.8,1.7,1.5,2.9,2c0.6,0.2,1.3,0.4,2.1,0.5c0.7,0.1,1.5,0.2,2.3,0.2c0.7,0,1.5-0.1,2.3-0.2c0.8-0.1,1.7-0.3,2.6-0.5
		c0.9-0.2,1.7-0.5,2.5-0.8c0.7-0.3,1.4-0.6,2-0.9l0.7-0.4l0.4,0.7l1.8,3.7l0.3,0.6l-0.6,0.4c-0.8,0.5-1.6,0.9-2.6,1.3
		c-0.9,0.4-2,0.7-3.1,1c-1.2,0.3-2.3,0.5-3.4,0.6c-1.1,0.1-2.2,0.2-3.3,0.2c-1.4,0-2.6-0.1-3.9-0.3c-1.2-0.2-2.4-0.5-3.5-1
		c-1.1-0.4-2.1-0.9-2.9-1.5c-0.9-0.6-1.6-1.3-2.2-2.1c-0.6-0.8-1.1-1.6-1.4-2.6c-0.3-0.9-0.5-1.9-0.5-2.9c0-1.2,0.2-2.3,0.6-3.3
		c0.4-1,1.1-2,1.9-2.9c0.8-0.9,1.8-1.6,2.9-2.1c0.4-0.2,0.8-0.4,1.2-0.5c-0.2-0.1-0.4-0.2-0.5-0.3c-0.9-0.5-1.7-1.1-2.3-1.9
		c-0.7-0.8-1.2-1.6-1.5-2.5c-0.3-0.9-0.5-1.8-0.5-2.8c0-1.9,0.6-3.6,1.7-5v0c0.6-0.7,1.2-1.4,2-1.9v0c0.8-0.5,1.6-1,2.6-1.4
		c1-0.4,2-0.7,3.1-0.9c1.1-0.2,2.3-0.3,3.5-0.3c0.9,0,1.9,0.1,2.8,0.2h0c0.9,0.1,1.9,0.3,2.9,0.5c1,0.2,1.8,0.4,2.6,0.7
		c0.8,0.3,1.5,0.6,2.2,0.9l0.6,0.3l-0.3,0.6l-1.6,3.7l-0.3,0.7l-0.7-0.3c-0.5-0.2-1.1-0.5-1.7-0.6c-0.6-0.2-1.3-0.4-2-0.5
		c-0.7-0.2-1.4-0.3-2.1-0.4c-0.7-0.1-1.3-0.1-2-0.1c-1.1,0-2.2,0.1-3.1,0.4c-0.9,0.2-1.7,0.6-2.4,1.1c-0.7,0.4-1.1,1-1.5,1.5h0
		c-0.3,0.5-0.5,1.1-0.5,1.8c0,0.6,0.1,1.2,0.4,1.7c0.3,0.5,0.7,0.9,1.3,1.3c0.6,0.4,1.4,0.7,2.2,0.9c0.8,0.2,1.8,0.3,2.9,0.3h6.8
		h0.8V26v4.1v0.8h-0.8H380.1z M363.2,46.7h-5.6h-0.4l-0.2-0.3l-11.4-15l-5.5,5.9V46v0.8h-0.8h-4.7h-0.8V46V11.9v-0.8h0.8h4.7h0.8
		v0.8V29l16.1-17.7l0.2-0.2h0.3h5.6h1.7l-1.2,1.3l-13.1,14.2l14,18.9l0.9,1.2H363.2z M312.7,30.3c1.4,0,2.6-0.2,3.7-0.5
		c1-0.3,1.9-0.7,2.6-1.3c0.7-0.6,1.2-1.3,1.5-2.1c0.3-0.8,0.5-1.9,0.5-3c0-1.1-0.2-2.1-0.5-2.9c-0.3-0.8-0.9-1.5-1.5-2h0
		c-0.7-0.6-1.6-1-2.6-1.3c-1.1-0.3-2.3-0.4-3.7-0.4h-7.9v13.5H312.7z M320.8,46.4L314.2,36c-0.2,0-0.4,0-0.6,0c-0.4,0-0.7,0-0.9,0
		h-7.9V46v0.8h-0.8h-4.7h-0.8V46V11.9v-0.8h0.8h13.3c2.2,0,4.2,0.3,6,0.8c1.8,0.5,3.3,1.3,4.5,2.4c1.3,1.1,2.2,2.4,2.9,3.9
		c0.6,1.5,0.9,3.2,0.9,5.2c0,1.4-0.2,2.8-0.5,4c-0.3,1.2-0.9,2.4-1.5,3.4c-0.7,1-1.5,1.9-2.5,2.6c-0.7,0.5-1.6,1-2.5,1.4l7.4,10.7
		l0.8,1.2h-1.4h-5.4H321L320.8,46.4z M284.9,25.9c0-1.5-0.2-2.8-0.6-4v0c-0.4-1.1-1-2.1-1.8-2.9c-0.8-0.8-1.7-1.4-2.8-1.8
		c-1.1-0.4-2.4-0.6-3.8-0.6c-1.4,0-2.7,0.2-3.8,0.6c-1.1,0.4-2,1-2.8,1.8c-0.8,0.8-1.4,1.8-1.8,2.9c-0.4,1.2-0.6,2.5-0.6,4v5.6h18
		V25.9z M260.7,25.9c0-1.5,0.2-2.9,0.5-4.3c0.3-1.3,0.8-2.6,1.4-3.7c0.6-1.1,1.4-2.1,2.2-3c0.9-0.9,1.9-1.6,3.1-2.2
		c1.1-0.6,2.4-1.1,3.8-1.4c1.4-0.3,2.8-0.5,4.3-0.5c3.1,0,5.8,0.6,8.1,1.8c1.2,0.6,2.2,1.4,3.1,2.2c0.9,0.9,1.6,1.9,2.3,3
		c0.6,1.1,1.1,2.4,1.4,3.7c0.3,1.3,0.5,2.7,0.5,4.3V46v0.8h-0.8h-4.7h-0.8V46v-8.8h-18V46v0.8h-0.8h-4.7h-0.8V46V25.9z M242,10.8
		c1.1,0,2.2,0.1,3.2,0.4c1,0.3,2,0.7,2.9,1.3c0.9,0.6,1.7,1.2,2.5,2c0.7,0.8,1.3,1.7,1.8,2.7l0,0c0.5,1,0.9,2.1,1.1,3.2
		c0.3,1.1,0.4,2.3,0.4,3.6v22v0.8h-0.8h-4.7h-0.8V46V25.1c0-0.8-0.1-1.6-0.2-2.3l0,0c-0.2-0.7-0.4-1.4-0.7-2
		c-0.3-0.6-0.7-1.2-1.1-1.7c-0.4-0.5-0.9-0.9-1.5-1.2c-0.6-0.3-1.2-0.6-1.8-0.8c-0.6-0.2-1.3-0.3-2-0.3c-0.8,0-1.6,0.1-2.4,0.3
		c-0.8,0.2-1.5,0.6-2.1,1c-0.7,0.4-1.3,1-1.8,1.6c-0.5,0.6-1,1.3-1.4,2.1c-0.4,0.8-0.7,1.6-0.9,2.4c-0.2,0.9-0.3,1.7-0.3,2.7v19v0.8
		h-0.8H226h-0.8V46V25.1c0-0.8-0.1-1.6-0.2-2.3c-0.2-0.7-0.4-1.4-0.7-2v0c-0.3-0.6-0.7-1.2-1.1-1.7c-0.4-0.5-0.9-0.9-1.5-1.2l0,0
		c-0.6-0.3-1.2-0.6-1.8-0.8c-0.6-0.2-1.3-0.3-2-0.3c-0.8,0-1.6,0.1-2.4,0.3c-0.7,0.2-1.5,0.6-2.1,1c-0.7,0.4-1.3,1-1.8,1.6
		c-0.5,0.6-1,1.3-1.4,2.1c-0.4,0.8-0.7,1.6-0.9,2.4c-0.2,0.9-0.3,1.7-0.3,2.7v19v0.8h-0.8h-4.7h-0.8V46V11.6v-0.8h0.8h4.7h0.8v0.8
		v3.7c0.2-0.3,0.5-0.5,0.8-0.8c0.8-0.8,1.7-1.4,2.8-2c1-0.6,2.1-1,3.3-1.2c1.1-0.3,2.4-0.4,3.6-0.4c1.3,0,2.5,0.2,3.7,0.5
		c1.2,0.4,2.2,0.9,3.2,1.6c1,0.7,1.8,1.6,2.6,2.5c0.4,0.6,0.8,1.1,1.1,1.8c0.4-0.7,0.8-1.3,1.3-1.8c0.8-1,1.8-1.8,2.9-2.5
		c1.1-0.7,2.3-1.2,3.6-1.6C239.2,11,240.5,10.8,242,10.8z"/>
	<path fill="#332F47" d="M183.8,30.9c-1.3,0-2.4,0.1-3.4,0.4c-1,0.3-1.9,0.6-2.6,1.1c-0.7,0.5-1.3,1-1.6,1.6c-0.3,0.6-0.5,1.3-0.5,2
		c0,0.5,0.1,1,0.2,1.4c0.2,0.4,0.4,0.9,0.7,1.3c0.7,0.8,1.7,1.5,2.9,2c0.6,0.2,1.3,0.4,2.1,0.5c0.7,0.1,1.5,0.2,2.3,0.2
		c0.7,0,1.5-0.1,2.3-0.2c0.8-0.1,1.7-0.3,2.6-0.5c0.9-0.2,1.7-0.5,2.5-0.8h0c0.7-0.3,1.4-0.6,2-0.9l0.7-0.4l0.4,0.7l1.9,3.7l0.3,0.6
		l-0.6,0.4c-0.8,0.5-1.6,0.9-2.6,1.2c-1,0.4-2,0.7-3.1,1c-1.1,0.3-2.3,0.5-3.4,0.6c-1.1,0.1-2.2,0.2-3.3,0.2c-1.4,0-2.6-0.1-3.9-0.3
		c-1.2-0.2-2.4-0.5-3.5-1c-1.1-0.4-2.1-0.9-2.9-1.5c-0.9-0.6-1.6-1.3-2.2-2.1c-0.6-0.8-1.1-1.6-1.4-2.6c-0.3-0.9-0.5-1.9-0.5-2.9
		c0-1.2,0.2-2.3,0.6-3.3c0.4-1,1.1-2,1.9-2.9c0.8-0.9,1.8-1.6,2.9-2.1c0.4-0.2,0.8-0.4,1.2-0.5c-0.2-0.1-0.4-0.2-0.5-0.3
		c-0.9-0.5-1.7-1.1-2.3-1.9c-0.7-0.8-1.2-1.6-1.5-2.5c-0.3-0.9-0.5-1.8-0.5-2.8c0-1.9,0.6-3.6,1.7-5c0.6-0.7,1.2-1.4,2-1.9
		c0.8-0.5,1.6-1,2.6-1.4c1-0.4,2-0.7,3.1-0.9c1.1-0.2,2.3-0.3,3.5-0.3c0.9,0,1.9,0.1,2.8,0.2c0.9,0.1,1.9,0.3,2.9,0.5
		c1,0.2,1.8,0.4,2.6,0.7c0.8,0.3,1.5,0.6,2.2,0.9l0.6,0.3l-0.3,0.6l-1.6,3.7l-0.3,0.7l-0.7-0.3c-0.5-0.2-1.1-0.4-1.7-0.6
		c-0.6-0.2-1.3-0.4-2-0.5v0c-0.7-0.2-1.4-0.3-2.1-0.4c-0.7-0.1-1.3-0.1-2-0.1c-2.2,0-4.1,0.5-5.4,1.4c-0.7,0.5-1.1,1-1.5,1.5
		c-0.3,0.5-0.5,1.1-0.5,1.8c0,0.6,0.1,1.2,0.4,1.7c0.3,0.5,0.7,0.9,1.3,1.3h0c1.3,0.8,3,1.2,5.1,1.2h6.8h0.8V26v4.1v0.8h-0.8H183.8z
		 M148.6,41c1.1,0,2.2-0.1,3.2-0.4c1-0.3,2-0.6,2.9-1.2h0c0.9-0.5,1.7-1.1,2.4-1.8v0c0.7-0.7,1.3-1.5,1.9-2.4
		c0.5-0.9,0.9-1.9,1.2-2.9c0.3-1,0.4-2.1,0.4-3.2c0-1.2-0.1-2.3-0.4-3.3c-0.3-1-0.7-2-1.2-2.9l0,0c-0.5-0.9-1.2-1.7-1.9-2.5
		c-0.7-0.7-1.6-1.3-2.5-1.9c-0.9-0.5-1.9-0.9-2.9-1.2c-1-0.3-2.1-0.4-3.3-0.4H140V41H148.6z M148.5,11.1c3.4,0,6.6,0.8,9.3,2.3
		c1.4,0.8,2.6,1.7,3.7,2.8c1.1,1.1,2,2.3,2.8,3.6c0.8,1.4,1.4,2.8,1.8,4.3v0c0.4,1.5,0.6,3.1,0.6,4.8c0,1.7-0.2,3.3-0.6,4.8
		c-0.4,1.5-1,3-1.8,4.3c-0.8,1.4-1.8,2.6-2.9,3.6c-1.1,1.1-2.4,2-3.8,2.8c-1.4,0.8-2.9,1.3-4.5,1.7c-1.6,0.4-3.2,0.6-4.9,0.6h-13.7
		h-0.8V46V11.9v-0.8h0.8H148.5z M110,16.5c-2.2,0-4.3,0.5-6.2,1.6c-1.9,1.1-3.4,2.6-4.6,4.5v0c-0.6,0.9-1,1.9-1.3,3
		s-0.4,2.1-0.4,3.3c0,1.1,0.1,2.2,0.4,3.3c0.3,1,0.7,2,1.3,3c0.6,1,1.2,1.8,2,2.6c0.8,0.7,1.6,1.4,2.6,2c1,0.6,2,1,3,1.3
		c1,0.3,2.1,0.4,3.2,0.4c1.1,0,2.2-0.1,3.2-0.4c1-0.3,2-0.7,2.9-1.3c0.9-0.6,1.8-1.2,2.5-2c0.8-0.8,1.4-1.6,2-2.6
		c0.6-0.9,1-1.9,1.3-3c0.3-1,0.4-2.1,0.4-3.3c0-2.3-0.6-4.3-1.7-6.2c-0.6-0.9-1.2-1.8-2-2.5c-0.8-0.7-1.6-1.4-2.5-1.9
		C114.3,17.1,112.3,16.5,110,16.5z M110,10.8c1.7,0,3.3,0.2,4.9,0.6c1.6,0.4,3.1,1,4.5,1.8c1.4,0.8,2.7,1.7,3.8,2.8
		c1.1,1.1,2.1,2.3,2.9,3.7c0.8,1.4,1.5,2.8,1.9,4.4c0.4,1.5,0.6,3.1,0.6,4.8c0,1.7-0.2,3.3-0.6,4.8c-0.4,1.5-1,3-1.9,4.4
		c-0.8,1.4-1.8,2.6-2.9,3.7c-1.1,1.1-2.4,2.1-3.8,2.9c-1.4,0.8-2.9,1.4-4.5,1.8l0,0c-1.6,0.4-3.2,0.6-4.9,0.6
		c-1.7,0-3.3-0.2-4.9-0.6l0,0c-1.6-0.4-3.1-1-4.5-1.8c-1.4-0.8-2.7-1.8-3.8-2.9c-1.1-1.1-2.1-2.4-2.9-3.7c-0.8-1.4-1.5-2.9-1.9-4.4
		c-0.4-1.5-0.6-3.1-0.6-4.8c0-3.3,0.8-6.4,2.5-9.1c0.8-1.4,1.8-2.6,2.9-3.7c1.1-1.1,2.4-2,3.8-2.8h0c1.4-0.8,2.9-1.4,4.5-1.8
		C106.6,11,108.3,10.8,110,10.8z M86,20.6c-0.6-0.6-1.3-1.2-2-1.7c-0.7-0.5-1.5-0.9-2.3-1.3l0,0c-0.8-0.4-1.6-0.6-2.5-0.8v0
		c-0.8-0.2-1.7-0.3-2.5-0.3c-2.3,0-4.3,0.5-6.2,1.6c-0.9,0.6-1.8,1.2-2.5,1.9c-0.7,0.7-1.4,1.6-1.9,2.5c-1.1,1.9-1.6,3.9-1.6,6.2
		c0,2.2,0.6,4.3,1.6,6.2c0.5,0.9,1.2,1.8,1.9,2.5c0.8,0.8,1.6,1.4,2.5,2c0.9,0.6,1.9,1,3,1.2c1,0.3,2.1,0.4,3.3,0.4
		c1.7,0,3.3-0.3,5-1c0.8-0.3,1.6-0.8,2.3-1.2c0.7-0.5,1.4-1,2-1.6l0.6-0.5l0.5,0.6l2.8,3.1l0.5,0.5l-0.5,0.5
		C89,42.3,88,43.1,87,43.8c-1,0.7-2.1,1.3-3.3,1.8c-1.2,0.5-2.4,0.9-3.6,1.1c-1.2,0.3-2.4,0.4-3.6,0.4c-1.7,0-3.3-0.2-4.9-0.6
		c-1.6-0.4-3-1-4.4-1.8c-1.4-0.8-2.7-1.8-3.8-2.8c-1.1-1.1-2.1-2.3-2.9-3.7c-0.8-1.4-1.4-2.9-1.8-4.4c-0.4-1.5-0.6-3.1-0.6-4.8
		c0-3.3,0.8-6.4,2.5-9.1l0,0c0.5-0.8,1-1.5,1.6-2.2c0.6,0.9,1.6,1.5,2.7,1.5c1.8,0,3.3-1.5,3.3-3.3c0-1-0.4-1.8-1.1-2.4l0.2-0.1h0
		c1.4-0.8,2.9-1.4,4.5-1.8c1.6-0.4,3.2-0.6,4.9-0.6c2.5,0,4.9,0.5,7.2,1.4c1.2,0.5,2.2,1,3.2,1.7c1,0.7,1.9,1.4,2.8,2.3l0.5,0.5
		l-0.4,0.5l-2.8,3.4l-0.5,0.7L86,20.6z"/>
	<path fill-rule="evenodd" clip-rule="evenodd" fill="#00ADEE" d="M26.3,13c0.2-0.7,0.9-1.1,1.6-0.9c0.7,0.2,1.1,0.9,0.9,1.6
		l-6.5,22.1c-0.2,0.7-0.9,1.1-1.6,0.9c-0.7-0.2-1.1-0.9-0.9-1.6L26.3,13z M31,18.8c-0.5-0.5-0.5-1.3,0-1.9c0.5-0.5,1.3-0.5,1.9,0
		l6.5,6.5l0.9,0.9l-0.9,0.9l-6.5,6.5c-0.5,0.5-1.3,0.5-1.9,0c-0.5-0.5-0.5-1.3,0-1.9l5.6-5.6L31,18.8z M16.7,29.9
		c0.5,0.5,0.5,1.3,0,1.9c-0.5,0.5-1.3,0.5-1.9,0l-6.5-6.5l-0.9-0.9l0.9-0.9l6.5-6.5c0.5-0.5,1.3-0.5,1.9,0c0.5,0.5,0.5,1.3,0,1.9
		l-5.6,5.6L16.7,29.9z M41,4.7c1.4,0,2.6,1.2,2.6,2.6c0,1.4-1.2,2.6-2.6,2.6c-1.4,0-2.6-1.2-2.6-2.6C38.4,5.8,39.6,4.7,41,4.7z
		 M-0.2,24.4L23.9,0.3h24.1v24.1L23.9,48.4L-0.2,24.4z"/>
	<path fill="#332F47" d="M50.4,4.7c1-0.1,0.8-1.5-0.1-1.4l-0.1,0l-0.1,0l-0.1,0l-0.1,0l-0.1,0l-0.1,0l-0.1,0l-0.1,0l-0.1,0l-0.1,0
		l-0.1,0l-0.1,0l-0.1,0l-0.1,0l-0.1,0l-0.1,0l-0.1,0l-0.1,0l-0.1,0l-0.1,0l-0.1,0l-0.1,0l-0.1,0l-0.1,0l-0.1,0l-0.1,0
		c-0.9,0.2-0.6,1.6,0.3,1.4l0.1,0l0.1,0l0.1,0l0.1,0l0.1,0l0.1,0l0.1,0l0.1,0l0.1,0l0.1,0l0.1,0l0.1,0l0.1,0l0.1,0l0.1,0l0.1,0
		l0.1,0l0.1,0l0.1,0l0.1,0l0.1,0l0.1,0l0.1,0l0.1,0L50.4,4.7L50.4,4.7z M57,5.8c0.8,0.4,1.5-0.9,0.6-1.3l0,0l-0.1-0.1l-0.1-0.1
		l-0.1-0.1l-0.1-0.1L57,4.2l-0.1,0l-0.1,0l-0.1,0l-0.1,0l-0.1,0l-0.1,0l-0.1,0l-0.1,0l-0.1,0l-0.1,0l-0.1,0l-0.1,0l-0.1,0l-0.1,0
		l-0.1,0l-0.1,0l-0.1,0l-0.1,0l-0.1,0c-0.8-0.2-1.3,1.2-0.3,1.4l0,0l0.1,0l0.1,0l0.1,0l0.1,0l0.1,0l0.1,0l0.1,0l0.1,0l0.1,0l0.1,0
		l0.1,0l0.1,0l0.1,0l0.1,0l0.1,0l0.1,0l0.1,0l0.1,0l0.1,0l0.1,0l0.1,0l0.1,0L57,5.8L57,5.8z M61.9,10.4c0.4,0.8,1.7,0.1,1.2-0.7l0,0
		L63,9.4l-0.1-0.1l-0.1-0.1L62.7,9l-0.1-0.1l-0.1-0.1l-0.1-0.1l-0.1-0.1l-0.1-0.1l-0.1-0.1l-0.1-0.1L62,8l-0.1-0.1l-0.1-0.1
		l-0.1-0.1l-0.1-0.1l-0.1-0.1l-0.1-0.1l-0.1-0.1c-0.7-0.7-1.7,0.4-1,1l0.1,0.1l0.1,0.1l0.1,0.1l0.1,0.1l0.1,0.1l0.1,0.1l0.1,0.1
		L60.9,9L61,9.1l0.1,0.1l0.1,0.1l0.1,0.1l0.1,0.1l0.1,0.1l0.1,0.1l0.1,0.1l0.1,0.1l0.1,0.1L61.9,10.4L61.9,10.4z M64.1,15.9
		c0.2,0.9,1.6,0.6,1.4-0.4l-0.1-0.2l-0.1-0.2L65.3,15l-0.1-0.2l-0.1-0.2l-0.1-0.2l-0.1-0.2L65,14L65,13.8l0-0.1
		c-0.4-0.9-1.7-0.4-1.4,0.5l0,0.1l0.1,0.2l0.1,0.2l0.1,0.2l0.1,0.2l0.1,0.2l0.1,0.2l0.1,0.2l0.1,0.2L64.1,15.9z M40.6,6.7
		c-0.8,0.6,0.1,1.7,0.8,1.2l0,0l0,0l0,0l0,0l0,0l0,0l0,0l0,0l0,0l0,0l0.1,0l0,0l0,0l0.1,0l0.1,0l0.1,0l0.1,0l0.1,0l0.1,0l0.1,0
		l0.1,0l0.1,0l0.1,0l0.1,0l0.1,0l0.1,0l0.1,0l0.1,0l0.1,0l0.1,0l0.1,0l0.1,0l0.1,0l0.1,0l0.1,0l0.1,0l0.1,0l0.1,0l0.1,0l0.1,0l0.1,0
		l0,0c0.8-0.4,0.3-1.6-0.6-1.3l0,0l-0.1,0l-0.1,0l-0.1,0l-0.1,0l-0.1,0l-0.1,0l-0.1,0l-0.1,0l-0.1,0l-0.1,0l-0.1,0l-0.1,0l-0.1,0
		l-0.1,0l-0.1,0l-0.1,0l-0.1,0l-0.1,0l-0.1,0l-0.1,0l-0.1,0l-0.1,0l-0.1,0l-0.1,0l-0.1,0l-0.1,0l-0.1,0l-0.1,0l-0.1,0l-0.1,0l-0.1,0
		l-0.1,0l-0.1,0l0,0l-0.1,0l-0.1,0l0,0l0,0L40.6,6.7L40.6,6.7L40.6,6.7z"/>
</g>
</svg>
