<svg id="Layer_1" data-name="Layer 1" xmlns="http://www.w3.org/2000/svg" viewBox="0 0 1121.5 158.83"><title>DrOShow</title><path d="M12.6,13.07h57q22.2,0,39.2,8.9a65,65,0,0,1,26.4,24.8q9.41,15.88,9.4,36.3t-9.4,36.29a65,65,0,0,1-26.4,24.81q-17,8.9-39.2,8.9h-57Zm56.2,127.2q18.4,0,32.2-7.3a53.14,53.14,0,0,0,21.4-20.2q7.6-12.9,7.6-29.7t-7.6-29.71A53,53,0,0,0,101,33.17q-13.8-7.3-32.2-7.31H27.4V140.27Z"/><path d="M203.3,52.47q9.9-5.41,24.5-5.4V60.86l-3.4-.19q-16.6,0-26,10.19T189,99.47v53.6H174.8V47.86h13.6V68.47A34.38,34.38,0,0,1,203.3,52.47Z"/><path d="M246.9,150.86a10.76,10.76,0,0,1-3.1-7.79,10.46,10.46,0,0,1,3.1-7.71,10.24,10.24,0,0,1,7.5-3.09,10.57,10.57,0,0,1,7.6,3.09,10.32,10.32,0,0,1,3.2,7.71,10.61,10.61,0,0,1-3.2,7.79,10.37,10.37,0,0,1-7.6,3.21A10.05,10.05,0,0,1,246.9,150.86Z"/><path d="M377.29,146.07a69.81,69.81,0,0,1-27.39-25.9,70.62,70.62,0,0,1-9.9-37.1q0-20.61,9.9-37.1a69.74,69.74,0,0,1,27.39-25.9q17.5-9.4,39.31-9.4t39.19,9.4a70,70,0,0,1,37.41,63,70,70,0,0,1-37.41,63q-17.39,9.39-39.19,9.4T377.29,146.07ZM439,122.17a41,41,0,0,0,15.7-15.9,46.76,46.76,0,0,0,5.7-23.2,46.8,46.8,0,0,0-5.7-23.21A41,41,0,0,0,439,44a46.86,46.86,0,0,0-44.8,0,40.85,40.85,0,0,0-15.7,15.89,46.8,46.8,0,0,0-5.71,23.21,46.76,46.76,0,0,0,5.71,23.2,40.88,40.88,0,0,0,15.7,15.9,46.94,46.94,0,0,0,44.8,0Z"/><path d="M589.09,149.27q-14.3-5-22.1-13.2l5.8-11.4q7.61,7.59,20.2,12.3a73.9,73.9,0,0,0,26,4.7q18.79,0,28.2-6.9t9.4-17.91q0-8.39-5.1-13.39a34.37,34.37,0,0,0-12.5-7.7,203.23,203.23,0,0,0-20.6-5.91,217.1,217.1,0,0,1-25.2-7.69,41.4,41.4,0,0,1-16.1-11.31q-6.71-7.59-6.7-20.59A34.94,34.94,0,0,1,576,31q5.6-8.7,17.2-13.9T622,11.86a84.81,84.81,0,0,1,23.5,3.31,67.16,67.16,0,0,1,19.9,9.1l-5,11.8a68.94,68.94,0,0,0-18.8-8.71A70.29,70.29,0,0,0,622,24.47q-18.4,0-27.7,7.1T585,49.86q0,8.41,5.1,13.5a33.45,33.45,0,0,0,12.8,7.81q7.7,2.7,20.7,5.9a206.65,206.65,0,0,1,24.9,7.5,40.82,40.82,0,0,1,16.1,11.2q6.6,7.5,6.6,20.3a34.43,34.43,0,0,1-5.7,19.29q-5.7,8.71-17.5,13.81t-29,5.1A90,90,0,0,1,589.09,149.27Z"/><path d="M785.49,58.57q11.7,11.49,11.7,33.5v61H783V93.47q0-16.41-8.2-25t-23.4-8.61q-17,0-26.9,10.11t-9.9,27.89v55.21h-14.2V4.67h14.2v61.6a38.45,38.45,0,0,1,16-14.2,52.42,52.42,0,0,1,23.4-5Q773.79,47.07,785.49,58.57Z"/><path d="M851.79,147.17a50.25,50.25,0,0,1-19.2-19.1,54.46,54.46,0,0,1-7-27.6,54.47,54.47,0,0,1,7-27.61,49.58,49.58,0,0,1,19.2-19,58.68,58.68,0,0,1,54.8,0,49,49,0,0,1,19.1,19,55.12,55.12,0,0,1,6.9,27.61,55.11,55.11,0,0,1-6.9,27.6,49.65,49.65,0,0,1-19.1,19.1,57.85,57.85,0,0,1-54.8,0Zm47.5-10.81a35.54,35.54,0,0,0,13.9-14.5,44.84,44.84,0,0,0,5-21.39,44.88,44.88,0,0,0-5-21.4,35.6,35.6,0,0,0-13.9-14.5,42.16,42.16,0,0,0-40.2,0,36.15,36.15,0,0,0-14,14.5,44.13,44.13,0,0,0-5.1,21.4,44.09,44.09,0,0,0,5.1,21.39,36.09,36.09,0,0,0,14,14.5,42.09,42.09,0,0,0,40.2,0Z"/><path d="M1113,47.86l-39.8,105.21h-13.4l-33.2-86.21-33.2,86.21H980L940.39,47.86H954l33,89.41,33.8-89.41H1033l33.6,89.41L1100,47.86Z"/></svg>