<svg id="Layer_1" data-name="Layer 1" xmlns="http://www.w3.org/2000/svg" viewBox="0 0 400 400"><title>Header</title><circle cx="81.15" cy="81.51" r="48" style="fill:#fb7833"/><path d="M129.15,81.51c0-1.08-.05-2.16-.12-3.23l-30.5-30.5H63.78v9.76l-6,8.43v46.74L74,129a48,48,0,0,0,55.12-47.47Z" style="opacity:0.10000000149011612;isolation:isolate"/><path d="M104.55,66v44.22l-12,5-34.75-2.53V66l6-8.43V47.78H98.53v9.76Z" style="fill:#ededed"/><path d="M104.55,110.19l-12,5V66l6-8.43,6,8.43Z" style="fill:#b1b2b6"/><path d="M98.53,57.54H63.78l-6,8.43H92.51Z" style="fill:#dbd8dd"/><path d="M63.78,47.78H98.53v9.76H63.78Z" style="fill:#ededed"/><path d="M88.31,66v0H83v0h-4.4v0H62.81v0H57.76V79.64a2.61,2.61,0,0,0,2.39,2.66,2.52,2.52,0,0,0,2.66-2.52V75.46a2.53,2.53,0,1,1,5,0v.45a2.62,2.62,0,0,0,2.39,2.66,2.52,2.52,0,0,0,2.66-2.52V71.77a2,2,0,0,1,4.09,0v9a3.43,3.43,0,0,0,3,3.47,3.34,3.34,0,0,0,3.67-3.33V79.64a1.81,1.81,0,0,1,1.8-1.8h.18a1.81,1.81,0,0,1,1.8,1.8,2.61,2.61,0,0,0,2.39,2.66,2.52,2.52,0,0,0,2.66-2.52V66Z" style="fill:#4288b9"/><path d="M90.25,99a2.09,2.09,0,0,0-2.3,2.11v4a2.21,2.21,0,0,1-2.42,2.23,2.67,2.67,0,0,1-2.42-2.6v-.87a3.21,3.21,0,0,0-2.92-3.14h0a2.68,2.68,0,0,0-2.93,2.7v2.51a2.61,2.61,0,0,1-2.85,2.63h0a3.13,3.13,0,0,1-2.86-3.07V99.91a2.52,2.52,0,0,0-2.3-2.47A2.1,2.1,0,0,0,67,99.56v1.8a2.09,2.09,0,0,1-2.29,2.12,2.52,2.52,0,0,1-2.3-2.46v-.63a2.52,2.52,0,0,0-2.3-2.47,2.11,2.11,0,0,0-2.3,2.12v12.68l34.75,2.52,0-13.75A2.51,2.51,0,0,0,90.25,99Z" style="fill:#4288b9"/><path d="M94.94,110.79l-.64.27v-8.31l.64-.27Z" style="fill:#344d5b"/><path d="M97.61,109.65l-.32.14v-8.31l.32-.14Z" style="fill:#344d5b"/><path d="M96.68,110.05l-1.11.47v-8.31l1.11-.47Z" style="fill:#344d5b"/><path d="M98.87,109.12l-.64.27v-8.31l.64-.27Z" style="fill:#344d5b"/><path d="M101.54,108l-.31.14V99.81l.31-.13Z" style="fill:#344d5b"/><path d="M100.61,108.38l-1.11.47v-8.31l1.11-.47Z" style="fill:#344d5b"/><path d="M102.79,107.45l-.77.33V99.47l.77-.33Z" style="fill:#344d5b"/><path d="M65.61,92.37v-6.1l1.22.07,1.44,4.4.29.92c.07-.22.18-.54.32-1l1.46-4.16,1.09.07v6.1l-.78,0v-5.1l-1.77,5-.73,0-1.76-5.3v5.19Z" style="fill:#293b44"/><path d="M72.87,92.79v-6.1l.8,0v6.1Z" style="fill:#293b44"/><path d="M75.06,92.92v-6.1l.81,0v5.38l3,.18v.72Z" style="fill:#293b44"/><path d="M79.79,93.19v-6.1l.81,0v3l3-2.85,1.1.07L82.16,89.7l2.67,3.78-1.06-.06L81.6,90.21l-1,.92v2.11Z" style="fill:#293b44"/><circle cx="198.74" cy="81.51" r="48" style="fill:#ff9a00"/><path d="M246.59,85.33,219.86,58.6c-2.34-2.49-4.84-4-7.27-4-4.46,0-9.09,5.12-12.65,11.77l-8.16-8.16c-2.22-2.24-4.58-3.61-6.88-3.61-9.45,0-19.72,23.06-18.79,34.89a18.07,18.07,0,0,0,5.63,12.15l27.88,27.88A48,48,0,0,0,246.59,85.33Z" style="fill:#e67500"/><path d="M184.9,54.58c-9.45,0-19.72,23.06-18.79,34.89s10.58,17.23,18.79,17.23,17.86-5.42,18.79-17.23S194.35,54.58,184.9,54.58Z" style="fill:#fff5cb"/><path d="M203.69,89.47c-.93,11.81-10.58,17.22-18.79,17.22V54.58C194.35,54.58,204.62,77.64,203.69,89.47Z" style="fill:#ffec97"/><path d="M212.59,54.58c-9.45,0-19.73,23.06-18.8,34.89s10.59,17.23,18.8,17.23,17.85-5.42,18.79-17.23S222,54.58,212.59,54.58Z" style="fill:#fff"/><path d="M231.38,89.47c-.94,11.81-10.58,17.22-18.79,17.22V54.58C222,54.58,232.31,77.64,231.38,89.47Z" style="fill:#fff5cb"/><circle cx="316.5" cy="81.51" r="48" style="fill:#d67b42"/><path d="M316.5,33.51c-1,0-1.94,0-2.9.09a48,48,0,0,1,0,95.82c1,.06,1.93.09,2.9.09a48,48,0,0,0,0-96Z" style="fill:#be652b"/><path d="M316.5,123.72a42.22,42.22,0,1,1,29.84-12.36,41.93,41.93,0,0,1-29.84,12.36Z" style="fill:#a75224"/><path d="M305.74,65.86A13.92,13.92,0,0,0,295,82.3a5,5,0,1,0,9.83-2,3.86,3.86,0,0,1,3-4.56,5,5,0,0,0-2-9.84Z" style="fill:#f5b460"/><path d="M311.68,69.76a5,5,0,0,0-5.94-3.9,14,14,0,0,0-2.15.64,5,5,0,0,1-1.6,9.2,3.86,3.86,0,0,0-3,4.56,5,5,0,0,1-2,5.12,5,5,0,0,0,7.81-5.12,3.86,3.86,0,0,1,3-4.56,5,5,0,0,0,3.9-5.94Z" style="fill:#e69955"/><path d="M324.22,84.33a5,5,0,0,0,6.93-1.54,13.9,13.9,0,0,0-4.27-19.19,5,5,0,1,0-5.39,8.47,3.86,3.86,0,0,1,1.19,5.33,5,5,0,0,0,1.54,6.93Z" style="fill:#f5b460"/><path d="M333,72.31a13.81,13.81,0,0,0-6.11-8.71,5,5,0,0,0-5.59.13,13.9,13.9,0,0,1,4.07,19.06,5.12,5.12,0,0,1-1.34,1.4l.2.14a5,5,0,0,0,6.93-1.54A13.82,13.82,0,0,0,333,72.31Z" style="fill:#e69955"/><path d="M296.12,94a3.86,3.86,0,0,1-3.86-3.85,5,5,0,1,0-10,0,13.92,13.92,0,0,0,13.9,13.9,5,5,0,0,0,0-10.05Z" style="fill:#f5b460"/><path d="M296.12,94a3.86,3.86,0,0,1-3.86-3.85,5,5,0,0,0-5-5,5.08,5.08,0,0,0-2.9.92,5,5,0,0,1,2.13,4.11A3.86,3.86,0,0,0,290.32,94a5,5,0,0,1,2.16,9.56,14.08,14.08,0,0,0,3.64.49,5,5,0,0,0,0-10.05Z" style="fill:#e69955"/><path d="M317.8,80.54a5,5,0,0,0-8.34,5.61,3.86,3.86,0,0,1-1,5.35A5,5,0,1,0,314,99.83a13.91,13.91,0,0,0,3.77-19.29Z" style="fill:#f5b460"/><path d="M317.8,80.54a5,5,0,0,0-7-1.36l-.09.06a4.91,4.91,0,0,1,1.27,1.3,13.91,13.91,0,0,1-3.68,19.23,5,5,0,0,0,5.71.06,13.91,13.91,0,0,0,3.77-19.29Z" style="fill:#e69955"/><path d="M325.09,102.81a5,5,0,0,0-6.82,2A3.85,3.85,0,0,1,313,106.3a5,5,0,0,0-4.85,8.8,13.91,13.91,0,0,0,18.89-5.46,5,5,0,0,0-2-6.83Z" style="fill:#f5b460"/><path d="M325.09,102.81a5,5,0,0,0-5.32.3,5,5,0,0,1,1.5,6.53,13.79,13.79,0,0,1-8.31,6.64c-.32.09-.65.17-1,.24a13.32,13.32,0,0,0,2.89.31,14,14,0,0,0,3.88-.55,13.84,13.84,0,0,0,8.31-6.64A5,5,0,0,0,325.09,102.81Z" style="fill:#e69955"/><path d="M319,57.29a3.85,3.85,0,0,1,5.45.16,5,5,0,1,0,7.31-6.89A13.9,13.9,0,0,0,312.11,50,5,5,0,0,0,319,57.29Z" style="fill:#f5b460"/><path d="M331.76,50.56a13.91,13.91,0,0,0-13-4.06A13.78,13.78,0,0,1,326,50.56a5,5,0,0,1-.21,7.1,4.61,4.61,0,0,1-.55.44,5,5,0,0,0,2.9.93,5,5,0,0,0,3.66-8.47Z" style="fill:#e69955"/><path d="M339.25,90.37a3.86,3.86,0,0,1-5.45,0,5,5,0,0,0-7.11,7.1,13.91,13.91,0,0,0,19.66,0,5,5,0,0,0-7.1-7.1Z" style="fill:#f5b460"/><path d="M346.35,90.37a5,5,0,0,0-6.45-.55,4.81,4.81,0,0,1,.66.55,5,5,0,0,1,0,7.1,13.84,13.84,0,0,1-6.93,3.76,14,14,0,0,0,2.89.31,13.86,13.86,0,0,0,9.83-4.07,5,5,0,0,0,0-7.1Z" style="fill:#e69955"/><path d="M289.9,72.59a5,5,0,0,0,4.62-5.4,3.87,3.87,0,0,1,3.55-4.14,5,5,0,1,0-.76-10A13.91,13.91,0,0,0,284.51,68a5,5,0,0,0,5.39,4.63Z" style="fill:#f5b460"/><path d="M302.7,57.66A5,5,0,0,0,297.31,53a13.75,13.75,0,0,0-3,.58,5,5,0,0,1-2,9.43,3.87,3.87,0,0,0-3.55,4.14,5,5,0,0,1-2.11,4.49,5,5,0,0,0,7.9-4.49,3.87,3.87,0,0,1,3.55-4.14A5,5,0,0,0,302.7,57.66Z" style="fill:#e69955"/><path d="M346.9,63.4a5,5,0,0,0-7.53,6.65,3.86,3.86,0,0,1-.33,5.44A5,5,0,1,0,345.69,83,13.91,13.91,0,0,0,346.9,63.4Z" style="fill:#f5b460"/><path d="M346.9,63.4a5,5,0,0,0-6.66-.77,5.22,5.22,0,0,1,.87.77A13.91,13.91,0,0,1,339.89,83l-.43.34a5,5,0,0,0,6.23-.34A13.91,13.91,0,0,0,346.9,63.4Z" style="fill:#e69955"/><path d="M364.5,199.71a48,48,0,1,1-48-48A48,48,0,0,1,364.5,199.71Z" style="fill:#f5cf51"/><path d="M305.83,193.17l-.56.55c-17.54,17-39.49-5-22.53-22.53l.55-.56c10.32-10.31,23.76-14.06,32.06-9.52C319.89,169.41,316.14,182.85,305.83,193.17Z" style="fill:#d58a2d"/><path d="M305.83,193.17l-.56.55a21.57,21.57,0,0,1-9.31,5.54,15.25,15.25,0,0,1-3.2-1.31,1.74,1.74,0,0,1,.21-3.15,38.56,38.56,0,0,0,9.45-5.74c6.88-5.51,11-11.8,9.2-14.05l-.19-.19c-2.12,3.26-6.13,7.48-11.18,11.52a63.21,63.21,0,0,1-10.71,7.07,1.73,1.73,0,0,1-2.26-.61l-.11-.17a1.74,1.74,0,0,1,.51-2.35,68.38,68.38,0,0,0,8.77-7.62c5.49-5.49,9.35-10.54,8.62-11.27s-5.78,3.13-11.27,8.62a83,83,0,0,0-5.77,6.32,1.74,1.74,0,0,1-3.09-1v-.05a1.74,1.74,0,0,1,.25-1,70.5,70.5,0,0,1,5.36-7.64c4-5,8.27-9.06,11.53-11.18a1.7,1.7,0,0,0-.19-.19,2.24,2.24,0,0,0-1.53-.41.48.48,0,0,1-.28-.89,34.13,34.13,0,0,1,11.18-4.36,15.22,15.22,0,0,1,4.1,1.5C319.89,169.41,316.14,182.85,305.83,193.17Z" style="fill:#e2902a"/><path d="M296.77,212l.42-.41c13.51-12.86,38,11.67,25.19,25.18l-.42.42c-7.88,7.88-19.87,9-28.48,3.29C287.74,231.86,288.89,219.87,296.77,212Z" style="fill:#bb5335"/><path d="M307.53,209.59c.21-.21.41-.41.63-.61s.53-.5.79-.73c11.88,2.34,23,18.47,13.43,28.51l-.42.42a22.9,22.9,0,0,1-24.7,5.29C294.43,231.93,298,219.1,307.53,209.59Z" style="fill:#d25e3e"/><path d="M318.22,224.88a11.78,11.78,0,0,1-9.75.6,11.79,11.79,0,0,1,.6-9.75A12,12,0,0,1,301,209v0c12.4-5.43,29.36,11.53,23.93,23.93h0A12,12,0,0,1,318.22,224.88Z" style="fill:#e5846a"/><path d="M356.37,204a6.6,6.6,0,0,1,4,11.17l-.08.08c-8.77,8.77-24.24,7.58-34.47-2.65s-11.43-25.7-2.66-34.47l.08-.08a6.6,6.6,0,0,1,11.18,4,25.8,25.8,0,0,0,22,22Z" style="fill:#fae8b1"/><path d="M362,212.12c-8.89,4.59-21.07,2.35-29.61-6.19s-10.79-20.72-6.2-29.62a6.71,6.71,0,0,1,3.81.19,6.52,6.52,0,0,1,4.36,5.46,25.8,25.8,0,0,0,22,22,6.62,6.62,0,0,1,5.65,8.16Zm-86.46-8.44a5.17,5.17,0,0,0,6.5,6.51,5.16,5.16,0,0,0-6.5-6.51Zm71.67-20.12a4.69,4.69,0,0,0,1.26-5.24,5.17,5.17,0,0,0-6.5,6.51A4.68,4.68,0,0,0,347.23,183.56Z" style="fill:#fbf1d1"/><path d="M336,236.06a4.68,4.68,0,0,1-5.24,1.27,5.17,5.17,0,0,1,6.5-6.51A4.69,4.69,0,0,1,336,236.06Zm-2.22-66a5.16,5.16,0,0,0-6.5-6.51,5.17,5.17,0,0,0,6.5,6.51Zm-27.4,29.12a5.17,5.17,0,0,0,6.51,6.5,5.17,5.17,0,0,0-6.51-6.5Z" style="fill:#a0452c"/><circle cx="198.74" cy="199.71" r="48" style="fill:#a34a28"/><path d="M246.19,207l-9.52-9.52A13.73,13.73,0,0,0,233,197a11.23,11.23,0,0,0-8.88,4.18l-4.4-4.4a1.59,1.59,0,0,0-.07-.2l-.08,0-30.69-30.68A13.83,13.83,0,0,0,186,163.1a12.13,12.13,0,0,0-4.16,8.94,11.78,11.78,0,0,0,3.83,8.56l.1,2.73-2.64-2.65v0a12,12,0,0,0-6.93-3.63,12.14,12.14,0,0,0,3.83,10.84h0l6.18,6.17,0,1-2.63-2.64h0a12.08,12.08,0,0,0-6.93-3.63,12.13,12.13,0,0,0,3.83,10.84h0l6.18,6.17,0,1-2.7-2.76h0a12.1,12.1,0,0,0-6.87-3.56,12,12,0,0,0-.15,1.88,12.15,12.15,0,0,0,3.42,8.43h0l.07.07.08.08,6.57,6.57.19,4.93,4.31,4.3-4.7,3.19,1.26,1.86,15.57,15.58A48,48,0,0,0,246.19,207Z" style="opacity:0.10000000149011612;isolation:isolate"/><path d="M185.43,173.69l2.25-.09,1.85,48.82-2.24.09Z" style="fill:#fed35b"/><path d="M198,199.77a12.19,12.19,0,0,0-9.09,14.64A12.19,12.19,0,0,0,198,199.77Z" style="fill:#fed35b"/><path d="M177.14,200.57a12.17,12.17,0,0,1,10.17,13.9,12.17,12.17,0,0,1-10.17-13.9Z" style="fill:#fed35b"/><path d="M197.58,188a12.19,12.19,0,0,0-9.09,14.64A12.19,12.19,0,0,0,197.58,188Z" style="fill:#fed35b"/><path d="M176.69,188.82a12.17,12.17,0,0,1,10.17,13.9,12.17,12.17,0,0,1-10.17-13.9Z" style="fill:#fed35b"/><path d="M197.13,176.27A12.19,12.19,0,0,0,188,190.91a12.18,12.18,0,0,0,9.09-14.64Z" style="fill:#fed35b"/><path d="M186,163.11h0c-5.92,5.43-5.49,13.76,1,18.6C192.93,176.28,192.49,168,186,163.11Z" style="fill:#fed35b"/><path d="M176.24,177.07A12.19,12.19,0,0,1,186.42,191a12.18,12.18,0,0,1-10.18-13.9Z" style="fill:#fed35b"/><path d="M227.4,202.62l1.26,1.87L188.2,231.9,186.94,230Z" style="fill:#fed35b"/><path d="M211.89,227.08a12.18,12.18,0,0,0-17.23,0,12.18,12.18,0,0,0,17.23,0Z" style="fill:#feda6f"/><path d="M200.17,209.77a12.19,12.19,0,0,1-6.43,16,12.19,12.19,0,0,1,6.43-16Z" style="fill:#feda6f"/><path d="M221.62,220.49a12.18,12.18,0,0,0-17.22,0,12.17,12.17,0,0,0,17.22,0Z" style="fill:#feda6f"/><path d="M209.9,203.18a12.19,12.19,0,0,1-6.42,16,12.18,12.18,0,0,1,6.42-16Z" style="fill:#feda6f"/><path d="M231.36,213.9a12.18,12.18,0,0,0-17.23,0,12.19,12.19,0,0,0,17.23,0Z" style="fill:#feda6f"/><path d="M236.67,197.52h0c-7.74-2.15-14.58,2.62-15.27,10.66C229.14,210.33,236,205.56,236.67,197.52Z" style="fill:#feda6f"/><path d="M219.64,196.58a12.18,12.18,0,0,1-6.42,16,12.19,12.19,0,0,1,6.42-16Z" style="fill:#feda6f"/><circle cx="81.15" cy="199.71" r="48" style="fill:#c66312"/><path d="M64.85,181.64c3.82,2.87,8.36,3.27,10.14.89s.14-6.62-3.68-9.48-8.35-3.27-10.14-.9S61,178.77,64.85,181.64Z" style="fill:#fff3da"/><path d="M51.9,195.84c0,4.77,2.41,8.64,5.38,8.64s5.37-3.87,5.37-8.64-2.4-8.65-5.37-8.65-5.38,3.87-5.38,8.65Z" style="fill:#fff3da"/><path d="M78.87,199.09c3.82-2.87,8.36-3.27,10.14-.89s.14,6.62-3.68,9.49S77,211,75.19,208.58s-.13-6.62,3.68-9.49ZM63.47,231C72,231,79.66,226.61,82,216.6a17.69,17.69,0,0,0,13.35-16,16.65,16.65,0,0,0,9.29-5.84c4.23-5.08,3.68-9.1,4-12.89,3.37-4.71,4.64-7.8,2.92-13.37-3.88,5.85-3.77,5.65-7.89,5.49-7.58-.28-14.86,1-18.67,7.05a17.08,17.08,0,0,0-2.84,8.61,17.64,17.64,0,0,0-13.35,16C57.33,209.54,53.44,216.3,50,227.55A30,30,0,0,0,63.42,231Zm25.59-39c-1.79-2.37-.14-6.62,3.67-9.49s8.36-3.27,10.14-.9.14,6.63-3.68,9.5S90.84,194.31,89.06,191.93ZM64.25,214.48c4.35-1.95,8.87-1.34,10.08,1.37s-1.33,6.49-5.69,8.44-8.87,1.34-10.08-1.37S59.89,216.44,64.25,214.48Z" style="fill:#a8b55d"/><path d="M75.19,208.58c1.79,2.37,6.33,2,10.14-.89s5.47-7.12,3.68-9.49-6.32-2-10.14.89S73.41,206.21,75.19,208.58Z" style="fill:#fff3da"/><path d="M58.56,222.92c1.21,2.71,5.73,3.32,10.08,1.37s6.91-5.73,5.69-8.44-5.73-3.32-10.08-1.37S57.35,220.21,58.56,222.92Z" style="fill:#fff3da"/><path d="M93.65,224.44c1.79,2.38,6.33,2,10.14-.89s5.46-7.12,3.68-9.5-6.32-2-10.14.9S91.87,222.07,93.65,224.44Z" style="fill:#fff3da"/><path d="M89.06,191.93c1.78,2.38,6.32,2,10.13-.89s5.47-7.12,3.68-9.5-6.32-2-10.14.9-5.46,7.12-3.67,9.49Z" style="fill:#fff3da"/><g id="Page-1"><g id="_006---Lobster-On-Plate" data-name="006---Lobster-On-Plate"><path id="Shape" d="M97.13,274.47a48.14,48.14,0,0,0-32.26,0l-14.28,8.08a48,48,0,1,0,60.82,0Z" style="fill:#f3d55b"/><path id="Shape-2" data-name="Shape" d="M89.29,284.17a36.48,36.48,0,1,1-16.58,0Z" style="fill:#f0c419"/><path id="Shape-3" data-name="Shape" d="M71.4,296.65H62.11a7.68,7.68,0,0,1-7.28-5.25L51,279.78l3.65-1.21,3.87,11.61a3.84,3.84,0,0,0,3.63,2.63H71.4Z" style="fill:#c03a2b"/><path id="Shape-4" data-name="Shape" d="M77.16,287.05a1.92,1.92,0,0,1-1.92-1.92c0-12.1-3.25-15.89-3.28-15.92a1.92,1.92,0,0,1,2.71-2.72c.46.45,4.41,4.8,4.41,18.64a1.92,1.92,0,0,1-1.92,1.92Z" style="fill:#c03a2b"/><path id="Shape-5" data-name="Shape" d="M84.86,289a1.93,1.93,0,0,1-1.92-1.88c-.38-15.37,3.89-20.11,4.38-20.6A1.92,1.92,0,1,1,90,269.21s-3.61,4.12-3.27,17.79a1.91,1.91,0,0,1-1.86,2Z" style="fill:#c03a2b"/><path id="Shape-6" data-name="Shape" d="M56,308.17a1.92,1.92,0,0,1-.61-3.75l4-1.32a13.37,13.37,0,0,1,4.25-.69h5.81a1.92,1.92,0,1,1,0,3.84H63.67a9.43,9.43,0,0,0-3,.49l-4,1.33a2.11,2.11,0,0,1-.61.1Z" style="fill:#c03a2b"/><path id="Shape-7" data-name="Shape" d="M56,315.85a1.92,1.92,0,0,1-.61-3.75l4-1.33a13.64,13.64,0,0,1,4.25-.68h5.81a1.92,1.92,0,0,1,0,3.84H63.67a9.16,9.16,0,0,0-3,.49l-4,1.33a2.11,2.11,0,0,1-.61.1Z" style="fill:#c03a2b"/><path id="Shape-8" data-name="Shape" d="M99.89,296.65H92.52v-3.84h7.37a3.86,3.86,0,0,0,3.65-2.63l3.87-11.61,3.65,1.21-3.87,11.62a7.68,7.68,0,0,1-7.3,5.25Z" style="fill:#c03a2b"/><path id="Shape-9" data-name="Shape" d="M106,308.17a2.11,2.11,0,0,1-.61-.1l-4-1.33a9.43,9.43,0,0,0-3-.49H90.6a1.92,1.92,0,1,1,0-3.84h7.73a13.37,13.37,0,0,1,4.25.69l4,1.32a1.92,1.92,0,0,1-.61,3.75Z" style="fill:#c03a2b"/><path id="Shape-10" data-name="Shape" d="M106,315.85a2.11,2.11,0,0,1-.61-.1l-4-1.33a9.16,9.16,0,0,0-3-.49H90.6a1.92,1.92,0,0,1,0-3.84h7.73a13.64,13.64,0,0,1,4.25.68l4,1.33a1.92,1.92,0,0,1-.61,3.75Z" style="fill:#c03a2b"/><path id="Shape-11" data-name="Shape" d="M92.52,325.44h-23a1.92,1.92,0,0,1-1.54-3.07l3.46-4.6H90.6l3.46,4.6a1.92,1.92,0,0,1-1.54,3.07Z" style="fill:#c03a2b"/><path id="Shape-12" data-name="Shape" d="M92.23,346.33a5.63,5.63,0,0,1-3.42-.05,5.73,5.73,0,0,1-3-2.27,5.79,5.79,0,0,1-4.8,2.55,5.71,5.71,0,0,1-4.74-2.49s0-.06-.06-.08a5.77,5.77,0,0,1-3,2.29,5.63,5.63,0,0,1-3.42.05,5.75,5.75,0,0,1-3.9-7.16L70,325.44H92l4.09,13.73a5.75,5.75,0,0,1-3.9,7.16Z" style="fill:#e64c3c"/><path id="Shape-13" data-name="Shape" d="M76.2,344a5.77,5.77,0,0,1-3,2.29,1.79,1.79,0,0,1-.25-.31,7.83,7.83,0,0,1-1.27-4.23v-3.83a1.92,1.92,0,0,1,3.84,0v3.83a4.05,4.05,0,0,0,.65,2.16.15.15,0,0,1,0,.09Z" style="fill:#c03a2b"/><path id="Shape-14" data-name="Shape" d="M90.37,337.87v3.84a7.83,7.83,0,0,1-1.25,4.22,2,2,0,0,1-.31.35,5.73,5.73,0,0,1-3-2.27.53.53,0,0,1,.08-.17,3.84,3.84,0,0,0,.65-2.13v-3.84a1.92,1.92,0,1,1,3.84,0Z" style="fill:#c03a2b"/><path id="Shape-15" data-name="Shape" d="M65.64,269.65c0,7.49-5.16,13.56-11.52,13.56S42.6,277.14,42.6,269.65c0-6.53,3.91-11.95,9.1-13.26a1.94,1.94,0,0,1,2.42,1.88V267a1.93,1.93,0,0,0,.79,1.57,1.9,1.9,0,0,0,1.74.27l6.41-2.15a1.92,1.92,0,0,1,1.65.19,1.9,1.9,0,0,1,.87,1.41c0,.46.06.93.06,1.4Z" style="fill:#e64c3c"/><path id="Shape-16" data-name="Shape" d="M81,281.29a13.44,13.44,0,0,1,13.44,13.44v19.2a3.84,3.84,0,0,1-3.84,3.84H71.4a3.84,3.84,0,0,1-3.84-3.84v-19.2A13.44,13.44,0,0,1,81,281.29Z" style="fill:#e64c3c"/><circle id="Oval" cx="75.24" cy="292.81" r="1.92" style="fill:#35495e"/><circle id="Oval-2" data-name="Oval" cx="86.76" cy="292.81" r="1.92" style="fill:#35495e"/><path id="Shape-17" data-name="Shape" d="M96.36,269.65c0,7.49,5.16,13.56,11.52,13.56s11.52-6.07,11.52-13.56c0-6.53-3.91-11.95-9.1-13.26a1.94,1.94,0,0,0-2.42,1.88V267a1.93,1.93,0,0,1-.79,1.57,1.9,1.9,0,0,1-1.74.27l-6.41-2.15a1.92,1.92,0,0,0-1.65.19,1.9,1.9,0,0,0-.87,1.41C96.38,268.71,96.36,269.18,96.36,269.65Z" style="fill:#e64c3c"/></g></g><path d="M243,304.5a1.67,1.67,0,0,1,1.6,1.18,48,48,0,1,1-16.27-23.74,1.74,1.74,0,0,1,.66,1.35v7.2A14,14,0,0,0,243,304.5Z" style="fill:#bb5335"/><path d="M244.71,306c-1.18,7.4-4.69,17.11-14.68,22.59a34,34,0,0,1-9,3.38,32.73,32.73,0,0,1-22.47,30.82,37.58,37.58,0,0,1-29.89-2.54c-16.61-9.38-14.93-30.42-14.77-32.57a16.89,16.89,0,0,1,11.55-14.79,7.67,7.67,0,0,1,9.68,4.88l3,8.95A22.09,22.09,0,0,0,205.53,341l.45-.15a27.92,27.92,0,0,0,12.54-8.39,38.9,38.9,0,0,1-18.4-1.67,32.71,32.71,0,0,1-22-33.87A28,28,0,0,0,193,308.77l.45.15A22.09,22.09,0,0,0,221,295l3.05-8.91a7.61,7.61,0,0,1,3.91-4.4A48.06,48.06,0,0,1,244.71,306Z" style="fill:#f7b95f"/><path d="M243.51,302.49a30.84,30.84,0,0,1-3.63,9.25c-8,13-24.68,18.16-39.09,13.22a31.24,31.24,0,0,1-20.55-25.08A28,28,0,0,0,193,308.77l.45.15A22.09,22.09,0,0,0,221,295l3.05-8.91a7.61,7.61,0,0,1,3.91-4.4A48,48,0,0,1,243.51,302.49ZM206,340.87l-.45.15a22.09,22.09,0,0,1-27.45-14.27l-3-8.95a7.67,7.67,0,0,0-9.68-4.88,16.85,16.85,0,0,0-10.91,11.3c.12,1.26-.34,11,4.5,19.06,7.82,13.1,24.45,18.46,38.92,13.69a31.25,31.25,0,0,0,20.85-24.84A28,28,0,0,1,206,340.87Z" style="fill:#f9c77e"/><path d="M194.15,311.2a10.94,10.94,0,0,1,.82-1.84,21.65,21.65,0,0,0,9.33.22,10.13,10.13,0,0,1-.49,4.94c-1.37,4-4.65,6.51-7.31,5.59S192.78,315.21,194.15,311.2Zm39.52-19.88a24.61,24.61,0,0,0,3.41-.44,47.77,47.77,0,0,0-9.09-9.21,7.61,7.61,0,0,0-3.91,4.4L223,289.15A20.22,20.22,0,0,0,233.67,291.32Zm-46.39,20.23c1.73.59,3.79-.73,5-3a27.73,27.73,0,0,1-6.76-3.62C184.49,307.89,185.28,310.86,187.28,311.55Zm26.93-6.68a22.29,22.29,0,0,1-7,3.94,12.1,12.1,0,0,0,1.2,7.49c2.34,4.77,6.8,7.37,10,5.82s3.87-6.69,1.54-11.46A11.79,11.79,0,0,0,214.21,304.87ZM230,294.19a14.25,14.25,0,0,0-8.55-.4L221,295a22.19,22.19,0,0,1-3.79,6.83c1.16,2.68,4.06,5.2,7.9,6.52,5.86,2,11.69.47,13-3.43S235.85,296.2,230,294.19Zm-26,47.25a21.82,21.82,0,0,1-9.34.11,10.33,10.33,0,0,0,.43,4.94c1.33,4,4.57,6.56,7.25,5.68s3.78-4.86,2.45-8.88A10.62,10.62,0,0,0,204,341.44Zm2.71-.81c1.17,2.32,3.22,3.66,4.95,3.09,2-.66,2.83-3.63,1.85-6.63A28.49,28.49,0,0,1,206.68,340.63Zm-30.53-19.74-1-3.09a7.67,7.67,0,0,0-9.68-4.88,16.83,16.83,0,0,0-9.15,7.3,20.71,20.71,0,0,0,9.18,2.71A20.16,20.16,0,0,0,176.15,320.89Zm5.64,12.73a22.32,22.32,0,0,1-3.71-6.87l-.39-1.2a14.36,14.36,0,0,0-8.56.3c-5.88,1.94-9.6,6.69-8.31,10.61s7.11,5.53,13,3.59C177.67,338.77,180.6,336.29,181.79,333.62Zm3,3.1a11.72,11.72,0,0,0-5.77,5.72c-2.39,4.74-1.77,9.88,1.39,11.47s7.66-1,10-5.7a12,12,0,0,0,1.3-7.47A22.4,22.4,0,0,1,184.78,336.72Z" style="fill:#fbdfba"/><path d="M186.41,291.26l-6.6,19.25a32.76,32.76,0,0,1,4-29.15A9.22,9.22,0,0,1,186.41,291.26Zm28.34,31.89a32.67,32.67,0,0,0-5.53-6.91,9.21,9.21,0,0,0-.51,10.24l10.17,16.93c.16-.44.32-.88.47-1.32A32.51,32.51,0,0,0,214.75,323.15Z" style="fill:#f45751"/><path d="M190,284.11a9.18,9.18,0,0,1,.39,10.23L180,311.16c-.16-.44-.32-.89-.46-1.33A32.68,32.68,0,0,1,190,284.11Zm29.36,37.42a32.67,32.67,0,0,0-3.88-8,9.19,9.19,0,0,0-2.75,9.87l6.37,19.32A32.6,32.6,0,0,0,219.38,321.53Z" style="fill:#f56d59"/><circle cx="316.5" cy="319.69" r="48" style="fill:#4aaad3"/><path d="M345.38,313l-45.05,2.31c-2-2-2.05-6,.33-9.61a14.37,14.37,0,0,1,1.39-1.8,16.51,16.51,0,0,1,4.13-3.21,18.4,18.4,0,0,1,2.1-1,24.46,24.46,0,0,1,5.64-1.56c.81-.12,1.66-.23,2.54-.29a36.2,36.2,0,0,1,5.51,0l1.47.12.91.11c1.78.22,3.41.51,4.9.84.79.19,1.56.38,2.27.6a28,28,0,0,1,6,2.5,17.3,17.3,0,0,1,2.06,1.34C345.38,307.75,345.38,313,345.38,313Z" style="fill:#7f6e5d"/><path d="M346.54,322.26a21.41,21.41,0,0,1-7.11,13,11.29,11.29,0,0,1-1,.83c-.3.23-.6.48-.92.7a25.85,25.85,0,0,1-6.09,3.2c-.54.19-1.1.39-1.67.55-.19.07-.37.11-.56.17a23.25,23.25,0,0,1-5.31.85c-.52,0-1,0-1.56,0a29.13,29.13,0,0,1-6.83-.94s0,0,0,0c-.46-.11-.91-.24-1.36-.38a32.5,32.5,0,0,1-5.86-2.4c-.36-.19-.7-.37-1-.57s-.66-.39-1-.6a25.34,25.34,0,0,1-2.8-2c-.31-.27-.6-.53-.87-.8s-.55-.54-.8-.82c-2.57-2.84-3.11-5.68-.34-7.3Z" style="fill:#7f6e5d"/><path d="M306.74,310.51a1.07,1.07,0,0,1-.63.2,1.15,1.15,0,0,1-1-.52A14.9,14.9,0,0,0,301,306a1,1,0,0,1-.31-.24,14.37,14.37,0,0,1,1.39-1.8c2.55,1.3,4.91,4.84,5,5a1.16,1.16,0,0,1,.17.87A1.14,1.14,0,0,1,306.74,310.51Z" style="fill:#2c2f38"/><path d="M311.88,306.09a1.16,1.16,0,0,1-.56,1,1.16,1.16,0,0,1-1.75-1c0-.09-.18-2-3.13-5a1.36,1.36,0,0,1-.26-.41,18.4,18.4,0,0,1,2.1-1C311.78,303.29,311.88,305.8,311.88,306.09Z" style="fill:#2c2f38"/><path d="M317.31,304.14a1.14,1.14,0,0,1-1.09.79,1.5,1.5,0,0,1-.37-.05,1.16,1.16,0,0,1-.73-1.46,6.14,6.14,0,0,0,.23-1.65,4.12,4.12,0,0,0-1.11-3,1,1,0,0,1-.32-.67c.81-.12,1.66-.23,2.54-.29A7.4,7.4,0,0,1,317.31,304.14Z" style="fill:#2c2f38"/><path d="M323.33,304.32a1.15,1.15,0,0,1-.84.5h-.12a1.16,1.16,0,0,1-.86-1.93,5.09,5.09,0,0,0,.51-4.52.92.92,0,0,1,0-.49l1.47.12.91.11A7.35,7.35,0,0,1,323.33,304.32Z" style="fill:#2c2f38"/><path d="M331.52,299.55c-.08,3.46-1.26,4.81-1.49,5.05a1.16,1.16,0,0,1-1.66-1.62c.06-.06.83-1.06.84-3.75a.86.86,0,0,1,0-.28C330,299.14,330.81,299.33,331.52,299.55Z" style="fill:#2c2f38"/><path d="M339.53,303.39a9,9,0,0,1-2.44,4.54,1.18,1.18,0,0,1-1.12.31,1.15,1.15,0,0,1-.54-1.93,6.06,6.06,0,0,0,1.87-3.72,1.14,1.14,0,0,1,.17-.54A17.3,17.3,0,0,1,339.53,303.39Z" style="fill:#2c2f38"/><path d="M307.21,329.55c-.06.15-1.25,3.66-3.75,5.12-.31-.27-.6-.53-.87-.8s-.55-.54-.8-.82a1,1,0,0,1,.33-.28c1.55-.77,2.61-3.11,2.89-3.95a1.17,1.17,0,0,1,.87-.77,1.17,1.17,0,0,1,1.33,1.5Z" style="fill:#2c2f38"/><path d="M311.88,331.5c0,.28-.1,2.79-3.6,6.38-.36-.19-.7-.37-1-.57s-.66-.39-1-.6a1.14,1.14,0,0,1,.18-.25c3-3,3.13-5,3.13-5a1.16,1.16,0,1,1,2.31,0Z" style="fill:#2c2f38"/><path d="M315.88,340.4a1.64,1.64,0,0,1-.37.26s0,0,0,0c-.46-.11-.91-.24-1.36-.38a1.14,1.14,0,0,1,.1-1.51c1.77-1.77.89-4.58.88-4.6a1.15,1.15,0,0,1,2.19-.73C317.37,333.62,318.67,337.62,315.88,340.4Z" style="fill:#2c2f38"/><path d="M324.21,341.1a1.21,1.21,0,0,1-.31.49c-.52,0-1,0-1.56,0a1.16,1.16,0,0,1-.32-1.23,5,5,0,0,0-.62-4.65,1.16,1.16,0,1,1,1.76-1.5A7.29,7.29,0,0,1,324.21,341.1Z" style="fill:#2c2f38"/><path d="M331.52,339.59a1.31,1.31,0,0,1-.08.43c-.54.19-1.1.39-1.67.55a1.14,1.14,0,0,1-.56-1c0-2.83-.83-3.83-.84-3.84a1.17,1.17,0,0,1,.07-1.61,1.13,1.13,0,0,1,1.59,0C330.27,334.4,331.52,335.83,331.52,339.59Z" style="fill:#2c2f38"/><path d="M339.43,335.29a11.29,11.29,0,0,1-1,.83c-.3.23-.6.48-.92.7a1.27,1.27,0,0,1-.23-.62,6.74,6.74,0,0,0-2-2.73,1.15,1.15,0,0,1,0-1.63,1.16,1.16,0,0,1,1.64,0A10.08,10.08,0,0,1,339.43,335.29Z" style="fill:#2c2f38"/><path d="M297.6,324.57c-2.33,0-4.66,2.31-8.15,4.62-2.6,1.72-4.7-2.4-5.54-4.22a9.51,9.51,0,0,1,.11-8.31c.9-1.74,3-5.23,5.43-3.64,3.49,2.31,5.82,4.62,8.15,4.62s8.15-12.71,22.12-13.86,22.13,6.93,30.28,12.7c0,0-9.32,19.64-25.62,18.48S303.42,324.57,297.6,324.57Z" style="fill:#cbb292"/><path d="M325.27,323.34a4.78,4.78,0,0,1-2.58-.63,4,4,0,0,1-1.75-3.69,4.52,4.52,0,0,1,1.9-4c2.86-1.9,7.75,0,8.3.24a1.15,1.15,0,0,1-.88,2.13c-1.1-.44-4.58-1.49-6.14-.45-.21.14-.86.57-.87,2.11,0,1.3.49,1.61.66,1.71,1.36.84,5-.3,7.09-1.39a1.16,1.16,0,0,1,1.05,2.06A17.32,17.32,0,0,1,325.27,323.34Z" style="fill:#7f6e5d"/><path d="M338.45,331.5l-.19,0c-.15,0-3.78-.66-5-3.31-.71-1.54-.46-3.35.75-5.35a1.15,1.15,0,0,1,2,0,1.18,1.18,0,0,1,0,1.18,3.51,3.51,0,0,0-.63,3.2c.59,1.28,2.63,1.88,3.29,2a1.16,1.16,0,0,1-.19,2.3Z" style="fill:#2c2f38"/><path d="M332.57,334.93a1.14,1.14,0,0,1-.41-.07c-.89-.34-3.86-1.66-4.79-4.37a6.22,6.22,0,0,1,.85-5.36,1.16,1.16,0,0,1,2,0,1.17,1.17,0,0,1,0,1.17,4,4,0,0,0-.65,3.42c.63,1.81,3,2.78,3.44,3a1.15,1.15,0,0,1-.42,2.23Z" style="fill:#2c2f38"/><path d="M288.78,320a1.13,1.13,0,0,1-.51-.12l-4.62-2.31a1.16,1.16,0,1,1,1-2.07l4.62,2.31a1.16,1.16,0,0,1-.52,2.19Z" style="fill:#7f6e5d"/><path d="M284.16,326.88a1.16,1.16,0,0,1-.52-2.19l4.62-2.31a1.16,1.16,0,0,1,1.71,1.1,1.14,1.14,0,0,1-.67,1l-4.62,2.31A1.06,1.06,0,0,1,284.16,326.88Z" style="fill:#7f6e5d"/><path d="M301.49,322.26a1.16,1.16,0,1,1,0-2.31s2.21-.13,7.49-3.3c6.25-3.75,13.51-.2,13.82,0a1.17,1.17,0,0,1,.51,1.55,1.15,1.15,0,0,1-1.54.52c-.07,0-6.45-3.13-11.6,0C304.29,322.16,301.76,322.26,301.49,322.26Z" style="fill:#7f6e5d"/><path d="M341.92,315.09a2.31,2.31,0,1,1-2.31-2.31A2.32,2.32,0,0,1,341.92,315.09Z" style="fill:#fff"/><path d="M340.76,315.09a1.16,1.16,0,0,1-2.31,0,1.16,1.16,0,1,1,2.31,0Z" style="fill:#2c2f38"/><path d="M341.92,320.86a2.31,2.31,0,1,1-2.31-2.31A2.31,2.31,0,0,1,341.92,320.86Z" style="fill:#fff"/><path d="M340.76,320.86a1.16,1.16,0,1,1-1.15-1.15A1.15,1.15,0,0,1,340.76,320.86Z" style="fill:#2c2f38"/><path d="M339.61,313.93a1.16,1.16,0,0,1-2.21.48,2.34,2.34,0,0,1,1.53-1.53A1.17,1.17,0,0,1,339.61,313.93Z" style="fill:#fff"/><path d="M339.61,319.71a1.15,1.15,0,0,1-.92,1.12,1.14,1.14,0,0,1-1.29-.65,2.35,2.35,0,0,1,1.53-1.52A1.14,1.14,0,0,1,339.61,319.71Z" style="fill:#fff"/></svg>