<svg id="Layer_1" data-name="Layer 1" xmlns="http://www.w3.org/2000/svg" viewBox="0 0 449.44 215.15"><title>Header</title><circle cx="48" cy="48" r="48" style="fill:#fb7833"/><path d="M129.15,81.56c0-1.09-.05-2.17-.12-3.23L98.53,47.82H63.78v9.77l-6,8.42v46.75L74,129a49.1,49.1,0,0,0,7.12.53A48,48,0,0,0,129.15,81.56Z" transform="translate(-33.15 -33.56)" style="opacity:0.100000001490116;isolation:isolate"/><path d="M104.55,66v44.23l-12,5.05-34.75-2.53V66l6-8.42V47.82H98.53v9.77Z" transform="translate(-33.15 -33.56)" style="fill:#ededed"/><path d="M104.55,110.23l-12,5.06V66l6-8.42,6,8.42Z" transform="translate(-33.15 -33.56)" style="fill:#b1b2b6"/><path d="M98.53,57.59H63.78l-6,8.42H92.51Z" transform="translate(-33.15 -33.56)" style="fill:#dbd8dd"/><path d="M63.78,47.82H98.53v9.77H63.78Z" transform="translate(-33.15 -33.56)" style="fill:#ededed"/><path d="M88.31,66v0H83v0h-4.4v0H62.81v0H57.76V79.68a2.63,2.63,0,0,0,2.39,2.67,2.53,2.53,0,0,0,2.66-2.53V75.5a2.53,2.53,0,0,1,5,0V76a2.61,2.61,0,0,0,2.39,2.66,2.52,2.52,0,0,0,2.66-2.52V71.82a2,2,0,1,1,4.09,0v9a3.43,3.43,0,0,0,3,3.47,3.34,3.34,0,0,0,3.67-3.32V79.68a1.81,1.81,0,0,1,1.8-1.8h.18a1.81,1.81,0,0,1,1.8,1.8,2.63,2.63,0,0,0,2.39,2.67,2.54,2.54,0,0,0,2.66-2.53V66Z" transform="translate(-33.15 -33.56)" style="fill:#4288b9"/><path d="M90.25,99.07a2.1,2.1,0,0,0-2.3,2.12v3.94a2.21,2.21,0,0,1-2.42,2.23,2.65,2.65,0,0,1-2.42-2.6v-.87a3.21,3.21,0,0,0-2.92-3.14h0a2.68,2.68,0,0,0-2.93,2.7V106a2.61,2.61,0,0,1-2.85,2.63h0a3.13,3.13,0,0,1-2.86-3.06V100a2.52,2.52,0,0,0-2.3-2.47A2.11,2.11,0,0,0,67,99.6v1.81a2.09,2.09,0,0,1-2.29,2.11,2.51,2.51,0,0,1-2.3-2.46v-.63A2.51,2.51,0,0,0,60.06,98a2.09,2.09,0,0,0-2.3,2.11v12.68l34.75,2.53,0-13.76A2.51,2.51,0,0,0,90.25,99.07Z" transform="translate(-33.15 -33.56)" style="fill:#4288b9"/><path d="M94.94,110.83l-.64.27v-8.31l.64-.27Z" transform="translate(-33.15 -33.56)" style="fill:#344d5b"/><path d="M97.61,109.69l-.32.14v-8.31l.32-.13Z" transform="translate(-33.15 -33.56)" style="fill:#344d5b"/><path d="M96.68,110.09l-1.11.47v-8.31l1.11-.47Z" transform="translate(-33.15 -33.56)" style="fill:#344d5b"/><path d="M98.87,109.16l-.64.27v-8.3l.64-.28Z" transform="translate(-33.15 -33.56)" style="fill:#344d5b"/><path d="M101.54,108l-.31.13V99.85l.31-.13Z" transform="translate(-33.15 -33.56)" style="fill:#344d5b"/><path d="M100.61,108.42l-1.11.47v-8.31l1.11-.47Z" transform="translate(-33.15 -33.56)" style="fill:#344d5b"/><path d="M102.79,107.49l-.77.33V99.51l.77-.32Z" transform="translate(-33.15 -33.56)" style="fill:#344d5b"/><path d="M65.61,92.41v-6.1l1.22.07,1.44,4.41c.13.41.23.71.29.92.07-.22.18-.54.32-1l1.46-4.16,1.09.06v6.1l-.78,0V87.6l-1.77,5-.73,0-1.76-5.3v5.2Z" transform="translate(-33.15 -33.56)" style="fill:#293b44"/><path d="M72.87,92.83v-6.1l.8,0v6.1Z" transform="translate(-33.15 -33.56)" style="fill:#293b44"/><path d="M75.06,93v-6.1l.81,0v5.38l3,.17v.72Z" transform="translate(-33.15 -33.56)" style="fill:#293b44"/><path d="M79.79,93.23V87.14l.81,0v3l3-2.85,1.1.06-2.56,2.32,2.67,3.79-1.06-.06L81.6,90.25l-1,.92v2.11Z" transform="translate(-33.15 -33.56)" style="fill:#293b44"/><circle cx="165.59" cy="48" r="48" style="fill:#ff9a00"/><path d="M246.59,85.37,219.86,58.64c-2.34-2.48-4.84-4-7.27-4-4.46,0-9.09,5.12-12.65,11.77l-8.16-8.15c-2.22-2.25-4.58-3.62-6.88-3.62-9.45,0-19.72,23.07-18.79,34.89a18,18,0,0,0,5.63,12.15l27.88,27.89A48,48,0,0,0,246.59,85.37Z" transform="translate(-33.15 -33.56)" style="fill:#e67500"/><path d="M184.9,54.62c-9.45,0-19.72,23.07-18.79,34.89s10.58,17.23,18.79,17.23,17.86-5.41,18.79-17.23S194.35,54.62,184.9,54.62Z" transform="translate(-33.15 -33.56)" style="fill:#fff5cb"/><path d="M203.69,89.51c-.93,11.82-10.58,17.23-18.79,17.23V54.62C194.35,54.62,204.62,77.69,203.69,89.51Z" transform="translate(-33.15 -33.56)" style="fill:#ffec97"/><path d="M212.59,54.62c-9.45,0-19.73,23.07-18.8,34.89s10.59,17.23,18.8,17.23,17.85-5.41,18.79-17.23S222,54.62,212.59,54.62Z" transform="translate(-33.15 -33.56)" style="fill:#fff"/><path d="M231.38,89.51c-.94,11.82-10.58,17.23-18.79,17.23V54.62C222,54.62,232.31,77.69,231.38,89.51Z" transform="translate(-33.15 -33.56)" style="fill:#fff5cb"/><circle cx="283.35" cy="48" r="48" style="fill:#d67b42"/><path d="M316.5,33.56c-1,0-1.94,0-2.9.09a48,48,0,0,1,0,95.82c1,.05,1.93.09,2.9.09a48,48,0,0,0,0-96Z" transform="translate(-33.15 -33.56)" style="fill:#be652b"/><path d="M316.5,123.76a42.22,42.22,0,1,1,29.84-12.36,41.93,41.93,0,0,1-29.84,12.36Z" transform="translate(-33.15 -33.56)" style="fill:#a75224"/><path d="M305.74,65.91A13.91,13.91,0,0,0,295,82.34a5,5,0,1,0,9.83-2,3.86,3.86,0,0,1,3-4.56,5,5,0,1,0-2-9.83Z" transform="translate(-33.15 -33.56)" style="fill:#f5b460"/><path d="M311.68,69.8a5,5,0,0,0-5.94-3.89,14,14,0,0,0-2.15.63,5,5,0,0,1-1.6,9.2,3.86,3.86,0,0,0-3,4.56,5,5,0,0,1-2,5.12,5,5,0,0,0,7.81-5.12,3.86,3.86,0,0,1,3-4.56,5,5,0,0,0,3.9-5.94Z" transform="translate(-33.15 -33.56)" style="fill:#e69955"/><path d="M324.22,84.37a5,5,0,0,0,6.93-1.54,13.9,13.9,0,0,0-4.27-19.19,5,5,0,0,0-5.39,8.48,3.85,3.85,0,0,1,1.19,5.32,5,5,0,0,0,1.54,6.93Z" transform="translate(-33.15 -33.56)" style="fill:#f5b460"/><path d="M333,72.35a13.84,13.84,0,0,0-6.11-8.71,5,5,0,0,0-5.59.14,13.88,13.88,0,0,1,4.07,19A5.16,5.16,0,0,1,324,84.24l.2.13a5,5,0,0,0,6.93-1.54A13.81,13.81,0,0,0,333,72.35Z" transform="translate(-33.15 -33.56)" style="fill:#e69955"/><path d="M296.12,94a3.86,3.86,0,0,1-3.86-3.85,5,5,0,1,0-10,0,13.92,13.92,0,0,0,13.9,13.9,5,5,0,0,0,0-10Z" transform="translate(-33.15 -33.56)" style="fill:#f5b460"/><path d="M296.12,94a3.86,3.86,0,0,1-3.86-3.85,5,5,0,0,0-7.92-4.1,5,5,0,0,1,2.13,4.1A3.86,3.86,0,0,0,290.32,94a5,5,0,0,1,2.16,9.56,13.67,13.67,0,0,0,3.64.49,5,5,0,0,0,0-10Z" transform="translate(-33.15 -33.56)" style="fill:#e69955"/><path d="M317.8,80.58a5,5,0,0,0-8.34,5.61,3.86,3.86,0,0,1-1,5.35A5,5,0,1,0,314,99.87a13.91,13.91,0,0,0,3.77-19.29Z" transform="translate(-33.15 -33.56)" style="fill:#f5b460"/><path d="M317.8,80.58a5,5,0,0,0-7-1.36l-.09.06a5.07,5.07,0,0,1,1.27,1.3,13.91,13.91,0,0,1-3.68,19.23,5,5,0,0,0,5.71.06,13.91,13.91,0,0,0,3.77-19.29Z" transform="translate(-33.15 -33.56)" style="fill:#e69955"/><path d="M325.09,102.86a5,5,0,0,0-6.82,2,3.85,3.85,0,0,1-5.24,1.51,5,5,0,0,0-4.85,8.8,13.91,13.91,0,0,0,18.89-5.46,5,5,0,0,0-2-6.82Z" transform="translate(-33.15 -33.56)" style="fill:#f5b460"/><path d="M325.09,102.86a5,5,0,0,0-5.32.29,5,5,0,0,1,1.5,6.53,13.79,13.79,0,0,1-8.31,6.64c-.32.09-.65.17-1,.24a13.32,13.32,0,0,0,2.89.31,14,14,0,0,0,3.88-.55,13.84,13.84,0,0,0,8.31-6.64A5,5,0,0,0,325.09,102.86Z" transform="translate(-33.15 -33.56)" style="fill:#e69955"/><path d="M319,57.33a3.88,3.88,0,0,1,5.45.16,5,5,0,1,0,7.31-6.89A13.91,13.91,0,0,0,312.11,50a5,5,0,1,0,6.89,7.3Z" transform="translate(-33.15 -33.56)" style="fill:#f5b460"/><path d="M331.76,50.6a13.79,13.79,0,0,0-9.71-4.35,14,14,0,0,0-3.31.29A13.85,13.85,0,0,1,326,50.6a5,5,0,0,1-.21,7.1,4.7,4.7,0,0,1-.55.45,5,5,0,0,0,6.56-7.55Z" transform="translate(-33.15 -33.56)" style="fill:#e69955"/><path d="M339.25,90.41a3.84,3.84,0,0,1-5.45,0,5,5,0,0,0-7.11,7.11,13.93,13.93,0,0,0,19.66,0,5,5,0,0,0-7.1-7.11Z" transform="translate(-33.15 -33.56)" style="fill:#f5b460"/><path d="M346.35,90.41a5,5,0,0,0-6.45-.55,6.87,6.87,0,0,1,.66.55,5,5,0,0,1,0,7.11,13.74,13.74,0,0,1-6.93,3.75,14,14,0,0,0,2.89.31,13.86,13.86,0,0,0,9.83-4.07,5,5,0,0,0,0-7.1Z" transform="translate(-33.15 -33.56)" style="fill:#e69955"/><path d="M289.9,72.63a5,5,0,0,0,4.62-5.39,3.86,3.86,0,0,1,3.55-4.14,5,5,0,0,0-.76-10A13.92,13.92,0,0,0,284.51,68a5,5,0,0,0,5.39,4.62Z" transform="translate(-33.15 -33.56)" style="fill:#f5b460"/><path d="M302.7,57.71a5,5,0,0,0-5.39-4.63,13.75,13.75,0,0,0-3,.58,5,5,0,0,1-2,9.44,3.86,3.86,0,0,0-3.55,4.14,5,5,0,0,1-2.11,4.48,5,5,0,0,0,7.9-4.48,3.86,3.86,0,0,1,3.55-4.14A5,5,0,0,0,302.7,57.71Z" transform="translate(-33.15 -33.56)" style="fill:#e69955"/><path d="M346.9,63.45a5,5,0,0,0-7.53,6.64,3.87,3.87,0,0,1-.33,5.45,5,5,0,0,0,6.65,7.53,13.91,13.91,0,0,0,1.21-19.62Z" transform="translate(-33.15 -33.56)" style="fill:#f5b460"/><path d="M346.9,63.45a5,5,0,0,0-6.66-.78,5.29,5.29,0,0,1,.87.78,13.92,13.92,0,0,1-1.22,19.62,4.46,4.46,0,0,1-.43.33,5,5,0,0,0,6.23-.33,13.91,13.91,0,0,0,1.21-19.62Z" transform="translate(-33.15 -33.56)" style="fill:#e69955"/><path d="M364.5,200.7a48,48,0,1,1-48-48A48,48,0,0,1,364.5,200.7Z" transform="translate(-33.15 -33.56)" style="fill:#f5cf51"/><path d="M305.83,194.16l-.56.55c-17.54,17-39.49-5-22.53-22.53l.55-.56c10.32-10.31,23.76-14.05,32.06-9.52C319.89,170.41,316.14,183.85,305.83,194.16Z" transform="translate(-33.15 -33.56)" style="fill:#d58a2d"/><path d="M305.83,194.16l-.56.55a21.38,21.38,0,0,1-9.31,5.54,14.25,14.25,0,0,1-3.2-1.31,1.74,1.74,0,0,1,.21-3.15,37.94,37.94,0,0,0,9.45-5.74c6.88-5.51,11-11.79,9.2-14a1.8,1.8,0,0,0-.19-.2c-2.12,3.27-6.13,7.48-11.18,11.53a64.45,64.45,0,0,1-10.71,7.07,1.75,1.75,0,0,1-2.26-.62,1,1,0,0,1-.11-.17,1.74,1.74,0,0,1,.51-2.35,66.8,66.8,0,0,0,8.77-7.62c5.49-5.49,9.35-10.53,8.62-11.26s-5.78,3.12-11.27,8.61a84.91,84.91,0,0,0-5.77,6.32,1.74,1.74,0,0,1-3.09-1v0a1.74,1.74,0,0,1,.25-1,70.43,70.43,0,0,1,5.36-7.63,54.91,54.91,0,0,1,11.53-11.19,1.62,1.62,0,0,0-.19-.18,2.19,2.19,0,0,0-1.53-.42.48.48,0,0,1-.28-.89,33.88,33.88,0,0,1,11.18-4.35,15.2,15.2,0,0,1,4.1,1.49C319.89,170.41,316.14,183.85,305.83,194.16Z" transform="translate(-33.15 -33.56)" style="fill:#e2902a"/><path d="M296.77,213l.42-.41c13.51-12.86,38,11.67,25.19,25.18l-.42.43c-7.88,7.88-19.87,9-28.48,3.28C287.74,232.85,288.89,220.87,296.77,213Z" transform="translate(-33.15 -33.56)" style="fill:#bb5335"/><path d="M307.53,210.59c.21-.21.41-.42.63-.62s.53-.5.79-.73c11.88,2.34,23,18.47,13.43,28.51l-.42.43a22.89,22.89,0,0,1-24.7,5.28C294.43,232.92,298,220.1,307.53,210.59Z" transform="translate(-33.15 -33.56)" style="fill:#d25e3e"/><path d="M318.22,225.87a11.79,11.79,0,0,1-9.75.61,11.81,11.81,0,0,1,.6-9.76A12,12,0,0,1,301,210v0c12.4-5.43,29.36,11.52,23.93,23.93h0A12,12,0,0,1,318.22,225.87Z" transform="translate(-33.15 -33.56)" style="fill:#e5846a"/><path d="M356.37,205a6.6,6.6,0,0,1,4,11.17l-.08.08c-8.77,8.78-24.24,7.59-34.47-2.65s-11.43-25.7-2.66-34.47l.08-.08A6.61,6.61,0,0,1,334.38,183a25.8,25.8,0,0,0,22,22Z" transform="translate(-33.15 -33.56)" style="fill:#fae8b1"/><path d="M362,213.12c-8.89,4.58-21.07,2.34-29.61-6.2s-10.79-20.72-6.2-29.61a6.63,6.63,0,0,1,8.17,5.64,25.8,25.8,0,0,0,22,22,6.63,6.63,0,0,1,5.65,8.17Zm-86.46-8.44a5.16,5.16,0,0,0,6.5,6.5,5.16,5.16,0,0,0-6.5-6.5Zm71.67-20.12a4.7,4.7,0,0,0,1.26-5.24,5.16,5.16,0,0,0-6.5,6.5A4.69,4.69,0,0,0,347.23,184.56Z" transform="translate(-33.15 -33.56)" style="fill:#fbf1d1"/><path d="M336,237.06a4.69,4.69,0,0,1-5.24,1.26,5.16,5.16,0,0,1,6.5-6.5A4.7,4.7,0,0,1,336,237.06Zm-2.22-66a5.16,5.16,0,0,0-6.5-6.5,5.16,5.16,0,0,0,6.5,6.5Zm-27.4,29.12a5.17,5.17,0,0,0,6.51,6.5,5.17,5.17,0,0,0-6.51-6.5Z" transform="translate(-33.15 -33.56)" style="fill:#a0452c"/><circle cx="165.59" cy="167.15" r="48" style="fill:#a34a28"/><path d="M246.19,208l-9.52-9.52A13.7,13.7,0,0,0,233,198a11.22,11.22,0,0,0-8.88,4.17l-4.4-4.4a1.46,1.46,0,0,0-.07-.19.2.2,0,0,0-.08,0l-30.69-30.69A13.79,13.79,0,0,0,186,164.1a12.11,12.11,0,0,0-4.16,8.94,11.78,11.78,0,0,0,3.83,8.55l.1,2.73-2.64-2.64h0a12.05,12.05,0,0,0-6.93-3.63,12.13,12.13,0,0,0,3.83,10.84h0l6.18,6.18,0,1-2.63-2.64h0a12.14,12.14,0,0,0-6.93-3.63,12.11,12.11,0,0,0,3.83,10.84h0l6.18,6.18,0,1-2.7-2.75h0a12.1,12.1,0,0,0-6.87-3.56,12,12,0,0,0-.15,1.87,12.14,12.14,0,0,0,3.42,8.43h0l.07.06.08.09,6.57,6.57.19,4.92,4.31,4.31-4.7,3.19,1.26,1.86,15.57,15.57A48,48,0,0,0,246.19,208Z" transform="translate(-33.15 -33.56)" style="opacity:0.100000001490116;isolation:isolate"/><path d="M185.43,174.68l2.25-.08,1.85,48.82-2.24.08Z" transform="translate(-33.15 -33.56)" style="fill:#fed35b"/><path d="M198,200.77a12.18,12.18,0,0,0-9.09,14.64A12.19,12.19,0,0,0,198,200.77Z" transform="translate(-33.15 -33.56)" style="fill:#fed35b"/><path d="M177.14,201.56a12.18,12.18,0,0,1,10.17,13.91,12.18,12.18,0,0,1-10.17-13.91Z" transform="translate(-33.15 -33.56)" style="fill:#fed35b"/><path d="M197.58,189a12.18,12.18,0,0,0-9.09,14.64A12.19,12.19,0,0,0,197.58,189Z" transform="translate(-33.15 -33.56)" style="fill:#fed35b"/><path d="M176.69,189.81a12.18,12.18,0,0,1,10.17,13.91,12.18,12.18,0,0,1-10.17-13.91Z" transform="translate(-33.15 -33.56)" style="fill:#fed35b"/><path d="M197.13,177.27A12.18,12.18,0,0,0,188,191.9a12.17,12.17,0,0,0,9.09-14.63Z" transform="translate(-33.15 -33.56)" style="fill:#fed35b"/><path d="M186,164.1h0c-5.92,5.43-5.49,13.76,1,18.6C192.93,177.27,192.49,168.94,186,164.1Z" transform="translate(-33.15 -33.56)" style="fill:#fed35b"/><path d="M176.24,178.06A12.2,12.2,0,0,1,186.42,192a12.19,12.19,0,0,1-10.18-13.91Z" transform="translate(-33.15 -33.56)" style="fill:#fed35b"/><path d="M227.4,203.62l1.26,1.86L188.2,232.9,186.94,231Z" transform="translate(-33.15 -33.56)" style="fill:#fed35b"/><path d="M211.89,228.08a12.18,12.18,0,0,0-17.23,0,12.19,12.19,0,0,0,17.23,0Z" transform="translate(-33.15 -33.56)" style="fill:#feda6f"/><path d="M200.17,210.76a12.19,12.19,0,0,1-6.43,16,12.19,12.19,0,0,1,6.43-16Z" transform="translate(-33.15 -33.56)" style="fill:#feda6f"/><path d="M221.62,221.48a12.17,12.17,0,0,0-17.22,0,12.17,12.17,0,0,0,17.22,0Z" transform="translate(-33.15 -33.56)" style="fill:#feda6f"/><path d="M209.9,204.17a12.18,12.18,0,0,1-6.42,16,12.18,12.18,0,0,1,6.42-16Z" transform="translate(-33.15 -33.56)" style="fill:#feda6f"/><path d="M231.36,214.89a12.18,12.18,0,0,0-17.23,0,12.19,12.19,0,0,0,17.23,0Z" transform="translate(-33.15 -33.56)" style="fill:#feda6f"/><path d="M236.67,198.51h0c-7.74-2.15-14.58,2.62-15.27,10.66C229.14,211.32,236,206.55,236.67,198.51Z" transform="translate(-33.15 -33.56)" style="fill:#feda6f"/><path d="M219.64,197.58a12.19,12.19,0,0,1-6.42,16,12.18,12.18,0,0,1,6.42-16Z" transform="translate(-33.15 -33.56)" style="fill:#feda6f"/><circle cx="48" cy="167.15" r="48" style="fill:#c66312"/><path d="M64.85,182.63c3.82,2.87,8.36,3.27,10.14.9s.14-6.62-3.68-9.49-8.35-3.27-10.14-.9S61,179.77,64.85,182.63Z" transform="translate(-33.15 -33.56)" style="fill:#fff3da"/><path d="M51.9,196.83c0,4.77,2.41,8.64,5.38,8.64s5.37-3.87,5.37-8.64-2.4-8.64-5.37-8.64-5.38,3.87-5.38,8.64Z" transform="translate(-33.15 -33.56)" style="fill:#fff3da"/><path d="M78.87,200.09c3.82-2.87,8.36-3.27,10.14-.9s.14,6.62-3.68,9.49-8.35,3.27-10.14.9-.13-6.63,3.68-9.49ZM63.47,232c8.51,0,16.19-4.35,18.5-14.36a17.69,17.69,0,0,0,13.35-16,16.63,16.63,0,0,0,9.29-5.83c4.23-5.08,3.68-9.11,4-12.9,3.37-4.71,4.64-7.8,2.92-13.37-3.88,5.86-3.77,5.65-7.89,5.5-7.58-.28-14.86,1-18.67,7.05a17,17,0,0,0-2.84,8.6,17.66,17.66,0,0,0-13.35,16C57.33,210.53,53.44,217.3,50,228.54A30,30,0,0,0,63.42,232Zm25.59-39c-1.79-2.38-.14-6.62,3.67-9.49s8.36-3.27,10.14-.9.14,6.62-3.68,9.49S90.84,195.3,89.06,192.93ZM64.25,215.47c4.35-1.95,8.87-1.34,10.08,1.38s-1.33,6.48-5.69,8.44-8.87,1.33-10.08-1.38S59.89,217.43,64.25,215.47Z" transform="translate(-33.15 -33.56)" style="fill:#a8b55d"/><path d="M75.19,209.58c1.79,2.37,6.33,2,10.14-.9s5.47-7.12,3.68-9.49-6.32-2-10.14.9S73.41,207.2,75.19,209.58Z" transform="translate(-33.15 -33.56)" style="fill:#fff3da"/><path d="M58.56,223.91c1.21,2.72,5.73,3.33,10.08,1.38s6.91-5.74,5.69-8.44-5.73-3.33-10.08-1.38S57.35,221.21,58.56,223.91Z" transform="translate(-33.15 -33.56)" style="fill:#fff3da"/><path d="M93.65,225.43c1.79,2.38,6.33,2,10.14-.89s5.46-7.12,3.68-9.49-6.32-2-10.14.9S91.87,223.06,93.65,225.43Z" transform="translate(-33.15 -33.56)" style="fill:#fff3da"/><path d="M89.06,192.93c1.78,2.37,6.32,2,10.13-.9s5.47-7.12,3.68-9.49-6.32-2-10.14.9-5.46,7.11-3.67,9.49Z" transform="translate(-33.15 -33.56)" style="fill:#fff3da"/><path d="M478.91,66.37a1.69,1.69,0,0,1,1.61,1.18,48,48,0,1,1-16.27-23.74,1.74,1.74,0,0,1,.66,1.35v7.2A14,14,0,0,0,478.91,66.37Z" transform="translate(-33.15 -33.56)" style="fill:#bb5335"/><path d="M480.62,67.9c-1.18,7.4-4.7,17.11-14.68,22.59a34.2,34.2,0,0,1-9,3.38,32.71,32.71,0,0,1-22.46,30.82,37.53,37.53,0,0,1-29.89-2.54c-16.61-9.38-14.93-30.42-14.77-32.57a16.9,16.9,0,0,1,11.55-14.79A7.67,7.67,0,0,1,411,79.67l2.95,9a22.09,22.09,0,0,0,27.44,14.27l.46-.15a28,28,0,0,0,12.54-8.39A38.89,38.89,0,0,1,436,92.68a32.71,32.71,0,0,1-22-33.87,28,28,0,0,0,14.8,11.83l.46.15a22.09,22.09,0,0,0,27.62-13.94L460,47.94a7.63,7.63,0,0,1,3.9-4.4A48,48,0,0,1,480.62,67.9Z" transform="translate(-33.15 -33.56)" style="fill:#f7b95f"/><path d="M479.42,64.36a30.61,30.61,0,0,1-3.64,9.25c-8,13-24.67,18.16-39.08,13.22a31.22,31.22,0,0,1-20.55-25.08,28,28,0,0,0,12.71,8.89l.46.15a22.09,22.09,0,0,0,27.62-13.94L460,47.94a7.63,7.63,0,0,1,3.9-4.4A48.14,48.14,0,0,1,479.42,64.36Zm-37.53,38.38-.46.15A22.09,22.09,0,0,1,414,88.62l-2.95-9a7.67,7.67,0,0,0-9.68-4.88A16.88,16.88,0,0,0,390.44,86.1c.13,1.25-.34,11,4.5,19.05,7.82,13.1,24.46,18.46,38.92,13.69A31.24,31.24,0,0,0,454.71,94,28,28,0,0,1,441.89,102.74Z" transform="translate(-33.15 -33.56)" style="fill:#f9c77e"/><path d="M430.06,73.07a11.77,11.77,0,0,1,.81-1.84,21.7,21.7,0,0,0,9.34.22,10.38,10.38,0,0,1-.49,4.94c-1.37,4-4.65,6.51-7.32,5.59S428.68,77.08,430.06,73.07Zm39.52-19.88a23.36,23.36,0,0,0,3.41-.44,47.83,47.83,0,0,0-9.1-9.21,7.63,7.63,0,0,0-3.9,4.4L458.94,51A20.18,20.18,0,0,0,469.58,53.19ZM423.19,73.42c1.72.59,3.79-.73,5-3a27.85,27.85,0,0,1-6.75-3.62C420.4,69.76,421.19,72.73,423.19,73.42Zm26.92-6.68a22.18,22.18,0,0,1-7,3.94,12,12,0,0,0,1.21,7.49c2.33,4.77,6.8,7.37,10,5.82s3.86-6.69,1.53-11.45A11.73,11.73,0,0,0,450.11,66.74ZM465.9,56.07a14.21,14.21,0,0,0-8.56-.41l-.4,1.19a22.4,22.4,0,0,1-3.79,6.83c1.15,2.68,4.05,5.2,7.9,6.52,5.86,2,11.69.47,13-3.43S471.75,58.07,465.9,56.07Zm-26,47.24a21.77,21.77,0,0,1-9.33.11,10.08,10.08,0,0,0,.43,4.94c1.32,4,4.57,6.56,7.25,5.68s3.78-4.86,2.45-8.88A11.46,11.46,0,0,0,439.87,103.31Zm2.71-.81c1.17,2.32,3.22,3.66,5,3.09,2-.66,2.82-3.63,1.84-6.63A27.77,27.77,0,0,1,442.58,102.5ZM412.06,82.76l-1-3.09a7.67,7.67,0,0,0-9.68-4.88,16.85,16.85,0,0,0-9.16,7.3,20.71,20.71,0,0,0,9.19,2.71A20.18,20.18,0,0,0,412.06,82.76Zm5.63,12.73a22.09,22.09,0,0,1-3.7-6.87l-.4-1.2a14.36,14.36,0,0,0-8.56.3c-5.88,1.94-9.6,6.69-8.3,10.61s7.1,5.53,13,3.59C413.57,100.64,416.5,98.16,417.69,95.49Zm3,3.1a11.69,11.69,0,0,0-5.78,5.72c-2.39,4.74-1.76,9.88,1.4,11.47s7.66-1,10.05-5.7a12,12,0,0,0,1.29-7.47A22.24,22.24,0,0,1,420.69,98.59Z" transform="translate(-33.15 -33.56)" style="fill:#fbdfba"/><path d="M422.31,53.13l-6.6,19.25a32.6,32.6,0,0,1,0-21.24,33.31,33.31,0,0,1,4-7.91A9.2,9.2,0,0,1,422.31,53.13ZM450.66,85a32.67,32.67,0,0,0-5.53-6.91,9.19,9.19,0,0,0-.52,10.24l10.17,16.93q.25-.66.48-1.32A32.53,32.53,0,0,0,450.66,85Z" transform="translate(-33.15 -33.56)" style="fill:#f45751"/><path d="M425.92,46a9.19,9.19,0,0,1,.39,10.24L415.94,73c-.16-.44-.31-.89-.46-1.33A32.77,32.77,0,0,1,425.92,46ZM455.28,83.4a32.4,32.4,0,0,0-3.87-8,9.19,9.19,0,0,0-2.76,9.86L455,104.63A32.54,32.54,0,0,0,455.28,83.4Z" transform="translate(-33.15 -33.56)" style="fill:#f56d59"/><circle cx="401.44" cy="167.15" r="48" style="fill:#4aaad3"/><path d="M463.48,194l-45.05,2.31c-2-2-2.06-6,.32-9.61a14.45,14.45,0,0,1,1.4-1.8,16.5,16.5,0,0,1,4.12-3.22,18.33,18.33,0,0,1,2.1-1,24.1,24.1,0,0,1,5.64-1.56c.81-.13,1.67-.23,2.54-.29a37.53,37.53,0,0,1,5.51,0l1.47.13.91.11a46.47,46.47,0,0,1,4.9.84q1.2.27,2.28.6a27.88,27.88,0,0,1,5.94,2.49,17.74,17.74,0,0,1,2.06,1.34C463.48,188.77,463.48,194,463.48,194Z" transform="translate(-33.15 -33.56)" style="fill:#7f6e5d"/><path d="M464.63,203.28a21.45,21.45,0,0,1-7.1,13c-.31.29-.64.56-1,.83s-.6.47-.93.69a25,25,0,0,1-6.09,3.2c-.54.2-1.09.4-1.67.56-.19.07-.37.11-.55.17a22.87,22.87,0,0,1-5.32.84c-.52,0-1,0-1.56,0a29.65,29.65,0,0,1-6.82-.94s0,0,0,0c-.46-.12-.91-.24-1.36-.38a33.55,33.55,0,0,1-5.86-2.4c-.35-.19-.7-.37-1-.57l-1-.6a24.4,24.4,0,0,1-2.79-2c-.31-.26-.6-.53-.88-.79s-.54-.55-.8-.82c-2.56-2.84-3.1-5.69-.33-7.3Z" transform="translate(-33.15 -33.56)" style="fill:#7f6e5d"/><path d="M424.84,191.53a1.21,1.21,0,0,1-.64.2,1.18,1.18,0,0,1-1-.52,14.65,14.65,0,0,0-4.18-4.23,1.18,1.18,0,0,1-.31-.24,14.45,14.45,0,0,1,1.4-1.8c2.54,1.3,4.91,4.84,5,5a1.15,1.15,0,0,1,.17.87A1.16,1.16,0,0,1,424.84,191.53Z" transform="translate(-33.15 -33.56)" style="fill:#2c2f38"/><path d="M430,187.11a1.16,1.16,0,0,1-1.72,1,1.17,1.17,0,0,1-.59-1c0-.09-.19-2-3.13-5a1.17,1.17,0,0,1-.27-.42,18.33,18.33,0,0,1,2.1-1C429.87,184.31,430,186.82,430,187.11Z" transform="translate(-33.15 -33.56)" style="fill:#2c2f38"/><path d="M435.41,185.15a1.16,1.16,0,0,1-1.1.8,1.19,1.19,0,0,1-.37-.06,1.15,1.15,0,0,1-.73-1.45,6.14,6.14,0,0,0,.23-1.65,4.1,4.1,0,0,0-1.11-3,1,1,0,0,1-.32-.67c.81-.13,1.67-.23,2.54-.29A7.38,7.38,0,0,1,435.41,185.15Z" transform="translate(-33.15 -33.56)" style="fill:#2c2f38"/><path d="M441.43,185.34a1.22,1.22,0,0,1-.85.5h-.11a1.16,1.16,0,0,1-.87-1.93,5.09,5.09,0,0,0,.51-4.52,1.06,1.06,0,0,1-.05-.5l1.47.13.91.11A7.36,7.36,0,0,1,441.43,185.34Z" transform="translate(-33.15 -33.56)" style="fill:#2c2f38"/><path d="M449.62,180.57c-.09,3.45-1.26,4.8-1.49,5.05a1.16,1.16,0,0,1-1.67-1.62c.06-.06.83-1.06.85-3.75a1.27,1.27,0,0,1,0-.28Q448.54,180.24,449.62,180.57Z" transform="translate(-33.15 -33.56)" style="fill:#2c2f38"/><path d="M457.62,184.4a8.83,8.83,0,0,1-2.44,4.54,1.15,1.15,0,0,1-1.94-.49,1.13,1.13,0,0,1,.28-1.12,6,6,0,0,0,1.87-3.72,1.18,1.18,0,0,1,.17-.55A17.74,17.74,0,0,1,457.62,184.4Z" transform="translate(-33.15 -33.56)" style="fill:#2c2f38"/><path d="M425.3,210.57c-.06.15-1.25,3.66-3.74,5.11-.31-.26-.6-.53-.88-.79s-.54-.55-.8-.82a.84.84,0,0,1,.34-.28c1.55-.77,2.61-3.11,2.89-3.95a1.16,1.16,0,0,1,.86-.77,1.18,1.18,0,0,1,1.1.37A1.16,1.16,0,0,1,425.3,210.57Z" transform="translate(-33.15 -33.56)" style="fill:#2c2f38"/><path d="M430,212.52c0,.28-.11,2.78-3.61,6.38-.35-.19-.7-.37-1-.57l-1-.6a1.57,1.57,0,0,1,.19-.26c3-3,3.13-5,3.13-5a1.16,1.16,0,1,1,2.31,0Z" transform="translate(-33.15 -33.56)" style="fill:#2c2f38"/><path d="M434,221.41a1.59,1.59,0,0,1-.37.27s0,0,0,0c-.46-.12-.91-.24-1.36-.38a1.14,1.14,0,0,1,.1-1.51c1.77-1.77.89-4.58.88-4.6a1.16,1.16,0,0,1,2.2-.73C435.47,214.63,436.76,218.64,434,221.41Z" transform="translate(-33.15 -33.56)" style="fill:#2c2f38"/><path d="M442.3,222.12a1.17,1.17,0,0,1-.31.48c-.52,0-1,0-1.56,0a1.18,1.18,0,0,1-.32-1.23,5,5,0,0,0-.61-4.65,1.15,1.15,0,0,1-.21-1.14,1.13,1.13,0,0,1,.87-.75,1.15,1.15,0,0,1,1.09.38A7.28,7.28,0,0,1,442.3,222.12Z" transform="translate(-33.15 -33.56)" style="fill:#2c2f38"/><path d="M449.62,220.61a1.22,1.22,0,0,1-.09.42c-.54.2-1.09.4-1.67.56a1.11,1.11,0,0,1-.55-1c0-2.83-.84-3.83-.85-3.84a1.18,1.18,0,0,1,.07-1.62,1.14,1.14,0,0,1,1.6,0C448.37,215.42,449.62,216.85,449.62,220.61Z" transform="translate(-33.15 -33.56)" style="fill:#2c2f38"/><path d="M457.53,216.31c-.31.29-.64.56-1,.83s-.6.47-.93.69a1.23,1.23,0,0,1-.23-.61,6.72,6.72,0,0,0-2-2.74,1.15,1.15,0,0,1,0-1.63,1.16,1.16,0,0,1,1.64,0A10.35,10.35,0,0,1,457.53,216.31Z" transform="translate(-33.15 -33.56)" style="fill:#2c2f38"/><path d="M415.69,205.59c-2.32,0-4.65,2.31-8.15,4.62-2.6,1.71-4.7-2.4-5.53-4.23a9.47,9.47,0,0,1,.1-8.31c.9-1.74,3-5.22,5.43-3.63,3.49,2.31,5.82,4.62,8.15,4.62s8.15-12.71,22.13-13.87,22.12,6.94,30.27,12.71c0,0-9.31,19.64-25.62,18.48S421.52,205.59,415.69,205.59Z" transform="translate(-33.15 -33.56)" style="fill:#cbb292"/><path d="M443.36,204.36a4.81,4.81,0,0,1-2.57-.63A4,4,0,0,1,439,200a4.55,4.55,0,0,1,1.9-4c2.87-1.9,7.75,0,8.3.24a1.16,1.16,0,0,1-.87,2.14c-1.1-.45-4.59-1.49-6.15-.45-.21.14-.85.57-.87,2.11,0,1.29.5,1.61.66,1.71,1.36.84,5-.3,7.09-1.39a1.16,1.16,0,0,1,1.05,2.06A17.44,17.44,0,0,1,443.36,204.36Z" transform="translate(-33.15 -33.56)" style="fill:#7f6e5d"/><path d="M456.55,212.52l-.19,0c-.16,0-3.79-.66-5-3.31-.72-1.54-.47-3.35.74-5.35a1.15,1.15,0,0,1,1-.59,1.13,1.13,0,0,1,1,.6,1.16,1.16,0,0,1,0,1.18,3.52,3.52,0,0,0-.63,3.19c.6,1.29,2.63,1.89,3.29,2a1.16,1.16,0,0,1-.18,2.3Z" transform="translate(-33.15 -33.56)" style="fill:#2c2f38"/><path d="M450.67,216a1,1,0,0,1-.41-.08c-.89-.33-3.86-1.65-4.8-4.36a6.22,6.22,0,0,1,.86-5.36,1.15,1.15,0,0,1,1-.58,1.16,1.16,0,0,1,1,1.77,4.07,4.07,0,0,0-.66,3.41c.63,1.81,3,2.79,3.44,3a1.15,1.15,0,0,1-.41,2.23Z" transform="translate(-33.15 -33.56)" style="fill:#2c2f38"/><path d="M406.88,201a1.18,1.18,0,0,1-.52-.13l-4.62-2.31a1.14,1.14,0,0,1-.64-1,1.14,1.14,0,0,1,1.67-1.1l4.62,2.31a1.16,1.16,0,0,1-.51,2.19Z" transform="translate(-33.15 -33.56)" style="fill:#7f6e5d"/><path d="M402.26,207.9a1.16,1.16,0,0,1-.52-2.19l4.62-2.31a1.14,1.14,0,0,1,1.18,0,1.17,1.17,0,0,1,.53,1.05,1.14,1.14,0,0,1-.68,1l-4.62,2.31A1.14,1.14,0,0,1,402.26,207.9Z" transform="translate(-33.15 -33.56)" style="fill:#7f6e5d"/><path d="M419.58,203.28a1.16,1.16,0,0,1,0-2.31s2.21-.14,7.49-3.3c6.25-3.75,13.52-.2,13.82,0a1.16,1.16,0,0,1-1,2.07c-.06,0-6.45-3.14-11.6,0C422.38,203.17,419.85,203.28,419.58,203.28Z" transform="translate(-33.15 -33.56)" style="fill:#7f6e5d"/><path d="M460,196.11a2.31,2.31,0,1,1-2.31-2.31A2.31,2.31,0,0,1,460,196.11Z" transform="translate(-33.15 -33.56)" style="fill:#fff"/><path d="M458.86,196.11A1.16,1.16,0,1,1,457.7,195,1.16,1.16,0,0,1,458.86,196.11Z" transform="translate(-33.15 -33.56)" style="fill:#2c2f38"/><path d="M460,201.88a2.31,2.31,0,1,1-2.31-2.31A2.3,2.3,0,0,1,460,201.88Z" transform="translate(-33.15 -33.56)" style="fill:#fff"/><path d="M458.86,201.88a1.16,1.16,0,1,1-2.31,0,1.16,1.16,0,0,1,2.31,0Z" transform="translate(-33.15 -33.56)" style="fill:#2c2f38"/><path d="M457.7,195a1.16,1.16,0,0,1-2.21.47A2.35,2.35,0,0,1,457,193.9,1.17,1.17,0,0,1,457.7,195Z" transform="translate(-33.15 -33.56)" style="fill:#fff"/><path d="M457.7,200.73a1.15,1.15,0,0,1-.91,1.12,1.18,1.18,0,0,1-1.3-.65,2.34,2.34,0,0,1,1.53-1.53A1.17,1.17,0,0,1,457.7,200.73Z" transform="translate(-33.15 -33.56)" style="fill:#fff"/></svg>