<svg id="Слой_1" data-name="Слой 1" xmlns="http://www.w3.org/2000/svg" viewBox="0 0 3090.48 1754.76"><title>jobs_header</title><path d="M460.7,182.41c415.47-154.24,837.75-17.88,1124.14,279.13s887.43-205,1206.2,91.52c217.54,202.36,117.89,722.64-180.39,948-405.44,306.3-1638.42,150.88-1905.14,98.75-307.27-60-531.92-242.25-623.19-463.39C-137.6,603.56,277.1,250.57,460.7,182.41Z" style="fill:#e7f3fe"/><path d="M1880.81,396.69A343.31,343.31,0,0,0,1883,358.4c0-6.83-.22-13.61-.62-20.35l-63.27-20.47a278.22,278.22,0,0,0-22.41-75.81l42-51.63a342.07,342.07,0,0,0-33.24-48.32l-63.28,20.65a281.54,281.54,0,0,0-62.65-48.15l3.6-66.49a338.4,338.4,0,0,0-55.25-19.58l-39.07,53.92a282.29,282.29,0,0,0-79-2.07l-36.18-55.92a338,338,0,0,0-56.21,16.61l.08,66.59a280.57,280.57,0,0,0-65.11,44.79l-62.09-24a342.32,342.32,0,0,0-35.75,46.49l39.18,53.79A277.71,277.71,0,0,0,1267.24,303L1203,320.1a346,346,0,0,0-2.15,38.3c0,6.83.22,13.61.62,20.34l63.28,20.48a278,278,0,0,0,22.4,75.81l-41.95,51.63A342,342,0,0,0,1278.4,575l63.29-20.65a281.09,281.09,0,0,0,62.65,48.15l-3.6,66.49A338.29,338.29,0,0,0,1456,688.55l39.08-53.93a281.26,281.26,0,0,0,79,2.07l36.18,55.93a339.85,339.85,0,0,0,56.2-16.61l-.08-66.59a280.57,280.57,0,0,0,65.11-44.79l62.09,24a342.94,342.94,0,0,0,35.75-46.49l-39.18-53.79a278.14,278.14,0,0,0,26.42-74.52Zm-338.92,95.48A133.78,133.78,0,1,1,1675.67,358.4,133.77,133.77,0,0,1,1541.89,492.17Z" style="fill:#9ec8ff"/><path d="M1724.35,511a5,5,0,0,1-3.84-8.2,226.33,226.33,0,0,0,39.87-218,5,5,0,1,1,9.46-3.26,236.36,236.36,0,0,1-41.65,227.64A5,5,0,0,1,1724.35,511Z" style="fill:#fff"/><path d="M1705,195.23a5,5,0,0,1-3.43-1.36,224.64,224.64,0,0,0-77.78-47.93,5,5,0,0,1,3.41-9.4,234.64,234.64,0,0,1,81.23,50.05,5,5,0,0,1-3.43,8.64Z" style="fill:#fff"/><path d="M1490,139.47a5,5,0,0,1-1.22-9.85,237,237,0,0,1,57.92-7.16,5,5,0,0,1,0,10,226.92,226.92,0,0,0-55.47,6.86A5.17,5.17,0,0,1,1490,139.47Z" style="fill:#fff"/><path d="M805.62,1243.73a239.41,239.41,0,0,0,1.49-26.52c0-4.74-.16-9.43-.43-14.09l-43.83-14.19a192.92,192.92,0,0,0-15.52-52.51l29.06-35.76a235.74,235.74,0,0,0-23-33.46l-43.83,14.3a195.24,195.24,0,0,0-43.39-33.36l2.49-46.05a234.65,234.65,0,0,0-38.26-13.56l-27.07,37.35a195.12,195.12,0,0,0-54.72-1.43l-25.06-38.74a235.41,235.41,0,0,0-38.93,11.51l0,46.12a194.29,194.29,0,0,0-45.09,31l-43-16.59a237.18,237.18,0,0,0-24.76,32.2l27.14,37.25a192.53,192.53,0,0,0-18.3,51.62l-44.51,11.84a239.59,239.59,0,0,0-1.49,26.53q0,7.1.43,14.09l43.83,14.18A192,192,0,0,0,394.41,1298l-29.07,35.76a237.51,237.51,0,0,0,23,33.47l43.84-14.31a194.48,194.48,0,0,0,43.39,33.36l-2.49,46a233.71,233.71,0,0,0,38.26,13.56l27.07-37.35a194.09,194.09,0,0,0,54.72,1.43l25.06,38.74a233.78,233.78,0,0,0,38.93-11.51l-.06-46.12a194.14,194.14,0,0,0,45.1-31l43,16.59a236.45,236.45,0,0,0,24.77-32.2l-27.14-37.25a192.93,192.93,0,0,0,18.3-51.61Zm-234.75,66.14a92.66,92.66,0,1,1,92.66-92.66A92.67,92.67,0,0,1,570.87,1309.87Z" style="fill:#9ec8ff"/><path d="M697.24,1324.42a5,5,0,0,1-3.84-8.2,155.2,155.2,0,0,0,27.35-149.5,5,5,0,1,1,9.46-3.26,165.25,165.25,0,0,1-29.12,159.16A5,5,0,0,1,697.24,1324.42Z" style="fill:#fff"/><path d="M683.83,1105.72a5,5,0,0,1-3.43-1.35,154,154,0,0,0-53.34-32.87,5,5,0,1,1,3.41-9.41,164,164,0,0,1,56.79,35,5,5,0,0,1,.21,7.07A5,5,0,0,1,683.83,1105.72Z" style="fill:#fff"/><path d="M534.93,1067.11a5,5,0,0,1-1.22-9.85,165.22,165.22,0,0,1,40.49-5,5,5,0,0,1,0,10,155.69,155.69,0,0,0-38.05,4.7A4.7,4.7,0,0,1,534.93,1067.11Z" style="fill:#fff"/><path d="M2085.06,651.46c0-2.59-.07-5.15-.21-7.7l32.83-26.37a174.32,174.32,0,0,0-11.93-37.72l-42.4-3.21a141.29,141.29,0,0,0-36.7-39l-.14-42.25a175,175,0,0,0-37.6-14.5l-29,31.19a140.72,140.72,0,0,0-52.11,4.08l-33.23-26.31a175.47,175.47,0,0,0-35.15,20.38l6.29,41.89a140.53,140.53,0,0,0-29.6,43.19l-41.34,9.59a175.58,175.58,0,0,0-6.11,39.85l36.41,21a139.32,139.32,0,0,0,15.57,51.45l-18.23,38.18a177.63,177.63,0,0,0,26.79,29.15l39-15.29a139.68,139.68,0,0,0,51.48,20.42l18.41,37.89c2.19.08,4.39.14,6.6.14a177.09,177.09,0,0,0,32.29-3l12.4-40.13a140.07,140.07,0,0,0,48.45-28.12l41,9.22a176,176,0,0,0,21.86-32.29L2077,698.39A140,140,0,0,0,2085.06,651.46Zm-141.87,61.83a59.11,59.11,0,1,1,59.1-59.11A59.1,59.1,0,0,1,1943.19,713.29Z" style="fill:#9ec8ff"/><g style="opacity:0.8"><path d="M2631.45,310.94h-50.8a35.62,35.62,0,0,1-35.58-35.58v-50.8A35.62,35.62,0,0,1,2580.65,189h50.8A35.61,35.61,0,0,1,2667,224.56v50.8A35.62,35.62,0,0,1,2631.45,310.94ZM2580.65,203a21.59,21.59,0,0,0-21.58,21.57v50.8a21.6,21.6,0,0,0,21.58,21.58h50.8A21.6,21.6,0,0,0,2653,275.36v-50.8A21.59,21.59,0,0,0,2631.45,203Z" style="fill:#9ec8ff"/></g><g style="opacity:0.8"><path d="M2392.41,310.94h-50.8A35.61,35.61,0,0,1,2306,275.36v-50.8A35.61,35.61,0,0,1,2341.61,189h50.8A35.62,35.62,0,0,1,2428,224.56v50.8A35.62,35.62,0,0,1,2392.41,310.94ZM2341.61,203A21.59,21.59,0,0,0,2320,224.56v50.8a21.59,21.59,0,0,0,21.57,21.58h50.8A21.6,21.6,0,0,0,2414,275.36v-50.8A21.59,21.59,0,0,0,2392.41,203Z" style="fill:#9ec8ff"/></g><path d="M2370.19,281.36h-.29a6,6,0,0,1-4.48-2.35l-36.51-47.62a6,6,0,0,1,9.53-7.3l32.2,42L2454.7,176a6,6,0,1,1,8.78,8.18l-88.91,95.26A6,6,0,0,1,2370.19,281.36Z" style="fill:#f37168"/><path d="M2799.37,1622.88c-208-10.17-915.46,7.06-1130.63,13.77s-464.93-8.86-594.67-31.76-879.67,1.95-845.64,63.53,334.13,27.54,674.45,52.29,1105.69-3.09,1278.34,0,331-6.19,553.45-18.56S2919.92,1628.77,2799.37,1622.88Z" style="fill:#cce2ff"/><rect x="238.88" y="335.22" width="434.74" height="712.57" style="fill:#99bbeb"/><rect x="261.65" y="349.74" width="397.68" height="670.89" style="fill:#fff"/><path d="M380.6,618.76c15-32.2,40.3-42.51,81.9-42.51,49.53,0,75.25,17.94,82.55,44.07C456.34,621.54,380.6,618.76,380.6,618.76Z" style="fill:#9bd6e8"/><path d="M445.2,419.64c-21,5.88-20.05,17.67-27,28.6s-22.18,18.23-24,25.52,4.67,22.48-3,31S380.8,517.5,383.84,526s9.72,21.87,10.33,23.69,9.11,14.59,19.44,16.41,29.77,4.86,39.49,9.11,41-5.44,58.33-4.83,29.16-12.18,27.94-20.69,12.8-25.51,12.76-40.09c0-15.66-18.22-27.34-23.08-37.67s.6-28.56-17.62-39.36c-11.52-6.82-19.45-6.21-28.56-9.25S458.57,415.88,445.2,419.64Z" style="fill:#3a384d"/><path d="M470.72,602c-4.74,7-8.22,7.3-13.37,0-4.09-5.79-12.15-19-12.15-25.65V509.61a12.19,12.19,0,0,1,12.15-12.16h13.37a12.19,12.19,0,0,1,12.15,12.16V576.3C482.87,583,475,595.68,470.72,602Z" style="fill:#f09959"/><path d="M470.72,497.45H457.35a12.19,12.19,0,0,0-12.15,12.16v59.51c15,4.77,28.71-4.72,37.67-15.43V509.61A12.19,12.19,0,0,0,470.72,497.45Z" style="fill:#e38540"/><ellipse cx="464.04" cy="498.13" rx="40.4" ry="55.05" style="fill:#f09959"/><path d="M482.87,454.32c-25.52,43.13-63.19,38.88-63.19,38.88s.92-57.11,30.84-60.15,47.54,9,53.62,28.79,0,32.88,0,32.88A52.37,52.37,0,0,1,489.55,475,141.63,141.63,0,0,1,482.87,454.32Z" style="fill:#3a384d"/><ellipse cx="418.17" cy="501.84" rx="10.63" ry="15.95" transform="translate(-174.86 227.93) rotate(-25.41)" style="fill:#f09959"/><path d="M498.48,497.28c-3.78,8-2.54,16.45,2.76,19s12.67-1.89,16.45-9.85,2.54-16.44-2.76-19S502.26,489.32,498.48,497.28Z" style="fill:#f09959"/><path d="M479.23,528s-6.8,8.81-15.19,8.81S448.85,528,448.85,528Z" style="fill:#fff"/><path d="M512.13,706.1h-102a11.87,11.87,0,0,1,0-23.73h102a11.87,11.87,0,1,1,0,23.73Z" style="fill:#99bbeb"/><path d="M530.81,742.55H391.42a11.87,11.87,0,1,1,0-23.73H530.81a11.87,11.87,0,1,1,0,23.73Z" style="fill:#99bbeb"/><path d="M630.65,873.64H291.58a6.88,6.88,0,1,1,0-13.76H630.65a6.88,6.88,0,1,1,0,13.76Z" style="fill:#99bbeb"/><path d="M630.65,905.64H291.58a6.89,6.89,0,1,1,0-13.77H630.65a6.89,6.89,0,1,1,0,13.77Z" style="fill:#99bbeb"/><path d="M630.65,937.64H291.58a6.89,6.89,0,1,1,0-13.77H630.65a6.89,6.89,0,1,1,0,13.77Z" style="fill:#99bbeb"/><path d="M583.23,626.68H339a12.31,12.31,0,0,1-12.29-12.29V389.3A12.31,12.31,0,0,1,339,377H583.23a12.3,12.3,0,0,1,12.29,12.29V614.39A12.31,12.31,0,0,1,583.23,626.68ZM339,387a2.32,2.32,0,0,0-2.29,2.29V614.39a2.32,2.32,0,0,0,2.29,2.29H583.23a2.32,2.32,0,0,0,2.29-2.29V389.3a2.32,2.32,0,0,0-2.29-2.29Z" style="fill:#99bbeb"/><polygon points="374.25 773.5 381.32 787.83 397.13 790.13 385.69 801.28 388.39 817.02 374.25 809.59 360.1 817.02 362.8 801.28 351.36 790.13 367.17 787.83 374.25 773.5" style="fill:#99bbeb"/><polygon points="432.16 773.5 439.23 787.83 455.04 790.13 443.6 801.28 446.3 817.02 432.16 809.59 418.02 817.02 420.72 801.28 409.28 790.13 425.09 787.83 432.16 773.5" style="fill:#99bbeb"/><polygon points="490.07 773.5 497.14 787.83 512.96 790.13 501.51 801.28 504.21 817.02 490.07 809.59 475.93 817.02 478.63 801.28 467.19 790.13 483 787.83 490.07 773.5" style="fill:#99bbeb"/><polygon points="547.99 773.5 555.06 787.83 570.87 790.13 559.43 801.28 562.13 817.02 547.99 809.59 533.85 817.02 536.55 801.28 525.11 790.13 540.92 787.83 547.99 773.5" style="fill:#99bbeb"/><rect x="1208.09" y="335.22" width="434.74" height="712.57" style="fill:#99bbeb"/><rect x="1230.86" y="349.74" width="397.68" height="670.89" style="fill:#fff"/><path d="M1368.7,494.5c0,31.91,19.22,83.41,64.55,81.76s55.36-50.74,57.11-64.6S1368.7,494.5,1368.7,494.5Z" style="fill:#7a4e34"/><path d="M1349.81,618.76c15-32.2,40.3-42.51,81.9-42.51,49.54,0,75.26,17.94,82.55,44.07C1425.55,621.54,1349.81,618.76,1349.81,618.76Z" style="fill:#d54a41"/><path d="M1439.93,602c-4.74,7-8.22,7.3-13.36,0-4.1-5.79-12.15-19-12.15-25.65V509.61a12.18,12.18,0,0,1,12.15-12.16h13.36a12.18,12.18,0,0,1,12.15,12.16V576.3C1452.08,583,1444.19,595.68,1439.93,602Z" style="fill:#f09959"/><path d="M1439.93,497.45h-13.36a12.18,12.18,0,0,0-12.15,12.16v59.51c15,4.77,28.7-4.72,37.66-15.43V509.61A12.18,12.18,0,0,0,1439.93,497.45Z" style="fill:#e38540"/><ellipse cx="1433.25" cy="498.13" rx="40.4" ry="55.05" style="fill:#f09959"/><path d="M1455.46,456.28c-4.8,16.94-15.32,16.74-30,22.3s-21.69,11.15-26.49,22c-6.12,13.81,2.78,54.08,2.78,54.08s-37.15-27.8-32.85-71.51,30.07-60.65,54.33-60.65,33.48,14.78,33.48,14.78,12.93.06,25.15,14.53c16.42,19.46,11.37,66.72,0,83.65s-19,22.23-18.7,21.48,10.61-39.64,5-63.68S1455.46,456.28,1455.46,456.28Z" style="fill:#7a4e34"/><path d="M1448.44,528s-6.8,8.81-15.19,8.81-15.19-8.81-15.19-8.81Z" style="fill:#fff"/><path d="M1481.35,706.1h-102a11.87,11.87,0,0,1,0-23.73h102a11.87,11.87,0,0,1,0,23.73Z" style="fill:#99bbeb"/><path d="M1500,742.55h-139.4a11.87,11.87,0,0,1,0-23.73H1500a11.87,11.87,0,0,1,0,23.73Z" style="fill:#99bbeb"/><path d="M1599.87,873.64H1260.79a6.88,6.88,0,1,1,0-13.76h339.08a6.88,6.88,0,1,1,0,13.76Z" style="fill:#99bbeb"/><path d="M1599.87,905.64H1260.79a6.89,6.89,0,0,1,0-13.77h339.08a6.89,6.89,0,0,1,0,13.77Z" style="fill:#99bbeb"/><path d="M1599.87,937.64H1260.79a6.89,6.89,0,0,1,0-13.77h339.08a6.89,6.89,0,0,1,0,13.77Z" style="fill:#99bbeb"/><path d="M1552.44,626.68H1308.22a12.31,12.31,0,0,1-12.29-12.29V389.3A12.3,12.3,0,0,1,1308.22,377h244.22a12.3,12.3,0,0,1,12.29,12.29V614.39A12.31,12.31,0,0,1,1552.44,626.68ZM1308.22,387a2.32,2.32,0,0,0-2.29,2.29V614.39a2.32,2.32,0,0,0,2.29,2.29h244.22a2.32,2.32,0,0,0,2.29-2.29V389.3a2.32,2.32,0,0,0-2.29-2.29Z" style="fill:#99bbeb"/><polygon points="1343.46 773.5 1350.53 787.83 1366.34 790.13 1354.9 801.28 1357.6 817.02 1343.46 809.59 1329.32 817.02 1332.02 801.28 1320.58 790.13 1336.39 787.83 1343.46 773.5" style="fill:#99bbeb"/><polygon points="1401.37 773.5 1408.44 787.83 1424.25 790.13 1412.81 801.28 1415.51 817.02 1401.37 809.59 1387.23 817.02 1389.93 801.28 1378.49 790.13 1394.3 787.83 1401.37 773.5" style="fill:#99bbeb"/><polygon points="1459.29 773.5 1466.36 787.83 1482.17 790.13 1470.73 801.28 1473.43 817.02 1459.29 809.59 1445.14 817.02 1447.85 801.28 1436.4 790.13 1452.22 787.83 1459.29 773.5" style="fill:#99bbeb"/><polygon points="1517.2 773.5 1524.27 787.83 1540.08 790.13 1528.64 801.28 1531.34 817.02 1517.2 809.59 1503.06 817.02 1505.76 801.28 1494.32 790.13 1510.13 787.83 1517.2 773.5" style="fill:#99bbeb"/><polygon points="1256.96 1040.66 570.87 1040.66 619.4 337.86 1281.7 337.86 1256.96 1040.66" style="fill:#99bbeb;opacity:0.2"/><rect x="642.94" y="204.87" width="593.79" height="973.26" style="fill:#99bbeb"/><rect x="674.04" y="224.7" width="543.18" height="916.34" style="fill:#fff"/><path d="M895,417.17c-.38-1.13-9.88-55.72-11-76.94S918.09,316,918.09,316s28.81-15.55,49.66-7.59,35,21.36,44.51,38-8.34,68.65-8.34,68.65Z" style="fill:#2e2d3d"/><path d="M829.65,592.55c-.13-.9,2.43-22.38,2.52-23.25,4.81-45.24,60.56-58,116.2-58,65.37,0,109.72,12,116.79,59,.21,1.38,4,22.91,3.8,24.36C947.8,596.33,829.65,592.55,829.65,592.55Z" style="fill:#d5e1e8"/><path d="M959.6,546.45c-6.48,9.56-11.23,10-18.26,0-5.59-7.92-24.26-26-24.26-35.11l7.66-91a16.65,16.65,0,0,1,16.6-16.6H959.6a16.65,16.65,0,0,1,16.59,16.6l3.56,91C979.75,520.47,965.41,537.88,959.6,546.45Z" style="fill:#f09959"/><path d="M959.6,403.72H941.34a16.65,16.65,0,0,0-16.6,16.6l-6.65,80.75c20.5,6.53,48.18-6.74,60.43-21.36l-2.33-59.39A16.65,16.65,0,0,0,959.6,403.72Z" style="fill:#e38540"/><path d="M887.82,518l29.26,54.1s15.67-12.89,17.19-10.36-2.78,34.41-2.78,34.41,34.87.48,36.39-1-7.08-34.64-3.54-34.64,14.18,9.61,14.18,9.61L1011.19,518l-7.18-1.75L950.47,545,893.2,516.86Z" style="fill:#bdccd4"/><polygon points="921.29 542.91 943.02 557.49 936.29 596.2 965.6 594.57 958.28 559.36 976.29 542.91 967.83 534.93 929.75 534.93 921.29 542.91" style="fill:#d54a41"/><path d="M918.6,491.47l-26.89,25.58s27.39,48.71,28.91,48.71,23.24-26.86,23.24-26.86l13.91-.24,22,23.06,25.54-45.18-26-27.6s-22.24,43-26.28,44-4.08,1.52-7.35-1S918.6,491.47,918.6,491.47Z" style="fill:#d5e1e8"/><ellipse cx="950.47" cy="404.64" rx="55.18" ry="75.19" style="fill:#f09959"/><path d="M900.93,403.48c5.16,10.87,3.48,22.47-3.77,25.91s-17.3-2.58-22.46-13.45-3.47-22.46,3.77-25.9S895.77,392.62,900.93,403.48Z" style="fill:#f09959"/><path d="M997.51,403.48c-5.16,10.87-3.47,22.47,3.78,25.91s17.3-2.58,22.46-13.45,3.47-22.46-3.77-25.9S1002.68,392.62,997.51,403.48Z" style="fill:#f09959"/><path d="M975,435.49s-11,17.76-24.48,17.76S926,435.49,926,435.49Z" style="fill:#fff"/><path d="M918.09,353.49c22.75-15.92,33-13.26,50,12.89S1005.65,393,1005.65,393l2.66-27.13s-25.41-49.15-59.52-42.7-53.51,37.14-53.51,37.14-1.66,57.55,3.1,59.52,5.31-18.58,8.72-22.75-3.41-23.88,1.14-33S918.09,353.49,918.09,353.49Z" style="fill:#2e2d3d"/><path d="M991.25,383.06c7.94,8.69,4.93,43.21,9.1,42.83s5.68-33,4.55-36.39S991.25,383.06,991.25,383.06Z" style="fill:#2e2d3d"/><path d="M1073.22,711.44H819.74a16.21,16.21,0,1,1,0-32.41h253.48a16.21,16.21,0,0,1,0,32.41Z" style="fill:#99bbeb"/><path d="M1041.68,761.23H851.28a16.21,16.21,0,0,1,0-32.41h190.4a16.21,16.21,0,0,1,0,32.41Z" style="fill:#99bbeb"/><path d="M1178,940.28H714.92a9.4,9.4,0,1,1,0-18.8H1178a9.4,9.4,0,1,1,0,18.8Z" style="fill:#99bbeb"/><path d="M1178,984H714.92a9.4,9.4,0,1,1,0-18.8H1178a9.4,9.4,0,1,1,0,18.8Z" style="fill:#99bbeb"/><path d="M1178,1027.68H714.92a9.4,9.4,0,1,1,0-18.8H1178a9.4,9.4,0,1,1,0,18.8Z" style="fill:#99bbeb"/><path d="M1113.27,601.13H779.69a15,15,0,0,1-15-15V278.74a15,15,0,0,1,15-15h333.58a15,15,0,0,1,15,15V586.18A15,15,0,0,1,1113.27,601.13ZM779.69,273.78a5,5,0,0,0-5,5V586.18a5,5,0,0,0,5,5h333.58a5,5,0,0,0,5-5V278.74a5,5,0,0,0-5-5Z" style="fill:#99bbeb"/><polygon points="787.65 803.5 797.3 823.07 818.9 826.21 803.27 841.44 806.96 862.95 787.65 852.79 768.33 862.95 772.02 841.44 756.39 826.21 777.99 823.07 787.65 803.5" style="fill:#99bbeb"/><polygon points="866.75 803.5 876.41 823.07 898 826.21 882.38 841.44 886.06 862.95 866.75 852.79 847.43 862.95 851.12 841.44 835.5 826.21 857.09 823.07 866.75 803.5" style="fill:#99bbeb"/><polygon points="945.85 803.5 955.51 823.07 977.1 826.21 961.48 841.44 965.17 862.95 945.85 852.79 926.54 862.95 930.23 841.44 914.6 826.21 936.19 823.07 945.85 803.5" style="fill:#99bbeb"/><polygon points="1024.95 803.5 1034.61 823.07 1056.21 826.21 1040.58 841.44 1044.27 862.95 1024.95 852.79 1005.64 862.95 1009.33 841.44 993.7 826.21 1015.29 823.07 1024.95 803.5" style="fill:#99bbeb"/><polygon points="1105.31 803.5 1114.97 823.07 1136.56 826.21 1120.94 841.44 1124.63 862.95 1105.31 852.79 1086 862.95 1089.68 841.44 1074.06 826.21 1095.65 823.07 1105.31 803.5" style="fill:#99bbeb"/><rect x="1420.13" y="1117.84" width="778.55" height="29.01" rx="8.29" ry="8.29" style="fill:#2e5b9a"/><path d="M2386.59,729c10.32,36.39-14.9,73.9-42.67,81.78S2296.32,794,2286,757.56s3.83-72.29,31.6-80.17S2376.26,692.63,2386.59,729Z" style="fill:#f09959"/><path d="M2230.85,1434.33s71.19,110.57,80.8,115.37,33.65,6,24.64,24-12.62,88.94-21,92.54-80.53,12-69.71,0,17.47-6,22.93-27.64,13.13-62.5,2.91-70.91-72.71-84.13-72.71-84.13Z" style="fill:#f09959"/><path d="M1872.55,1481.81S1786,1624.44,1770,1637.26s-68.91,32-25.64,35.25,64.1-14.42,91.34-22.43,60.9-12.82,48.08-33.66-7.5-66.31,20.14-95.15S1872.55,1481.81,1872.55,1481.81Z" style="fill:#f09959"/><path d="M2314.16,1151.08s-214.22-5.6-299.16,64.1c-49.68,75.32-169.86,297.55-179.2,322,6.41,6.41,42.47,18,58.49,16.38,47.28-56.37,109.76-105.1,134.62-149.32,30.62-54.49,40.06-81.73,89.74-86.54s161.85-20.83,195.51-20.83S2314.16,1151.08,2314.16,1151.08Z" style="fill:#6791c9"/><polygon points="2500.96 1672.9 2489.74 1672.9 2409.21 1336.94 2433.92 1336.94 2500.96 1672.9" style="fill:#2e5b9a"/><polygon points="2164.59 1672.9 2175.82 1672.9 2268.22 1325.06 2243.51 1325.06 2164.59 1672.9" style="fill:#2e5b9a"/><path d="M2436.2,1136.41l-124.55,21.5s-165.5,1.52-241.16,15.61c-68.83,12.82-79,91,0,198.71,44.86,61.17,82.79,110,160.36,165,19.73-14.48,27.28-20,32.73-54.82-5.62-7.7-20.15-55.87-24.66-65.3-42.9-89.68-100.16-122.29-101-131.12,9.62-15.62,254.68,81.44,303.41,24.35C2487.89,1255.81,2436.2,1136.41,2436.2,1136.41Z" style="fill:#75a1de"/><path d="M2441.37,854.45c-32.8-4.61-66.21,1.63-97.45,24.25-27.31,27.83-58.2,73.72-56.31,149.43,2.41,96.15-14.87,102.32,3.15,128.76,75.19,31,203.79,164.45,173.51,21.43-21.93-103.55,48.09-180.74-8.4-295.61C2451.27,873.36,2445.53,864.29,2441.37,854.45Z" style="fill:#f37168"/><path d="M2287.59,1064.31c-1.46,50.12-8.54,64.89-3.12,80.61,30.65,3.13,86.72,15.39,100.73,35,16,22.43,32.05,25.64,24.57,9.08s-27.24-40.06,3.21-120.73,44.87-135.14,15-191.23Z" style="fill:#d54a41"/><path d="M2441.37,854.45c-20.2-47.82-25.16-101.54-25.16-101.54l-52.88,15.62s30.05,67.3,1.2,91.34a274.42,274.42,0,0,0-20.61,18.83C2375.16,856.08,2408.57,849.84,2441.37,854.45Z" style="fill:#f09959"/><path d="M2417.81,765.64c-3.14-2.79-7.06-6.27-11.17-9.9l-43.14,12.74-.09.23c1,2.39,12,28,13.48,52.68,12.85-7.79,26.92-20.51,43-42.72C2419,773.74,2418.34,769.35,2417.81,765.64Z" style="fill:#e38540"/><path d="M2404.19,869.49c-54.46,19-48.42,76.42-98.55,161-25.94,43.79-50,43.14-50,43.14a1160,1160,0,0,1-134.43-8.51c-46.08-5.63-49,8.09-17,19.54,64.64,23.11,131.72,48,185.8,42s146.58-144,151.35-179.92C2448,897.08,2431.62,859.89,2404.19,869.49Z" style="fill:#f09959"/><path d="M2376.14,1350.94q-5.07,0-10.41-.13c-44.39-1.1-74.6-7.24-98.88-12.17-28.35-5.76-44-8.93-62.13-.25a14,14,0,0,1-12.08-25.26c26.64-12.73,48.93-8.2,79.79-1.93,23.2,4.72,52.07,10.59,94,11.62,46.92,1.17,75.53-5.79,90-21.87,12.92-14.33,16.7-38.4,11.9-75.75-1.65-12.79-3.29-23.42-4.74-32.8-4.1-26.47-6.8-44-3.45-71,3.11-25.1,11.42-58.54,30.67-123.37a14,14,0,0,1,26.84,8c-35.87,120.82-34.05,132.58-26.39,182.11,1.47,9.54,3.15,20.37,4.84,33.51,5.92,46.06-.08,77.23-18.88,98.07C2457.89,1341.17,2426.47,1350.94,2376.14,1350.94Z" style="fill:#2e5b9a"/><path d="M1878.43,1602c-57.42,28.08-88.32,44.17-106.73,42.64-4.35-.36-8-.81-11-1.28-20.47,12.11-53.16,26.41-16.38,29.13,43.26,3.21,64.1-14.42,91.34-22.43s60.9-12.82,48.08-33.66A43.84,43.84,0,0,1,1878.43,1602Z" style="fill:#d54a41"/><path d="M2317.91,1552.05c-1.4,45.46-7.65,90.51-35.46,99a46.67,46.67,0,0,1-20,1.79c-4.37,5.4-9.71,5.46-16.87,13.42-10.82,12,61.29,3.61,69.71,0s12-74.51,21-92.54C2343.69,1558.93,2328.8,1555.48,2317.91,1552.05Z" style="fill:#d54a41"/><path d="M2096.74,1121.81H1914.32a14,14,0,0,1-12.69-8.1l-73.72-158.65a14,14,0,0,1,25.4-11.8l70,150.55h173.48a14,14,0,0,1,0,28Z" style="fill:#75a1de"/><path d="M2134.9,1066.75c-36.86-.53-73.41-22.5-91.57-19.3s-77.46,44.34-70,45.94,54.49-22.76,56.09-23.13,11.75,16.87,36.86,23.21.18-18.82,78,4.69C2194.9,1113.44,2134.9,1066.75,2134.9,1066.75Z" style="fill:#f09959"/><path d="M2436,810.81l5.42,43.64s-47.69,2.83-71.43,16.19-58.76,51.94-58.76,51.94l28.62-49.27,4.12-31.52Z" style="fill:#f2e5de"/><path d="M2415.65,864.23c-35.43-6.64-51.82,25.11-74.79,76.92s-62.18,114.75-70,122.86-131.41,0-131.41,0-3.74,35.79,0,40.06,25.11,3.74,25.11,3.74,8.54,6.83,16.56,12.23,75.85,15.55,107.37,14,60.36-4.28,64.63-9.08,90.28-137.29,95.62-184.83S2433.73,867.62,2415.65,864.23Z" style="fill:#f2e5de"/><path d="M2311.18,646.29c-67,3.2-56.49,104-56.49,104s17.4,5.37,53.86-.64c-2.81-10.82-1.61-38.46-1.61-38.46s4.24,22.43,9.62,36c7.71,3.54,16.42.4,31.25-3.18,7.61,32,29.12,45.56,43.85,50.19,16.27,5.12,33.5,11.22,52.73,1.6s8.65-107.9-1.56-127.66C2427.5,638.52,2402,612,2358,626,2335.86,633,2311.18,646.29,2311.18,646.29Z" style="fill:#303c60"/><path d="M2427.7,766l27.39,40s-30.36,75.86,57.94,110.22c69.15,26.92,61,74.34,29.75,122s18.7,89.34,18.7,89.34,7.62-52.83,74.8-62.8c91.61-13.6,117.55-136.6,49.13-198.1-56.62-50.89-73.85-8.74-112.18-54.41s-110.68-14.82-110.68-14.82L2436,758.78Z" style="fill:#303c60"/><path d="M2716.92,990.59a2.5,2.5,0,0,1-1.17-.29,2.44,2.44,0,0,1-1-3.31c23-42.1,4.23-93.1-5.22-106.92-1-1.46-2-3-3-4.52-9.29-14.5-20.85-32.54-82.53-43.64-14.86-2.68-26.88-11.51-39.62-20.86-26.3-19.31-56.11-41.19-120.89-11.38a2.44,2.44,0,0,1-2-4.43c67.38-31,98.43-8.22,125.82,11.88,12.26,9,23.85,17.52,37.59,20,63.78,11.48,76,30.52,85.78,45.81,1,1.54,1.91,3,2.87,4.4,9.91,14.48,29.6,67.91,5.47,112A2.43,2.43,0,0,1,2716.92,990.59Z" style="fill:#303c60"/><path d="M2413.07,807a96.9,96.9,0,0,1-14.23-1.14c-23.44-3.52-54.89-16.84-57.36-91.64a2.44,2.44,0,1,1,4.87-.16c1,30.83,7.14,53.65,18.18,67.8,8.4,10.76,19.53,16.85,35,19.18,21.69,3.25,36.07-.76,42.73-11.91a2.44,2.44,0,0,1,4.19,2.5C2440.37,801.85,2429.16,807,2413.07,807Z" style="fill:#303c60"/><polygon points="1501.81 1672.9 1519.81 1672.9 1589.84 1137.6 1550.24 1137.6 1501.81 1672.9" style="fill:#2e5b9a"/><polygon points="2112.66 1672.9 2094.66 1672.9 2024.63 1137.6 2064.23 1137.6 2112.66 1672.9" style="fill:#2e5b9a"/><path d="M2818.61,1221.05c31.15,28.44,17.61,56.87-5.41,109.68s-27.09,247.81-27.09,247.81l19-2.71s-2.71-200.41,23-254.57,36.56-81.25,59.58-63.65S2818.61,1221.05,2818.61,1221.05Z" style="fill:#74b570"/><path d="M2801.5,1184.23c3.79-16.85,26.25-35.09,56.29-50.55-4.47,24.85-18.79,65.49-4,73.83,20,11.24,1.95-45.5,9.66-76.69a371.22,371.22,0,0,1,93.38-30.63c0,.11-.08.22-.13.34-17.6,44.69-40.62,62.29-31.14,69.06,7.13,5.1,30.36-46.52,61-73,23-1.23,42.5,1.89,54,11,17.81,14.1,29.77,26.61,11.85,69.54-10.23,7.32-23.48,12.56-38.88,14.1-40.63,4.06-59.58,5.41-31.15,19,13.93,6.63,37.27-.38,56.19-4.64-6.14,11.31-13.68,24.11-22.85,38.7a145,145,0,0,1-19,24.22c-13.1,2.51-24.51,2.53-30.56-.06-18.95-8.12-67.7-33.85-79.89-23-11.93,10.61,90.28,17.32,83.2,44.27-49.54,28.54-106.23,15-116.25-11.25C2839.81,1243.24,2790.11,1235,2801.5,1184.23Z" style="fill:#9cd499"/><path d="M2903.92,1376.78c-54.16-40.63-109.68-2.71-138.12,40.62s-8.12,140.83-8.12,140.83,10.83,0,10.83-4.06-29.79-115.1,40.62-165.21c44-31.34,75.84-16.25,79.9-1.35s-17.61,42-17.61,42Z" style="fill:#74b570"/><path d="M2779.34,1293.27c54.17,0,71.77,84,56.88,132.7S2801,1565.45,2801,1565.45l-13.54-13.54s51.45-127.29,39.27-184.16-42-66.36-47.4-66.36S2779.34,1293.27,2779.34,1293.27Z" style="fill:#9cd499"/><path d="M2824.77,1426.35a39.36,39.36,0,0,1,14.26-12,107.49,107.49,0,0,1-2.81,11.6c-6.79,22.22-14.7,53.14-21.3,80.23l-3-17.07c-.33-1.94-.6-4.06-.78-6.3A523.82,523.82,0,0,0,2824.77,1426.35Z" style="fill:#74b570"/><path d="M2839.58,1426.76c102.92-43.33,48.69-102.8,139.42-63.53,6.39,2.77,14.18,9.75,22,19.36a67.62,67.62,0,0,1-28.75,2.31c-27.08-4.06-17.6,17.6,27.08,23a100.16,100.16,0,0,1,20.94,4.42c21.29,40.89,30.89,94.69-14.16,113.39-8.88,3.68-19.85,5.79-32.07,6.58-13.9-11,3.39-75-18-66.16-20.58,8.47,6.45,54.81,2.75,66.48-20.31-.37-42.8-3.68-64.29-9-8.5-4.76-15-11.16-17-19.56-6.77-28.43,37.92-46,39.27-70.41,1.25-22.41-16.38,49.3-63.07,59.85C2811.42,1473.78,2791.48,1447,2839.58,1426.76Z" style="fill:#9cd499"/><path d="M2766.25,1350.14c10.84-23-17.6-28.43-16.25-10.83,1.2,15.6,1.34,53.52-14.66,63.84-27.59-3-65.13-14.11-93.51-31.05a11.46,11.46,0,0,1,1.2-7.06c12.18-24.38,90.72-44.69,66.35-52.81-19.41-6.47-53.43,31.72-80.84,51-16.46-12.49-27.49-27.38-27.49-44,0-22.5,27.33-48,62.68-60.14,15.91,1.61,30.69,10.31,53.77,23.39,34.1,19.32,26.22-11.92-6-30.46,27.83,1.44,55.58,13.33,76.05,41.74,0,0-1.94,12.14,10.91,30.93,35.06,51.24-5.4,81.16-53.77,79.21C2747.41,1390.36,2758.77,1366.05,2766.25,1350.14Z" style="fill:#9cd499"/><path d="M2900.66,1374.48c26.49,20.46,55.9,44.39,92,60.64s28.88,69.21,28.88,69.21,5.42-45.74-24.67-61.39-50-34.31-72.83-37.92-35.51-7.22-35.51-7.22,7.22-14.44,3-19.86S2900.66,1374.48,2900.66,1374.48Z" style="fill:#74b570"/><path d="M3031.19,1134.18c-96.9,25.88-167.92,87.88-181.16,102.92s-13.24,19.26-13.24,19.26l10.23,19.26,4.82-2.41s-7.83-16.25,12.64-37.31c35.29-36.33,78.24-65,107.73-77.64S3031.19,1134.18,3031.19,1134.18Z" style="fill:#74b570"/><path d="M2763.72,1537.82h37a47.67,47.67,0,0,1,47.67,47.67v85.06a0,0,0,0,1,0,0H2716.05a0,0,0,0,1,0,0v-85.06A47.67,47.67,0,0,1,2763.72,1537.82Z" transform="translate(5564.45 3208.37) rotate(180)" style="fill:#75a1de"/><rect x="2716.05" y="1553.03" width="132.35" height="9.32" style="fill:#fff"/><rect x="2716.05" y="1570.02" width="132.35" height="5.48" style="fill:#fff"/><rect x="337.28" y="1504.59" width="55.73" height="50.16" rx="12.08" ry="12.08" transform="translate(730.29 3059.35) rotate(180)" style="fill:#9ec8ff"/><rect x="235.95" y="1504.59" width="55.73" height="50.16" rx="12.08" ry="12.08" transform="translate(527.63 3059.35) rotate(180)" style="fill:#9ec8ff"/><rect x="134.62" y="1504.59" width="55.73" height="50.16" rx="12.08" ry="12.08" transform="translate(324.97 3059.35) rotate(180)" style="fill:#9ec8ff"/><path d="M2989.53,579.17h31.58a12.08,12.08,0,0,1,12.08,12.08v26a12.08,12.08,0,0,1-12.08,12.08h-31.58a12.08,12.08,0,0,1-12.08-12.08v-26A12.07,12.07,0,0,1,2989.53,579.17Z" transform="translate(3609.57 -2401.07) rotate(90)" style="fill:#9ec8ff"/><path d="M2989.53,680.5h31.58a12.07,12.07,0,0,1,12.07,12.07v26a12.08,12.08,0,0,1-12.08,12.08h-31.58a12.08,12.08,0,0,1-12.08-12.08v-26A12.07,12.07,0,0,1,2989.53,680.5Z" transform="translate(3710.9 -2299.74) rotate(90)" style="fill:#9ec8ff"/><path d="M2989.53,781.83h31.58a12.07,12.07,0,0,1,12.07,12.07v26A12.08,12.08,0,0,1,3021.11,832h-31.58a12.07,12.07,0,0,1-12.07-12.07v-26A12.07,12.07,0,0,1,2989.53,781.83Z" transform="translate(3812.23 -2198.41) rotate(90)" style="fill:#9ec8ff"/></svg>