<svg id="Layer_1" data-name="Layer 1" xmlns="http://www.w3.org/2000/svg" viewBox="0 0 558 149.33"><title>Logo</title><path d="M21.3,141.5A49.94,49.94,0,0,1,1.8,126.4l18-21.6q11.4,15.4,26,15.4,19.8,0,19.8-23.2V30.4H16.4V4.4H97.8V95.2q0,25.8-12.8,38.7T47.4,146.8A63.46,63.46,0,0,1,21.3,141.5Z"/><path d="M159.5,136.3a67.88,67.88,0,0,1-26.4-25.5,70.53,70.53,0,0,1-9.5-36.4A70.53,70.53,0,0,1,133.1,38a67.88,67.88,0,0,1,26.4-25.5,76.85,76.85,0,0,1,37.7-9.3q20.79,0,37.5,9.2A68.06,68.06,0,0,1,261,37.9a70.57,70.57,0,0,1,9.6,36.5,70.57,70.57,0,0,1-9.6,36.5,68.06,68.06,0,0,1-26.3,25.5q-16.71,9.19-37.5,9.2A76.85,76.85,0,0,1,159.5,136.3Zm67.7-11.4a54.3,54.3,0,0,0,21-20.8,58.88,58.88,0,0,0,7.6-29.7,58.88,58.88,0,0,0-7.6-29.7,54.3,54.3,0,0,0-21-20.8,64,64,0,0,0-60.1,0,54.75,54.75,0,0,0-21.2,20.8,58.14,58.14,0,0,0-7.7,29.7,58.14,58.14,0,0,0,7.7,29.7,54.75,54.75,0,0,0,21.2,20.8,64,64,0,0,0,60.1,0Z"/><path d="M419.2,84.3q6.8,8.9,6.8,21.9,0,18.4-14.3,28.3T370,144.4H297.59V4.4H366q25.59,0,39.29,9.8T419,40.8a33.69,33.69,0,0,1-18.6,30.8Q412.4,75.4,419.2,84.3ZM329.79,28.8v33H362q12,0,18.2-4.2t6.2-12.4q0-8.21-6.2-12.3T362,28.8Zm57.11,87q6.5-4.2,6.5-13,0-17.4-25.81-17.4h-37.8V120h37.8Q380.4,120,386.9,115.8Z"/><path d="M464.5,142.3q-15.51-4.5-24.91-11.7l11-24.4A74.75,74.75,0,0,0,472,116.8a80.22,80.22,0,0,0,24.79,4q13.81,0,20.41-4.1t6.59-10.9a10.41,10.41,0,0,0-3.89-8.3,29.67,29.67,0,0,0-10-5.3q-6.11-2-16.5-4.4a227.89,227.89,0,0,1-26.2-7.6A42.49,42.49,0,0,1,449.7,68q-7.31-8.4-7.3-22.4A38.9,38.9,0,0,1,449,23.5q6.6-9.9,19.9-15.7T501.4,2a107.7,107.7,0,0,1,26.19,3.2A77.41,77.41,0,0,1,550,14.4L540,39q-19.41-11-38.8-11-13.6,0-20.11,4.4T474.59,44q0,7.2,7.5,10.7T505,61.6a228.49,228.49,0,0,1,26.2,7.6,43.34,43.34,0,0,1,17.5,12q7.29,8.2,7.3,22.2a38.21,38.21,0,0,1-6.71,21.9q-6.69,9.9-20.09,15.7t-32.61,5.8A114.49,114.49,0,0,1,464.5,142.3Z"/></svg>