<?xml version="1.0" encoding="utf-8"?>
<!-- Generator: Adobe Illustrator 22.0.1, SVG Export Plug-In . SVG Version: 6.00 Build 0)  -->
<svg version="1.1" id="Layer_1" xmlns="http://www.w3.org/2000/svg" xmlns:xlink="http://www.w3.org/1999/xlink" x="0px" y="0px"
	 viewBox="0 0 512 512" style="enable-background:new 0 0 512 512;" xml:space="preserve">
<style type="text/css">
	.st0{fill:#E83628;}
	.st1{fill:#E1BBA5;}
	.st2{fill:#F29C1F;}
	.st3{fill:#ECF0F1;}
	.st4{fill:#AD382F;}
	.st5{fill:#35495E;}
	.st6{fill:#A83229;}
	.st7{fill:#661A14;}
	.st8{fill:#721D16;}
	.st9{fill:url(#SVGID_1_);}
</style>
<g>
	<path class="st0" d="M257-1C115.8-1,1,113.8,1,255s114.8,256,256,256s256-114.8,256-256S398.2-1,257-1z"/>
	<path class="st1" d="M257,468.3c-117.6,0-213.3-95.7-213.3-213.3S139.4,41.7,257,41.7S470.3,137.4,470.3,255S374.6,468.3,257,468.3
		z"/>
	<g id="_x30_13---Crustacean-Allergy">
		<path id="Shape_2_" class="st2" d="M347,236.9l-5.5-6.5l-8.5-0.5l3.3-6.3c4.5-3.6,26.7-22.9,26.4-50.3
			c-0.3-21.7-14.7-43.6-42.7-65.2l10.4-13.6c32.4,24.8,49.1,51.3,49.4,78.5C380.2,208.4,352.5,232.5,347,236.9z"/>
		<path id="Shape_3_" class="st2" d="M173.8,379.7c-0.8,0-1.5,0-2.3,0c-25.1-0.9-49.6-15.7-72.7-44L112,325
			c19.9,24.3,40.1,37,60.1,37.7c18.5-0.5,36-8.7,48.3-22.7l12.5,11.7C217.7,368.5,196.5,378.6,173.8,379.7L173.8,379.7z"/>
		<path id="Shape_4_" class="st3" d="M208.8,234.6c-1.3-4-3.5-7.7-6.5-10.7c-6.7-6.7-16.5-9.4-25.7-6.9s-16.4,9.6-18.8,18.8
			c-2.5,9.2,0.2,19,6.9,25.7c5.2,5.2,12.4,8,19.8,7.7L208.8,234.6z"/>
		<path id="Shape_5_" class="st3" d="M269.3,184.4c0.3-7.4-2.5-14.5-7.7-19.8c-6.7-6.7-16.5-9.4-25.7-6.9s-16.4,9.6-18.8,18.8
			s0.2,19,6.9,25.7c3,3,6.6,5.2,10.7,6.5L269.3,184.4z"/>
		<g>
			<path id="Shape_6_" class="st2" d="M340.1,434.7c-2.8,0-5.4-1.3-7-3.6C315.8,407,311.3,376,321.2,348c0.1-0.2,0.1-0.3,0.2-0.5
				c0.9-2.1,2.6-3.7,4.7-4.5s4.5-0.8,6.5,0.2c4.2,1.9,6.1,6.8,4.4,11c-7.9,22.6-4.2,47.7,9.9,67.1c1.9,2.6,2.1,6,0.6,8.9
				C346.2,432.9,343.3,434.7,340.1,434.7L340.1,434.7z"/>
			<path id="Shape_7_" class="st2" d="M264.7,445.5c-3.5,0-6.6-2.1-7.9-5.3c-1.3-3.2-0.6-6.9,1.8-9.3c32.3-32.3,28.5-63,23.4-78.4
				c-1-2.9-0.3-6.1,1.7-8.4s5.1-3.3,8.1-2.7c3,0.6,5.4,2.8,6.4,5.7c6.4,19.1,11.3,57-27.5,95.8C269.2,444.6,267,445.5,264.7,445.5
				L264.7,445.5z"/>
			<path id="Shape_8_" class="st2" d="M200.1,424c-4.7,0.2-8.7-3.5-8.9-8.2s3.5-8.7,8.2-8.9c16.7-0.2,32.6-7.2,44-19.5
				c9.7-12.9,14.2-29,12.6-45c0-0.3-0.1-0.8-0.1-1.1c0-4.7,3.9-8.5,8.6-8.5s8.5,3.9,8.5,8.6c1.8,20.4-4.1,40.7-16.5,57
				c-14.3,15.8-34.4,25.1-55.7,25.6H200.1z"/>
			<path id="Shape_9_" class="st2" d="M426.2,348.6c-1.8,0-3.5-0.6-4.9-1.6c-19.4-14.1-44.5-17.8-67.1-9.9c-4.3,1.7-9.1-0.3-11-4.4
				c-0.9-2.1-1-4.4-0.2-6.5s2.4-3.8,4.5-4.7l0.5-0.2c28-9.9,59.1-5.4,83.2,11.9c3,2.2,4.3,6,3.2,9.6
				C433.2,346.2,429.9,348.6,426.2,348.6L426.2,348.6z"/>
			<path id="Shape_10_" class="st2" d="M370.6,299.5c-4.5,0-9.1-0.3-13.6-0.9c-4.7-0.7-7.8-5.1-7.1-9.8c0.7-4.7,5.1-7.8,9.8-7.1
				c26,3.6,52.2-4.9,71.2-23c2.2-2.2,5.3-3,8.2-2.2s5.2,3.1,6,6s-0.1,6.1-2.2,8.2C423.6,289.6,397.6,299.9,370.6,299.5L370.6,299.5z
				"/>
			<path id="Shape_11_" class="st2" d="M349.9,273.1c-4.3,0-7.9-3.2-8.5-7.5c-0.5-4.3,2.2-8.3,6.4-9.3c39.9-10,57-26.5,59.1-56.7
				c0.3-4.7,4.4-8.3,9.1-8s8.3,4.4,8,9.1c-3.3,48.8-40.2,64.2-72,72.1C351.3,273,350.6,273.1,349.9,273.1L349.9,273.1z"/>
		</g>
		<path id="Shape_12_" class="st4" d="M105.5,256.2l-1.6-1.7c-2.2-2.3-5.6-3.1-8.6-2.2c-3.1,0.9-5.3,3.5-5.9,6.7l-6.1,33.9
			c-0.7,2.7-2.7,4.8-5.3,5.5c-2.6,0.8-5.5,0-7.5-1.9l-41.6-41.7c-1.9-1.9-4.6-2.8-7.2-2.4c-2.6,0.4-5,1.9-6.3,4.2
			c-12.9,21.5-7.3,52.8,14.8,74.8c25.2,25.2,62.6,28.9,83.4,8.1S130.7,281.4,105.5,256.2L105.5,256.2z"/>
		<path id="Shape_13_" class="st4" d="M331.6,30.1C309.5,8,278.2,2.5,256.8,15.3c-2.3,1.3-3.8,3.7-4.2,6.3s0.5,5.3,2.4,7.2
			l41.7,41.7c1.9,2,2.6,4.8,1.9,7.5c-0.8,2.6-2.9,4.7-5.5,5.3l-34.6,4.9c-3.2,0.5-5.8,2.6-6.9,5.7s-0.3,6.4,1.9,8.7
			c1,1.1,2,2.1,2.8,2.9c25.2,25.3,62.6,28.9,83.4,8.1S356.8,55.4,331.6,30.1z"/>
		<circle id="Oval" class="st5" cx="187.7" cy="238.9" r="17.1"/>
		<circle id="Oval_1_" class="st5" cx="238.9" cy="187.7" r="17.1"/>
		<path id="Shape_14_" class="st6" d="M328.9,178.2c17.8,17.8,58.4,125.8,16.7,167.4s-149.6,1.1-167.4-16.7s1.4-66,43.1-107.6
			S311,160.3,328.9,178.2L328.9,178.2z"/>
		<path id="Shape_15_" class="st7" d="M264.5,315.7c-3.5,0-6.6-2.1-7.9-5.3c-1.3-3.2-0.6-6.9,1.8-9.3l42.7-42.7
			c3.3-3.2,8.7-3.2,12,0.1c3.3,3.3,3.3,8.6,0.1,12l-42.7,42.7C269,314.8,266.8,315.7,264.5,315.7L264.5,315.7z"/>
		<path id="Shape_16_" class="st8" d="M298.7,332.8c-3.5,0-6.6-2.1-7.9-5.3c-1.3-3.2-0.6-6.9,1.8-9.3l25.6-25.6
			c3.3-3.2,8.7-3.2,12,0.1c3.3,3.3,3.3,8.6,0.1,12l-25.6,25.6C303.1,331.9,300.9,332.8,298.7,332.8L298.7,332.8z"/>
		<circle id="Oval_2_" class="st3" cx="247.5" cy="179.2" r="8.5"/>
		<circle id="Oval_3_" class="st3" cx="196.3" cy="230.4" r="8.5"/>
	</g>
	
		<rect x="235.6" y="13.6" transform="matrix(0.7071 -0.7071 0.7071 0.7071 -104.9814 256.3895)" class="st0" width="42.7" height="482.7"/>
	
		<linearGradient id="SVGID_1_" gradientUnits="userSpaceOnUse" x1="-127.501" y1="649.5406" x2="-105.7491" y2="639.3989" gradientTransform="matrix(21.3333 0 0 -21.3333 2744.9971 14003.667)">
		<stop  offset="0" style="stop-color:#FFFFFF;stop-opacity:0.2"/>
		<stop  offset="1" style="stop-color:#FFFFFF;stop-opacity:0"/>
	</linearGradient>
	<path class="st9" d="M257-1C115.8-1,1,113.8,1,255s114.8,256,256,256s256-114.8,256-256S398.2-1,257-1z"/>
</g>
</svg>
