<?xml version="1.0" encoding="utf-8"?>
<!-- Generator: Adobe Illustrator 22.0.1, SVG Export Plug-In . SVG Version: 6.00 Build 0)  -->
<svg version="1.1" id="Layer_1" xmlns="http://www.w3.org/2000/svg" xmlns:xlink="http://www.w3.org/1999/xlink" x="0px" y="0px"
	 viewBox="0 0 512 512" style="enable-background:new 0 0 512 512;" xml:space="preserve">
<style type="text/css">
	.st0{fill:#E83628;}
	.st1{fill:#E1BBA5;}
	.st2{fill:#D1D3D3;}
	.st3{fill:#434B4C;}
	.st4{fill:#838384;}
	.st5{fill:#ECF0F1;}
	.st6{fill:#35495E;}
	.st7{fill:url(#SVGID_1_);}
</style>
<g>
	<path class="st0" d="M256,0C114.8,0,0,114.8,0,256s114.8,256,256,256s256-114.8,256-256S397.2,0,256,0z"/>
	<path class="st1" d="M256,469.3c-117.6,0-213.3-95.7-213.3-213.3S138.4,42.7,256,42.7S469.3,138.4,469.3,256S373.6,469.3,256,469.3
		z"/>
	<g id="Page-1">
		<g id="_x30_11---Fish-Allergy">
			<path id="Shape_1_" class="st2" d="M307.5,82.4c8.3,34.4,26,65.9,51.1,90.9c23.5,23.5,52.6,40.6,84.7,49.5
				c15.7-33.6,27.4-68.9,34.7-105.2c3-14.1,5.1-27.1,6.7-38.2c1.6-10.2-1.8-20.5-9.1-27.8c-7.3-7.3-17.6-10.7-27.8-9.2
				c-11.3,1.6-24.5,3.8-38.9,6.9C374,56.5,340,67.6,307.5,82.4L307.5,82.4z"/>
			<path id="Shape_2_" class="st3" d="M43.7,349.5c4,9.7,8.5,19.1,13.7,28.2c18.5,9.9,39.2,14.9,60.2,14.7c4.6-0.2,9.2,1.6,12.4,4.9
				c3.3,3.3,5.1,7.8,4.9,12.4c-0.3,21.4,5,42.5,15.3,61.2v0.1c8.6,4.9,17.4,9.3,26.5,13.1c2.6-1.4,4.7-3.4,6.2-5.9
				c15.6-24.6,28-51,37.1-78.6c2-6.4,3.8-12.4,5.3-17.8v-0.1c29.9-5.6,58.9-14.8,86.6-27.4c7.4-3.3,16.1-0.9,20.8,5.7l26.7,37.6
				c3.7,5.1,10.1,7.7,16.3,6.7s11.4-5.5,13.3-11.6c9.8-30.3,10.7-62.8,2.6-93.6c21.2-22.5,38.6-48.3,51.6-76.3
				c-32-8.9-61.2-26-84.7-49.5c-25.1-25-42.8-56.5-51.1-90.9c-29.2,13.2-56.1,31.2-79.4,53.2c-30.8-8.1-63.3-7.2-93.6,2.6
				c-6.1,1.9-10.6,7-11.6,13.2c-1,6.3,1.5,12.6,6.7,16.3l37.6,26.7c6.7,4.7,9.1,13.4,5.7,20.8c-12.5,27.7-21.7,56.8-27.3,86.6h-0.1
				c-5.5,1.5-11.4,3.2-17.8,5.3c-27.6,9.1-54.1,21.6-78.7,37.1C46.8,345.6,45,347.4,43.7,349.5L43.7,349.5z"/>
			<g>
				<path id="Shape_3_" class="st4" d="M371.9,243.7c3.9,0,7.4-2.7,8.3-6.5s-0.9-7.8-4.4-9.6c-15.2-7.9-29.1-18.1-41.2-30.3
					c-10.4-10.4-19.3-22-26.7-34.7c-1.5-2.6-4.3-4.3-7.4-4.3c-3,0-5.9,1.6-7.4,4.3c-1.5,2.6-1.5,5.9,0,8.5c8.1,14,18,26.8,29.4,38.2
					c13.3,13.4,28.7,24.6,45.4,33.3C369.2,243.3,370.5,243.7,371.9,243.7z"/>
				<path id="Shape_4_" class="st4" d="M345.2,270.4c3.9,0,7.4-2.7,8.3-6.5c0.9-3.8-0.9-7.8-4.4-9.6c-15.2-7.9-29.1-18.1-41.2-30.2
					c-10.4-10.4-19.3-22-26.7-34.7c-1.5-2.7-4.3-4.3-7.4-4.3c-3.1,0-5.9,1.6-7.4,4.3s-1.5,5.9,0,8.6c17.7,30.5,43.6,55.3,74.8,71.6
					C342.5,270,343.9,270.4,345.2,270.4L345.2,270.4z"/>
				<path id="Shape_5_" class="st4" d="M126.7,323.2c0,2.3,0.8,4.5,2.4,6.1c1.6,1.6,3.7,2.6,6,2.6h0.2c4.7,0,8.5-3.8,8.5-8.4
					c0.1-7,0.6-14,1.7-21c0-0.2,0-0.5,0-0.7c-5.5,1.5-11.4,3.2-17.8,5.3C127,312.5,126.7,317.9,126.7,323.2L126.7,323.2z"/>
				<path id="Shape_6_" class="st4" d="M195.8,392.1c0,2.3,0.9,4.4,2.5,6c1.6,1.6,3.8,2.5,6,2.5h0.1c6.2-0.1,11.6-0.5,15.6-0.9
					c2-6.4,3.8-12.4,5.3-17.8h-0.2c-6.9,1.1-14,1.6-21,1.7c-2.3,0-4.4,1-6,2.6S195.8,389.9,195.8,392.1L195.8,392.1z"/>
			</g>
			<circle id="Oval" class="st5" cx="400.8" cy="119.5" r="34.1"/>
			<circle id="Oval_1_" class="st6" cx="409.3" cy="110.9" r="17.1"/>
			<circle id="Oval_2_" class="st5" cx="400.8" cy="102.4" r="8.5"/>
		</g>
	</g>
	
		<rect x="234.7" y="14.6" transform="matrix(0.7071 -0.7071 0.7071 0.7071 -106.0364 255.9892)" class="st0" width="42.7" height="482.7"/>
	
		<linearGradient id="SVGID_1_" gradientUnits="userSpaceOnUse" x1="-86.5629" y1="-238.5248" x2="-64.8122" y2="-228.3835" gradientTransform="matrix(21.3333 0 0 21.3333 1870.6653 5236.3472)">
		<stop  offset="0" style="stop-color:#FFFFFF;stop-opacity:0.2"/>
		<stop  offset="1" style="stop-color:#FFFFFF;stop-opacity:0"/>
	</linearGradient>
	<path class="st7" d="M256,0C114.8,0,0,114.8,0,256s114.8,256,256,256s256-114.8,256-256S397.2,0,256,0z"/>
</g>
</svg>
