<?xml version="1.0" encoding="iso-8859-1"?>
<!-- Generator: Adobe Illustrator 19.0.0, SVG Export Plug-In . SVG Version: 6.00 Build 0)  -->
<svg version="1.1" id="Capa_1" xmlns="http://www.w3.org/2000/svg" xmlns:xlink="http://www.w3.org/1999/xlink" x="0px" y="0px"
	 viewBox="0 0 512 512" style="enable-background:new 0 0 512 512;" xml:space="preserve">
<path style="fill:#E83628;" d="M256,0C114.844,0,0,114.844,0,256s114.844,256,256,256s256-114.844,256-256S397.156,0,256,0z"/>
<path style="fill:#E1BBA5;" d="M256,469.333c-117.633,0-213.333-95.701-213.333-213.333S138.367,42.667,256,42.667
	S469.333,138.367,469.333,256S373.633,469.333,256,469.333z"/>
<path style="fill:#303C42;" d="M329.292,160.76c-12.125-4.844-19.958-16.417-19.958-29.479V128c5.896,0,10.667-4.771,10.667-10.667
	V74.667C320,68.771,315.229,64,309.333,64H202.667C196.771,64,192,68.771,192,74.667v42.667c0,5.896,4.771,10.667,10.667,10.667
	v3.281c0,13.063-7.833,24.635-19.958,29.479c-20.271,8.104-33.375,27.458-33.375,49.292v195.281
	C149.333,428.865,168.469,448,192,448h128c23.531,0,42.667-19.135,42.667-42.667V210.052
	C362.667,188.219,349.563,168.865,329.292,160.76z"/>
<g>
	<rect x="213.333" y="85.333" style="fill:#DDEEFD;" width="85.333" height="21.333"/>
	<path style="fill:#DDEEFD;" d="M190.625,180.573C210.896,172.469,224,153.115,224,131.281V128h64v3.281
		c0,21.833,13.104,41.188,33.375,49.292c12.125,4.844,19.958,16.417,19.958,29.479v24.467c-39.618-0.725-60.876-5.349-83.021-10.27
		c-22.299-4.952-45.561-10.007-87.646-10.764v-3.434C170.667,196.99,178.5,185.417,190.625,180.573z"/>
</g>
<path style="fill:#FAFAFA;" d="M320,426.667H192c-11.76,0-21.333-9.573-21.333-21.333v-170.52
	c39.618,0.725,60.876,5.349,83.021,10.27c22.299,4.952,45.561,10.007,87.646,10.764v149.486
	C341.333,417.094,331.76,426.667,320,426.667z"/>
<rect x="234.651" y="14.637" transform="matrix(-0.7071 0.7071 -0.7071 -0.7071 618.0074 255.9979)" style="fill:#E83628;" width="42.667" height="482.712"/>
<linearGradient id="SVGID_1_" gradientUnits="userSpaceOnUse" x1="-45.5784" y1="639.555" x2="-23.8278" y2="629.4138" gradientTransform="matrix(21.3333 0 0 -21.3333 996.3334 13791.667)">
	<stop  offset="0" style="stop-color:#FFFFFF;stop-opacity:0.2"/>
	<stop  offset="1" style="stop-color:#FFFFFF;stop-opacity:0"/>
</linearGradient>
<path style="fill:url(#SVGID_1_);" d="M256,0C114.844,0,0,114.844,0,256s114.844,256,256,256s256-114.844,256-256S397.156,0,256,0z"
	/>
<g>
</g>
<g>
</g>
<g>
</g>
<g>
</g>
<g>
</g>
<g>
</g>
<g>
</g>
<g>
</g>
<g>
</g>
<g>
</g>
<g>
</g>
<g>
</g>
<g>
</g>
<g>
</g>
<g>
</g>
</svg>
