<?xml version="1.0" encoding="iso-8859-1"?>
<!-- Generator: Adobe Illustrator 19.0.0, SVG Export Plug-In . SVG Version: 6.00 Build 0)  -->
<svg version="1.1" id="Capa_1" xmlns="http://www.w3.org/2000/svg" xmlns:xlink="http://www.w3.org/1999/xlink" x="0px" y="0px"
	 viewBox="0 0 512 512" style="enable-background:new 0 0 512 512;" xml:space="preserve">
<path style="fill:#E83628;" d="M256,0C114.844,0,0,114.844,0,256s114.844,256,256,256s256-114.844,256-256S397.156,0,256,0z"/>
<path style="fill:#E1BBA5;" d="M256,469.333c-117.633,0-213.333-95.701-213.333-213.333S138.367,42.667,256,42.667
	S469.333,138.367,469.333,256S373.633,469.333,256,469.333z"/>
<path style="fill:#303C42;" d="M392.095,277.786c0.018-1.69,0.03-3.027,0.03-3.661c0-92.656-68.854-138.635-98.469-154.104
	c-8.313-4.344-31.729-11.979-34.365-12.833c-2.146-0.688-4.458-0.688-6.583,0c-2.646,0.854-26.021,8.5-34.344,12.823
	c-29.615,15.344-98.49,61.073-98.49,154.115c0,0.632,0.01,1.971,0.029,3.661c-3.043-0.767-6.293-0.27-8.872,1.609
	c-2.74,2.01-4.365,5.208-4.365,8.604c0,53.531,25.906,117.333,149.333,117.333S405.333,341.531,405.333,288
	c0-3.396-1.625-6.594-4.365-8.604C398.398,277.517,395.139,277.02,392.095,277.786z"/>
<path style="fill:#6D4C41;" d="M228.188,138.948c4.542-2.354,18.281-7.208,27.813-10.385c9.542,3.167,23.271,8.01,27.792,10.375
	c32.49,16.969,87,57.115,87,135.188c0,1.41-0.056,6.419-0.126,10.874c-18.146,6.681-42.845,16.944-58.447,28.345
	c-9-15.531-26.552-41.313-50.729-55.823c-3.375-2.021-7.604-2.021-10.979,0c-24.177,14.51-41.729,40.292-50.729,55.823
	c-15.603-11.402-40.307-21.667-58.453-28.348c-0.068-4.457-0.12-9.467-0.12-10.871C141.208,195.719,195.698,155.781,228.188,138.948
	z"/>
<path style="opacity:0.2;fill:#FFFFFF;enable-background:new    ;" d="M236.313,170.385c0.768-0.398,1.799-0.868,3.03-1.389
	c16.771-7.107,36.229-7.009,52.436,1.307c0.047,0.023,0.092,0.048,0.138,0.072c24.026,12.548,60.04,37.827,77.202,81.691
	c-9.076-63.66-56.065-97.846-85.327-113.129c-4.521-2.365-18.25-7.208-27.792-10.375c-9.531,3.177-23.271,8.031-27.813,10.385
	c-32.49,16.833-86.979,56.771-86.979,135.177c0,1.404,0.052,6.414,0.12,10.871c2.798,1.03,5.949,2.29,9.003,3.482
	C157.553,221.313,206.284,185.944,236.313,170.385z"/>
<path style="fill:#989214;" d="M256,384c-79.104,0-120.875-26.479-127.167-80.844c26.844,9.635,58.521,23.771,64.958,33.427
	c2.146,3.219,5.854,4.969,9.708,4.719c3.854-0.302,7.24-2.667,8.854-6.177c0.177-0.385,16.958-36.417,43.646-55.688
	c26.583,19.219,43.469,55.302,43.646,55.698c1.615,3.5,5.01,5.865,8.854,6.156c3.948,0.469,7.573-1.5,9.708-4.708
	c6.427-9.646,38.104-23.781,64.948-33.427C376.865,357.51,335.094,384,256,384z"/>
<path style="opacity:0.1;enable-background:new    ;" d="M376.116,305.777c-14.945,38.016-54.667,56.889-120.949,56.889
	c-66.741,0-106.592-19.092-121.296-57.637c-1.681-0.625-3.385-1.281-5.038-1.874C135.125,357.521,176.896,384,256,384
	c79.094,0,120.865-26.49,127.156-80.844C380.848,303.986,378.477,304.887,376.116,305.777z"/>
<rect x="234.651" y="14.637" transform="matrix(-0.7071 0.7071 -0.7071 -0.7071 618.0074 255.9979)" style="fill:#E83628;" width="42.667" height="482.712"/>
<linearGradient id="SVGID_1_" gradientUnits="userSpaceOnUse" x1="-45.5784" y1="639.555" x2="-23.8278" y2="629.4138" gradientTransform="matrix(21.3333 0 0 -21.3333 996.3334 13791.667)">
	<stop  offset="0" style="stop-color:#FFFFFF;stop-opacity:0.2"/>
	<stop  offset="1" style="stop-color:#FFFFFF;stop-opacity:0"/>
</linearGradient>
<path style="fill:url(#SVGID_1_);" d="M256,0C114.844,0,0,114.844,0,256s114.844,256,256,256s256-114.844,256-256S397.156,0,256,0z"
	/>
<g>
</g>
<g>
</g>
<g>
</g>
<g>
</g>
<g>
</g>
<g>
</g>
<g>
</g>
<g>
</g>
<g>
</g>
<g>
</g>
<g>
</g>
<g>
</g>
<g>
</g>
<g>
</g>
<g>
</g>
</svg>
