<?xml version="1.0" encoding="utf-8"?>
<!-- Generator: Adobe Illustrator 22.0.1, SVG Export Plug-In . SVG Version: 6.00 Build 0)  -->
<svg version="1.1" id="Layer_1" xmlns="http://www.w3.org/2000/svg" xmlns:xlink="http://www.w3.org/1999/xlink" x="0px" y="0px"
	 viewBox="0 0 512 512" style="enable-background:new 0 0 512 512;" xml:space="preserve">
<style type="text/css">
	.st0{fill:#E83628;}
	.st1{fill:#E1BBA5;}
	.st2{fill:#E0B568;}
	.st3{fill:#C19756;}
	.st4{fill:#FFFFFF;}
	.st5{fill:url(#SVGID_1_);}
</style>
<g>
	<path class="st0" d="M257-1C115.8-1,1,113.8,1,255s114.8,256,256,256s256-114.8,256-256S398.2-1,257-1z"/>
	<path class="st1" d="M257,468.3c-117.6,0-213.3-95.7-213.3-213.3S139.4,41.7,257,41.7S470.3,137.4,470.3,255S374.6,468.3,257,468.3
		z"/>
	<path class="st2" d="M195.6,416c9,0,18.1-1.2,27.1-3.7c38.1-10.6,65.8-41.3,72.3-80.3l0.5-3.2c2.9-17.2,16.4-30.7,33.6-33.6
		l3.1-0.5c37.3-6.2,67.6-32.4,79.1-68.2c11.6-35.9,2.3-74.8-24.2-101.5c-26.3-26.6-63.7-35.6-100.1-24.1
		c-37.4,11.9-64.6,43.1-71,81.4c-2.9,17.2-16.4,30.7-33.6,33.6c-36.8,6.1-67.6,31.9-80.4,67.2c-12.4,33.9-6,70.3,16.9,97.2
		C138.8,403.4,166.6,416,195.6,416z"/>
	<path class="st3" d="M97.3,302.3c2.9,16.7,10.2,32.5,21.7,45.9c19.8,23.2,47.6,35.8,76.6,35.8c9,0,18.1-1.2,27.1-3.7l0.7-0.2
		c31.1-8.7,41.3-47.7,18.4-70.5L156.2,224c8.8-4.1,18.3-7,28.2-8.4c16.7-2.5,28.9-16.6,31.7-33.3c1.5-9.1,4.3-17.9,8.1-26l66.7,65.8
		c37.8,37.3,103.2,23.9,120.1-26.5c0.1-0.4,0.2-0.7,0.4-1.1c1.6-4.8,2.7-9.6,3.5-14.5c4.5,28.5-2.6,59-25.9,84.5
		c-15.5,16.9-37,27.1-59.6,30.8c-17.3,2.8-31,16.3-33.9,33.6v0c-5.6,33.5-26.4,63.5-57.3,77.7c-13.9,6.4-28.4,9.4-42.6,9.4
		c-29,0-56.8-12.6-76.6-35.8C100.3,358.4,92.9,330.3,97.3,302.3z"/>
	<g>
		<path class="st4" d="M320.1,128h-32v32h32V128z"/>
		<path class="st4" d="M160.1,272h-32v32h32V272z"/>
	</g>
	
		<rect x="235.7" y="13.6" transform="matrix(0.7071 -0.7071 0.7071 0.7071 -105.0364 256.4034)" class="st0" width="42.7" height="482.7"/>
	
		<linearGradient id="SVGID_1_" gradientUnits="userSpaceOnUse" x1="-86.516" y1="-238.5716" x2="-64.7653" y2="-228.4304" gradientTransform="matrix(21.3333 0 0 21.3333 1870.6653 5236.3472)">
		<stop  offset="0" style="stop-color:#FFFFFF;stop-opacity:0.2"/>
		<stop  offset="1" style="stop-color:#FFFFFF;stop-opacity:0"/>
	</linearGradient>
	<path class="st5" d="M257-1C115.8-1,1,113.8,1,255s114.8,256,256,256s256-114.8,256-256S398.2-1,257-1z"/>
</g>
</svg>
