<?xml version="1.0" encoding="iso-8859-1"?>
<!-- Generator: Adobe Illustrator 19.0.0, SVG Export Plug-In . SVG Version: 6.00 Build 0)  -->
<svg version="1.1" id="Capa_1" xmlns="http://www.w3.org/2000/svg" xmlns:xlink="http://www.w3.org/1999/xlink" x="0px" y="0px"
	 viewBox="0 0 512 512" style="enable-background:new 0 0 512 512;" xml:space="preserve">
<path style="fill:#E83628;" d="M256,0C114.844,0,0,114.844,0,256s114.844,256,256,256s256-114.844,256-256S397.156,0,256,0z"/>
<path style="fill:#E1BBA5;" d="M256,469.333c-117.633,0-213.333-95.701-213.333-213.333S138.367,42.667,256,42.667
	S469.333,138.367,469.333,256S373.633,469.333,256,469.333z"/>
<path style="fill:#303C42;" d="M391.36,126.528c-0.93-2.78-3.108-4.958-5.888-5.888c-1.65-0.556-40.66-13.535-61.067-13.954
	c-35.118-0.702-67.001,20.973-79.233,53.985c-3.026,8.167-9.789,14.766-18.548,18.101c-22.012,8.404-39.448,25.84-47.851,47.851
	c-3.336,8.759-9.935,15.522-18.092,18.548c-33.04,12.241-54.742,44.096-53.994,79.26c0.428,20.38,13.253,59.49,13.79,61.149
	c0.93,2.807,3.135,5.013,5.943,5.934c1.659,0.547,40.787,13.38,61.177,13.799c0.574,0.009,1.139,0.018,1.714,0.018
	c34.48,0,65.488-21.528,77.519-54.003c3.026-8.167,9.789-14.766,18.548-18.101c22.012-8.404,39.448-25.84,47.851-47.851
	c3.336-8.759,9.935-15.522,18.092-18.548c33.04-12.241,54.742-44.096,53.994-79.26C404.886,167.17,391.916,128.178,391.36,126.528z"
	/>
<path style="fill:#D3DF44;" d="M344.831,249.328c-13.207,4.894-23.789,15.613-29.048,29.394
	c-6.499,17.053-20.006,30.561-37.06,37.06c-13.79,5.259-24.5,15.85-29.394,29.057c-9.479,25.575-34.991,42.31-61.35,41.808
	c-12.879-0.264-38.19-7.365-51.205-11.421c-4.056-13.006-11.156-38.29-11.421-51.187c-0.583-27.225,16.224-51.88,41.817-61.368
	c13.207-4.895,23.789-15.613,29.048-29.394c6.499-17.053,20.006-30.561,37.06-37.06c13.79-5.259,24.5-15.85,29.394-29.057
	c9.479-25.575,34.726-42.492,61.35-41.808c12.879,0.264,38.117,7.447,51.078,11.548c4.092,12.943,11.284,38.163,11.548,51.06
	C387.231,215.185,370.424,239.84,344.831,249.328z"/>
<path style="opacity:0.1;enable-background:new    ;" d="M386.342,183.892c-1.544,25.082-17.593,47.236-41.514,56.104
	c-13.194,4.89-23.768,15.593-29.032,29.353c-6.485,16.952-20.126,30.634-37.084,37.104c-13.786,5.26-24.493,15.849-29.386,29.054
	c-9.479,25.575-34.991,42.31-61.35,41.808c-7.913-0.162-20.518-2.905-32.081-5.937c-12.073-3.165-21.445-12.535-24.613-24.607
	c-2.601-9.919-4.884-20.422-5.61-28.261c-0.121,1.841-0.359,3.659-0.319,5.529c0.264,12.897,7.365,38.181,11.421,51.187
	c13.016,4.056,38.327,11.156,51.205,11.421c26.359,0.501,51.871-16.233,61.35-41.808c4.895-13.207,15.604-23.798,29.394-29.057
	c17.053-6.499,30.561-20.006,37.06-37.06c5.259-13.781,15.841-24.5,29.048-29.394c25.594-9.488,42.401-34.143,41.817-61.368
	C386.623,186.738,386.483,185.315,386.342,183.892z"/>
<circle style="fill:#303C42;" cx="256" cy="256" r="42.005"/>
<circle style="fill:#FFCE34;" cx="256" cy="256" r="23.339"/>
<circle style="fill:#303C42;" cx="186.005" cy="325.995" r="42.005"/>
<circle style="fill:#FFCE34;" cx="186.005" cy="325.995" r="23.339"/>
<path style="opacity:0.1;enable-background:new    ;" d="M186.001,330.666c-9.541,0-17.71-5.782-21.322-14
	c-1.261,2.868-2.011,6.004-2.011,9.333c0,12.87,10.463,23.333,23.333,23.333c12.87,0,23.333-10.463,23.333-23.333
	c0-3.329-0.749-6.466-2.01-9.333C203.712,324.884,195.542,330.666,186.001,330.666z"/>
<path style="opacity:0.1;enable-background:new    ;" d="M256.006,260.667c-9.541,0-17.71-5.782-21.322-14
	c-1.261,2.868-2.011,6.004-2.011,9.333c0,12.87,10.463,23.333,23.333,23.333c12.87,0,23.333-10.464,23.333-23.333
	c0-3.329-0.749-6.466-2.01-9.333C273.716,254.885,265.546,260.667,256.006,260.667z"/>
<circle style="fill:#303C42;" cx="325.995" cy="186.005" r="42.005"/>
<circle style="fill:#FFCE34;" cx="325.995" cy="186.005" r="23.339"/>
<path style="opacity:0.1;enable-background:new    ;" d="M326.01,190.667c-9.541,0-17.71-5.782-21.322-14
	c-1.261,2.868-2.011,6.004-2.011,9.333c0,12.87,10.463,23.333,23.333,23.333s23.333-10.463,23.333-23.333
	c0-3.329-0.749-6.466-2.01-9.333C343.721,184.885,335.551,190.667,326.01,190.667z"/>
<g>
	<path style="fill:#303C42;" d="M186.001,284c-23.151,0-42,18.84-42,42c0,23.16,18.849,42,42,42s42-18.84,42-42
		C228,302.84,209.151,284,186.001,284z M186.001,349.333c-12.87,0-23.333-10.463-23.333-23.333c0-12.87,10.463-23.333,23.333-23.333
		c12.87,0,23.333,10.463,23.333,23.333C209.334,338.869,198.87,349.333,186.001,349.333z"/>
	<path style="fill:#303C42;" d="M367.999,186.001c0-23.16-18.849-42-42-42c-23.151,0-42,18.84-42,42s18.849,42,42,42
		C349.15,228,367.999,209.161,367.999,186.001z M302.666,186.001c0-12.87,10.463-23.333,23.333-23.333
		c12.87,0,23.333,10.463,23.333,23.333c0,12.87-10.463,23.333-23.333,23.333C313.13,209.334,302.666,198.87,302.666,186.001z"/>
</g>
<rect x="234.651" y="14.637" transform="matrix(-0.7071 0.7071 -0.7071 -0.7071 618.0074 255.9979)" style="fill:#E83628;" width="42.667" height="482.712"/>
<linearGradient id="SVGID_1_" gradientUnits="userSpaceOnUse" x1="-45.5784" y1="639.555" x2="-23.8278" y2="629.4138" gradientTransform="matrix(21.3333 0 0 -21.3333 996.3334 13791.667)">
	<stop  offset="0" style="stop-color:#FFFFFF;stop-opacity:0.2"/>
	<stop  offset="1" style="stop-color:#FFFFFF;stop-opacity:0"/>
</linearGradient>
<path style="fill:url(#SVGID_1_);" d="M256,0C114.844,0,0,114.844,0,256s114.844,256,256,256s256-114.844,256-256S397.156,0,256,0z"
	/>
<g>
</g>
<g>
</g>
<g>
</g>
<g>
</g>
<g>
</g>
<g>
</g>
<g>
</g>
<g>
</g>
<g>
</g>
<g>
</g>
<g>
</g>
<g>
</g>
<g>
</g>
<g>
</g>
<g>
</g>
</svg>
