<?xml version="1.0" encoding="iso-8859-1"?>
<!-- Generator: Adobe Illustrator 19.0.0, SVG Export Plug-In . SVG Version: 6.00 Build 0)  -->
<svg version="1.1" id="Capa_1" xmlns="http://www.w3.org/2000/svg" xmlns:xlink="http://www.w3.org/1999/xlink" x="0px" y="0px"
	 viewBox="0 0 512 512" style="enable-background:new 0 0 512 512;" xml:space="preserve">
<path style="fill:#E83628;" d="M256,0C114.844,0,0,114.844,0,256s114.844,256,256,256s256-114.844,256-256S397.156,0,256,0z"/>
<path style="fill:#E1BBA5;" d="M256,469.333c-117.633,0-213.333-95.701-213.333-213.333S138.367,42.667,256,42.667
	S469.333,138.367,469.333,256S373.633,469.333,256,469.333z"/>
<path style="fill:#303C42;" d="M330.667,85.333C324.771,85.333,320,90.104,320,96v54.526c-12.947,2.112-35.497,8.165-53.333,25.555
	V74.667C266.667,68.771,261.896,64,256,64c-5.896,0-10.667,4.771-10.667,10.667v101.414c-17.836-17.389-40.387-23.443-53.333-25.555
	V96c0-5.896-4.771-10.667-10.667-10.667c-5.896,0-10.667,4.771-10.667,10.667v264.115C170.667,408.573,208.938,448,256,448
	s85.333-39.427,85.333-87.885V96C341.333,90.104,336.563,85.333,330.667,85.333z"/>
<g>
	<path style="fill:#FDB913;" d="M320,321.193c-12.947,2.112-35.497,8.165-53.333,25.555v-45.93
		c10.452-30.402,37.828-40.163,53.333-43.272V321.193z"/>
	<path style="fill:#FDB913;" d="M192,257.616c15.474,3.169,42.935,12.988,53.333,43.21v45.922
		c-17.836-17.389-40.387-23.443-53.333-25.555V257.616z"/>
	<path style="fill:#FDB913;" d="M320,172.212v63.647c-12.947,2.112-35.497,8.165-53.333,25.555v-45.93
		C277.118,185.082,304.495,175.322,320,172.212z"/>
	<path style="fill:#FDB913;" d="M245.333,215.492v45.922c-17.836-17.389-40.387-23.443-53.333-25.555v-63.577
		C207.474,175.452,234.935,185.271,245.333,215.492z"/>
</g>
<g>
	<path style="opacity:0.2;fill:#FFFFFF;enable-background:new    ;" d="M266.667,215.484v19.788
		C277.118,204.87,304.495,195.109,320,192v-19.788C304.495,175.322,277.118,185.082,266.667,215.484z"/>
	<path style="opacity:0.2;fill:#FFFFFF;enable-background:new    ;" d="M192,172.283v19.788
		c15.474,3.169,42.935,12.988,53.333,43.21v-19.788C234.935,185.271,207.474,175.452,192,172.283z"/>
</g>
<g>
	<path style="fill:#FDB913;" d="M192,360.115v-17.165c15.474,3.169,42.935,12.988,53.333,43.21v39.387
		C215.128,420.228,192,393.014,192,360.115z"/>
	<path style="fill:#FDB913;" d="M266.667,425.546v-39.395c10.452-30.402,37.828-40.163,53.333-43.272v17.236
		C320,393.014,296.872,420.228,266.667,425.546z"/>
</g>
<path style="opacity:0.1;enable-background:new    ;" d="M192.272,343.016c-0.085-0.017-0.189-0.049-0.272-0.066v17.165
	c0,32.9,23.128,60.113,53.333,65.431v-20.212C216.104,400.188,193.702,374.479,192.272,343.016z"/>
<path style="opacity:0.1;enable-background:new    ;" d="M266.667,405.333v20.212C296.872,420.228,320,393.014,320,360.115v-17.236
	c-0.082,0.017-0.184,0.047-0.266,0.064C318.336,374.441,295.919,400.184,266.667,405.333z"/>
<rect x="234.651" y="14.637" transform="matrix(-0.7071 0.7071 -0.7071 -0.7071 618.0074 255.9979)" style="fill:#E83628;" width="42.667" height="482.712"/>
<linearGradient id="SVGID_1_" gradientUnits="userSpaceOnUse" x1="-45.5784" y1="639.555" x2="-23.8278" y2="629.4138" gradientTransform="matrix(21.3333 0 0 -21.3333 996.3334 13791.667)">
	<stop  offset="0" style="stop-color:#FFFFFF;stop-opacity:0.2"/>
	<stop  offset="1" style="stop-color:#FFFFFF;stop-opacity:0"/>
</linearGradient>
<path style="fill:url(#SVGID_1_);" d="M256,0C114.844,0,0,114.844,0,256s114.844,256,256,256s256-114.844,256-256S397.156,0,256,0z"
	/>
<g>
</g>
<g>
</g>
<g>
</g>
<g>
</g>
<g>
</g>
<g>
</g>
<g>
</g>
<g>
</g>
<g>
</g>
<g>
</g>
<g>
</g>
<g>
</g>
<g>
</g>
<g>
</g>
<g>
</g>
</svg>
