<svg id="Layer_1" data-name="Layer 1" xmlns="http://www.w3.org/2000/svg" viewBox="0 0 449.13 52.13"><title>NonProfitLogo</title><path d="M43.85,1.62V52H39.46L7.06,11.13V52H1.73V1.62H6.12l32.47,40.9V1.62Z" transform="translate(-1.73 -0.76)"/><path d="M68.29,49.5a25,25,0,0,1-9.86-9.32,25.42,25.42,0,0,1-3.57-13.36,25.41,25.41,0,0,1,3.57-13.35,25.11,25.11,0,0,1,9.86-9.33A29.5,29.5,0,0,1,82.44.76,29.28,29.28,0,0,1,96.55,4.14,25.24,25.24,0,0,1,110,26.82,25.21,25.21,0,0,1,96.55,49.5a29.18,29.18,0,0,1-14.11,3.39A29.39,29.39,0,0,1,68.29,49.5ZM90.5,40.9a14.82,14.82,0,0,0,5.66-5.72,17,17,0,0,0,2-8.36,16.91,16.91,0,0,0-2-8.35,14.75,14.75,0,0,0-5.66-5.72,16.89,16.89,0,0,0-16.13,0,14.72,14.72,0,0,0-5.65,5.72,16.8,16.8,0,0,0-2,8.35,16.84,16.84,0,0,0,2,8.36,14.79,14.79,0,0,0,5.65,5.72,16.89,16.89,0,0,0,16.13,0Z" transform="translate(-1.73 -0.76)"/><path d="M163.15,1.62V52h-4.39l-32.4-40.89V52H121V1.62h4.39l32.47,40.9V1.62Z" transform="translate(-1.73 -0.76)"/><path d="M210.78,3.86a17.24,17.24,0,0,1,7.59,6.33A17.44,17.44,0,0,1,221,19.91a17.48,17.48,0,0,1-2.67,9.69,16.92,16.92,0,0,1-7.59,6.33,28.33,28.33,0,0,1-11.63,2.2H189V52H177.33V1.62h21.82A28,28,0,0,1,210.78,3.86Zm-4.29,22.5a7.9,7.9,0,0,0,2.74-6.45,8,8,0,0,0-2.74-6.51c-1.82-1.52-4.48-2.27-8-2.27H189V28.62h9.5Q203.77,28.62,206.49,26.36Z" transform="translate(-1.73 -0.76)"/><path d="M261.43,52l-9.72-14H241V52H229.32V1.62h21.81a28,28,0,0,1,11.63,2.24,17.27,17.27,0,0,1,7.6,6.33A17.52,17.52,0,0,1,273,19.91a17.13,17.13,0,0,1-2.7,9.69,17.07,17.07,0,0,1-7.67,6.22L274,52ZM258.48,13.4c-1.83-1.52-4.49-2.27-8-2.27H241V28.7h9.51q5.25,0,8-2.31a8,8,0,0,0,2.73-6.48A8,8,0,0,0,258.48,13.4Z" transform="translate(-1.73 -0.76)"/><path d="M292.5,49.5a25.11,25.11,0,0,1-9.87-9.32,25.51,25.51,0,0,1-3.56-13.36,25.5,25.5,0,0,1,3.56-13.35,25.2,25.2,0,0,1,9.87-9.33,31.23,31.23,0,0,1,28.26,0,25.52,25.52,0,0,1,9.86,9.33,25.25,25.25,0,0,1,3.6,13.35A25.21,25.21,0,0,1,320.76,49.5a31.14,31.14,0,0,1-28.26,0Zm22.21-8.6a14.79,14.79,0,0,0,5.65-5.72,16.84,16.84,0,0,0,2.05-8.36,16.8,16.8,0,0,0-2.05-8.35,14.72,14.72,0,0,0-5.65-5.72,16.89,16.89,0,0,0-16.13,0,14.72,14.72,0,0,0-5.65,5.72,16.8,16.8,0,0,0-2.05,8.35,16.84,16.84,0,0,0,2.05,8.36,14.79,14.79,0,0,0,5.65,5.72,16.89,16.89,0,0,0,16.13,0Z" transform="translate(-1.73 -0.76)"/><path d="M354.67,11V24.3H378v9.36H354.67V52H343V1.62h38.09V11Z" transform="translate(-1.73 -0.76)"/><path d="M389,1.62h11.67V52H389Z" transform="translate(-1.73 -0.76)"/><path d="M423.07,11.13H406.94V1.62h43.92v9.51H434.73V52H423.07Z" transform="translate(-1.73 -0.76)"/></svg>