<svg id="Layer_1" data-name="Layer 1" xmlns="http://www.w3.org/2000/svg" viewBox="0 0 609.33 149.33"><title>SAASLogo</title><path d="M30.8,142.3q-15.5-4.5-24.9-11.7l11-24.4a74.69,74.69,0,0,0,21.4,10.6,80.28,80.28,0,0,0,24.8,4q13.8,0,20.4-4.1t6.6-10.9a10.42,10.42,0,0,0-3.9-8.3,29.48,29.48,0,0,0-10-5.3q-6.11-2-16.5-4.4a227.89,227.89,0,0,1-26.2-7.6A42.56,42.56,0,0,1,16,68Q8.7,59.6,8.7,45.6a39,39,0,0,1,6.6-22.1q6.6-9.9,19.9-15.7T67.7,2A107.78,107.78,0,0,1,93.9,5.2a77.35,77.35,0,0,1,22.4,9.2L106.3,39Q86.91,28,67.5,28,53.9,28,47.4,32.4T40.9,44q0,7.2,7.5,10.7t22.9,6.9a227.89,227.89,0,0,1,26.2,7.6,43.34,43.34,0,0,1,17.5,12q7.31,8.2,7.3,22.2a38.2,38.2,0,0,1-6.7,21.9q-6.7,9.9-20.1,15.7t-32.6,5.8A114.51,114.51,0,0,1,30.8,142.3Z"/><path d="M251.7,114.4h-65l-12.4,30H141.1l62.4-140h32l62.6,140h-34ZM241.5,89.8,219.3,36.2,197.1,89.8Z"/><path d="M424.5,114.4h-65l-12.4,30H313.9l62.4-140h32l62.6,140h-34ZM414.3,89.8,392.1,36.2,369.9,89.8Z"/><path d="M514.4,142.3q-15.51-4.5-24.9-11.7l11-24.4a74.69,74.69,0,0,0,21.4,10.6,80.23,80.23,0,0,0,24.8,4q13.8,0,20.4-4.1t6.6-10.9a10.42,10.42,0,0,0-3.9-8.3,29.57,29.57,0,0,0-10-5.3q-6.1-2-16.5-4.4a227.89,227.89,0,0,1-26.2-7.6A42.49,42.49,0,0,1,499.6,68q-7.31-8.4-7.3-22.4a39,39,0,0,1,6.6-22.1q6.6-9.9,19.9-15.7T551.3,2a107.84,107.84,0,0,1,26.2,3.2,77.35,77.35,0,0,1,22.4,9.2L589.9,39q-19.41-11-38.8-11-13.61,0-20.1,4.4T524.5,44q0,7.2,7.5,10.7t22.9,6.9a228.49,228.49,0,0,1,26.2,7.6,43.34,43.34,0,0,1,17.5,12q7.29,8.2,7.3,22.2a38.28,38.28,0,0,1-6.7,21.9q-6.71,9.9-20.1,15.7t-32.6,5.8A114.51,114.51,0,0,1,514.4,142.3Z"/></svg>