<svg id="Layer_1" data-name="Layer 1" xmlns="http://www.w3.org/2000/svg" viewBox="0 0 390.42 53.67"><title>StartupsLogo</title><path d="M11,51.27a27.18,27.18,0,0,1-9-4.21l4-8.79a26.78,26.78,0,0,0,7.7,3.82,29,29,0,0,0,8.93,1.44q5,0,7.34-1.48a4.44,4.44,0,0,0,2.38-3.92,3.77,3.77,0,0,0-1.4-3,10.76,10.76,0,0,0-3.6-1.91q-2.2-.72-5.94-1.58a82.33,82.33,0,0,1-9.44-2.74,15.37,15.37,0,0,1-6.3-4.39A11.86,11.86,0,0,1,3,16.46a14.07,14.07,0,0,1,2.37-8,16,16,0,0,1,7.17-5.65A29.25,29.25,0,0,1,24.25.76a38.65,38.65,0,0,1,9.43,1.15,27.87,27.87,0,0,1,8.06,3.31l-3.6,8.86a28.08,28.08,0,0,0-14-4q-4.89,0-7.23,1.58a4.84,4.84,0,0,0-2.34,4.18,4.08,4.08,0,0,0,2.7,3.85,42.68,42.68,0,0,0,8.24,2.49A81.72,81.72,0,0,1,35,25a15.55,15.55,0,0,1,6.3,4.32,11.54,11.54,0,0,1,2.63,8,13.77,13.77,0,0,1-2.41,7.89,16.23,16.23,0,0,1-7.24,5.65,29.47,29.47,0,0,1-11.73,2.09A41.23,41.23,0,0,1,11,51.27Z"/><path d="M61.61,11.13H45.49V1.62H89.41v9.51H73.28V52H61.61Z"/><path d="M126.34,41.22h-23.4L98.48,52h-12L109,1.62h11.52L143.05,52H130.81Zm-3.67-8.85-8-19.3-8,19.3Z"/><path d="M180.41,52l-9.72-14H160V52H148.3V1.62h21.82a28,28,0,0,1,11.63,2.24,17.24,17.24,0,0,1,7.59,6.33A17.44,17.44,0,0,1,192,19.91a17.13,17.13,0,0,1-2.7,9.69,17.13,17.13,0,0,1-7.67,6.22L192.94,52ZM177.46,13.4c-1.82-1.52-4.49-2.27-8-2.27H160V28.7h9.5c3.5,0,6.17-.77,8-2.31a8,8,0,0,0,2.74-6.48A8,8,0,0,0,177.46,13.4Z"/><path d="M210.94,11.13H194.81V1.62h43.92v9.51H222.6V52H210.94Z"/><path d="M252.27,46.84q-5.47-5.61-5.47-16.34V1.62h5.32V30.28q0,8.79,4,13.1t11.45,4.32q7.56,0,11.52-4.32t4-13.1V1.62h5.19V30.5q0,10.72-5.44,16.34t-15.23,5.62Q257.74,52.46,252.27,46.84Z"/><path d="M338.24,6.23q5.46,4.61,5.47,12.67t-5.47,12.64q-5.48,4.58-15.12,4.57H309.58V52h-5.33V1.62h18.87Q332.77,1.62,338.24,6.23Zm-3.82,21.93q4-3.28,4-9.26t-4-9.39q-4-3.28-11.45-3.28H309.58v25.2H323Q330.45,31.43,334.42,28.16Z"/><path d="M359.08,50.66a19.78,19.78,0,0,1-8-4.76l2.09-4.1a20.07,20.07,0,0,0,7.27,4.43,26.57,26.57,0,0,0,9.36,1.69q6.77,0,10.15-2.48A7.66,7.66,0,0,0,383.38,39a6.43,6.43,0,0,0-1.84-4.82A12.22,12.22,0,0,0,377,31.4a71.74,71.74,0,0,0-7.41-2.13,76.69,76.69,0,0,1-9.07-2.77,14.86,14.86,0,0,1-5.8-4.07A10.78,10.78,0,0,1,352.35,15a12.59,12.59,0,0,1,2-6.95,13.84,13.84,0,0,1,6.2-5,25.42,25.42,0,0,1,10.36-1.87,30.6,30.6,0,0,1,8.46,1.19,24.15,24.15,0,0,1,7.17,3.28l-1.8,4.24A25.07,25.07,0,0,0,378,6.77a25.47,25.47,0,0,0-7.06-1q-6.62,0-10,2.55a8,8,0,0,0-3.35,6.59,6.58,6.58,0,0,0,1.84,4.86,12,12,0,0,0,4.61,2.81c1.84.65,4.33,1.36,7.45,2.12a78.34,78.34,0,0,1,9,2.7,14.74,14.74,0,0,1,5.8,4,10.67,10.67,0,0,1,2.38,7.3,12.4,12.4,0,0,1-2.06,6.95,13.73,13.73,0,0,1-6.3,5,26.37,26.37,0,0,1-10.44,1.84A32.36,32.36,0,0,1,359.08,50.66Z"/></svg>