<svg id="Layer_1" data-name="Layer 1" xmlns="http://www.w3.org/2000/svg" viewBox="0 0 972.39 140"><title>TherapyLogo</title><path d="M51,27.4H4.6V5.4H123.4v22H77v118H51Z" transform="translate(-4.6 -5.4)"/><path d="M264,5.4v140H249.4V80.8H161.8v64.6H147V5.4h14.8V67.8h87.6V5.4Z" transform="translate(-4.6 -5.4)"/><path d="M408.6,132.6v12.8h-99V5.4h96V18.2H324.4V68h72.4V80.6H324.4v52Z" transform="translate(-4.6 -5.4)"/><path d="M539,145.4l-32-45a101.5,101.5,0,0,1-11.2.6H458.2v44.4H443.4V5.4h52.4q26.79,0,42,12.8T553,53.4q0,16.4-8.3,27.7T521,97.4l34.2,48ZM527.2,79.2q11-9.2,11-25.8,0-17-11-26.1t-31.8-9.1H458.2V88.4h37.2Q516.19,88.4,527.2,79.2Z" transform="translate(-4.6 -5.4)"/><path d="M675.8,108h-78L581,145.4H565.6l64-140h14.6l64,140H692.6Zm-5.4-12L636.8,20.8,603.2,96Z" transform="translate(-4.6 -5.4)"/><path d="M825.79,18.2Q841,31,841,53.4T825.79,88.5q-15.19,12.7-42,12.7h-37.6v44.2h-14.8V5.4h52.4Q810.6,5.4,825.79,18.2Zm-10.6,60.9q11-9.1,11-25.7,0-17-11-26.1t-31.8-9.1h-37.2v70h37.2Q804.2,88.2,815.19,79.1Z" transform="translate(-4.6 -5.4)"/><path d="M921,97v48.4h-14.6V97l-56-91.6h15.8l48,78.6,48-78.6H977Z" transform="translate(-4.6 -5.4)"/></svg>