<svg id="Layer_1" data-name="Layer 1" xmlns="http://www.w3.org/2000/svg" viewBox="0 0 1061.39 140"><title>TherapyLogo</title><path d="M50.4,32.8H5.6V6.4h122V32.8H82.8V146.4H50.4Z" transform="translate(-5.6 -6.4)"/><path d="M283.4,6.4v140H251V89H187.4v57.4H155V6.4h32.4V61.6H251V6.4Z" transform="translate(-5.6 -6.4)"/><path d="M435,120.4v26H326.6V6.4H432.4v26H358.8V62.8h65V88h-65v32.4Z" transform="translate(-5.6 -6.4)"/><path d="M560,146.4l-27-39H503.2v39H470.8V6.4h60.6q18.6,0,32.3,6.2t21.1,17.6q7.4,11.4,7.4,27t-7.5,26.9q-7.5,11.3-21.3,17.3l31.4,45ZM551.8,39.1q-7.6-6.3-22.2-6.3H503.2V81.6h26.4q14.6,0,22.2-6.4t7.6-18Q559.4,45.4,551.8,39.1Z" transform="translate(-5.6 -6.4)"/><path d="M720,116.4H655l-12.4,30H609.4l62.4-140h32l62.6,140h-34ZM709.8,91.8,687.6,38.2,665.4,91.8Z" transform="translate(-5.6 -6.4)"/><path d="M883.89,12.6Q897.6,18.8,905,30.2t7.4,27q0,15.4-7.4,26.9t-21.1,17.6q-13.7,6.1-32.3,6.1h-28.2v38.6H791V6.4h60.6Q870.19,6.4,883.89,12.6ZM872,75.1q7.6-6.3,7.6-17.9,0-11.81-7.6-18.1t-22.2-6.3h-26.4V81.4h26.4Q864.4,81.4,872,75.1Z" transform="translate(-5.6 -6.4)"/><path d="M1012.59,96.8v49.6H980.2v-50L926,6.4h34.39l37.4,62.2L1035.2,6.4H1067Z" transform="translate(-5.6 -6.4)"/></svg>