<svg id="Layer_1" data-name="Layer 1" xmlns="http://www.w3.org/2000/svg" viewBox="0 0 612.33 149.33"><title>YogaLogo</title><path d="M89.1,94.8v49.6H56.7v-50L2.5,4.4H36.9L74.3,66.6,111.7,4.4h31.8Z"/><path d="M181.8,136.3a67.88,67.88,0,0,1-26.4-25.5,70.63,70.63,0,0,1-9.5-36.4A70.63,70.63,0,0,1,155.4,38a67.88,67.88,0,0,1,26.4-25.5,76.88,76.88,0,0,1,37.7-9.3q20.81,0,37.5,9.2a68.06,68.06,0,0,1,26.3,25.5,70.57,70.57,0,0,1,9.6,36.5,70.57,70.57,0,0,1-9.6,36.5A68.06,68.06,0,0,1,257,136.4q-16.69,9.19-37.5,9.2A76.88,76.88,0,0,1,181.8,136.3Zm67.7-11.4a54.3,54.3,0,0,0,21-20.8,58.77,58.77,0,0,0,7.6-29.7,58.77,58.77,0,0,0-7.6-29.7,54.3,54.3,0,0,0-21-20.8,64,64,0,0,0-60.1,0,54.75,54.75,0,0,0-21.2,20.8,58.24,58.24,0,0,0-7.7,29.7,58.24,58.24,0,0,0,7.7,29.7,54.75,54.75,0,0,0,21.2,20.8,64,64,0,0,0,60.1,0Z"/><path d="M419.7,74.4h14.2v53.4A68.5,68.5,0,0,1,410.7,141a86.13,86.13,0,0,1-28.2,4.6q-21,0-37.8-9.2a67.85,67.85,0,0,1-26.4-25.5,70.57,70.57,0,0,1-9.6-36.5,70.57,70.57,0,0,1,9.6-36.5,67.85,67.85,0,0,1,26.4-25.5q16.8-9.19,38-9.2a82,82,0,0,1,29.4,5.1,58.4,58.4,0,0,1,22.6,15.1l-9.2,9.4Q408.9,16.41,383.3,16.4a62.87,62.87,0,0,0-30.7,7.5,55.13,55.13,0,0,0-21.5,20.8,57.63,57.63,0,0,0-7.8,29.7,57.09,57.09,0,0,0,7.8,29.6,56.27,56.27,0,0,0,21.4,20.8,61.63,61.63,0,0,0,30.6,7.6q21.6,0,36.6-10.8Z"/><path d="M561.7,114.4h-65l-12.4,30H451.1l62.4-140h32l62.6,140h-34ZM551.5,89.8,529.3,36.2,507.1,89.8Z"/></svg>