<?xml version="1.0" encoding="UTF-8" standalone="no"?>
<!DOCTYPE svg PUBLIC "-//W3C//DTD SVG 1.1//EN"
 "http://www.w3.org/Graphics/SVG/1.1/DTD/svg11.dtd">
<!-- Generated by graphviz version 2.40.1 (20161225.0304)
 -->
<!-- Title: dependencies Pages: 1 -->
<svg width="3154pt" height="284pt"
 viewBox="0.00 0.00 3154.00 284.00" xmlns="http://www.w3.org/2000/svg" xmlns:xlink="http://www.w3.org/1999/xlink">
<g id="graph0" class="graph" transform="scale(1 1) rotate(0) translate(4 280)">
<title>dependencies</title>
<polygon fill="#ffffff" stroke="transparent" points="-4,4 -4,-280 3150,-280 3150,4 -4,4"/>
<text text-anchor="start" x="1552.0091" y="-42.4" font-family="sans-serif" font-weight="bold" font-size="14.00" fill="#000000">Legend</text>
<polygon fill="#ffffb3" stroke="transparent" points="1339,-10 1339,-30 1359,-30 1359,-10 1339,-10"/>
<text text-anchor="start" x="1362.629" y="-15.4" font-family="sans-serif" font-size="14.00" fill="#000000"> &#160;Declarations</text>
<polygon fill="#8dd3c7" stroke="transparent" points="1452,-10 1452,-30 1472,-30 1472,-10 1452,-10"/>
<text text-anchor="start" x="1475.7251" y="-15.4" font-family="sans-serif" font-size="14.00" fill="#000000"> &#160;Module</text>
<polygon fill="#80b1d3" stroke="transparent" points="1538,-10 1538,-30 1558,-30 1558,-10 1538,-10"/>
<text text-anchor="start" x="1561.7812" y="-15.4" font-family="sans-serif" font-size="14.00" fill="#000000"> &#160;Bootstrap</text>
<polygon fill="#fdb462" stroke="transparent" points="1635,-10 1635,-30 1655,-30 1655,-10 1635,-10"/>
<text text-anchor="start" x="1658.6732" y="-15.4" font-family="sans-serif" font-size="14.00" fill="#000000"> &#160;Providers</text>
<polygon fill="#fb8072" stroke="transparent" points="1731,-10 1731,-30 1751,-30 1751,-10 1731,-10"/>
<text text-anchor="start" x="1754.7258" y="-15.4" font-family="sans-serif" font-size="14.00" fill="#000000"> &#160;Exports</text>
<g id="clust1" class="cluster">
<title>cluster_SharedModule</title>
<polygon fill="none" stroke="#000000" stroke-dasharray="1,5" points="8,-70 8,-268 3138,-268 3138,-70 8,-70"/>
</g>
<g id="clust2" class="cluster">
<title>cluster_SharedModule_declarations</title>
<polygon fill="none" stroke="#000000" points="326,-78 326,-130 3130,-130 3130,-78 326,-78"/>
</g>
<g id="clust20" class="cluster">
<title>cluster_SharedModule_imports</title>
<polygon fill="none" stroke="#000000" points="196,-78 196,-130 318,-130 318,-78 196,-78"/>
</g>
<g id="clust21" class="cluster">
<title>cluster_SharedModule_exports</title>
<polygon fill="none" stroke="#000000" points="440,-208 440,-260 2716,-260 2716,-208 440,-208"/>
</g>
<g id="clust23" class="cluster">
<title>cluster_SharedModule_providers</title>
<polygon fill="none" stroke="#000000" points="16,-78 16,-130 188,-130 188,-78 16,-78"/>
</g>
<!-- AddAssigneeComponent -->
<g id="node1" class="node">
<title>AddAssigneeComponent</title>
<polygon fill="#ffffb3" stroke="#000000" points="3122.2548,-122 2965.7452,-122 2965.7452,-86 3122.2548,-86 3122.2548,-122"/>
<text text-anchor="middle" x="3044" y="-99.8" font-family="Times,serif" font-size="14.00" fill="#000000">AddAssigneeComponent</text>
</g>
<!-- SharedModule -->
<g id="node18" class="node">
<title>SharedModule</title>
<polygon fill="#8dd3c7" stroke="#000000" points="1539.4231,-187 1536.4231,-191 1515.4231,-191 1512.4231,-187 1440.5769,-187 1440.5769,-151 1539.4231,-151 1539.4231,-187"/>
<text text-anchor="middle" x="1490" y="-164.8" font-family="Times,serif" font-size="14.00" fill="#000000">SharedModule</text>
</g>
<!-- AddAssigneeComponent&#45;&gt;SharedModule -->
<g id="edge1" class="edge">
<title>AddAssigneeComponent&#45;&gt;SharedModule</title>
<path fill="none" stroke="#000000" d="M3044,-122.2228C3044,-142.3652 3044,-172 3044,-172 3044,-172 1549.5087,-172 1549.5087,-172"/>
<polygon fill="#000000" stroke="#000000" points="1549.5087,-168.5001 1539.5087,-172 1549.5086,-175.5001 1549.5087,-168.5001"/>
</g>
<!-- AddAssignmentComponent -->
<g id="node2" class="node">
<title>AddAssignmentComponent</title>
<polygon fill="#ffffb3" stroke="#000000" points="2947.3215,-122 2774.6785,-122 2774.6785,-86 2947.3215,-86 2947.3215,-122"/>
<text text-anchor="middle" x="2861" y="-99.8" font-family="Times,serif" font-size="14.00" fill="#000000">AddAssignmentComponent</text>
</g>
<!-- AddAssignmentComponent&#45;&gt;SharedModule -->
<g id="edge2" class="edge">
<title>AddAssignmentComponent&#45;&gt;SharedModule</title>
<path fill="none" stroke="#000000" d="M2861,-122.1061C2861,-141.3391 2861,-169 2861,-169 2861,-169 1549.6046,-169 1549.6046,-169"/>
<polygon fill="#000000" stroke="#000000" points="1549.6046,-165.5001 1539.6046,-169 1549.6045,-172.5001 1549.6046,-165.5001"/>
</g>
<!-- AddCollaboratorsComponent -->
<g id="node3" class="node">
<title>AddCollaboratorsComponent</title>
<polygon fill="#ffffb3" stroke="#000000" points="2756.6428,-122 2575.3572,-122 2575.3572,-86 2756.6428,-86 2756.6428,-122"/>
<text text-anchor="middle" x="2666" y="-99.8" font-family="Times,serif" font-size="14.00" fill="#000000">AddCollaboratorsComponent</text>
</g>
<!-- AddCollaboratorsComponent&#45;&gt;SharedModule -->
<g id="edge3" class="edge">
<title>AddCollaboratorsComponent&#45;&gt;SharedModule</title>
<path fill="none" stroke="#000000" d="M2641.5447,-122.2222C2641.5447,-140.8285 2641.5447,-167 2641.5447,-167 2641.5447,-167 1549.4804,-167 1549.4804,-167"/>
<polygon fill="#000000" stroke="#000000" points="1549.4805,-163.5001 1539.4804,-167 1549.4804,-170.5001 1549.4805,-163.5001"/>
</g>
<!-- AddHowtodocComponent -->
<g id="node4" class="node">
<title>AddHowtodocComponent</title>
<polygon fill="#ffffb3" stroke="#000000" points="2556.7576,-122 2393.2424,-122 2393.2424,-86 2556.7576,-86 2556.7576,-122"/>
<text text-anchor="middle" x="2475" y="-99.8" font-family="Times,serif" font-size="14.00" fill="#000000">AddHowtodocComponent</text>
</g>
<!-- AddHowtodocComponent&#45;&gt;SharedModule -->
<g id="edge4" class="edge">
<title>AddHowtodocComponent&#45;&gt;SharedModule</title>
<path fill="none" stroke="#000000" d="M2453.375,-122.302C2453.375,-140.2699 2453.375,-165 2453.375,-165 2453.375,-165 1549.432,-165 1549.432,-165"/>
<polygon fill="#000000" stroke="#000000" points="1549.432,-161.5001 1539.432,-165 1549.4319,-168.5001 1549.432,-161.5001"/>
</g>
<!-- AddJobComponent -->
<g id="node5" class="node">
<title>AddJobComponent</title>
<polygon fill="#ffffb3" stroke="#000000" points="2375.3837,-122 2250.6163,-122 2250.6163,-86 2375.3837,-86 2375.3837,-122"/>
<text text-anchor="middle" x="2313" y="-99.8" font-family="Times,serif" font-size="14.00" fill="#000000">AddJobComponent</text>
</g>
<!-- AddJobComponent&#45;&gt;SharedModule -->
<g id="edge5" class="edge">
<title>AddJobComponent&#45;&gt;SharedModule</title>
<path fill="none" stroke="#000000" d="M2289.7081,-122.0225C2289.7081,-139.3734 2289.7081,-163 2289.7081,-163 2289.7081,-163 1549.4218,-163 1549.4218,-163"/>
<polygon fill="#000000" stroke="#000000" points="1549.4219,-159.5001 1539.4218,-163 1549.4218,-166.5001 1549.4219,-159.5001"/>
</g>
<!-- AddPostMenuComponent -->
<g id="node6" class="node">
<title>AddPostMenuComponent</title>
<polygon fill="#ffffb3" stroke="#000000" points="2232.2161,-122 2069.7839,-122 2069.7839,-86 2232.2161,-86 2232.2161,-122"/>
<text text-anchor="middle" x="2151" y="-99.8" font-family="Times,serif" font-size="14.00" fill="#000000">AddPostMenuComponent</text>
</g>
<!-- AddPostMenuComponent&#45;&gt;SharedModule -->
<g id="edge6" class="edge">
<title>AddPostMenuComponent&#45;&gt;SharedModule</title>
<path fill="none" stroke="#000000" d="M2107.4823,-122.027C2107.4823,-138.3976 2107.4823,-160 2107.4823,-160 2107.4823,-160 1549.2279,-160 1549.2279,-160"/>
<polygon fill="#000000" stroke="#000000" points="1549.2279,-156.5001 1539.2279,-160 1549.2278,-163.5001 1549.2279,-156.5001"/>
</g>
<!-- AutocompleteComponent -->
<g id="node7" class="node">
<title>AutocompleteComponent</title>
<polygon fill="#ffffb3" stroke="#000000" points="2052.1456,-122 1891.8544,-122 1891.8544,-86 2052.1456,-86 2052.1456,-122"/>
<text text-anchor="middle" x="1972" y="-99.8" font-family="Times,serif" font-size="14.00" fill="#000000">AutocompleteComponent</text>
</g>
<!-- AutocompleteComponent&#45;&gt;SharedModule -->
<g id="edge7" class="edge">
<title>AutocompleteComponent&#45;&gt;SharedModule</title>
<path fill="none" stroke="#000000" d="M1927.1797,-122.2819C1927.1797,-137.9478 1927.1797,-158 1927.1797,-158 1927.1797,-158 1549.3002,-158 1549.3002,-158"/>
<polygon fill="#000000" stroke="#000000" points="1549.3003,-154.5001 1539.3002,-158 1549.3002,-161.5001 1549.3003,-154.5001"/>
</g>
<!-- BreadcumbComponent -->
<g id="node8" class="node">
<title>BreadcumbComponent</title>
<polygon fill="#ffffb3" stroke="#000000" points="1873.8641,-122 1728.1359,-122 1728.1359,-86 1873.8641,-86 1873.8641,-122"/>
<text text-anchor="middle" x="1801" y="-99.8" font-family="Times,serif" font-size="14.00" fill="#000000">BreadcumbComponent</text>
</g>
<!-- BreadcumbComponent&#45;&gt;SharedModule -->
<g id="edge8" class="edge">
<title>BreadcumbComponent&#45;&gt;SharedModule</title>
<path fill="none" stroke="#000000" d="M1761.4623,-122.1871C1761.4623,-137.1824 1761.4623,-156 1761.4623,-156 1761.4623,-156 1549.4747,-156 1549.4747,-156"/>
<polygon fill="#000000" stroke="#000000" points="1549.4748,-152.5001 1539.4747,-156 1549.4747,-159.5001 1549.4748,-152.5001"/>
</g>
<!-- BriefPostComponent -->
<g id="node9" class="node">
<title>BriefPostComponent</title>
<polygon fill="#ffffb3" stroke="#000000" points="1710.2134,-122 1575.7866,-122 1575.7866,-86 1710.2134,-86 1710.2134,-122"/>
<text text-anchor="middle" x="1643" y="-99.8" font-family="Times,serif" font-size="14.00" fill="#000000">BriefPostComponent</text>
</g>
<!-- BriefPostComponent&#45;&gt;SharedModule -->
<g id="edge9" class="edge">
<title>BriefPostComponent&#45;&gt;SharedModule</title>
<path fill="none" stroke="#000000" d="M1607.4606,-122.0511C1607.4606,-136.373 1607.4606,-154 1607.4606,-154 1607.4606,-154 1549.4734,-154 1549.4734,-154"/>
<polygon fill="#000000" stroke="#000000" points="1549.4734,-150.5001 1539.4734,-154 1549.4734,-157.5001 1549.4734,-150.5001"/>
</g>
<!-- CommentComponent -->
<g id="node10" class="node">
<title>CommentComponent</title>
<polygon fill="#ffffb3" stroke="#000000" points="1558.0561,-122 1421.9439,-122 1421.9439,-86 1558.0561,-86 1558.0561,-122"/>
<text text-anchor="middle" x="1490" y="-99.8" font-family="Times,serif" font-size="14.00" fill="#000000">CommentComponent</text>
</g>
<!-- CommentComponent&#45;&gt;SharedModule -->
<g id="edge10" class="edge">
<title>CommentComponent&#45;&gt;SharedModule</title>
<path fill="none" stroke="#000000" d="M1490,-122.1061C1490,-122.1061 1490,-140.991 1490,-140.991"/>
<polygon fill="#000000" stroke="#000000" points="1486.5001,-140.9909 1490,-150.991 1493.5001,-140.991 1486.5001,-140.9909"/>
</g>
<!-- CompaniesListComponent -->
<g id="node11" class="node">
<title>CompaniesListComponent</title>
<polygon fill="#ffffb3" stroke="#000000" points="1404.1024,-122 1237.8976,-122 1237.8976,-86 1404.1024,-86 1404.1024,-122"/>
<text text-anchor="middle" x="1321" y="-99.8" font-family="Times,serif" font-size="14.00" fill="#000000">CompaniesListComponent</text>
</g>
<!-- CompaniesListComponent&#45;&gt;SharedModule -->
<g id="edge11" class="edge">
<title>CompaniesListComponent&#45;&gt;SharedModule</title>
<path fill="none" stroke="#000000" d="M1373.4083,-122.0511C1373.4083,-136.373 1373.4083,-154 1373.4083,-154 1373.4083,-154 1430.5546,-154 1430.5546,-154"/>
<polygon fill="#000000" stroke="#000000" points="1430.5547,-157.5001 1440.5546,-154 1430.5546,-150.5001 1430.5547,-157.5001"/>
</g>
<!-- DatatableComponent -->
<g id="node12" class="node">
<title>DatatableComponent</title>
<polygon fill="#ffffb3" stroke="#000000" points="1219.4692,-122 1084.5308,-122 1084.5308,-86 1219.4692,-86 1219.4692,-122"/>
<text text-anchor="middle" x="1152" y="-99.8" font-family="Times,serif" font-size="14.00" fill="#000000">DatatableComponent</text>
</g>
<!-- DatatableComponent&#45;&gt;SharedModule -->
<g id="edge12" class="edge">
<title>DatatableComponent&#45;&gt;SharedModule</title>
<path fill="none" stroke="#000000" d="M1212.2856,-122.1871C1212.2856,-137.1824 1212.2856,-156 1212.2856,-156 1212.2856,-156 1430.6702,-156 1430.6702,-156"/>
<polygon fill="#000000" stroke="#000000" points="1430.6703,-159.5001 1440.6702,-156 1430.6702,-152.5001 1430.6703,-159.5001"/>
</g>
<!-- EditorComponent -->
<g id="node13" class="node">
<title>EditorComponent</title>
<polygon fill="#ffffb3" stroke="#000000" points="1066.3273,-122 949.6727,-122 949.6727,-86 1066.3273,-86 1066.3273,-122"/>
<text text-anchor="middle" x="1008" y="-99.8" font-family="Times,serif" font-size="14.00" fill="#000000">EditorComponent</text>
</g>
<!-- EditorComponent&#45;&gt;SharedModule -->
<g id="edge13" class="edge">
<title>EditorComponent&#45;&gt;SharedModule</title>
<path fill="none" stroke="#000000" d="M1051.3498,-122.2819C1051.3498,-137.9478 1051.3498,-158 1051.3498,-158 1051.3498,-158 1430.5339,-158 1430.5339,-158"/>
<polygon fill="#000000" stroke="#000000" points="1430.534,-161.5001 1440.5339,-158 1430.5339,-154.5001 1430.534,-161.5001"/>
</g>
<!-- LikeDislikeComponent -->
<g id="node14" class="node">
<title>LikeDislikeComponent</title>
<polygon fill="#ffffb3" stroke="#000000" points="931.9284,-122 784.0716,-122 784.0716,-86 931.9284,-86 931.9284,-122"/>
<text text-anchor="middle" x="858" y="-99.8" font-family="Times,serif" font-size="14.00" fill="#000000">LikeDislikeComponent</text>
</g>
<!-- LikeDislikeComponent&#45;&gt;SharedModule -->
<g id="edge14" class="edge">
<title>LikeDislikeComponent&#45;&gt;SharedModule</title>
<path fill="none" stroke="#000000" d="M919.7393,-122.027C919.7393,-138.3976 919.7393,-160 919.7393,-160 919.7393,-160 1430.3907,-160 1430.3907,-160"/>
<polygon fill="#000000" stroke="#000000" points="1430.3907,-163.5001 1440.3907,-160 1430.3907,-156.5001 1430.3907,-163.5001"/>
</g>
<!-- SafePipe -->
<g id="node15" class="node">
<title>SafePipe</title>
<polygon fill="#ffffb3" stroke="#000000" points="765.7606,-122 700.2394,-122 700.2394,-86 765.7606,-86 765.7606,-122"/>
<text text-anchor="middle" x="733" y="-99.8" font-family="Times,serif" font-size="14.00" fill="#000000">SafePipe</text>
</g>
<!-- SafePipe&#45;&gt;SharedModule -->
<g id="edge15" class="edge">
<title>SafePipe&#45;&gt;SharedModule</title>
<path fill="none" stroke="#000000" d="M733,-122.0225C733,-139.3734 733,-163 733,-163 733,-163 1430.6231,-163 1430.6231,-163"/>
<polygon fill="#000000" stroke="#000000" points="1430.6232,-166.5001 1440.6231,-163 1430.6231,-159.5001 1430.6232,-166.5001"/>
</g>
<!-- SoftwareDevMenuComponent -->
<g id="node16" class="node">
<title>SoftwareDevMenuComponent</title>
<polygon fill="#ffffb3" stroke="#000000" points="681.8431,-122 494.1569,-122 494.1569,-86 681.8431,-86 681.8431,-122"/>
<text text-anchor="middle" x="588" y="-99.8" font-family="Times,serif" font-size="14.00" fill="#000000">SoftwareDevMenuComponent</text>
</g>
<!-- SoftwareDevMenuComponent&#45;&gt;SharedModule -->
<g id="edge16" class="edge">
<title>SoftwareDevMenuComponent&#45;&gt;SharedModule</title>
<path fill="none" stroke="#000000" d="M646.625,-122.302C646.625,-140.2699 646.625,-165 646.625,-165 646.625,-165 1430.7019,-165 1430.7019,-165"/>
<polygon fill="#000000" stroke="#000000" points="1430.7019,-168.5001 1440.7019,-165 1430.7018,-161.5001 1430.7019,-168.5001"/>
</g>
<!-- VideoChatComponent -->
<g id="node17" class="node">
<title>VideoChatComponent</title>
<polygon fill="#ffffb3" stroke="#000000" points="475.986,-122 334.014,-122 334.014,-86 475.986,-86 475.986,-122"/>
<text text-anchor="middle" x="405" y="-99.8" font-family="Times,serif" font-size="14.00" fill="#000000">VideoChatComponent</text>
</g>
<!-- VideoChatComponent&#45;&gt;SharedModule -->
<g id="edge17" class="edge">
<title>VideoChatComponent&#45;&gt;SharedModule</title>
<path fill="none" stroke="#000000" d="M462.125,-122.2222C462.125,-140.8285 462.125,-167 462.125,-167 462.125,-167 1430.7697,-167 1430.7697,-167"/>
<polygon fill="#000000" stroke="#000000" points="1430.7698,-170.5001 1440.7697,-167 1430.7697,-163.5001 1430.7698,-170.5001"/>
</g>
<!-- AddAssignmentComponent  -->
<g id="node20" class="node">
<title>AddAssignmentComponent </title>
<polygon fill="#fb8072" stroke="#000000" points="2707.8213,-252 2532.1787,-252 2532.1787,-216 2707.8213,-216 2707.8213,-252"/>
<text text-anchor="middle" x="2620" y="-229.8" font-family="Times,serif" font-size="14.00" fill="#000000">AddAssignmentComponent </text>
</g>
<!-- SharedModule&#45;&gt;AddAssignmentComponent  -->
<g id="edge19" class="edge">
<title>SharedModule&#45;&gt;AddAssignmentComponent </title>
<path fill="none" stroke="#000000" stroke-dasharray="5,2" d="M1539.4456,-174C1747.9211,-174 2544.4841,-174 2544.4841,-174 2544.4841,-174 2544.4841,-205.998 2544.4841,-205.998"/>
<polygon fill="#000000" stroke="#000000" points="2540.9841,-205.998 2544.4841,-215.998 2547.9841,-205.9981 2540.9841,-205.998"/>
</g>
<!-- AddHowtodocComponent  -->
<g id="node21" class="node">
<title>AddHowtodocComponent </title>
<polygon fill="#fb8072" stroke="#000000" points="2513.7576,-252 2346.2424,-252 2346.2424,-216 2513.7576,-216 2513.7576,-252"/>
<text text-anchor="middle" x="2430" y="-229.8" font-family="Times,serif" font-size="14.00" fill="#000000">AddHowtodocComponent </text>
</g>
<!-- SharedModule&#45;&gt;AddHowtodocComponent  -->
<g id="edge20" class="edge">
<title>SharedModule&#45;&gt;AddHowtodocComponent </title>
<path fill="none" stroke="#000000" stroke-dasharray="5,2" d="M1539.319,-176C1723.5538,-176 2360.9065,-176 2360.9065,-176 2360.9065,-176 2360.9065,-205.9664 2360.9065,-205.9664"/>
<polygon fill="#000000" stroke="#000000" points="2357.4066,-205.9663 2360.9065,-215.9664 2364.4066,-205.9664 2357.4066,-205.9663"/>
</g>
<!-- AddPostMenuComponent  -->
<g id="node22" class="node">
<title>AddPostMenuComponent </title>
<polygon fill="#fb8072" stroke="#000000" points="2328.7162,-252 2163.2838,-252 2163.2838,-216 2328.7162,-216 2328.7162,-252"/>
<text text-anchor="middle" x="2246" y="-229.8" font-family="Times,serif" font-size="14.00" fill="#000000">AddPostMenuComponent </text>
</g>
<!-- SharedModule&#45;&gt;AddPostMenuComponent  -->
<g id="edge21" class="edge">
<title>SharedModule&#45;&gt;AddPostMenuComponent </title>
<path fill="none" stroke="#000000" stroke-dasharray="5,2" d="M1539.4776,-178C1700.2501,-178 2197.625,-178 2197.625,-178 2197.625,-178 2197.625,-205.973 2197.625,-205.973"/>
<polygon fill="#000000" stroke="#000000" points="2194.1251,-205.973 2197.625,-215.973 2201.1251,-205.973 2194.1251,-205.973"/>
</g>
<!-- AutocompleteComponent  -->
<g id="node23" class="node">
<title>AutocompleteComponent </title>
<polygon fill="#fb8072" stroke="#000000" points="2145.1453,-252 1980.8547,-252 1980.8547,-216 2145.1453,-216 2145.1453,-252"/>
<text text-anchor="middle" x="2063" y="-229.8" font-family="Times,serif" font-size="14.00" fill="#000000">AutocompleteComponent </text>
</g>
<!-- SharedModule&#45;&gt;AutocompleteComponent  -->
<g id="edge22" class="edge">
<title>SharedModule&#45;&gt;AutocompleteComponent </title>
<path fill="none" stroke="#000000" stroke-dasharray="5,2" d="M1539.5436,-181C1670.6396,-181 2016.625,-181 2016.625,-181 2016.625,-181 2016.625,-205.7604 2016.625,-205.7604"/>
<polygon fill="#000000" stroke="#000000" points="2013.1251,-205.7604 2016.625,-215.7604 2020.1251,-205.7604 2013.1251,-205.7604"/>
</g>
<!-- BreadcumbComponent  -->
<g id="node24" class="node">
<title>BreadcumbComponent </title>
<polygon fill="#fb8072" stroke="#000000" points="1962.8644,-252 1813.1356,-252 1813.1356,-216 1962.8644,-216 1962.8644,-252"/>
<text text-anchor="middle" x="1888" y="-229.8" font-family="Times,serif" font-size="14.00" fill="#000000">BreadcumbComponent </text>
</g>
<!-- SharedModule&#45;&gt;BreadcumbComponent  -->
<g id="edge23" class="edge">
<title>SharedModule&#45;&gt;BreadcumbComponent </title>
<path fill="none" stroke="#000000" stroke-dasharray="5,2" d="M1539.5424,-183C1636.865,-183 1843.625,-183 1843.625,-183 1843.625,-183 1843.625,-205.8757 1843.625,-205.8757"/>
<polygon fill="#000000" stroke="#000000" points="1840.1251,-205.8757 1843.625,-215.8757 1847.1251,-205.8757 1840.1251,-205.8757"/>
</g>
<!-- BriefPostComponent  -->
<g id="node25" class="node">
<title>BriefPostComponent </title>
<polygon fill="#fb8072" stroke="#000000" points="1794.7135,-252 1657.2865,-252 1657.2865,-216 1794.7135,-216 1794.7135,-252"/>
<text text-anchor="middle" x="1726" y="-229.8" font-family="Times,serif" font-size="14.00" fill="#000000">BriefPostComponent </text>
</g>
<!-- SharedModule&#45;&gt;BriefPostComponent  -->
<g id="edge24" class="edge">
<title>SharedModule&#45;&gt;BriefPostComponent </title>
<path fill="none" stroke="#000000" stroke-dasharray="5,2" d="M1539.3608,-185C1596.727,-185 1683.625,-185 1683.625,-185 1683.625,-185 1683.625,-205.7542 1683.625,-205.7542"/>
<polygon fill="#000000" stroke="#000000" points="1680.1251,-205.7542 1683.625,-215.7542 1687.1251,-205.7542 1680.1251,-205.7542"/>
</g>
<!-- CommentComponent  -->
<g id="node26" class="node">
<title>CommentComponent </title>
<polygon fill="#fb8072" stroke="#000000" points="1639.0554,-252 1498.9446,-252 1498.9446,-216 1639.0554,-216 1639.0554,-252"/>
<text text-anchor="middle" x="1569" y="-229.8" font-family="Times,serif" font-size="14.00" fill="#000000">CommentComponent </text>
</g>
<!-- SharedModule&#45;&gt;CommentComponent  -->
<g id="edge25" class="edge">
<title>SharedModule&#45;&gt;CommentComponent </title>
<path fill="none" stroke="#000000" stroke-dasharray="5,2" d="M1519.0917,-187.1061C1519.0917,-187.1061 1519.0917,-205.991 1519.0917,-205.991"/>
<polygon fill="#000000" stroke="#000000" points="1515.5918,-205.9909 1519.0917,-215.991 1522.5918,-205.991 1515.5918,-205.9909"/>
</g>
<!-- DatatableComponent  -->
<g id="node27" class="node">
<title>DatatableComponent </title>
<polygon fill="#fb8072" stroke="#000000" points="1481.47,-252 1342.53,-252 1342.53,-216 1481.47,-216 1481.47,-252"/>
<text text-anchor="middle" x="1412" y="-229.8" font-family="Times,serif" font-size="14.00" fill="#000000">DatatableComponent </text>
</g>
<!-- SharedModule&#45;&gt;DatatableComponent  -->
<g id="edge26" class="edge">
<title>SharedModule&#45;&gt;DatatableComponent </title>
<path fill="none" stroke="#000000" stroke-dasharray="5,2" d="M1461.0118,-187.1061C1461.0118,-187.1061 1461.0118,-205.991 1461.0118,-205.991"/>
<polygon fill="#000000" stroke="#000000" points="1457.5118,-205.9909 1461.0118,-215.991 1464.5118,-205.991 1457.5118,-205.9909"/>
</g>
<!-- EditorComponent  -->
<g id="node28" class="node">
<title>EditorComponent </title>
<polygon fill="#fb8072" stroke="#000000" points="1324.8269,-252 1205.1731,-252 1205.1731,-216 1324.8269,-216 1324.8269,-252"/>
<text text-anchor="middle" x="1265" y="-229.8" font-family="Times,serif" font-size="14.00" fill="#000000">EditorComponent </text>
</g>
<!-- SharedModule&#45;&gt;EditorComponent  -->
<g id="edge27" class="edge">
<title>SharedModule&#45;&gt;EditorComponent </title>
<path fill="none" stroke="#000000" stroke-dasharray="5,2" d="M1440.5721,-185C1378.8954,-185 1281.4311,-185 1281.4311,-185 1281.4311,-185 1281.4311,-205.7542 1281.4311,-205.7542"/>
<polygon fill="#000000" stroke="#000000" points="1277.9312,-205.7542 1281.4311,-215.7542 1284.9312,-205.7542 1277.9312,-205.7542"/>
</g>
<!-- LikeDislikeComponent  -->
<g id="node29" class="node">
<title>LikeDislikeComponent </title>
<polygon fill="#fb8072" stroke="#000000" points="1187.4278,-252 1036.5722,-252 1036.5722,-216 1187.4278,-216 1187.4278,-252"/>
<text text-anchor="middle" x="1112" y="-229.8" font-family="Times,serif" font-size="14.00" fill="#000000">LikeDislikeComponent </text>
</g>
<!-- SharedModule&#45;&gt;LikeDislikeComponent  -->
<g id="edge28" class="edge">
<title>SharedModule&#45;&gt;LikeDislikeComponent </title>
<path fill="none" stroke="#000000" stroke-dasharray="5,2" d="M1440.7764,-183C1343.504,-183 1135.9897,-183 1135.9897,-183 1135.9897,-183 1135.9897,-205.8757 1135.9897,-205.8757"/>
<polygon fill="#000000" stroke="#000000" points="1132.4897,-205.8757 1135.9897,-215.8757 1139.4897,-205.8757 1132.4897,-205.8757"/>
</g>
<!-- MaterialModule  -->
<g id="node30" class="node">
<title>MaterialModule </title>
<polygon fill="#fb8072" stroke="#000000" points="1018.4716,-252 907.5284,-252 907.5284,-216 1018.4716,-216 1018.4716,-252"/>
<text text-anchor="middle" x="963" y="-229.8" font-family="Times,serif" font-size="14.00" fill="#000000">MaterialModule </text>
</g>
<!-- SharedModule&#45;&gt;MaterialModule  -->
<g id="edge29" class="edge">
<title>SharedModule&#45;&gt;MaterialModule </title>
<path fill="none" stroke="#000000" stroke-dasharray="5,2" d="M1440.5648,-181C1313.2511,-181 984.036,-181 984.036,-181 984.036,-181 984.036,-205.7604 984.036,-205.7604"/>
<polygon fill="#000000" stroke="#000000" points="980.536,-205.7604 984.036,-215.7604 987.536,-205.7604 980.536,-205.7604"/>
</g>
<!-- SafePipe  -->
<g id="node31" class="node">
<title>SafePipe </title>
<polygon fill="#fb8072" stroke="#000000" points="889.7607,-252 820.2393,-252 820.2393,-216 889.7607,-216 889.7607,-252"/>
<text text-anchor="middle" x="855" y="-229.8" font-family="Times,serif" font-size="14.00" fill="#000000">SafePipe </text>
</g>
<!-- SharedModule&#45;&gt;SafePipe  -->
<g id="edge30" class="edge">
<title>SharedModule&#45;&gt;SafePipe </title>
<path fill="none" stroke="#000000" stroke-dasharray="5,2" d="M1440.701,-178C1291.505,-178 855,-178 855,-178 855,-178 855,-205.973 855,-205.973"/>
<polygon fill="#000000" stroke="#000000" points="851.5001,-205.973 855,-215.973 858.5001,-205.973 851.5001,-205.973"/>
</g>
<!-- SoftwareDevMenuComponent  -->
<g id="node32" class="node">
<title>SoftwareDevMenuComponent </title>
<polygon fill="#fb8072" stroke="#000000" points="802.8433,-252 611.1567,-252 611.1567,-216 802.8433,-216 802.8433,-252"/>
<text text-anchor="middle" x="707" y="-229.8" font-family="Times,serif" font-size="14.00" fill="#000000">SoftwareDevMenuComponent </text>
</g>
<!-- SharedModule&#45;&gt;SoftwareDevMenuComponent  -->
<g id="edge31" class="edge">
<title>SharedModule&#45;&gt;SoftwareDevMenuComponent </title>
<path fill="none" stroke="#000000" stroke-dasharray="5,2" d="M1440.7445,-176C1281.9092,-176 793.4788,-176 793.4788,-176 793.4788,-176 793.4788,-205.9664 793.4788,-205.9664"/>
<polygon fill="#000000" stroke="#000000" points="789.9789,-205.9663 793.4788,-215.9664 796.9789,-205.9664 789.9789,-205.9663"/>
</g>
<!-- VideoChatComponent  -->
<g id="node33" class="node">
<title>VideoChatComponent </title>
<polygon fill="#fb8072" stroke="#000000" points="593.9868,-252 448.0132,-252 448.0132,-216 593.9868,-216 593.9868,-252"/>
<text text-anchor="middle" x="521" y="-229.8" font-family="Times,serif" font-size="14.00" fill="#000000">VideoChatComponent </text>
</g>
<!-- SharedModule&#45;&gt;VideoChatComponent  -->
<g id="edge32" class="edge">
<title>SharedModule&#45;&gt;VideoChatComponent </title>
<path fill="none" stroke="#000000" stroke-dasharray="5,2" d="M1440.4662,-174C1245.8013,-174 543.9108,-174 543.9108,-174 543.9108,-174 543.9108,-205.998 543.9108,-205.998"/>
<polygon fill="#000000" stroke="#000000" points="540.4108,-205.998 543.9108,-215.998 547.4108,-205.9981 540.4108,-205.998"/>
</g>
<!-- MaterialModule -->
<g id="node19" class="node">
<title>MaterialModule</title>
<polygon fill="#8dd3c7" stroke="#000000" points="310.4706,-122 307.4706,-126 286.4706,-126 283.4706,-122 203.5294,-122 203.5294,-86 310.4706,-86 310.4706,-122"/>
<text text-anchor="middle" x="257" y="-99.8" font-family="Times,serif" font-size="14.00" fill="#000000">MaterialModule</text>
</g>
<!-- MaterialModule&#45;&gt;SharedModule -->
<g id="edge18" class="edge">
<title>MaterialModule&#45;&gt;SharedModule</title>
<path fill="none" stroke="#000000" d="M257,-122.1061C257,-141.3391 257,-169 257,-169 257,-169 1430.5216,-169 1430.5216,-169"/>
<polygon fill="#000000" stroke="#000000" points="1430.5216,-172.5001 1440.5216,-169 1430.5216,-165.5001 1430.5216,-172.5001"/>
</g>
<!-- CommentService -->
<g id="node34" class="node">
<title>CommentService</title>
<ellipse fill="#fdb462" stroke="#000000" cx="102" cy="-104" rx="78.1675" ry="18"/>
<text text-anchor="middle" x="102" y="-99.8" font-family="Times,serif" font-size="14.00" fill="#000000">CommentService</text>
</g>
<!-- CommentService&#45;&gt;SharedModule -->
<g id="edge33" class="edge">
<title>CommentService&#45;&gt;SharedModule</title>
<path fill="none" stroke="#000000" d="M102,-122.2228C102,-142.3652 102,-172 102,-172 102,-172 1430.6003,-172 1430.6003,-172"/>
<polygon fill="#000000" stroke="#000000" points="1430.6004,-175.5001 1440.6003,-172 1430.6003,-168.5001 1430.6004,-175.5001"/>
</g>
</g>
</svg>
