<?xml version="1.0" standalone="no"?>
<!DOCTYPE svg PUBLIC "-//W3C//DTD SVG 1.1//EN" "http://www.w3.org/Graphics/SVG/1.1/DTD/svg11.dtd" >
<svg xmlns="http://www.w3.org/2000/svg" xmlns:xlink="http://www.w3.org/1999/xlink" version="1.1">
<metadata>
Created by FontForge 20170731 at Thu Oct 11 15:13:24 2018
 By Aleksey,,,
Copyright 2018 Webhance Studio
</metadata>
<defs>
<font id="Rectory-Thin" horiz-adv-x="564" >
  <font-face 
    font-family="Rectory Thin"
    font-weight="275"
    font-stretch="normal"
    units-per-em="1000"
    panose-1="0 0 3 0 0 0 0 0 0 0"
    ascent="800"
    descent="-200"
    x-height="499"
    cap-height="700"
    bbox="-20 -231 856 847"
    underline-thickness="50"
    underline-position="-150"
    unicode-range="U+0020-007D"
  />
<missing-glyph horiz-adv-x="509" 
 />
    <glyph glyph-name=".notdef" horiz-adv-x="509" 
 />
    <glyph glyph-name=".null" horiz-adv-x="0" 
 />
    <glyph glyph-name="nonmarkingreturn" horiz-adv-x="333" 
 />
    <glyph glyph-name="space" unicode=" " horiz-adv-x="246" 
 />
    <glyph glyph-name="exclam" unicode="!" horiz-adv-x="260" 
d="M119 148q-7 0 -7 7v538q0 7 7 7h22q7 0 7 -7v-538q0 -7 -7 -7h-22zM104 0q-10 10 -10 26q0 17 10 26.5t26 9.5q17 0 26.5 -9.5t9.5 -26.5q0 -16 -9.5 -26t-26.5 -10q-16 0 -26 10z" />
    <glyph glyph-name="quotedbl" unicode="&#x22;" horiz-adv-x="300" 
d="M75 502q-7 0 -7 7v184q0 7 7 7h22q7 0 7 -7v-184q0 -7 -7 -7h-22zM203 502q-7 0 -7 7v184q0 7 7 7h22q7 0 7 -7v-184q0 -7 -7 -7h-22z" />
    <glyph glyph-name="numbersign" unicode="#" horiz-adv-x="667" 
d="M207 0q-7 0 -7 7v195h-125q-7 0 -7 7v17q0 7 7 7h125v231h-125q-7 0 -7 7v17q0 7 7 7h125v198q0 7 7 7h20q7 0 7 -7v-198h199v198q0 7 7 7h19q7 0 7 -7v-198h126q7 0 7 -7v-17q0 -7 -7 -7h-126v-231h126q7 0 7 -7v-17q0 -7 -7 -7h-126v-195q0 -7 -7 -7h-19q-7 0 -7 7v195
h-199v-195q0 -7 -7 -7h-20zM433 234v229h-199v-229h199z" />
    <glyph glyph-name="dollar" unicode="$" horiz-adv-x="613" 
d="M401 356q71 -12 110.5 -50.5t39.5 -94.5v-71q0 -67 -51 -107.5t-134 -40.5h-31v-85q0 -7 -7 -7h-21q-7 0 -7 7v85h-47q-85 0 -134 48t-51 133q0 7 7 7h21q7 0 7 -7q2 -70 42 -109t108 -39h113q67 0 108 31.5t41 83.5v71q0 43 -30 72.5t-84 38.5l-177 30q-69 12 -108 50.5
t-39 96.5v63q0 66 49.5 106t129.5 40h44v85q0 7 7 7h21q7 0 7 -7v-85h34q76 0 122.5 -44.5t48.5 -118.5q0 -7 -7 -7h-21q-7 0 -7 7q-2 59 -39.5 94.5t-96.5 35.5h-113q-65 0 -104 -31t-39 -82v-63q0 -45 29 -74.5t82 -38.5z" />
    <glyph glyph-name="percent" unicode="%" horiz-adv-x="924" 
d="M273 -25q-5 0 -7.5 3.5t-0.5 8.5l368 732q2 3 6 3h18q5 0 7.5 -3.5t0.5 -8.5l-368 -732q-1 -3 -6 -3h-18zM186 258q-53 0 -85.5 36.5t-32.5 96.5v182q0 60 33 96.5t87 36.5h58q52 0 84 -36.5t32 -96.5v-182q0 -60 -32.5 -96.5t-85.5 -36.5h-58zM244 289q38 0 61 28t23 74
v182q0 46 -22.5 74t-59.5 28h-58q-39 0 -62.5 -28t-23.5 -74v-182q0 -46 23 -74t61 -28h58zM680 -8q-53 0 -85.5 36.5t-32.5 96.5v182q0 60 33 96.5t87 36.5h58q52 0 84 -36.5t32 -96.5v-182q0 -60 -32.5 -96.5t-85.5 -36.5h-58zM738 23q38 0 61 28t23 74v182q0 46 -22.5 74
t-59.5 28h-58q-39 0 -62.5 -28t-23.5 -74v-182q0 -46 23 -74t61 -28h58z" />
    <glyph glyph-name="ampersand" unicode="&#x26;" horiz-adv-x="620" 
d="M574 15q2 -2 2 -6q0 -9 -9 -9h-20q-3 0 -5 2l-67 86q-36 -46 -85 -71t-106 -25h-46q-77 0 -123.5 40.5t-46.5 107.5v50q0 47 22 81.5t47.5 54t75.5 50.5l24 16l-38 49q-43 55 -43 116v24q0 57 38 92t100 35h37q58 0 93 -33.5t35 -88.5v-24q0 -30 -11.5 -51t-41.5 -45
q-23 -19 -97 -68l-23 -15l186 -237q30 59 38 142q0 2 2 4t4 2h21q3 0 5.5 -2t1.5 -6q-6 -96 -49 -170zM266 408l25 16q44 28 85 58q27 21 37.5 38.5t10.5 41.5v24q0 41 -25.5 65.5t-67.5 24.5h-37q-46 0 -74.5 -26t-28.5 -69v-24q0 -51 32 -92zM284 25q52 0 95.5 23.5
t73.5 67.5l-195 250l-32 -20q-48 -31 -69.5 -49.5t-36.5 -42.5q-16 -25 -16 -64v-50q0 -52 37 -83.5t97 -31.5h46z" />
    <glyph glyph-name="quotesingle" unicode="'" horiz-adv-x="172" 
d="M75 502q-7 0 -7 7v184q0 7 7 7h22q7 0 7 -7v-184q0 -7 -7 -7h-22z" />
    <glyph glyph-name="parenleft" unicode="(" horiz-adv-x="289" 
d="M234 -193q0 -4 -2.5 -6.5t-6.5 -2.5h-17q-3 0 -5 3q-69 109 -102 215.5t-33 223.5v20q0 124 33 231t102 206q2 3 5 3h16q5 0 8 -4.5t0 -9.5q-66 -102 -97 -206.5t-31 -219.5v-20q0 -111 31.5 -215.5t97.5 -212.5q1 -1 1 -5z" />
    <glyph glyph-name="parenright" unicode=")" horiz-adv-x="289" 
d="M81 -202h-17q-5 0 -8 4.5t0 9.5q66 108 97.5 212.5t31.5 215.5v20q0 115 -31 219.5t-97 206.5q-1 1 -1 5t2.5 6.5t6.5 2.5h16q4 0 5 -3q69 -99 102 -206t33 -231v-20q0 -117 -33 -223.5t-102 -215.5q-1 -3 -5 -3z" />
    <glyph glyph-name="asterisk" unicode="*" horiz-adv-x="429" 
d="M206 451q-7 0 -7 7v118l-110 -70q-5 -5 -10 3l-7 13q-1 3 -0.5 6t2.5 4l116 68l-116 68q-4 4 -2 10l7 13q5 7 11 3l109 -70v119q0 7 7 7h16q7 0 7 -7v-119l111 70q5 5 10 -3l7 -13q4 -4 -2 -10l-117 -68l117 -68q2 -1 3 -4.5t-1 -5.5l-7 -13q-5 -7 -11 -3l-110 70v-118
q0 -7 -7 -7h-16z" />
    <glyph glyph-name="plus" unicode="+" horiz-adv-x="566" 
d="M272 108q-7 0 -7 7v192h-190q-7 0 -7 7v19q0 7 7 7h190v192q0 7 7 7h22q7 0 7 -7v-192h190q7 0 7 -7v-19q0 -7 -7 -7h-190v-192q0 -7 -7 -7h-22z" />
    <glyph glyph-name="comma" unicode="," horiz-adv-x="200" 
d="M49 -108q-2 -2 -5 -1t-4 4l-12 18q-3 6 2 9l5 4q32 20 45.5 45.5t13.5 62.5v38q0 7 7 7h22q7 0 7 -7v-38q0 -51 -17.5 -83t-58.5 -56z" />
    <glyph glyph-name="hyphen" unicode="-" horiz-adv-x="401" 
d="M75 239q-7 0 -7 7v18q0 7 7 7h251q7 0 7 -7v-18q0 -7 -7 -7h-251z" />
    <glyph glyph-name="period" unicode="." horiz-adv-x="208" 
d="M78 0q-10 10 -10 26q0 17 10 26.5t26 9.5q17 0 26.5 -9.5t9.5 -26.5q0 -16 -9.5 -26t-26.5 -10q-16 0 -26 10z" />
    <glyph glyph-name="slash" unicode="/" horiz-adv-x="508" 
d="M62 -25q-5 0 -7.5 3.5t-0.5 8.5l368 732q2 3 6 3h18q5 0 7.5 -3.5t0.5 -8.5l-368 -732q-1 -3 -6 -3h-18z" />
    <glyph glyph-name="zero" unicode="0" horiz-adv-x="632" 
d="M263 -8q-83 0 -134 56.5t-51 149.5v304q0 93 51 149.5t134 56.5h106q83 0 134 -56.5t51 -149.5v-304q0 -93 -51 -149.5t-134 -56.5h-106zM367 25q68 0 109.5 47.5t41.5 125.5v304q0 78 -41.5 125.5t-109.5 47.5h-102q-68 0 -109.5 -47.5t-41.5 -125.5v-304
q0 -78 41.5 -125.5t109.5 -47.5h102z" />
    <glyph glyph-name="one" unicode="1" horiz-adv-x="343" 
d="M216 0q-7 0 -7 7v657l-149 -77q-1 -1 -4 -1t-5.5 2.5t-2.5 6.5v17q0 5 3 6l153 81l2 1h32q7 0 7 -7v-686q0 -7 -7 -7h-22z" />
    <glyph glyph-name="two" unicode="2" horiz-adv-x="542" 
d="M72 0q-7 0 -7 7v21q0 68 16 107t60 75l246 212q61 52 61 112v32q0 49 -34.5 79t-90.5 30h-93q-59 0 -96 -38.5t-39 -102.5q0 -7 -7 -7h-21q-7 0 -7 7q2 79 48.5 126.5t121.5 47.5h93q73 0 117 -39t44 -103v-32q0 -73 -72 -136l-238 -204q-42 -36 -57.5 -70t-15.5 -91h386
q7 0 7 -7v-19q0 -7 -7 -7h-415z" />
    <glyph glyph-name="three" unicode="3" horiz-adv-x="576" 
d="M484.5 302q29.5 -42 29.5 -95v-40q0 -79 -49.5 -127t-131.5 -48h-97q-79 0 -127.5 49t-50.5 130q0 7 7 7h22q7 0 7 -7q2 -66 41 -106t101 -40h97q65 0 105 39t40 103v40q0 61 -40.5 98.5t-107.5 37.5h-85q-7 0 -7 7v18q0 7 7 7h85q61 0 98 36.5t37 95.5v40q0 58 -35.5 93
t-94.5 35h-97q-61 0 -99 -40t-40 -106q0 -7 -7 -7h-22q-7 0 -7 7q2 81 50 130t125 49h97q75 0 120.5 -44t45.5 -117v-40q0 -53 -25 -91.5t-70 -55.5q49 -16 78.5 -58z" />
    <glyph glyph-name="four" unicode="4" horiz-adv-x="563" 
d="M396 186v454h-1l-319 -454h320zM497 157q-1 -4 -7 -4h-59v-146q0 -7 -7 -7h-22q-7 0 -7 7v146h-330q-27 0 -27 25v13l1 3l354 503q3 3 5 3h26q7 0 7 -7v-507h65q4 0 6.5 -3.5t0.5 -7.5z" />
    <glyph glyph-name="five" unicode="5" horiz-adv-x="584" 
d="M238 -8q-74 0 -121 43.5t-49 114.5q0 7 7 7h22q7 0 7 -7q2 -56 39 -90.5t95 -34.5h96q67 0 107.5 40.5t40.5 107.5v67q0 62 -41.5 100.5t-109.5 38.5h-230q-7 0 -7 7v307q0 7 7 7h384q7 0 7 -7v-19q0 -7 -7 -7h-355v-255h201q84 0 135.5 -47.5t51.5 -124.5v-67
q0 -82 -50.5 -131.5t-133.5 -49.5h-96z" />
    <glyph glyph-name="six" unicode="6" horiz-adv-x="592" 
d="M536 193q0 -91 -54.5 -146t-144.5 -55h-70q-85 0 -137 53.5t-52 140.5v311q0 100 48 155.5t134 55.5h86q76 0 123 -45t49 -119q0 -7 -7 -7h-21q-7 0 -7 7q-2 59 -39 95t-98 36h-86q-69 0 -107.5 -47t-38.5 -131v-62l245 1q81 0 129 -52t48 -141v-50zM500 243
q0 73 -38 116.5t-103 43.5l-245 1v-218q0 -73 42 -117t111 -44h70q73 0 118 46t45 122v50z" />
    <glyph glyph-name="seven" unicode="7" horiz-adv-x="478" 
d="M180 0q-4 0 -6.5 3.5t-0.5 7.5l232 656h-366q-7 0 -7 7v19q0 7 7 7h400q7 0 7 -7v-19v-2l-239 -668q-1 -4 -7 -4h-20z" />
    <glyph glyph-name="eight" unicode="8" horiz-adv-x="606" 
d="M250 -8q-86 0 -139 47t-53 123v34q0 54 29.5 97t84.5 66v1q-44 21 -67.5 59.5t-23.5 87.5v38q0 73 49.5 118t129.5 45h86q80 0 129.5 -45t49.5 -118v-38q0 -49 -23.5 -87.5t-67.5 -59.5v-1q54 -21 84 -64.5t30 -98.5v-34q0 -76 -53 -123t-139 -47h-106zM350 374
q62 0 100.5 36.5t38.5 96.5v39q0 58 -39.5 93.5t-103.5 35.5h-86q-64 0 -103.5 -35.5t-39.5 -93.5v-39q0 -60 38.5 -96.5t100.5 -36.5h94zM356 25q70 0 113 37.5t43 99.5v34q0 66 -44.5 106t-117.5 40h-94q-73 0 -117.5 -40t-44.5 -106v-34q0 -62 43 -99.5t113 -37.5h106z
" />
    <glyph glyph-name="nine" unicode="9" horiz-adv-x="596" 
d="M60 507q0 91 54.5 146t144.5 55h70q85 0 137 -53.5t52 -140.5v-311q0 -100 -48 -155.5t-134 -55.5h-86q-76 0 -123 45t-49 119q0 7 7 7h21q7 0 7 -7q2 -59 39 -95t98 -36h86q69 0 107.5 47t38.5 131v62l-245 -1q-81 0 -129 52t-48 141v50zM96 457q0 -73 38 -116.5
t103 -43.5l245 -1v218q0 73 -42 117t-111 44h-70q-73 0 -118 -46t-45 -122v-50z" />
    <glyph glyph-name="colon" unicode=":" horiz-adv-x="208" 
d="M78 390q-10 10 -10 26q0 17 10 26.5t26 9.5q17 0 26.5 -9.5t9.5 -26.5q0 -16 -9.5 -26t-26.5 -10q-16 0 -26 10zM78 50q-10 10 -10 26q0 17 10 26.5t26 9.5q17 0 26.5 -9.5t9.5 -26.5q0 -16 -9.5 -26t-26.5 -10q-16 0 -26 10z" />
    <glyph glyph-name="semicolon" unicode=";" horiz-adv-x="209" 
d="M79 390q-10 10 -10 26q0 17 10 26.5t26 9.5q17 0 26.5 -9.5t9.5 -26.5q0 -16 -9.5 -26t-26.5 -10q-16 0 -26 10zM49 -108q-2 -2 -5 -1t-4 4l-12 18q-3 6 2 9l5 4q32 20 45.5 45.5t13.5 62.5v38q0 7 7 7h22q7 0 7 -7v-38q0 -51 -17.5 -83t-58.5 -56z" />
    <glyph glyph-name="less" unicode="&#x3c;" horiz-adv-x="577" 
d="M509 28q0 -5 -4.5 -8t-8.5 0l-445 255q-3 2 -3 6v30q0 5 3 6l445 255q1 1 4 1q4 0 6.5 -2.5t2.5 -6.5v-19q0 -4 -3 -6l-426 -243l426 -243q3 -1 3 -6v-19z" />
    <glyph glyph-name="equal" unicode="=" horiz-adv-x="523" 
d="M75 380q-7 0 -7 7v19q0 7 7 7h373q7 0 7 -7v-19q0 -7 -7 -7h-373zM75 205q-7 0 -7 7v19q0 7 7 7h373q7 0 7 -7v-19q0 -7 -7 -7h-373z" />
    <glyph glyph-name="greater" unicode="&#x3e;" horiz-adv-x="577" 
d="M81 20q-1 -1 -4 -1q-4 0 -6.5 2.5t-2.5 6.5v19q0 5 3 6l426 243l-426 243q-3 2 -3 6v19q0 5 4.5 8t8.5 0l445 -255q3 -1 3 -6v-30q0 -4 -3 -6z" />
    <glyph glyph-name="question" unicode="?" horiz-adv-x="551" 
d="M262 161q-7 0 -7 7v46q0 68 50 118q18 18 55 48q51 41 69 65.5t18 58.5v53q0 53 -36.5 85.5t-95.5 32.5h-86q-62 0 -100 -31.5t-41 -84.5q0 -7 -7 -7h-22q-7 0 -7 7q3 67 51 108t126 41h86q76 0 122 -41.5t46 -109.5v-53q0 -35 -14 -62t-31 -43t-50 -41
q-56 -45 -76.5 -75t-20.5 -73v-42q0 -7 -7 -7h-22zM247 0q-10 10 -10 26q0 17 10 26.5t26 9.5q17 0 26.5 -9.5t9.5 -26.5q0 -16 -9.5 -26t-26.5 -10q-16 0 -26 10z" />
    <glyph glyph-name="at" unicode="@" horiz-adv-x="860" 
d="M572 528q1 1 4 1t5.5 -2t2.5 -6v-253q0 -35 19 -56.5t50 -21.5h30q35 0 54.5 30t19.5 83v189q0 60 -26 105.5t-74 70.5q-46 25 -110 25h-198q-73 0 -129 -31t-86 -87q-31 -55 -31 -131v-231q0 -62 26.5 -109.5t74.5 -73.5q50 -26 111 -26h176q37 0 77.5 10.5t71.5 27.5
q7 3 10 -3l10 -16q3 -6 0 -9q-30 -20 -76.5 -31.5t-95.5 -11.5h-173q-73 0 -129 30t-87 85t-31 127v231q0 84 35 148t99 99q65 35 147 35h198q72 0 128 -29.5t87 -82.5q30 -52 30 -122v-189q0 -68 -28.5 -106.5t-80.5 -38.5h-32q-32 0 -57 18t-35 48h-1q-18 -34 -51.5 -55
t-71.5 -21h-53q-58 0 -93 38.5t-35 102.5v95q0 69 39.5 111t103.5 42h49q31 0 60 -15t44 -39v31q0 5 4 6zM433 180q47 0 79 33t37 88v103q-4 46 -32 73.5t-71 27.5h-47q-50 0 -80 -33t-30 -88v-95q0 -49 25.5 -79t67.5 -30h51z" />
    <glyph glyph-name="A" unicode="A" horiz-adv-x="629" 
d="M561 0q-5 0 -6 4l-78 209h-325l-78 -209q-1 -4 -6 -4h-22q-4 0 -7 3.5t-1 7.5l259 685q1 4 6 4h13q15 0 24 -22l251 -667l1 -3q0 -3 -2.5 -5.5t-6.5 -2.5h-22zM164 246h301l-149 402h-1z" />
    <glyph glyph-name="B" unicode="B" horiz-adv-x="648" 
d="M128 0q-17 0 -26.5 9.5t-9.5 26.5v657q0 7 7 7h278q77 0 124 -39.5t47 -104.5v-60q0 -47 -18 -81.5t-51 -52.5v-1q51 -11 82 -48.5t31 -88.5v-59q0 -74 -50 -119.5t-132 -45.5h-282zM397 369q52 0 83.5 34.5t31.5 92.5v60q0 50 -37 80.5t-98 30.5h-249v-298h269zM410 33
q65 0 105.5 36.5t40.5 95.5v59q0 51 -35 82t-93 31h-300v-304h282z" />
    <glyph glyph-name="C" unicode="C" horiz-adv-x="646" 
d="M278 -8q-60 0 -107 30.5t-73 85.5q-26 58 -26 127v230q0 72 26.5 127t74.5 86q47 30 109 30h106q89 0 144.5 -54.5t57.5 -143.5q0 -7 -7 -7h-21q-7 0 -7 7q-2 75 -47.5 120t-119.5 45h-106q-51 0 -90.5 -26t-61.5 -74q-22 -45 -22 -110v-230q0 -62 21.5 -110t60.5 -74
q38 -26 88 -26h108q76 0 122.5 49.5t48.5 131.5q0 7 7 7h21q7 0 7 -7q-1 -63 -26.5 -111.5t-71.5 -74.5q-46 -28 -108 -28h-108z" />
    <glyph glyph-name="D" unicode="D" horiz-adv-x="660" 
d="M128 0q-17 0 -26.5 9.5t-9.5 26.5v657q0 7 7 7h257q69 0 123 -27t84 -77q29 -50 29 -115v-242q0 -118 -59 -178.5t-173 -60.5h-232zM360 33q97 0 146.5 52.5t49.5 153.5v242q0 84 -55 135t-145 51h-228v-634h232z" />
    <glyph glyph-name="E" unicode="E" horiz-adv-x="586" 
d="M378 345q-1 -4 -6 -4h-237q-7 0 -7 -7v-294q0 -7 7 -7h382q7 0 7 -7v-19q0 -7 -7 -7h-389q-17 0 -26.5 10t-9.5 29v654q0 7 7 7h418q7 0 7 -7v-19q0 -7 -7 -7h-382q-7 0 -7 -7v-279q0 -7 7 -7h242q4 0 7 -3.5t1 -7.5z" />
    <glyph glyph-name="F" unicode="F" horiz-adv-x="562" 
d="M387 341q-1 -4 -6 -4h-246q-7 0 -7 -7v-323q0 -7 -7 -7h-22q-7 0 -7 7v686q0 7 7 7h408q7 0 7 -7v-19q0 -7 -7 -7h-372q-7 0 -7 -7v-283q0 -7 7 -7h253q5 0 7 -4t0 -8z" />
    <glyph glyph-name="G" unicode="G" horiz-adv-x="670" 
d="M408 337q0 4 3 7t7 3h177q7 0 7 -7v-127q0 -66 -26.5 -116t-74.5 -77q-46 -28 -111 -28h-108q-62 0 -110 30.5t-74 85.5q-26 58 -26 127v230q0 72 27 127t76 86q48 30 111 30h106q61 0 108 -25.5t72 -71.5q24 -46 25 -101q0 -7 -7 -7h-21q-7 0 -7 7q-2 74 -49 119.5
t-121 45.5h-106q-53 0 -93.5 -26t-62.5 -74q-22 -45 -22 -110v-230q0 -62 22 -110t62 -74q41 -26 90 -26h108q80 0 128.5 51.5t48.5 136.5v94q0 7 -7 7h-133q-3 0 -5 2l-12 16z" />
    <glyph glyph-name="H" unicode="H" horiz-adv-x="677" 
d="M99 0q-7 0 -7 7v686q0 7 7 7h22q7 0 7 -7v-323h421v323q0 7 7 7h22q7 0 7 -7v-686q0 -7 -7 -7h-22q-7 0 -7 7v330h-421v-330q0 -7 -7 -7h-22z" />
    <glyph glyph-name="I" unicode="I" horiz-adv-x="240" 
d="M109 0q-7 0 -7 7v686q0 7 7 7h22q7 0 7 -7v-686q0 -7 -7 -7h-22z" />
    <glyph glyph-name="J" unicode="J" 
d="M216 -8q-50 0 -88.5 25.5t-59.5 72.5q-21 44 -22 100q0 7 7 7h22q7 0 7 -7q2 -74 39 -119.5t95 -45.5h93q63 0 99 50.5t36 139.5v478q0 7 7 7h22q7 0 7 -7v-478q0 -105 -45.5 -164t-125.5 -59h-93z" />
    <glyph glyph-name="K" unicode="K" horiz-adv-x="606" 
d="M555 15q2 -2 2 -6q0 -9 -9 -9h-23q-3 0 -5 2l-292 358l-100 -106v-247q0 -7 -7 -7h-22q-7 0 -7 7v686q0 7 7 7h22q7 0 7 -7v-389l372 394q2 2 5 2h22q4 0 7 -3t3 -7t-3 -7l-280 -296z" />
    <glyph glyph-name="L" unicode="L" horiz-adv-x="546" 
d="M508 7q0 -7 -7 -7h-373q-17 0 -26.5 10t-9.5 29v654q0 7 7 7h22q7 0 7 -7v-660h373q7 0 7 -7v-19z" />
    <glyph glyph-name="M" unicode="M" horiz-adv-x="781" 
d="M99 0q-7 0 -7 7v686q0 7 7 7h27q5 0 6 -3l262 -493l255 493q2 3 6 3h27q7 0 7 -7v-686q0 -7 -7 -7h-21q-7 0 -7 7v624l-244 -467q-6 -11 -13 -11h-8q-4 0 -6 3l-256 475v-624q0 -7 -7 -7h-21z" />
    <glyph glyph-name="N" unicode="N" horiz-adv-x="676" 
d="M99 0q-7 0 -7 7v686q0 7 7 7h27q2 0 5 -3l418 -640v636q0 7 7 7h21q7 0 7 -7v-686q0 -7 -7 -7h-27q-2 0 -5 3l-419 640v-636q0 -7 -7 -7h-20z" />
    <glyph glyph-name="O" unicode="O" horiz-adv-x="682" 
d="M289 -8q-65 0 -114 29.5t-76 83.5t-27 124v242q0 70 27 124t77 84q50 29 114 29h102q65 0 114.5 -29.5t76.5 -83.5t27 -124v-242q0 -70 -27 -124t-77 -83q-49 -30 -115 -30h-102zM391 25q54 0 95.5 25.5t64.5 72.5q23 49 23 106v242q0 60 -22.5 107t-63.5 72
q-40 25 -96 25h-102q-54 0 -95 -25t-64 -72q-23 -49 -23 -107v-242q0 -92 49.5 -148t131.5 -56h102z" />
    <glyph glyph-name="P" unicode="P" horiz-adv-x="610" 
d="M99 0q-7 0 -7 7v686q0 7 7 7h312q70 0 112.5 -37.5t42.5 -99.5v-119q0 -68 -45.5 -109.5t-119.5 -41.5h-273v-286q0 -7 -7 -7h-22zM401 326q58 0 93.5 32.5t35.5 85.5v119q0 47 -33 75.5t-86 28.5h-283v-341h273z" />
    <glyph glyph-name="Q" unicode="Q" horiz-adv-x="684" 
d="M627 -3q5 -5 0 -10l-13 -14q-5 -5 -10 0l-70 70q-59 -50 -141 -50h-104q-64 0 -113.5 29.5t-76.5 82.5t-27 123v243q0 70 27 124t77 84q50 29 114 29h102q65 0 114.5 -29.5t76.5 -83.5t27 -124v-243q0 -97 -53 -162zM419 210q3 0 5 -2l108 -117q42 53 42 137v243
q0 60 -22.5 107t-63.5 72q-40 25 -96 25h-102q-54 0 -95 -25t-64 -72q-23 -49 -23 -107v-243q0 -91 49.5 -146.5t131.5 -55.5h102q68 0 118 41l-117 126q-3 3 -3 7t3 7t7 3h20z" />
    <glyph glyph-name="R" unicode="R" horiz-adv-x="636" 
d="M99 0q-7 0 -7 7v686q0 7 7 7h313q68 0 110 -38.5t42 -100.5v-82q0 -54 -34 -94t-91 -53v-1q30 -14 53.5 -47.5t36.5 -81.5l54 -192v-2q0 -3 -2 -5.5t-5 -2.5h-21q-4 0 -6 5l-57 197q-17 57 -52 89t-81 32h-231v-316q0 -7 -7 -7h-22zM387 356q64 0 102.5 33.5t38.5 89.5
v82q0 48 -31.5 77t-84.5 29h-284v-311h259z" />
    <glyph glyph-name="S" unicode="S" horiz-adv-x="613" 
d="M253 -8q-85 0 -134 48t-51 133q0 7 7 7h21q7 0 7 -7q2 -70 42 -109t108 -39h113q67 0 108 31.5t41 83.5v71q0 43 -30 72.5t-84 38.5l-177 30q-69 12 -108 50.5t-39 96.5v63q0 66 49.5 106t129.5 40h113q76 0 122.5 -44.5t48.5 -118.5q0 -7 -7 -7h-21q-7 0 -7 7
q-2 59 -39.5 94.5t-96.5 35.5h-113q-65 0 -104 -31t-39 -82v-63q0 -45 29 -74.5t82 -38.5l177 -30q71 -12 110.5 -50.5t39.5 -94.5v-71q0 -67 -51 -107.5t-134 -40.5h-113z" />
    <glyph glyph-name="T" unicode="T" 
d="M271 0q-7 0 -7 7v660h-215q-7 0 -7 7v19q0 7 7 7h466q7 0 7 -7v-19q0 -7 -7 -7h-215v-660q0 -7 -7 -7h-22z" />
    <glyph glyph-name="U" unicode="U" horiz-adv-x="678" 
d="M284 -8q-58 0 -102.5 26.5t-68.5 74.5q-25 46 -25 111v489q0 7 7 7h22q7 0 7 -7v-489q0 -80 44 -129.5t116 -49.5h110q72 0 116 49.5t44 129.5v489q0 7 7 7h22q7 0 7 -7v-489q0 -63 -24.5 -111t-68.5 -74q-45 -27 -103 -27h-110z" />
    <glyph glyph-name="V" unicode="V" horiz-adv-x="617" 
d="M329 4q-1 -4 -7 -4h-10q-24 0 -33 25l-241 664l-1 3q0 3 2.5 5.5t6.5 2.5h21q6 0 7 -4l234 -649h1l234 649q1 4 7 4h21q4 0 7 -3.5t1 -7.5z" />
    <glyph glyph-name="W" unicode="W" horiz-adv-x="827" 
d="M436 648q4 0 6 -5l184 -604h1l116 655q2 6 7 6h22q4 0 6 -2.5t1 -6.5l-121 -687q-1 -6 -7 -6h-35q-3 0 -6 5l-191 609h-1l-196 -609q-2 -5 -6 -5h-37q-5 0 -7 6l-124 687v2q0 7 7 7h22q6 0 7 -6l116 -655h1l194 604q3 5 6 5h35z" />
    <glyph glyph-name="X" unicode="X" horiz-adv-x="595" 
d="M45 0q-6 0 -8 4.5t1 9.5l239 343l-229 329l-2 6q0 8 9 8h22q2 0 5 -3l216 -310l215 310q3 3 5 3h22q6 0 8 -4.5t-1 -9.5l-228 -329l238 -343l2 -6q0 -8 -9 -8h-22q-2 0 -5 3l-225 324l-226 -324q-3 -3 -5 -3h-22z" />
    <glyph glyph-name="Y" unicode="Y" horiz-adv-x="606" 
d="M292 0q-7 0 -7 7v260l-249 420l-2 5q0 8 9 8h20q5 0 6 -3l234 -397l234 397q2 3 6 3h20q5 0 7.5 -4t-0.5 -9l-249 -420v-260q0 -7 -7 -7h-22z" />
    <glyph glyph-name="Z" unicode="Z" horiz-adv-x="572" 
d="M63 0q-7 0 -7 7v9l1 3l409 649h-385q-7 0 -7 7v18q0 7 7 7h428q7 0 7 -7v-9l-1 -3l-409 -649h393q7 0 7 -7v-18q0 -7 -7 -7h-436z" />
    <glyph glyph-name="bracketleft" unicode="[" horiz-adv-x="299" 
d="M251 -200q0 -7 -7 -7h-8q-65 0 -104.5 40t-39.5 106v650q0 66 39.5 106t104.5 40h8q7 0 7 -7v-19q0 -7 -7 -7h-8q-49 0 -78.5 -31t-29.5 -82v-650q0 -51 29.5 -82t78.5 -31h8q7 0 7 -7v-19z" />
    <glyph glyph-name="backslash" unicode="\" horiz-adv-x="508" 
d="M428 -25q-4 0 -6 3l-368 732q-1 1 -1 4q0 8 9 8h18q5 0 6 -3l368 -732q1 -1 1 -4q0 -8 -9 -8h-18z" />
    <glyph glyph-name="bracketright" unicode="]" horiz-adv-x="299" 
d="M55 -207q-7 0 -7 7v19q0 7 7 7h8q49 0 78.5 31t29.5 82v650q0 51 -29.5 82t-78.5 31h-8q-7 0 -7 7v19q0 7 7 7h8q65 0 104.5 -40t39.5 -106v-650q0 -66 -39.5 -106t-104.5 -40h-8z" />
    <glyph glyph-name="asciicircum" unicode="^" horiz-adv-x="517" 
d="M82 382q-5 0 -7 4t0 9l162 302q2 3 6 3h32q5 0 6 -3l161 -302q1 -1 1 -5q0 -3 -2 -5.5t-6 -2.5h-19q-4 0 -6 3l-151 287l-152 -287q-1 -3 -6 -3h-19z" />
    <glyph glyph-name="underscore" unicode="_" horiz-adv-x="492" 
d="M7 -42q-7 0 -7 7v18q0 7 7 7h478q7 0 7 -7v-18q0 -7 -7 -7h-478z" />
    <glyph glyph-name="grave" unicode="`" horiz-adv-x="250" 
d="M113 711q3 0 5 -2l54 -67q1 -2 0 -4.5t-3 -3.5l-21 -8q-3 0 -5 2l-61 62q-4 6 2 9z" />
    <glyph glyph-name="a" unicode="a" horiz-adv-x="540" 
d="M217 -8q-66 0 -106.5 35t-40.5 93v44q0 58 40.5 92.5t108.5 34.5h67q35 0 73 -12.5t64 -33.5v111q0 53 -31 86t-81 33h-76q-50 0 -81.5 -22t-34.5 -59q0 -7 -7 -7h-21q-7 0 -7 7q3 51 44 82t107 31h76q66 0 106.5 -41.5t40.5 -109.5v-349q0 -7 -7 -7h-20q-7 0 -7 7v78
q-30 -44 -68 -68.5t-76 -24.5h-63zM280 24q37 0 76 31t67 81v71q-23 23 -61 37.5t-76 14.5h-67q-52 0 -83 -25.5t-31 -69.5v-44q0 -43 31 -69.5t81 -26.5h63z" />
    <glyph glyph-name="b" unicode="b" 
d="M262 -8q-38 0 -76.5 26t-63.5 68v-79q0 -7 -7 -7h-20q-7 0 -7 7v686q0 7 7 7h21q7 0 7 -7v-276q21 42 60.5 66t85.5 24h70q71 0 114 -48.5t43 -128.5v-151q0 -84 -45.5 -135.5t-119.5 -51.5h-69zM331 24q59 0 94.5 42.5t35.5 112.5v151q0 65 -33.5 105t-88.5 40h-68
q-60 0 -100.5 -41t-47.5 -107v-179q16 -51 56.5 -87.5t82.5 -36.5h69z" />
    <glyph glyph-name="c" unicode="c" horiz-adv-x="522" 
d="M231 -8q-73 0 -118 46.5t-45 123.5v165q0 81 44.5 130.5t117.5 49.5h82q66 0 108 -35t45 -92q0 -7 -7 -7h-20q-7 0 -7 7q-3 43 -35.5 69t-83.5 26h-82q-57 0 -92 -40.5t-35 -107.5v-165q0 -62 35 -100t93 -38h82q53 0 86 34.5t35 91.5q0 7 7 7h20q7 0 7 -8
q-2 -71 -44.5 -114t-110.5 -43h-82z" />
    <glyph glyph-name="d" unicode="d" horiz-adv-x="562" 
d="M225 -8q-71 0 -114 50t-43 132v148q0 83 46 134t121 51h78q38 0 72.5 -20.5t55.5 -55.5v262q0 7 7 7h21q7 0 7 -7v-686q0 -7 -7 -7h-20q-7 0 -7 7v87q-27 -50 -64 -76t-81 -26h-72zM297 24q47 0 86 39t58 103v198q-13 49 -48.5 80t-79.5 31h-78q-59 0 -95.5 -42
t-36.5 -111v-148q0 -67 33.5 -108.5t88.5 -41.5h72z" />
    <glyph glyph-name="e" unicode="e" horiz-adv-x="538" 
d="M234 -8q-75 0 -120.5 46.5t-45.5 122.5v166q0 81 45.5 130.5t119.5 49.5h82q73 0 117 -48t44 -128v-74q0 -7 -7 -7h-366v-89q0 -62 36 -99.5t95 -37.5h76q56 0 91.5 33t37.5 87q0 7 7 7h21q7 0 7 -7q-2 -68 -47.5 -110t-116.5 -42h-76zM441 281v50q0 65 -34.5 104.5
t-91.5 39.5h-82q-59 0 -94.5 -40.5t-35.5 -107.5v-46h338z" />
    <glyph glyph-name="f" unicode="f" horiz-adv-x="345" 
d="M145 0q-7 0 -7 7v460h-79q-7 0 -7 7v18q0 7 7 7h79v44q0 83 35.5 122t110.5 39h12q7 0 7 -7v-18q0 -7 -7 -7h-12q-59 0 -85 -30t-26 -99v-44h112q7 0 7 -7v-18q0 -7 -7 -7h-112v-460q0 -7 -7 -7h-21z" />
    <glyph glyph-name="g" unicode="g" 
d="M231 -203q-54 0 -90.5 26.5t-44.5 71.5v1q0 4 2.5 6t5.5 2h20q6 0 7 -6q6 -32 33 -50.5t67 -18.5h84q59 0 92.5 38.5t33.5 106.5v119q-25 -42 -63 -67.5t-79 -25.5h-74q-71 0 -114 49.5t-43 131.5v140q0 84 46 135t121 51h78q38 0 73 -21t56 -57v63q0 7 7 7h20q7 0 7 -7
v-518q0 -83 -42.5 -130t-118.5 -47h-84zM297 32q46 0 86 36t58 87v209q-13 49 -48.5 80t-79.5 31h-78q-59 0 -95.5 -42.5t-36.5 -111.5v-140q0 -67 33.5 -108t88.5 -41h72z" />
    <glyph glyph-name="h" unicode="h" horiz-adv-x="560" 
d="M95 0q-7 0 -7 7v686q0 7 7 7h21q7 0 7 -7v-290q27 50 66 77t82 27h68q62 0 100.5 -44.5t38.5 -117.5v-338q0 -7 -7 -7h-21q-7 0 -7 7v338q0 58 -28.5 94t-75.5 36h-68q-43 0 -84 -37t-64 -98v-333q0 -7 -7 -7h-21z" />
    <glyph glyph-name="i" unicode="i" horiz-adv-x="246" 
d="M112 0q-7 0 -7 7v485q0 7 7 7h21q7 0 7 -7v-485q0 -7 -7 -7h-21zM104 589q0 7 7 7h25q7 0 7 -7v-27q0 -7 -7 -7h-25q-7 0 -7 7v27z" />
    <glyph glyph-name="j" unicode="j" horiz-adv-x="252" 
d="M-13 -199q-7 0 -7 7v18q0 7 7 7h12q62 0 87 30t25 105v524q0 7 7 7h21q7 0 7 -7v-519q0 -66 -14 -102.5t-46 -52.5q-32 -17 -87 -17h-12zM109 589q0 7 7 7h25q7 0 7 -7v-27q0 -7 -7 -7h-25q-7 0 -7 7v27z" />
    <glyph glyph-name="k" unicode="k" horiz-adv-x="485" 
d="M448 16q2 -2 2 -7q0 -9 -9 -9h-21q-3 0 -5 2l-213 256l-79 -78v-173q0 -7 -7 -7h-21q-7 0 -7 7v686q0 7 7 7h21q7 0 7 -7v-466l275 270l4 2h18q5 0 8 -2.5t3 -6.5q0 -5 -3 -8l-201 -199z" />
    <glyph glyph-name="l" unicode="l" horiz-adv-x="254" 
d="M222 7q0 -7 -7 -7h-24q-55 0 -79 28.5t-24 94.5v570q0 7 7 7h21q7 0 7 -7v-570q0 -49 15.5 -70t52.5 -21h24q7 0 7 -7v-18z" />
    <glyph glyph-name="m" unicode="m" horiz-adv-x="831" 
d="M621 507q58 0 93 -39.5t35 -104.5v-356q0 -7 -7 -7h-21q-7 0 -7 7v356q0 50 -25.5 81t-67.5 31h-62q-44 0 -77.5 -35.5t-45.5 -92.5v-340q0 -7 -7 -7h-21q-7 0 -7 7v346q0 54 -25 88t-64 34h-60q-41 0 -77 -38t-52 -98v-332q0 -7 -7 -7h-21q-7 0 -7 7v485q0 7 7 7h20
q7 0 7 -7v-84q23 47 57 73t73 26h60q40 0 71.5 -26t42.5 -70q20 45 55.5 70.5t77.5 25.5h62z" />
    <glyph glyph-name="n" unicode="n" horiz-adv-x="558" 
d="M95 0q-7 0 -7 7v485q0 7 7 7h20q7 0 7 -7v-90q27 50 66.5 77.5t82.5 27.5h66q62 0 100.5 -44.5t38.5 -117.5v-338q0 -7 -7 -7h-21q-7 0 -7 7v338q0 58 -28.5 94t-75.5 36h-66q-43 0 -84 -37t-64 -98v-333q0 -7 -7 -7h-21z" />
    <glyph glyph-name="o" unicode="o" horiz-adv-x="556" 
d="M237 -8q-76 0 -122.5 49t-46.5 128v161q0 79 47.5 128t124.5 49h75q78 0 125.5 -48.5t47.5 -128.5v-161q0 -80 -48 -128.5t-127 -48.5h-76zM313 24q63 0 101.5 40t38.5 105v161q0 65 -38 105t-100 40h-75q-62 0 -99.5 -40t-37.5 -105v-161q0 -65 37 -105t97 -40h76z" />
    <glyph glyph-name="p" unicode="p" 
d="M95 -199q-7 0 -7 7v684q0 7 7 7h20q7 0 7 -7v-81q23 44 61.5 70t78.5 26h74q72 0 116 -48t44 -127v-148q0 -87 -43.5 -139.5t-118.5 -52.5h-74q-39 0 -75.5 24t-61.5 66v-274q0 -7 -7 -7h-21zM334 24q59 0 93 43.5t34 116.5v148q0 65 -34 104t-91 39h-74q-42 0 -81.5 -37
t-57.5 -89v-194q7 -30 27 -60t47 -50q29 -21 63 -21h74z" />
    <glyph glyph-name="q" unicode="q" 
d="M448 -203q-7 0 -7 7v287q-26 -48 -63.5 -73.5t-80.5 -25.5h-72q-71 0 -114 48.5t-43 127.5v154q0 83 46 134t121 51h78q38 0 72.5 -21t56.5 -57v63q0 7 7 7h20q7 0 7 -7v-688q0 -7 -7 -7h-21zM293 24q48 0 89 38.5t59 98.5v203q-13 49 -48.5 80t-79.5 31h-78
q-59 0 -95.5 -42t-36.5 -111v-154q0 -65 33.5 -104.5t88.5 -39.5h68z" />
    <glyph glyph-name="r" unicode="r" horiz-adv-x="341" 
d="M95 0q-7 0 -7 7v485q0 7 7 7h20q7 0 7 -7v-79q23 42 64.5 65t91.5 23h24q7 0 7 -7v-18q0 -7 -7 -7h-25q-43 0 -78.5 -19.5t-55.5 -54.5t-20 -80v-308q0 -7 -7 -7h-21z" />
    <glyph glyph-name="s" unicode="s" horiz-adv-x="506" 
d="M210 -8q-65 0 -105.5 38t-42.5 100q0 7 7 7h20q7 0 7 -7q2 -48 33.5 -77t80.5 -29h85q53 0 85.5 22t32.5 58v44q0 25 -17.5 44.5t-46.5 24.5l-175 30q-45 7 -73 36t-28 67v35q0 55 39 88.5t103 33.5h85q60 0 97.5 -34.5t39.5 -91.5q0 -7 -7 -7h-20q-7 0 -7 7
q-3 43 -31 68.5t-72 25.5h-85q-48 0 -77.5 -25t-29.5 -65v-35q0 -27 19.5 -46.5t51.5 -24.5l175 -30q42 -8 68 -35.5t26 -65.5v-44q0 -50 -42 -81t-111 -31h-85z" />
    <glyph glyph-name="t" unicode="t" horiz-adv-x="368" 
d="M300 7q0 -7 -7 -7h-21q-74 0 -105.5 31t-31.5 103v333h-80q-7 0 -7 7v18q0 7 7 7h81v144q0 7 7 7h20q7 0 7 -7v-144h123q7 0 7 -7v-18q0 -7 -7 -7h-123v-333q0 -55 22.5 -78.5t75.5 -23.5h25q7 0 7 -7v-18z" />
    <glyph glyph-name="u" unicode="u" horiz-adv-x="556" 
d="M221 -8q-62 0 -100.5 42.5t-38.5 111.5v346q0 7 7 7h21q7 0 7 -7v-346q0 -55 28.5 -88.5t75.5 -33.5h62q27 0 59 21.5t57 55.5t34 71v320q0 7 7 7h21q7 0 7 -7v-485q0 -7 -7 -7h-20q-7 0 -7 7v96q-28 -49 -69.5 -80t-80.5 -31h-63z" />
    <glyph glyph-name="v" unicode="v" horiz-adv-x="479" 
d="M262 4q-1 -4 -6 -4h-14q-14 0 -22 6.5t-14 22.5l-174 459l-1 3q0 3 2.5 5.5t6.5 2.5h21q5 0 6 -4l172 -461h1l172 461q1 4 6 4h21q4 0 7 -3.5t1 -7.5z" />
    <glyph glyph-name="w" unicode="w" horiz-adv-x="706" 
d="M215 4q-1 -4 -6 -4h-11q-17 0 -26.5 9t-14.5 30l-111 450v2q0 4 2.5 6t5.5 2h22q4 0 6 -5l111 -455h1l145 442q1 4 6 4h10q14 0 21 -22l137 -424h1l110 455q2 5 6 5h22q4 0 6.5 -3t1.5 -7l-110 -450q-5 -21 -15 -30t-27 -9h-11q-3 0 -6 5l-136 421z" />
    <glyph glyph-name="x" unicode="x" horiz-adv-x="471" 
d="M48 0q-6 0 -8.5 5t1.5 10l175 241l-166 228q-2 2 -2 6q0 9 9 9h19q3 0 5 -2l155 -214l154 213q3 3 5 3h19q6 0 8.5 -5t-1.5 -10l-165 -228l174 -241q2 -2 2 -6q0 -9 -9 -9h-19q-3 0 -5 2l-163 226l-164 -226q-2 -2 -5 -2h-19z" />
    <glyph glyph-name="y" unicode="y" horiz-adv-x="558" 
d="M229 -203q-54 0 -90.5 26.5t-44.5 71.5v1q0 4 2.5 6t5.5 2h20q6 0 7 -6q6 -32 33 -50.5t67 -18.5h80q57 0 91.5 40t34.5 105v129q-30 -48 -70 -75.5t-79 -27.5h-65q-62 0 -100.5 42.5t-38.5 111.5v338q0 7 7 7h21q7 0 7 -7v-338q0 -55 28.5 -88.5t75.5 -33.5h63
q28 0 59 19t56 51q25 31 36 67v323q0 7 7 7h21q7 0 7 -7v-518q0 -80 -44 -128.5t-117 -48.5h-80z" />
    <glyph glyph-name="z" unicode="z" horiz-adv-x="458" 
d="M55 0q-3 0 -5 2t-2 4v4l1 3l309 456h-291q-7 0 -7 7v16q0 7 7 7h336q3 0 5 -2t2 -4v-4l-1 -3l-309 -456h298q7 0 7 -7v-16q0 -7 -7 -7h-343z" />
    <glyph glyph-name="braceleft" unicode="{" horiz-adv-x="356" 
d="M308 -224q0 -7 -7 -7h-9q-67 0 -104 38t-37 106v208q0 87 -79 117q-4 1 -4 6v16q0 5 4 6q79 30 79 117v208q0 68 37 106t104 38h9q7 0 7 -7v-19q0 -7 -7 -7h-9q-52 0 -78.5 -28t-26.5 -83v-208q0 -93 -74 -131q74 -39 74 -131v-208q0 -55 26.5 -83t78.5 -28h9q7 0 7 -7
v-19z" />
    <glyph glyph-name="bar" unicode="|" horiz-adv-x="232" 
d="M105 -147q-7 0 -7 7v980q0 7 7 7h22q7 0 7 -7v-980q0 -7 -7 -7h-22z" />
    <glyph glyph-name="braceright" unicode="}" horiz-adv-x="356" 
d="M55 -231q-7 0 -7 7v19q0 7 7 7h9q52 0 78.5 28t26.5 83v208q0 92 74 131q-74 38 -74 131v208q0 55 -26.5 83t-78.5 28h-9q-7 0 -7 7v19q0 7 7 7h9q67 0 104 -38t37 -106v-208q0 -87 79 -117q4 -1 4 -6v-16q0 -5 -4 -6q-79 -30 -79 -117v-208q0 -68 -37 -106t-104 -38h-9z
" />
    </font>
</defs>
</svg>
