<?xml version="1.0" standalone="no"?>
<!DOCTYPE svg PUBLIC "-//W3C//DTD SVG 1.1//EN" "http://www.w3.org/Graphics/SVG/1.1/DTD/svg11.dtd" >
<svg xmlns="http://www.w3.org/2000/svg" xmlns:xlink="http://www.w3.org/1999/xlink" version="1.1">
<metadata>
Created by FontForge 20170731 at Thu Oct 11 15:19:48 2018
 By Aleksey,,,
Copyright 2018 Webhance Studio
</metadata>
<defs>
<font id="Rectory-Regular" horiz-adv-x="564" >
  <font-face 
    font-family="Rectory"
    font-weight="275"
    font-stretch="normal"
    units-per-em="1000"
    panose-1="0 0 3 0 0 0 0 0 0 0"
    ascent="800"
    descent="-200"
    x-height="509"
    cap-height="710"
    bbox="-30 -241 866 857"
    underline-thickness="50"
    underline-position="-150"
    unicode-range="U+0020-007D"
  />
<missing-glyph horiz-adv-x="509" 
 />
    <glyph glyph-name=".notdef" horiz-adv-x="509" 
 />
    <glyph glyph-name=".null" horiz-adv-x="0" 
 />
    <glyph glyph-name="nonmarkingreturn" horiz-adv-x="333" 
 />
    <glyph glyph-name="space" unicode=" " horiz-adv-x="246" 
 />
    <glyph glyph-name="exclam" unicode="!" horiz-adv-x="260" 
d="M119 138q-7 0 -12 5t-5 12v538q0 8 5 12.5t12 4.5h22q8 0 12.5 -4.5t4.5 -12.5v-538q0 -7 -4.5 -12t-12.5 -5h-22zM97.5 -6.5q-13.5 13.5 -13.5 32.5q0 20 13 33t33 13q21 0 33.5 -12.5t12.5 -33.5q0 -20 -13 -33t-33 -13q-19 0 -32.5 13.5z" />
    <glyph glyph-name="quotedbl" unicode="&#x22;" horiz-adv-x="300" 
d="M75 492q-7 0 -12 5t-5 12v184q0 8 5 12.5t12 4.5h22q8 0 12.5 -4.5t4.5 -12.5v-184q0 -7 -4.5 -12t-12.5 -5h-22zM203 492q-7 0 -12 5t-5 12v184q0 8 5 12.5t12 4.5h22q8 0 12.5 -4.5t4.5 -12.5v-184q0 -7 -4.5 -12t-12.5 -5h-22z" />
    <glyph glyph-name="numbersign" unicode="#" horiz-adv-x="667" 
d="M58 226q0 8 5 12.5t12 4.5h115v211h-115q-7 0 -12 5t-5 12v17q0 8 5 12.5t12 4.5h115v188q0 8 5 12.5t12 4.5h20q8 0 12.5 -4.5t4.5 -12.5v-188h179v188q0 8 5 12.5t12 4.5h19q8 0 12.5 -4.5t4.5 -12.5v-188h116q8 0 12.5 -4.5t4.5 -12.5v-17q0 -7 -4.5 -12t-12.5 -5
h-116v-211h116q8 0 12.5 -4.5t4.5 -12.5v-17q0 -7 -4.5 -12t-12.5 -5h-116v-185q0 -8 -4.5 -12.5t-12.5 -4.5h-19q-7 0 -12 4.5t-5 12.5v185h-179v-185q0 -8 -4.5 -12.5t-12.5 -4.5h-20q-7 0 -12 4.5t-5 12.5v185h-115q-7 0 -12 5t-5 12v17zM423 244v209h-179v-209h179z" />
    <glyph glyph-name="dollar" unicode="$" horiz-adv-x="613" 
d="M63 185.5q5 4.5 12 4.5h21q8 0 12.5 -4.5t4.5 -12.5q2 -65 39 -101.5t101 -36.5h113q63 0 101 29t38 76v71q0 39 -28 66t-78 35l-177 30q-73 13 -114 54.5t-41 102.5v63q0 70 52 113t137 43h34v75q0 8 5 12.5t12 4.5h21q8 0 12.5 -4.5t4.5 -12.5v-75h24q80 0 129.5 -47
t51.5 -126q0 -7 -4.5 -12t-12.5 -5h-21q-7 0 -12 5t-5 12q-2 55 -36.5 87.5t-89.5 32.5h-113q-61 0 -97 -28t-36 -75v-63q0 -41 26.5 -68t76.5 -35l177 -30q74 -13 116 -53.5t42 -101.5v-71q0 -71 -54 -114.5t-141 -43.5h-21v-75q0 -8 -4.5 -12.5t-12.5 -4.5h-21
q-7 0 -12 4.5t-5 12.5v75h-37q-89 0 -141 51t-54 140q0 8 5 12.5z" />
    <glyph glyph-name="percent" unicode="%" horiz-adv-x="924" 
d="M58 573q0 64 36 103.5t94 39.5h58q56 0 91 -39.5t35 -103.5v-182q0 -64 -35 -103.5t-93 -39.5h-58q-58 0 -93 39.5t-35 103.5v182zM132 324q20 -25 54 -25h58q34 0 54 25t20 67v182q0 42 -20 67t-52 25h-58q-35 0 -55.5 -25t-20.5 -67v-182q0 -42 20 -67zM624 723
q5 9 15 9h18q8 0 13.5 -5t5.5 -12q0 -3 -2 -9l-368 -732q-4 -9 -15 -9h-18q-8 0 -13.5 5t-5.5 12q0 3 2 9zM552 307q0 64 36 103.5t94 39.5h58q56 0 91 -39.5t35 -103.5v-182q0 -64 -35 -103.5t-93 -39.5h-58q-58 0 -93 39.5t-35 103.5v182zM626 58q20 -25 54 -25h58
q34 0 54 25t20 67v182q0 42 -20 67t-52 25h-58q-35 0 -55.5 -25t-20.5 -67v-182q0 -42 20 -67z" />
    <glyph glyph-name="ampersand" unicode="&#x26;" horiz-adv-x="620" 
d="M582 21l-1 1q5 -5 5 -13t-5.5 -13.5t-13.5 -5.5h-20q-7 0 -12 5l-1 1l-67 86h16q-38 -49 -89 -74.5t-110 -25.5h-46q-81 0 -130.5 43.5t-49.5 114.5v50q0 41 19.5 79t54.5 65q11 9 49 33l26 17l24 16l-2 -14l-38 49q-45 58 -45 122v24q0 61 41 99t107 38h37
q62 0 100 -36.5t38 -95.5v-24q0 -32 -12.5 -55t-43.5 -49q-17 -14 -99 -68l-23 -15l3 14l186 -237l-17 -1q29 56 37 138v-1q0 6 5 11t11 5h21q8 0 13 -6t4 -14v1q-6 -98 -50 -174l-1 11zM274 414l-13 2l25 16q49 32 84 58q25 19 34.5 34.5t9.5 37.5v24q0 37 -22.5 58.5
t-60.5 21.5h-37q-42 0 -67.5 -23.5t-25.5 -61.5v-24q0 -47 30 -86zM284 35q50 0 91.5 22t69.5 65v-12l-195 250l13 -3l-32 -19q-47 -31 -68 -49t-35 -40q-14 -23 -14 -59v-50q0 -47 34 -76t90 -29h46z" />
    <glyph glyph-name="quotesingle" unicode="'" horiz-adv-x="172" 
d="M75 492q-7 0 -12 5t-5 12v184q0 8 5 12.5t12 4.5h22q8 0 12.5 -4.5t4.5 -12.5v-184q0 -7 -4.5 -12t-12.5 -5h-22z" />
    <glyph glyph-name="parenleft" unicode="(" horiz-adv-x="289" 
d="M244 -193q0 -8 -5.5 -13.5t-13.5 -5.5h-17q-9 0 -14 9l1 -1q-70 110 -103.5 218t-33.5 226v20q0 126 33.5 234t103.5 209l-1 -2q5 9 14 9h16q8 0 13.5 -6t5.5 -14q0 -6 -2 -9h-1q-64 -100 -95 -203t-31 -218v-20q0 -110 31 -213t97 -210l-2 2q4 -4 4 -12z" />
    <glyph glyph-name="parenright" unicode=")" horiz-adv-x="289" 
d="M81 -212h-17q-8 0 -13.5 6t-5.5 14q0 6 2 9q66 107 97 210t31 213v20q0 115 -31 218t-95 203l1 -2q-4 4 -4 12t6 13.5t13 5.5h16q10 0 14 -9l-1 2q70 -101 103.5 -209t33.5 -234v-20q0 -118 -33.5 -226t-103.5 -218l1 1q-4 -9 -14 -9z" />
    <glyph glyph-name="asterisk" unicode="*" horiz-adv-x="429" 
d="M206 441q-7 0 -12 5t-5 12v118l15 -8l-110 -70l2 1q-5 -5 -11 -5q-9 0 -15 10l-7 13l-1 3l-1 6q0 12 10 15h-2l116 68v-18l-116 68l-2 2q-8 8 -5 19l1 3l7 13q7 10 16 10q6 0 10 -4h-1l109 -70l-15 -8v119q0 8 5 12.5t12 4.5h16q8 0 12.5 -4.5t4.5 -12.5v-119l-15 8
l111 70l-2 -1q5 5 11 5q9 0 15 -10l7 -13l-2 2q5 -5 5 -10q0 -7 -7 -14l-2 -2l-117 -68v18l117 -68h-2q4 -1 7 -5.5t3 -9.5q0 -7 -4 -11l2 2l-7 -13q-7 -10 -16 -10q-6 0 -10 4h1l-110 70l15 8v-118q0 -7 -4.5 -12t-12.5 -5h-16z" />
    <glyph glyph-name="plus" unicode="+" horiz-adv-x="566" 
d="M58 333q0 8 5 12.5t12 4.5h180v182q0 8 5 12.5t12 4.5h22q8 0 12.5 -4.5t4.5 -12.5v-182h180q8 0 12.5 -4.5t4.5 -12.5v-19q0 -7 -4.5 -12t-12.5 -5h-180v-182q0 -7 -4.5 -12t-12.5 -5h-22q-7 0 -12 5t-5 12v182h-180q-7 0 -12 5t-5 12v19z" />
    <glyph glyph-name="comma" unicode="," horiz-adv-x="200" 
d="M54 -117l2 2q-5 -5 -10 -5t-10 3.5t-6 9.5l2 -4l-12 18l-1 2q-2 6 -2 8q0 9 7 13v0l5 4h1q29 19 41.5 42t12.5 58v38q0 8 5 12.5t12 4.5h22q8 0 12.5 -4.5t4.5 -12.5v-38q0 -54 -18.5 -88t-62.5 -60z" />
    <glyph glyph-name="hyphen" unicode="-" horiz-adv-x="401" 
d="M75 229q-7 0 -12 5t-5 12v18q0 8 5 12.5t12 4.5h251q8 0 12.5 -4.5t4.5 -12.5v-18q0 -7 -4.5 -12t-12.5 -5h-251z" />
    <glyph glyph-name="period" unicode="." horiz-adv-x="208" 
d="M71.5 -6.5q-13.5 13.5 -13.5 32.5q0 20 13 33t33 13q21 0 33.5 -12.5t12.5 -33.5q0 -20 -13 -33t-33 -13q-19 0 -32.5 13.5z" />
    <glyph glyph-name="slash" unicode="/" horiz-adv-x="508" 
d="M413 723q5 9 15 9h18q8 0 13.5 -5t5.5 -12q0 -3 -2 -9l-368 -732q-4 -9 -15 -9h-18q-8 0 -13.5 5t-5.5 12q0 3 2 9z" />
    <glyph glyph-name="zero" unicode="0" horiz-adv-x="632" 
d="M263 -18q-58 0 -102 27t-68.5 76t-24.5 113v304q0 64 24.5 113t68.5 76t102 27h106q58 0 102 -27t68.5 -76t24.5 -113v-304q0 -64 -24.5 -113t-68.5 -76t-102 -27h-106zM367 35q64 0 102.5 44.5t38.5 118.5v304q0 74 -38.5 118.5t-102.5 44.5h-102q-64 0 -102.5 -44.5
t-38.5 -118.5v-304q0 -74 38.5 -118.5t102.5 -44.5h102z" />
    <glyph glyph-name="one" unicode="1" horiz-adv-x="343" 
d="M216 -10q-7 0 -12 4.5t-5 12.5v657l15 -9l-149 -77l2 2q-4 -4 -11 -4t-12.5 5.5t-5.5 13.5v17q0 10 8 15l154 81l2 1l4 1h32q8 0 12.5 -4.5t4.5 -12.5v-686q0 -8 -4.5 -12.5t-12.5 -4.5h-22z" />
    <glyph glyph-name="two" unicode="2" horiz-adv-x="542" 
d="M72 -10q-7 0 -12 4.5t-5 12.5v21q0 71 17 111.5t62 78.5l247 212q57 50 57 104v32q0 45 -31.5 72t-83.5 27h-93q-55 0 -89 -35.5t-36 -95.5q0 -7 -4.5 -12t-12.5 -5h-21q-7 0 -12 5t-5 12q2 83 51.5 133.5t128.5 50.5h93q77 0 124 -42t47 -110v-32q0 -78 -75 -144
l-238 -204q-41 -35 -55.5 -66.5t-14.5 -86.5l-10 10h386q8 0 12.5 -4.5t4.5 -12.5v-19q0 -8 -4.5 -12.5t-12.5 -4.5h-415z" />
    <glyph glyph-name="three" unicode="3" horiz-adv-x="576" 
d="M53 183.5q5 4.5 12 4.5h22q8 0 12.5 -4.5t4.5 -12.5q2 -62 38 -99t94 -37h97q61 0 98 36t37 96v40q0 57 -38 91.5t-100 34.5h-85q-7 0 -12 5t-5 12v18q0 8 5 12.5t12 4.5h85q56 0 90.5 33.5t34.5 88.5v40q0 54 -32.5 86t-87.5 32h-97q-56 0 -91.5 -37t-37.5 -99
q0 -7 -4.5 -12t-12.5 -5h-22q-7 0 -12 5t-5 12q2 85 53 137t132 52h97q79 0 127.5 -47t48.5 -124v-40q0 -49 -21 -87t-59 -59q43 -22 68 -63t25 -91v-40q0 -83 -52.5 -134t-138.5 -51h-97q-83 0 -134.5 52t-53.5 137q0 8 5 12.5z" />
    <glyph glyph-name="four" unicode="4" horiz-adv-x="563" 
d="M28 191l3 9l354 503l1 1q6 6 12 6h26q8 0 12.5 -4.5t4.5 -12.5v-497h55q10 0 15.5 -9t0.5 -17v2l-6 -18q-3 -11 -16 -11h-49v-136q0 -8 -4.5 -12.5t-12.5 -4.5h-22q-7 0 -12 4.5t-5 12.5v136h-320q-18 0 -27.5 9t-9.5 26v13zM386 196v414l-291 -414h291z" />
    <glyph glyph-name="five" unicode="5" horiz-adv-x="584" 
d="M63 162.5q5 4.5 12 4.5h22q8 0 12.5 -4.5t4.5 -12.5q2 -52 36 -83.5t88 -31.5h96q63 0 100.5 37.5t37.5 100.5v67q0 58 -38.5 93.5t-102.5 35.5h-230q-7 0 -12 5t-5 12v307q0 8 5 12.5t12 4.5h384q8 0 12.5 -4.5t4.5 -12.5v-19q0 -7 -4.5 -12t-12.5 -5h-345v-235h191
q58 0 102.5 -23t69.5 -64t25 -95v-67q0 -86 -53.5 -138.5t-140.5 -52.5h-96q-78 0 -128 46t-52 122q0 8 5 12.5z" />
    <glyph glyph-name="six" unicode="6" horiz-adv-x="592" 
d="M68 497q0 104 50.5 162.5t141.5 58.5h86q80 0 130 -47.5t52 -126.5q0 -7 -4.5 -12t-12.5 -5h-21q-7 0 -12 5t-5 12q-2 56 -36.5 88.5t-90.5 32.5h-86q-65 0 -100.5 -44t-35.5 -124v-52l235 1q86 0 136.5 -55t50.5 -148v-50q0 -63 -26 -110.5t-73.5 -74t-109.5 -26.5h-70
q-58 0 -103.5 25.5t-70.5 72t-25 106.5v311zM163 76.5q39 -41.5 104 -41.5h70q69 0 111 43.5t42 114.5v50q0 70 -35 110t-96 40l-235 1v-208q0 -68 39 -109.5z" />
    <glyph glyph-name="seven" unicode="7" horiz-adv-x="478" 
d="M22 693q0 8 5 12.5t12 4.5h400q8 0 12.5 -4.5t4.5 -12.5v-21l-1 -3l-239 -668q-3 -11 -16 -11h-20q-10 0 -15.5 9t-0.5 17v-2l227 643h-352q-7 0 -12 5t-5 12v19z" />
    <glyph glyph-name="eight" unicode="8" horiz-adv-x="606" 
d="M48 196q0 53 27 96t76 68q-38 23 -59 61.5t-21 85.5v38q0 77 52.5 125t136.5 48h86q84 0 136.5 -48t52.5 -125v-38q0 -47 -21 -85.5t-59 -61.5q48 -24 75.5 -67t27.5 -97v-34q0 -53 -25.5 -94t-71.5 -63.5t-105 -22.5h-106q-59 0 -105 22.5t-71.5 63.5t-25.5 94v34z
M144 69.5q40 -34.5 106 -34.5h106q66 0 106 34.5t40 92.5v34q0 62 -41.5 99t-110.5 37h-94q-69 0 -110.5 -37t-41.5 -99v-34q0 -58 40 -92.5zM162.5 417.5q35.5 -33.5 93.5 -33.5h94q58 0 93.5 33.5t35.5 89.5v39q0 53 -36.5 86t-96.5 33h-86q-60 0 -96.5 -33t-36.5 -86v-39
q0 -56 35.5 -89.5z" />
    <glyph glyph-name="nine" unicode="9" horiz-adv-x="596" 
d="M50 507q0 63 26 110.5t73.5 74t109.5 26.5h70q58 0 103.5 -25.5t70.5 -72t25 -106.5v-311q0 -104 -50.5 -162.5t-141.5 -58.5h-86q-80 0 -130 47.5t-52 126.5q0 8 5 12.5t12 4.5h21q8 0 12.5 -4.5t4.5 -12.5q2 -56 36.5 -88.5t90.5 -32.5h86q65 0 100.5 44t35.5 124v52
l-235 -1q-86 0 -136.5 55t-50.5 148v50zM141 347q35 -40 96 -40l235 -1v208q0 68 -39 109.5t-104 41.5h-70q-69 0 -111 -43.5t-42 -114.5v-50q0 -70 35 -110z" />
    <glyph glyph-name="colon" unicode=":" horiz-adv-x="208" 
d="M71.5 383.5q-13.5 13.5 -13.5 32.5q0 20 13 33t33 13q21 0 33.5 -12.5t12.5 -33.5q0 -20 -13 -33t-33 -13q-19 0 -32.5 13.5zM71.5 43.5q-13.5 13.5 -13.5 32.5q0 20 13 33t33 13q21 0 33.5 -12.5t12.5 -33.5q0 -20 -13 -33t-33 -13q-19 0 -32.5 13.5z" />
    <glyph glyph-name="semicolon" unicode=";" horiz-adv-x="209" 
d="M72.5 383.5q-13.5 13.5 -13.5 32.5q0 20 13 33t33 13q21 0 33.5 -12.5t12.5 -33.5q0 -20 -13 -33t-33 -13q-19 0 -32.5 13.5zM54 -117l2 2q-5 -5 -10 -5t-10 3.5t-6 9.5l2 -4l-12 18l-1 2q-2 6 -2 8q0 9 7 13v0l5 4h1q29 19 41.5 42t12.5 58v38q0 8 5 12.5t12 4.5h22
q8 0 12.5 -4.5t4.5 -12.5v-38q0 -54 -18.5 -88t-62.5 -60z" />
    <glyph glyph-name="less" unicode="&#x3c;" horiz-adv-x="577" 
d="M38 311q0 11 9 15h-1l445 255l-2 -2q4 4 11 4q8 0 13.5 -5.5t5.5 -13.5v-19q0 -10 -9 -15h1l-410 -234l410 -234h-1q9 -4 9 -15v-19q0 -8 -5.5 -13.5t-13.5 -5.5q-6 0 -10 3l1 -1l-445 255h1q-9 5 -9 15v30z" />
    <glyph glyph-name="equal" unicode="=" horiz-adv-x="523" 
d="M75 370q-7 0 -12 5t-5 12v19q0 8 5 12.5t12 4.5h373q8 0 12.5 -4.5t4.5 -12.5v-19q0 -7 -4.5 -12t-12.5 -5h-373zM75 195q-7 0 -12 5t-5 12v19q0 8 5 12.5t12 4.5h373q8 0 12.5 -4.5t4.5 -12.5v-19q0 -7 -4.5 -12t-12.5 -5h-373z" />
    <glyph glyph-name="greater" unicode="&#x3e;" horiz-adv-x="577" 
d="M58 47q0 11 9 15h-1l410 234l-410 234h1q-9 5 -9 15v19q0 8 5.5 13.5t13.5 5.5q6 0 10 -3l-1 1l445 -255h-1q9 -4 9 -15v-30q0 -10 -9 -15h1l-445 -255l2 2q-4 -4 -11 -4t-13 6t-6 13v19z" />
    <glyph glyph-name="question" unicode="?" horiz-adv-x="551" 
d="M96.5 674.5q51.5 43.5 132.5 43.5h86q80 0 129 -44.5t49 -116.5v-53q0 -32 -12.5 -62t-35.5 -50q-9 -10 -27 -24t-24 -18q-56 -45 -74.5 -73t-18.5 -67v-42q0 -7 -4.5 -12t-12.5 -5h-22q-7 0 -12 5t-5 12v46q0 72 53 125q24 24 56 49q51 41 67 63.5t16 52.5v53
q0 49 -33.5 78.5t-88.5 29.5h-86q-58 0 -93 -28.5t-38 -78.5v1q0 -7 -4.5 -12t-12.5 -5h-22q-7 0 -12 5t-5 12q3 72 54.5 115.5zM240 59q13 13 33 13q21 0 33.5 -12.5t12.5 -33.5q0 -20 -13 -33t-33 -13q-19 0 -32.5 13.5t-13.5 32.5q0 20 13 33z" />
    <glyph glyph-name="at" unicode="@" horiz-adv-x="860" 
d="M58 444q0 86 36 152.5t103 103.5q69 36 152 36h198q74 0 133 -30.5t91 -86.5q31 -55 31 -127v-189q0 -73 -31.5 -114t-87.5 -41h-32q-30 0 -55 14.5t-39 40.5q-21 -30 -54 -47.5t-68 -17.5h-53q-62 0 -100 41.5t-38 109.5v95q0 73 42.5 118t110.5 45h49q26 0 51 -10
t43 -27v4q0 12 11 15h-1l17 7q3 3 9 3q8 0 13 -5t5 -13v-253q0 -31 16 -49.5t43 -18.5h30q31 0 47.5 27t16.5 76v189q0 57 -24.5 100.5t-70.5 66.5q-44 24 -105 24h-198q-70 0 -124 -29.5t-82 -83.5q-30 -52 -30 -126v-231q0 -59 24.5 -103.5t71.5 -70.5q47 -25 106 -25h176
q36 0 75.5 10t68.5 27h1l8 2q10 0 15 -10l-1 1l10 -16l1 -1q2 -3 2 -9q0 -7 -4 -11l-1 -1q-31 -21 -78.5 -33t-99.5 -12h-173q-75 0 -134 31.5t-91 88.5q-32 58 -32 132v231zM321.5 217q22.5 -27 60.5 -27h51q44 0 73 30.5t33 81.5v101q-4 42 -29 67t-64 25h-47
q-46 0 -73 -30t-27 -81v-95q0 -45 22.5 -72z" />
    <glyph glyph-name="A" unicode="A" horiz-adv-x="629" 
d="M288 699q3 11 15 11h13q22 0 33 -28l251 -668l2 -6q0 -7 -5.5 -12.5t-13.5 -5.5h-22q-12 0 -15 11l-75 202h-313l-75 -202q-3 -11 -15 -11h-22q-10 0 -15.5 9t-1.5 17v-1zM451 256l-135 366l-138 -366h273z" />
    <glyph glyph-name="B" unicode="B" horiz-adv-x="648" 
d="M82 693q0 8 5 12.5t12 4.5h278q82 0 131.5 -42t49.5 -112v-60q0 -43 -14.5 -76.5t-41.5 -54.5q46 -17 73 -54.5t27 -86.5v-59q0 -51 -24 -91t-68 -62t-100 -22h-282q-21 0 -33.5 12.5t-12.5 33.5v657zM410 43q61 0 98.5 33.5t37.5 88.5v59q0 47 -32 75t-86 28h-290v-284
h272zM397 379q48 0 76.5 32t28.5 85v60q0 46 -34 73.5t-91 27.5h-239v-278h259z" />
    <glyph glyph-name="C" unicode="C" horiz-adv-x="646" 
d="M278 -18q-62 0 -111.5 32t-77.5 90q-27 62 -27 131v230q0 74 27.5 131.5t78.5 89.5q49 32 114 32h106q61 0 109 -26t75 -73t28 -109q0 -7 -4.5 -12t-12.5 -5h-21q-7 0 -12 5t-5 12q-2 71 -44.5 113t-112.5 42h-106q-48 0 -85 -24.5t-58 -69.5q-21 -42 -21 -106v-230
q0 -59 20 -104.5t58 -71.5q35 -24 82 -24h108q71 0 115 46.5t46 124.5q0 8 5 12.5t12 4.5h21q8 0 12.5 -4.5t4.5 -12.5q-1 -65 -28 -116t-75 -79q-49 -29 -113 -29h-108z" />
    <glyph glyph-name="D" unicode="D" horiz-adv-x="660" 
d="M128 -10q-21 0 -33.5 12.5t-12.5 33.5v657q0 8 5 12.5t12 4.5h257q72 0 128.5 -28.5t87.5 -80.5q30 -52 30 -120v-242q0 -122 -62 -185.5t-180 -63.5h-232zM360 43q92 0 139 49.5t47 146.5v242q0 80 -52 128t-138 48h-228l10 10v-634l-10 10h232z" />
    <glyph glyph-name="E" unicode="E" horiz-adv-x="586" 
d="M387 342q-3 -11 -15 -11h-237l1 1l2 2v-294l-1 1l-2 2h382q8 0 12.5 -4.5t4.5 -12.5v-19q0 -8 -4.5 -12.5t-12.5 -4.5h-389q-22 0 -34 13t-12 36v654q0 8 5 12.5t12 4.5h418q8 0 12.5 -4.5t4.5 -12.5v-19q0 -7 -4.5 -12t-12.5 -5h-382l1 1l2 2v-279l-1 1l-2 2h242
q10 0 15.5 -9t1.5 -17v1z" />
    <glyph glyph-name="F" unicode="F" horiz-adv-x="562" 
d="M396 337v1q-3 -11 -15 -11h-246l1 1l2 2v-323q0 -8 -4.5 -12.5t-12.5 -4.5h-22q-7 0 -12 4.5t-5 12.5v686q0 8 5 12.5t12 4.5h408q8 0 12.5 -4.5t4.5 -12.5v-19q0 -7 -4.5 -12t-12.5 -5h-372l1 1l2 2v-283l-1 1l-2 2h253q8 0 13 -5.5t5 -12.5q0 -6 -2 -9v1z" />
    <glyph glyph-name="G" unicode="G" horiz-adv-x="670" 
d="M62 465q0 74 28 131.5t80 89.5q48 32 116 32h106q63 0 113 -27t76 -75q25 -48 26 -106q0 -7 -4.5 -12t-12.5 -5h-21q-7 0 -12 5t-5 12q-2 70 -46 112.5t-114 42.5h-106q-50 0 -88 -24t-59 -70q-21 -42 -21 -106v-230q0 -59 20.5 -104.5t58.5 -71.5q41 -24 85 -24h108
q76 0 121.5 48.5t45.5 129.5v91h-130q-7 0 -12 5l-1 1l-12 16l-1 2l-2 5l-1 4q0 8 6.5 14t13.5 6h177q8 0 12.5 -4.5t4.5 -12.5v-127q0 -68 -27.5 -121t-78.5 -81q-49 -29 -116 -29h-108q-64 0 -114.5 32t-78.5 90q-27 62 -27 131v230z" />
    <glyph glyph-name="H" unicode="H" horiz-adv-x="677" 
d="M82 693q0 8 5 12.5t12 4.5h22q8 0 12.5 -4.5t4.5 -12.5v-313h401v313q0 8 5 12.5t12 4.5h22q8 0 12.5 -4.5t4.5 -12.5v-686q0 -8 -4.5 -12.5t-12.5 -4.5h-22q-7 0 -12 4.5t-5 12.5v320h-401v-320q0 -8 -4.5 -12.5t-12.5 -4.5h-22q-7 0 -12 4.5t-5 12.5v686z" />
    <glyph glyph-name="I" unicode="I" horiz-adv-x="240" 
d="M109 -10q-7 0 -12 4.5t-5 12.5v686q0 8 5 12.5t12 4.5h22q8 0 12.5 -4.5t4.5 -12.5v-686q0 -8 -4.5 -12.5t-12.5 -4.5h-22z" />
    <glyph glyph-name="J" unicode="J" 
d="M216 -18q-53 0 -94 27t-63 77q-22 45 -23 104q0 8 5 12.5t12 4.5h22q8 0 12.5 -4.5t4.5 -12.5q2 -70 36 -112.5t88 -42.5h93q59 0 92 47.5t33 132.5v478q0 8 5 12.5t12 4.5h22q8 0 12.5 -4.5t4.5 -12.5v-478q0 -109 -48 -171t-133 -62h-93z" />
    <glyph glyph-name="K" unicode="K" horiz-adv-x="606" 
d="M82 693q0 8 5 12.5t12 4.5h22q8 0 12.5 -4.5t4.5 -12.5v-364l355 376q5 5 12 5h22q8 0 14 -6t6 -14t-6 -14l-274 -289l296 -366l-1 1q5 -5 5 -13t-5.5 -13.5t-13.5 -5.5h-23q-7 0 -12 5l-1 1l-285 349l-89 -95v-243q0 -8 -4.5 -12.5t-12.5 -4.5h-22q-7 0 -12 4.5t-5 12.5
v686z" />
    <glyph glyph-name="L" unicode="L" horiz-adv-x="546" 
d="M518 7q0 -8 -4.5 -12.5t-12.5 -4.5h-373q-22 0 -34 13t-12 36v654q0 8 5 12.5t12 4.5h22q8 0 12.5 -4.5t4.5 -12.5v-660l-10 10h373q8 0 12.5 -4.5t4.5 -12.5v-19z" />
    <glyph glyph-name="M" unicode="M" horiz-adv-x="781" 
d="M82 693q0 8 5 12.5t12 4.5h27q10 0 15 -8l253 -476l246 475q5 9 15 9h27q8 0 12.5 -4.5t4.5 -12.5v-686q0 -8 -4.5 -12.5t-12.5 -4.5h-21q-7 0 -12 4.5t-5 12.5v583l-225 -431q-10 -16 -22 -16h-8q-10 0 -15 8l-237 440v-584q0 -8 -4.5 -12.5t-12.5 -4.5h-21
q-7 0 -12 4.5t-5 12.5v686z" />
    <glyph glyph-name="N" unicode="N" horiz-adv-x="676" 
d="M82 693q0 8 5 12.5t12 4.5h27q6 0 12 -6l1 -2l400 -612v603q0 8 5 12.5t12 4.5h21q8 0 12.5 -4.5t4.5 -12.5v-686q0 -8 -4.5 -12.5t-12.5 -4.5h-27q-6 0 -12 6l-1 2l-401 613v-604q0 -8 -4.5 -12.5t-12.5 -4.5h-20q-7 0 -12 4.5t-5 12.5v686z" />
    <glyph glyph-name="O" unicode="O" horiz-adv-x="682" 
d="M289 -18q-67 0 -118.5 31t-80.5 88q-28 55 -28 128v242q0 73 28.5 129.5t80.5 87.5q52 30 119 30h102q67 0 119 -31t81 -88q28 -55 28 -128v-242q0 -73 -28.5 -129t-80.5 -87t-120 -31h-102zM391 35q51 0 90 24t61 68q22 48 22 102v242q0 58 -21 102.5t-60 68.5
q-38 23 -91 23h-102q-52 0 -90 -23.5t-60 -67.5q-22 -48 -22 -103v-242q0 -88 47 -141t124 -53h102z" />
    <glyph glyph-name="P" unicode="P" horiz-adv-x="610" 
d="M82 693q0 8 5 12.5t12 4.5h312q74 0 119.5 -40.5t45.5 -106.5v-119q0 -72 -48 -116.5t-127 -44.5h-263v-276q0 -8 -4.5 -12.5t-12.5 -4.5h-22q-7 0 -12 4.5t-5 12.5v686zM401 336q54 0 86.5 29.5t32.5 78.5v119q0 43 -29.5 68.5t-79.5 25.5h-273v-321h263z" />
    <glyph glyph-name="Q" unicode="Q" horiz-adv-x="684" 
d="M634 4q5 -4 5 -12t-5 -12l-13 -14q-4 -5 -12 -5q-7 0 -12 5l-70 70l13 -1q-61 -52 -147 -52h-104q-66 0 -118 30.5t-81 86.5q-28 55 -28 128v243q0 73 28.5 129.5t80.5 87.5q52 30 119 30h102q67 0 119 -31t81 -88q28 -55 28 -128v-243q0 -101 -55 -168l-1 13zM419 220
q7 0 12 -5l108 -117l-15 -1q40 49 40 131v243q0 58 -21 102.5t-60 68.5q-38 23 -91 23h-102q-52 0 -90 -23.5t-60 -67.5q-22 -48 -22 -103v-243q0 -87 47 -139.5t124 -52.5h102q64 0 112 39l-1 -15l-117 126q-6 6 -6 14t6.5 14t13.5 6h20z" />
    <glyph glyph-name="R" unicode="R" horiz-adv-x="636" 
d="M82 693q0 8 5 12.5t12 4.5h313q72 0 117 -41t45 -108v-82q0 -52 -30 -92.5t-81 -58.5q53 -39 76 -123l54 -192v-5q0 -7 -5 -12.5t-12 -5.5h-21q-11 0 -16 12l-57 197q-16 54 -48.5 84t-74.5 30h-221v-306q0 -8 -4.5 -12.5t-12.5 -4.5h-22q-7 0 -12 4.5t-5 12.5v686z
M387 366q60 0 95.5 30.5t35.5 82.5v82q0 44 -28.5 70t-77.5 26h-274v-291h249z" />
    <glyph glyph-name="S" unicode="S" horiz-adv-x="613" 
d="M63 185.5q5 4.5 12 4.5h21q8 0 12.5 -4.5t4.5 -12.5q2 -65 39 -101.5t101 -36.5h113q63 0 101 29t38 76v71q0 39 -28 66t-78 35l-177 30q-73 13 -114 54.5t-41 102.5v63q0 70 52 113t137 43h113q80 0 129.5 -47t51.5 -126q0 -7 -4.5 -12t-12.5 -5h-21q-7 0 -12 5t-5 12
q-2 55 -36.5 87.5t-89.5 32.5h-113q-61 0 -97 -28t-36 -75v-63q0 -41 26.5 -68t76.5 -35l177 -30q74 -13 116 -53.5t42 -101.5v-71q0 -71 -54 -114.5t-141 -43.5h-113q-89 0 -141 51t-54 140q0 8 5 12.5z" />
    <glyph glyph-name="T" unicode="T" 
d="M32 693q0 8 5 12.5t12 4.5h466q8 0 12.5 -4.5t4.5 -12.5v-19q0 -7 -4.5 -12t-12.5 -5h-205v-650q0 -8 -4.5 -12.5t-12.5 -4.5h-22q-7 0 -12 4.5t-5 12.5v650h-205q-7 0 -12 5t-5 12v19z" />
    <glyph glyph-name="U" unicode="U" horiz-adv-x="678" 
d="M284 -18q-60 0 -107 28t-73 78q-26 49 -26 116v489q0 8 5 12.5t12 4.5h22q8 0 12.5 -4.5t4.5 -12.5v-489q0 -76 41 -122.5t109 -46.5h110q68 0 109 46.5t41 122.5v489q0 8 5 12.5t12 4.5h22q8 0 12.5 -4.5t4.5 -12.5v-489q0 -65 -25.5 -115.5t-72.5 -78.5t-108 -28h-110z
" />
    <glyph glyph-name="V" unicode="V" horiz-adv-x="617" 
d="M32.5 704.5q5.5 5.5 13.5 5.5h21q13 0 16 -11l226 -625l225 625q3 11 16 11h21q10 0 15.5 -9t1.5 -17v2l-250 -685q-3 -11 -16 -11h-10q-31 0 -42 32l-241 664l-2 6q0 7 5.5 12.5z" />
    <glyph glyph-name="W" unicode="W" horiz-adv-x="827" 
d="M38 693q0 8 5 12.5t12 4.5h22q6 0 11 -3.5t6 -10.5l109 -616l182 566l2 3q6 9 14 9h35q11 0 16 -12l172 -565l109 615q2 6 6.5 10t10.5 4h22q8 0 13.5 -6.5t3.5 -14.5l-121 -687q-1 -7 -6 -10.5t-11 -3.5h-35q-8 0 -14 9l-2 3l-182 579l-187 -579q-2 -5 -6 -8.5t-9 -3.5
h-37q-6 0 -10.5 4t-6.5 10l-124 687v4z" />
    <glyph glyph-name="X" unicode="X" horiz-adv-x="595" 
d="M30 20l235 337l-225 323l-4 12q0 8 5.5 13t13.5 5h22q6 0 12 -6l1 -1l208 -298l207 298l1 1q6 6 12 6h22q9 0 14 -5t5 -13q0 -5 -3 -11l-1 -1l-224 -323l234 -337l4 -12q0 -8 -5.5 -13t-13.5 -5h-22q-6 0 -12 6l-1 1l-217 313l-218 -313l-1 -1q-6 -6 -12 -6h-22
q-9 0 -14 5t-5 13q0 5 3 11z" />
    <glyph glyph-name="Y" unicode="Y" horiz-adv-x="606" 
d="M29.5 705q5.5 5 13.5 5h20q11 0 15 -9v1l225 -382l225 382v-1q5 9 15 9h20q8 0 13.5 -5t5.5 -13q0 -5 -3 -10l-248 -418v-257q0 -8 -4.5 -12.5t-12.5 -4.5h-22q-7 0 -12 4.5t-5 12.5v257l-248 418v1l-2 5l-1 4q0 8 5.5 13z" />
    <glyph glyph-name="Z" unicode="Z" horiz-adv-x="572" 
d="M46 16l2 6l1 2l400 634h-368q-7 0 -12 5t-5 12v18q0 8 5 12.5t12 4.5h428q8 0 12.5 -4.5t4.5 -12.5v-9l-2 -6l-1 -2l-400 -634h376q8 0 12.5 -4.5t4.5 -12.5v-18q0 -8 -4.5 -12.5t-12.5 -4.5h-436q-7 0 -12 4.5t-5 12.5v9z" />
    <glyph glyph-name="bracketleft" unicode="[" horiz-adv-x="299" 
d="M261 -200q0 -8 -4.5 -12.5t-12.5 -4.5h-8q-69 0 -111.5 43t-42.5 113v650q0 70 42.5 113t111.5 43h8q8 0 12.5 -4.5t4.5 -12.5v-19q0 -7 -4.5 -12t-12.5 -5h-8q-44 0 -71 -28t-27 -75v-650q0 -47 27 -75t71 -28h8q8 0 12.5 -5t4.5 -12v-19z" />
    <glyph glyph-name="backslash" unicode="\" horiz-adv-x="508" 
d="M428 -35q-10 0 -15 9l-368 732l2 -3q-4 4 -4 11q0 8 5.5 13t13.5 5h18q11 0 15 -9l368 -732l-2 3q4 -4 4 -11q0 -8 -5.5 -13t-13.5 -5h-18z" />
    <glyph glyph-name="bracketright" unicode="]" horiz-adv-x="299" 
d="M38 -181q0 7 5 12t12 5h8q44 0 71 28t27 75v650q0 47 -27 75t-71 28h-8q-7 0 -12 5t-5 12v19q0 8 5 12.5t12 4.5h8q69 0 111.5 -43t42.5 -113v-650q0 -70 -42.5 -113t-111.5 -43h-8q-7 0 -12 4.5t-5 12.5v19z" />
    <glyph glyph-name="asciicircum" unicode="^" horiz-adv-x="517" 
d="M66 400l162 301q5 9 15 9h32q10 0 15 -8l161 -302l-2 2q4 -4 4 -12q0 -7 -5 -12.5t-13 -5.5h-19q-10 0 -15 8l-142 270l-143 -269q-4 -9 -15 -9h-19q-8 0 -13 5t-5 13q0 3 2 9v1z" />
    <glyph glyph-name="underscore" unicode="_" horiz-adv-x="492" 
d="M7 -52q-8 0 -12.5 4.5t-4.5 12.5v18q0 7 4.5 12t12.5 5h478q8 0 12.5 -5t4.5 -12v-18q0 -8 -4.5 -12.5t-12.5 -4.5h-478z" />
    <glyph glyph-name="grave" unicode="`" horiz-adv-x="250" 
d="M109 720l4 1q7 0 12 -5l1 -1l54 -67l1 -3q1 -2 1 -6t-2.5 -8t-6.5 -6l-21 -8l-4 -1q-7 0 -12 5l-61 62l-1 1q-4 4 -4 10q0 9 10 14v0z" />
    <glyph glyph-name="a" unicode="a" horiz-adv-x="540" 
d="M60 164q0 62 43.5 99.5t115.5 37.5h67q32 0 66 -10t61 -27v92q0 49 -28 79t-74 30h-76q-46 0 -74.5 -19.5t-31.5 -52.5v1q0 -7 -4.5 -12t-12.5 -5h-21q-7 0 -12 5t-5 12v1q3 55 47 88.5t114 33.5h76q70 0 113.5 -44.5t43.5 -116.5v-349q0 -8 -4.5 -12.5t-12.5 -4.5h-20
q-7 0 -12 4.5t-5 12.5v48q-29 -35 -64 -54t-70 -19h-63q-70 0 -113.5 38t-43.5 100v44zM143 57.5q28 -23.5 74 -23.5h63q34 0 70.5 28.5t62.5 76.5v64q-23 20 -58 33t-69 13h-67q-49 0 -76.5 -22.5t-27.5 -62.5v-44q0 -39 28 -62.5z" />
    <glyph glyph-name="b" unicode="b" 
d="M78 693q0 8 5 12.5t12 4.5h21q8 0 12.5 -4.5t4.5 -12.5v-242q24 31 60 48.5t76 17.5h70q76 0 121.5 -51.5t45.5 -135.5v-151q0 -88 -48 -142.5t-127 -54.5h-69q-34 0 -69 19.5t-61 52.5v-47q0 -8 -4.5 -12.5t-12.5 -4.5h-20q-7 0 -12 4.5t-5 12.5v686zM185.5 68.5
q38.5 -34.5 76.5 -34.5h69q55 0 87.5 39.5t32.5 105.5v151q0 61 -31 98t-81 37h-68q-56 0 -94 -38.5t-44 -100.5v-175q14 -48 52.5 -82.5z" />
    <glyph glyph-name="c" unicode="c" horiz-adv-x="522" 
d="M231 -18q-77 0 -125 49.5t-48 130.5v165q0 85 47.5 137.5t124.5 52.5h82q70 0 115 -37.5t48 -98.5v-1q0 -7 -4.5 -12t-12.5 -5h-20q-7 0 -12 5t-5 12v-1q-3 39 -32.5 62.5t-76.5 23.5h-82q-53 0 -85 -38t-32 -100v-165q0 -58 32.5 -93t85.5 -35h82q49 0 79 31.5t32 84.5
q0 8 5 12.5t12 4.5h20q8 0 12.5 -5t4.5 -13q-2 -76 -47.5 -121.5t-117.5 -45.5h-82z" />
    <glyph glyph-name="d" unicode="d" horiz-adv-x="562" 
d="M58 322q0 87 49 141t128 54h78q33 0 63.5 -14.5t54.5 -40.5v231q0 8 5 12.5t12 4.5h21q8 0 12.5 -4.5t4.5 -12.5v-686q0 -8 -4.5 -12.5t-12.5 -4.5h-20q-7 0 -12 4.5t-5 12.5v51q-55 -76 -135 -76h-72q-75 0 -121 53t-46 139v148zM144 72.5q31 -38.5 81 -38.5h72
q43 0 79.5 37t54.5 98v192q-12 46 -44.5 75t-73.5 29h-78q-55 0 -88.5 -39t-33.5 -104v-148q0 -63 31 -101.5z" />
    <glyph glyph-name="e" unicode="e" horiz-adv-x="538" 
d="M58 327q0 85 48 137.5t127 52.5h82q77 0 124 -51t47 -135v-74q0 -7 -4.5 -12t-12.5 -5h-356v-79q0 -58 33 -92.5t88 -34.5h76q52 0 84.5 30t34.5 80q0 8 5 12.5t12 4.5h21q8 0 12.5 -4.5t4.5 -12.5q-2 -73 -50.5 -117.5t-123.5 -44.5h-76q-79 0 -127.5 49.5t-48.5 129.5
v166zM431 291v40q0 61 -31.5 97.5t-84.5 36.5h-82q-55 0 -87.5 -37.5t-32.5 -100.5v-36h318z" />
    <glyph glyph-name="f" unicode="f" horiz-adv-x="345" 
d="M42 492q0 8 5 12.5t12 4.5h69v34q0 87 38.5 129t117.5 42h12q8 0 12.5 -4.5t4.5 -12.5v-18q0 -7 -4.5 -12t-12.5 -5h-12q-55 0 -78 -27t-23 -92v-34h102q8 0 12.5 -4.5t4.5 -12.5v-18q0 -7 -4.5 -12t-12.5 -5h-102v-450q0 -8 -4.5 -12.5t-12.5 -4.5h-21q-7 0 -12 4.5
t-5 12.5v450h-69q-7 0 -12 5t-5 12v18z" />
    <glyph glyph-name="g" unicode="g" 
d="M58 321q0 88 49 142t128 54h78q34 0 65 -15t54 -42v32q0 8 5 12.5t12 4.5h20q8 0 12.5 -4.5t4.5 -12.5v-518q0 -87 -45.5 -137t-125.5 -50h-84q-57 0 -96.5 28.5t-48.5 77.5v3q0 7 5.5 12.5t12.5 5.5h20q6 0 11 -3.5t6 -10.5q5 -28 29 -44.5t61 -16.5h84q55 0 85.5 35.5
t30.5 99.5v87q-27 -33 -61.5 -52t-70.5 -19h-74q-75 0 -121 52.5t-46 138.5v140zM144 80q31 -38 81 -38h72q40 0 77.5 32t56.5 81v206q-12 46 -44.5 75t-73.5 29h-78q-55 0 -88.5 -39.5t-33.5 -104.5v-140q0 -63 31 -101z" />
    <glyph glyph-name="h" unicode="h" horiz-adv-x="560" 
d="M78 693q0 8 5 12.5t12 4.5h21q8 0 12.5 -4.5t4.5 -12.5v-255q27 38 63 58.5t75 20.5h68q67 0 108 -47.5t41 -124.5v-338q0 -8 -4.5 -12.5t-12.5 -4.5h-21q-7 0 -12 4.5t-5 12.5v338q0 55 -25.5 87.5t-68.5 32.5h-68q-39 0 -77.5 -35t-60.5 -91v-332q0 -8 -4.5 -12.5
t-12.5 -4.5h-21q-7 0 -12 4.5t-5 12.5v686z" />
    <glyph glyph-name="i" unicode="i" horiz-adv-x="246" 
d="M112 -10q-7 0 -12 4.5t-5 12.5v485q0 8 5 12.5t12 4.5h21q8 0 12.5 -4.5t4.5 -12.5v-485q0 -8 -4.5 -12.5t-12.5 -4.5h-21zM94 589q0 8 5 12.5t12 4.5h25q8 0 12.5 -4.5t4.5 -12.5v-27q0 -7 -4.5 -12t-12.5 -5h-25q-7 0 -12 5t-5 12v27z" />
    <glyph glyph-name="j" unicode="j" horiz-adv-x="252" 
d="M-13 -209q-8 0 -12.5 4.5t-4.5 12.5v18q0 7 4.5 12t12.5 5h12q39 0 61 11.5t31.5 38.5t9.5 75v524q0 8 5 12.5t12 4.5h21q8 0 12.5 -4.5t4.5 -12.5v-519q0 -69 -15.5 -108t-49.5 -56q-36 -18 -92 -18h-12zM99 589q0 8 5 12.5t12 4.5h25q8 0 12.5 -4.5t4.5 -12.5v-27
q0 -7 -4.5 -12t-12.5 -5h-25q-7 0 -12 5t-5 12v27z" />
    <glyph glyph-name="k" unicode="k" horiz-adv-x="485" 
d="M78 693q0 8 5 12.5t12 4.5h21q8 0 12.5 -4.5t4.5 -12.5v-442l258 253l3 2l4 2l4 1h18q9 0 15 -5.5t6 -13.5q0 -9 -6 -15l-195 -193l216 -260l-1 1q5 -5 5 -14q0 -8 -5.5 -13.5t-13.5 -5.5h-21q-7 0 -12 5l-1 1l-206 247l-68 -67v-169q0 -8 -4.5 -12.5t-12.5 -4.5h-21
q-7 0 -12 4.5t-5 12.5v686z" />
    <glyph glyph-name="l" unicode="l" horiz-adv-x="254" 
d="M78 693q0 8 5 12.5t12 4.5h21q8 0 12.5 -4.5t4.5 -12.5v-570q0 -45 13 -63t45 -18h24q8 0 12.5 -4.5t4.5 -12.5v-18q0 -8 -4.5 -12.5t-12.5 -4.5h-24q-59 0 -86 31.5t-27 101.5v570z" />
    <glyph glyph-name="m" unicode="m" horiz-adv-x="831" 
d="M78 492q0 8 5 12.5t12 4.5h20q8 0 12.5 -4.5t4.5 -12.5v-47q24 35 55 53.5t65 18.5h60q38 0 69 -21.5t47 -58.5q23 38 57 59t74 21h62q62 0 100 -42.5t38 -111.5v-356q0 -8 -4.5 -12.5t-12.5 -4.5h-21q-7 0 -12 4.5t-5 12.5v356q0 46 -22.5 74t-60.5 28h-62
q-40 0 -71 -32.5t-42 -87.5v-338q0 -8 -4.5 -12.5t-12.5 -4.5h-21q-7 0 -12 4.5t-5 12.5v346q0 49 -22 80.5t-57 31.5h-60q-38 0 -71 -36t-48 -93v-329q0 -8 -4.5 -12.5t-12.5 -4.5h-21q-7 0 -12 4.5t-5 12.5v485z" />
    <glyph glyph-name="n" unicode="n" horiz-adv-x="558" 
d="M78 492q0 8 5 12.5t12 4.5h20q8 0 12.5 -4.5t4.5 -12.5v-55q28 38 64 59t75 21h66q67 0 108 -47.5t41 -124.5v-338q0 -8 -4.5 -12.5t-12.5 -4.5h-21q-7 0 -12 4.5t-5 12.5v338q0 55 -25.5 87.5t-68.5 32.5h-66q-39 0 -77.5 -35t-60.5 -91v-332q0 -8 -4.5 -12.5
t-12.5 -4.5h-21q-7 0 -12 4.5t-5 12.5v485z" />
    <glyph glyph-name="o" unicode="o" horiz-adv-x="556" 
d="M58 330q0 55 23 97.5t64.5 66t94.5 23.5h75q82 0 132.5 -51.5t50.5 -135.5v-161q0 -84 -51 -135.5t-134 -51.5h-76q-52 0 -93 23.5t-63.5 66t-22.5 97.5v161zM147 71q34 -37 90 -37h76q59 0 94.5 37t35.5 98v161q0 61 -35 98t-93 37h-75q-58 0 -92.5 -37t-34.5 -98v-161
q0 -61 34 -98z" />
    <glyph glyph-name="p" unicode="p" 
d="M78 492q0 8 5 12.5t12 4.5h20q8 0 12.5 -4.5t4.5 -12.5v-46q25 33 59.5 52t70.5 19h74q76 0 123 -51t47 -134v-148q0 -92 -46.5 -147t-125.5 -55h-74q-35 0 -68 18t-59 50v-242q0 -8 -4.5 -12.5t-12.5 -4.5h-21q-7 0 -12 4.5t-5 12.5v684zM158 101q19 -28 45 -48
q25 -19 57 -19h74q54 0 85.5 40t31.5 110v148q0 61 -31 97t-84 36h-74q-36 0 -73 -33.5t-56 -82.5v-192q6 -28 25 -56z" />
    <glyph glyph-name="q" unicode="q" 
d="M58 322q0 87 49 141t128 54h78q33 0 64.5 -15t54.5 -42v32q0 8 5 12.5t12 4.5h20q8 0 12.5 -4.5t4.5 -12.5v-688q0 -8 -4.5 -12.5t-12.5 -4.5h-21q-7 0 -12 4.5t-5 12.5v252q-26 -35 -61 -54.5t-73 -19.5h-72q-75 0 -121 51.5t-46 134.5v154zM143.5 70.5
q30.5 -36.5 81.5 -36.5h68q44 0 82.5 36t55.5 94v197q-12 46 -44.5 75t-73.5 29h-78q-55 0 -88.5 -39t-33.5 -104v-154q0 -61 30.5 -97.5z" />
    <glyph glyph-name="r" unicode="r" horiz-adv-x="341" 
d="M78 492q0 8 5 12.5t12 4.5h20q8 0 12.5 -4.5t4.5 -12.5v-47q26 32 64 49t82 17h24q8 0 12.5 -4.5t4.5 -12.5v-18q0 -7 -4.5 -12t-12.5 -5h-25q-41 0 -73.5 -18t-51.5 -51q-19 -32 -19 -75v-308q0 -8 -4.5 -12.5t-12.5 -4.5h-21q-7 0 -12 4.5t-5 12.5v485z" />
    <glyph glyph-name="s" unicode="s" horiz-adv-x="506" 
d="M210 -18q-69 0 -112.5 40.5t-45.5 107.5q0 8 5 12.5t12 4.5h20q8 0 12.5 -4.5t4.5 -12.5q2 -44 30.5 -70t73.5 -26h85q49 0 78.5 19t29.5 51v44q0 22 -15.5 38t-40.5 21l-174 30q-49 8 -79.5 39t-30.5 74v35q0 59 42 95.5t110 36.5h85q64 0 104.5 -37.5t42.5 -98.5
q0 -7 -4.5 -12t-12.5 -5h-20q-7 0 -12 5t-5 12v-1q-3 39 -28 62t-65 23h-85q-44 0 -70.5 -22t-26.5 -58v-35q0 -23 17 -40t46 -21l175 -30q46 -9 74 -39.5t28 -71.5v-44q0 -55 -45 -88.5t-118 -33.5h-85z" />
    <glyph glyph-name="t" unicode="t" horiz-adv-x="368" 
d="M38 492q0 8 5 12.5t12 4.5h71v134q0 8 5 12.5t12 4.5h20q8 0 12.5 -4.5t4.5 -12.5v-134h113q8 0 12.5 -4.5t4.5 -12.5v-18q0 -7 -4.5 -12t-12.5 -5h-113v-323q0 -51 19.5 -71.5t68.5 -20.5h25q8 0 12.5 -4.5t4.5 -12.5v-18q0 -8 -4.5 -12.5t-12.5 -4.5h-21
q-78 0 -112.5 34t-34.5 110v323h-70q-7 0 -12 5t-5 12v18z" />
    <glyph glyph-name="u" unicode="u" horiz-adv-x="556" 
d="M72 492q0 8 5 12.5t12 4.5h21q8 0 12.5 -4.5t4.5 -12.5v-346q0 -51 25.5 -81.5t68.5 -30.5h62q24 0 54 20.5t54 52.5q25 34 32 67v318q0 8 5 12.5t12 4.5h21q8 0 12.5 -4.5t4.5 -12.5v-485q0 -8 -4.5 -12.5t-12.5 -4.5h-20q-7 0 -12 4.5t-5 12.5v62q-29 -40 -67 -63.5
t-73 -23.5h-63q-67 0 -108 45.5t-41 118.5v346z" />
    <glyph glyph-name="v" unicode="v" horiz-adv-x="479" 
d="M26.5 503.5q5.5 5.5 13.5 5.5h21q12 0 15 -11l164 -438l163 438q3 11 15 11h21q10 0 15.5 -9t1.5 -17v1l-185 -483q-3 -11 -15 -11h-14q-17 0 -27.5 8t-17.5 27l-174 460l-2 6q0 7 5.5 12.5z" />
    <glyph glyph-name="w" unicode="w" horiz-adv-x="706" 
d="M36 491q0 8 5.5 13t12.5 5h22q5 0 9 -3.5t6 -8.5l1 -1l103 -421l135 409q3 11 15 11h10q20 0 31 -29l126 -391l102 421l1 1q2 5 6 8.5t9 3.5h22q8 0 14 -7t4 -15l-110 -450q-6 -24 -18.5 -35.5t-33.5 -11.5h-11q-8 0 -14 9l-2 3l-127 392l-130 -393q-3 -11 -15 -11h-11
q-20 0 -32.5 11t-18.5 36l-111 450v4z" />
    <glyph glyph-name="x" unicode="x" horiz-adv-x="471" 
d="M204 256l-162 222l1 -1q-5 5 -5 13t5.5 13.5t13.5 5.5h19q7 0 12 -5l1 -1l147 -203l146 202l1 1q6 6 12 6h19q8 0 13.5 -5.5t5.5 -13.5q0 -7 -4 -12l-161 -222l170 -235l-1 1q5 -5 5 -13t-5.5 -13.5t-13.5 -5.5h-19q-7 0 -12 5l-1 1l-155 215l-156 -215l-1 -1
q-5 -5 -12 -5h-19q-8 0 -13.5 5.5t-5.5 13.5q0 7 4 12z" />
    <glyph glyph-name="y" unicode="y" horiz-adv-x="558" 
d="M72 492q0 8 5 12.5t12 4.5h21q8 0 12.5 -4.5t4.5 -12.5v-338q0 -51 25.5 -81.5t68.5 -30.5h63q25 0 54.5 18t52.5 48q25 31 34 64v320q0 8 5 12.5t12 4.5h21q8 0 12.5 -4.5t4.5 -12.5v-518q0 -84 -47 -135.5t-124 -51.5h-80q-57 0 -96.5 28.5t-48.5 77.5v3q0 7 5.5 12.5
t12.5 5.5h20q6 0 11 -3.5t6 -10.5q5 -28 29 -44.5t61 -16.5h80q53 0 84.5 37t31.5 98v98q-29 -39 -66 -60.5t-73 -21.5h-65q-67 0 -108 45.5t-41 118.5v338z" />
    <glyph glyph-name="z" unicode="z" horiz-adv-x="458" 
d="M38 10l3 9l298 440h-272q-7 0 -12 5t-5 12v16q0 8 5 12.5t12 4.5h336q7 0 12 -4.5t5 -11.5v-4l-3 -9l-298 -440h279q8 0 12.5 -4.5t4.5 -12.5v-16q0 -8 -4.5 -12.5t-12.5 -4.5h-343q-7 0 -12 4.5t-5 11.5v4z" />
    <glyph glyph-name="braceleft" unicode="{" horiz-adv-x="356" 
d="M58 260q0 12 10 15q73 28 73 108v208q0 72 40 113t111 41h9q8 0 12.5 -4.5t4.5 -12.5v-19q0 -7 -4.5 -12t-12.5 -5h-9q-95 0 -95 -101v-208q0 -88 -64 -131q64 -44 64 -131v-208q0 -101 95 -101h9q8 0 12.5 -5t4.5 -12v-19q0 -8 -4.5 -12.5t-12.5 -4.5h-9q-71 0 -111 41
t-40 113v208q0 80 -72 108q-11 3 -11 15v16z" />
    <glyph glyph-name="bar" unicode="|" horiz-adv-x="232" 
d="M105 -157q-7 0 -12 4.5t-5 12.5v980q0 8 5 12.5t12 4.5h22q8 0 12.5 -4.5t4.5 -12.5v-980q0 -8 -4.5 -12.5t-12.5 -4.5h-22z" />
    <glyph glyph-name="braceright" unicode="}" horiz-adv-x="356" 
d="M38 -205q0 7 5 12t12 5h9q95 0 95 101v208q0 87 64 131q-64 43 -64 131v208q0 101 -95 101h-9q-7 0 -12 5t-5 12v19q0 8 5 12.5t12 4.5h9q71 0 111 -41t40 -113v-208q0 -79 72 -108q11 -3 11 -15v-16q0 -12 -10 -15q-73 -28 -73 -108v-208q0 -72 -40 -113t-111 -41h-9
q-7 0 -12 4.5t-5 12.5v19z" />
    </font>
</defs>
</svg>
