<?xml version="1.0" encoding="UTF-8" standalone="no"?>
<!DOCTYPE svg PUBLIC "-//W3C//DTD SVG 1.1//EN"
 "http://www.w3.org/Graphics/SVG/1.1/DTD/svg11.dtd">
<!-- Generated by graphviz version 2.40.1 (20161225.0304)
 -->
<!-- Title: dependencies Pages: 1 -->
<svg width="504pt" height="211pt"
 viewBox="0.00 0.00 504.00 211.00" xmlns="http://www.w3.org/2000/svg" xmlns:xlink="http://www.w3.org/1999/xlink">
<g id="graph0" class="graph" transform="scale(1 1) rotate(0) translate(4 207)">
<title>dependencies</title>
<polygon fill="#ffffff" stroke="transparent" points="-4,4 -4,-207 500,-207 500,4 -4,4"/>
<text text-anchor="start" x="227.0091" y="-42.4" font-family="sans-serif" font-weight="bold" font-size="14.00" fill="#000000">Legend</text>
<polygon fill="#ffffb3" stroke="transparent" points="14,-10 14,-30 34,-30 34,-10 14,-10"/>
<text text-anchor="start" x="37.629" y="-15.4" font-family="sans-serif" font-size="14.00" fill="#000000"> &#160;Declarations</text>
<polygon fill="#8dd3c7" stroke="transparent" points="127,-10 127,-30 147,-30 147,-10 127,-10"/>
<text text-anchor="start" x="150.7251" y="-15.4" font-family="sans-serif" font-size="14.00" fill="#000000"> &#160;Module</text>
<polygon fill="#80b1d3" stroke="transparent" points="213,-10 213,-30 233,-30 233,-10 213,-10"/>
<text text-anchor="start" x="236.7812" y="-15.4" font-family="sans-serif" font-size="14.00" fill="#000000"> &#160;Bootstrap</text>
<polygon fill="#fdb462" stroke="transparent" points="310,-10 310,-30 330,-30 330,-10 310,-10"/>
<text text-anchor="start" x="333.6732" y="-15.4" font-family="sans-serif" font-size="14.00" fill="#000000"> &#160;Providers</text>
<polygon fill="#fb8072" stroke="transparent" points="406,-10 406,-30 426,-30 426,-10 406,-10"/>
<text text-anchor="start" x="429.7258" y="-15.4" font-family="sans-serif" font-size="14.00" fill="#000000"> &#160;Exports</text>
<g id="clust1" class="cluster">
<title>cluster_PostModule</title>
<polygon fill="none" stroke="#000000" stroke-dasharray="1,5" points="118,-70 118,-195 378,-195 378,-70 118,-70"/>
</g>
<g id="clust2" class="cluster">
<title>cluster_PostModule_declarations</title>
<polygon fill="none" stroke="#000000" points="248,-78 248,-130 370,-130 370,-78 248,-78"/>
</g>
<g id="clust4" class="cluster">
<title>cluster_PostModule_imports</title>
<polygon fill="none" stroke="#000000" points="126,-78 126,-130 240,-130 240,-78 126,-78"/>
</g>
<!-- PostComponent -->
<g id="node1" class="node">
<title>PostComponent</title>
<polygon fill="#ffffb3" stroke="#000000" points="361.9512,-122 256.0488,-122 256.0488,-86 361.9512,-86 361.9512,-122"/>
<text text-anchor="middle" x="309" y="-99.8" font-family="Times,serif" font-size="14.00" fill="#000000">PostComponent</text>
</g>
<!-- PostModule -->
<g id="node2" class="node">
<title>PostModule</title>
<polygon fill="#8dd3c7" stroke="#000000" points="287.6683,-187 284.6683,-191 263.6683,-191 260.6683,-187 204.3317,-187 204.3317,-151 287.6683,-151 287.6683,-187"/>
<text text-anchor="middle" x="246" y="-164.8" font-family="Times,serif" font-size="14.00" fill="#000000">PostModule</text>
</g>
<!-- PostComponent&#45;&gt;PostModule -->
<g id="edge1" class="edge">
<title>PostComponent&#45;&gt;PostModule</title>
<path fill="none" stroke="#000000" d="M272.0544,-122.1061C272.0544,-122.1061 272.0544,-140.991 272.0544,-140.991"/>
<polygon fill="#000000" stroke="#000000" points="268.5544,-140.9909 272.0544,-150.991 275.5544,-140.991 268.5544,-140.9909"/>
</g>
<!-- SharedModule -->
<g id="node3" class="node">
<title>SharedModule</title>
<polygon fill="#8dd3c7" stroke="#000000" points="232.4231,-122 229.4231,-126 208.4231,-126 205.4231,-122 133.5769,-122 133.5769,-86 232.4231,-86 232.4231,-122"/>
<text text-anchor="middle" x="183" y="-99.8" font-family="Times,serif" font-size="14.00" fill="#000000">SharedModule</text>
</g>
<!-- SharedModule&#45;&gt;PostModule -->
<g id="edge2" class="edge">
<title>SharedModule&#45;&gt;PostModule</title>
<path fill="none" stroke="#000000" d="M218.1887,-122.1061C218.1887,-122.1061 218.1887,-140.991 218.1887,-140.991"/>
<polygon fill="#000000" stroke="#000000" points="214.6887,-140.9909 218.1887,-150.991 221.6887,-140.991 214.6887,-140.9909"/>
</g>
</g>
</svg>
