<?xml version="1.0" encoding="UTF-8" standalone="no"?>
<!DOCTYPE svg PUBLIC "-//W3C//DTD SVG 1.1//EN"
 "http://www.w3.org/Graphics/SVG/1.1/DTD/svg11.dtd">
<!-- Generated by graphviz version 2.40.1 (20161225.0304)
 -->
<!-- Title: dependencies Pages: 1 -->
<svg width="504pt" height="276pt"
 viewBox="0.00 0.00 504.00 276.00" xmlns="http://www.w3.org/2000/svg" xmlns:xlink="http://www.w3.org/1999/xlink">
<g id="graph0" class="graph" transform="scale(1 1) rotate(0) translate(4 272)">
<title>dependencies</title>
<polygon fill="#ffffff" stroke="transparent" points="-4,4 -4,-272 500,-272 500,4 -4,4"/>
<text text-anchor="start" x="227.0091" y="-42.4" font-family="sans-serif" font-weight="bold" font-size="14.00" fill="#000000">Legend</text>
<polygon fill="#ffffb3" stroke="transparent" points="14,-10 14,-30 34,-30 34,-10 14,-10"/>
<text text-anchor="start" x="37.629" y="-15.4" font-family="sans-serif" font-size="14.00" fill="#000000"> &#160;Declarations</text>
<polygon fill="#8dd3c7" stroke="transparent" points="127,-10 127,-30 147,-30 147,-10 127,-10"/>
<text text-anchor="start" x="150.7251" y="-15.4" font-family="sans-serif" font-size="14.00" fill="#000000"> &#160;Module</text>
<polygon fill="#80b1d3" stroke="transparent" points="213,-10 213,-30 233,-30 233,-10 213,-10"/>
<text text-anchor="start" x="236.7812" y="-15.4" font-family="sans-serif" font-size="14.00" fill="#000000"> &#160;Bootstrap</text>
<polygon fill="#fdb462" stroke="transparent" points="310,-10 310,-30 330,-30 330,-10 310,-10"/>
<text text-anchor="start" x="333.6732" y="-15.4" font-family="sans-serif" font-size="14.00" fill="#000000"> &#160;Providers</text>
<polygon fill="#fb8072" stroke="transparent" points="406,-10 406,-30 426,-30 426,-10 406,-10"/>
<text text-anchor="start" x="429.7258" y="-15.4" font-family="sans-serif" font-size="14.00" fill="#000000"> &#160;Exports</text>
<g id="clust1" class="cluster">
<title>cluster_AddDreamjobModule</title>
<polygon fill="none" stroke="#000000" stroke-dasharray="1,5" points="90,-70 90,-260 406,-260 406,-70 90,-70"/>
</g>
<g id="clust2" class="cluster">
<title>cluster_AddDreamjobModule_declarations</title>
<polygon fill="none" stroke="#000000" points="220,-143 220,-195 398,-195 398,-143 220,-143"/>
</g>
<g id="clust3" class="cluster">
<title>cluster_AddDreamjobModule_AddDreamjobComponent_providers</title>
<polygon fill="none" stroke="#000000" points="223,-78 223,-130 395,-130 395,-78 223,-78"/>
</g>
<g id="clust4" class="cluster">
<title>cluster_AddDreamjobModule_imports</title>
<polygon fill="none" stroke="#000000" points="98,-143 98,-195 212,-195 212,-143 98,-143"/>
</g>
<!-- AddDreamjobComponent -->
<g id="node1" class="node">
<title>AddDreamjobComponent</title>
<polygon fill="#ffffb3" stroke="#000000" points="389.9171,-187 228.0829,-187 228.0829,-151 389.9171,-151 389.9171,-187"/>
<text text-anchor="middle" x="309" y="-164.8" font-family="Times,serif" font-size="14.00" fill="#000000">AddDreamjobComponent</text>
</g>
<!-- AddDreamjobModule -->
<g id="node2" class="node">
<title>AddDreamjobModule</title>
<polygon fill="#8dd3c7" stroke="#000000" points="307.6345,-252 304.6345,-256 283.6345,-256 280.6345,-252 168.3655,-252 168.3655,-216 307.6345,-216 307.6345,-252"/>
<text text-anchor="middle" x="238" y="-229.8" font-family="Times,serif" font-size="14.00" fill="#000000">AddDreamjobModule</text>
</g>
<!-- AddDreamjobComponent&#45;&gt;AddDreamjobModule -->
<g id="edge1" class="edge">
<title>AddDreamjobComponent&#45;&gt;AddDreamjobModule</title>
<path fill="none" stroke="#000000" d="M268.0544,-187.1061C268.0544,-187.1061 268.0544,-205.991 268.0544,-205.991"/>
<polygon fill="#000000" stroke="#000000" points="264.5544,-205.9909 268.0544,-215.991 271.5544,-205.991 264.5544,-205.9909"/>
</g>
<!-- CompanyService -->
<g id="node3" class="node">
<title>CompanyService</title>
<ellipse fill="#fdb462" stroke="#000000" cx="309" cy="-104" rx="77.5897" ry="18"/>
<text text-anchor="middle" x="309" y="-99.8" font-family="Times,serif" font-size="14.00" fill="#000000">CompanyService</text>
</g>
<!-- CompanyService&#45;&gt;AddDreamjobComponent -->
<g id="edge2" class="edge">
<title>CompanyService&#45;&gt;AddDreamjobComponent</title>
<path fill="none" stroke="#000000" d="M309,-122.1061C309,-122.1061 309,-140.991 309,-140.991"/>
<polygon fill="#000000" stroke="#000000" points="305.5001,-140.9909 309,-150.991 312.5001,-140.991 305.5001,-140.9909"/>
</g>
<!-- SharedModule -->
<g id="node4" class="node">
<title>SharedModule</title>
<polygon fill="#8dd3c7" stroke="#000000" points="204.4231,-187 201.4231,-191 180.4231,-191 177.4231,-187 105.5769,-187 105.5769,-151 204.4231,-151 204.4231,-187"/>
<text text-anchor="middle" x="155" y="-164.8" font-family="Times,serif" font-size="14.00" fill="#000000">SharedModule</text>
</g>
<!-- SharedModule&#45;&gt;AddDreamjobModule -->
<g id="edge3" class="edge">
<title>SharedModule&#45;&gt;AddDreamjobModule</title>
<path fill="none" stroke="#000000" d="M186.1971,-187.1061C186.1971,-187.1061 186.1971,-205.991 186.1971,-205.991"/>
<polygon fill="#000000" stroke="#000000" points="182.6971,-205.9909 186.1971,-215.991 189.6971,-205.991 182.6971,-205.9909"/>
</g>
</g>
</svg>
