<?xml version="1.0" encoding="UTF-8" standalone="no"?>
<!DOCTYPE svg PUBLIC "-//W3C//DTD SVG 1.1//EN"
 "http://www.w3.org/Graphics/SVG/1.1/DTD/svg11.dtd">
<!-- Generated by graphviz version 2.40.1 (20161225.0304)
 -->
<!-- Title: dependencies Pages: 1 -->
<svg width="504pt" height="211pt"
 viewBox="0.00 0.00 504.00 211.00" xmlns="http://www.w3.org/2000/svg" xmlns:xlink="http://www.w3.org/1999/xlink">
<g id="graph0" class="graph" transform="scale(1 1) rotate(0) translate(4 207)">
<title>dependencies</title>
<polygon fill="#ffffff" stroke="transparent" points="-4,4 -4,-207 500,-207 500,4 -4,4"/>
<text text-anchor="start" x="227.0091" y="-42.4" font-family="sans-serif" font-weight="bold" font-size="14.00" fill="#000000">Legend</text>
<polygon fill="#ffffb3" stroke="transparent" points="14,-10 14,-30 34,-30 34,-10 14,-10"/>
<text text-anchor="start" x="37.629" y="-15.4" font-family="sans-serif" font-size="14.00" fill="#000000"> &#160;Declarations</text>
<polygon fill="#8dd3c7" stroke="transparent" points="127,-10 127,-30 147,-30 147,-10 127,-10"/>
<text text-anchor="start" x="150.7251" y="-15.4" font-family="sans-serif" font-size="14.00" fill="#000000"> &#160;Module</text>
<polygon fill="#80b1d3" stroke="transparent" points="213,-10 213,-30 233,-30 233,-10 213,-10"/>
<text text-anchor="start" x="236.7812" y="-15.4" font-family="sans-serif" font-size="14.00" fill="#000000"> &#160;Bootstrap</text>
<polygon fill="#fdb462" stroke="transparent" points="310,-10 310,-30 330,-30 330,-10 310,-10"/>
<text text-anchor="start" x="333.6732" y="-15.4" font-family="sans-serif" font-size="14.00" fill="#000000"> &#160;Providers</text>
<polygon fill="#fb8072" stroke="transparent" points="406,-10 406,-30 426,-30 426,-10 406,-10"/>
<text text-anchor="start" x="429.7258" y="-15.4" font-family="sans-serif" font-size="14.00" fill="#000000"> &#160;Exports</text>
<g id="clust1" class="cluster">
<title>cluster_DetailModule</title>
<polygon fill="none" stroke="#000000" stroke-dasharray="1,5" points="111,-70 111,-195 385,-195 385,-70 111,-70"/>
</g>
<g id="clust2" class="cluster">
<title>cluster_DetailModule_declarations</title>
<polygon fill="none" stroke="#000000" points="241,-78 241,-130 377,-130 377,-78 241,-78"/>
</g>
<g id="clust4" class="cluster">
<title>cluster_DetailModule_imports</title>
<polygon fill="none" stroke="#000000" points="119,-78 119,-130 233,-130 233,-78 119,-78"/>
</g>
<!-- DetailsComponent -->
<g id="node1" class="node">
<title>DetailsComponent</title>
<polygon fill="#ffffb3" stroke="#000000" points="369.4846,-122 248.5154,-122 248.5154,-86 369.4846,-86 369.4846,-122"/>
<text text-anchor="middle" x="309" y="-99.8" font-family="Times,serif" font-size="14.00" fill="#000000">DetailsComponent</text>
</g>
<!-- DetailModule -->
<g id="node2" class="node">
<title>DetailModule</title>
<polygon fill="#8dd3c7" stroke="#000000" points="288.7577,-187 285.7577,-191 264.7577,-191 261.7577,-187 195.2423,-187 195.2423,-151 288.7577,-151 288.7577,-187"/>
<text text-anchor="middle" x="242" y="-164.8" font-family="Times,serif" font-size="14.00" fill="#000000">DetailModule</text>
</g>
<!-- DetailsComponent&#45;&gt;DetailModule -->
<g id="edge1" class="edge">
<title>DetailsComponent&#45;&gt;DetailModule</title>
<path fill="none" stroke="#000000" d="M268.6932,-122.1061C268.6932,-122.1061 268.6932,-140.991 268.6932,-140.991"/>
<polygon fill="#000000" stroke="#000000" points="265.1933,-140.9909 268.6932,-150.991 272.1933,-140.991 265.1933,-140.9909"/>
</g>
<!-- SharedModule -->
<g id="node3" class="node">
<title>SharedModule</title>
<polygon fill="#8dd3c7" stroke="#000000" points="225.4231,-122 222.4231,-126 201.4231,-126 198.4231,-122 126.5769,-122 126.5769,-86 225.4231,-86 225.4231,-122"/>
<text text-anchor="middle" x="176" y="-99.8" font-family="Times,serif" font-size="14.00" fill="#000000">SharedModule</text>
</g>
<!-- SharedModule&#45;&gt;DetailModule -->
<g id="edge2" class="edge">
<title>SharedModule&#45;&gt;DetailModule</title>
<path fill="none" stroke="#000000" d="M210.1662,-122.1061C210.1662,-122.1061 210.1662,-140.991 210.1662,-140.991"/>
<polygon fill="#000000" stroke="#000000" points="206.6663,-140.9909 210.1662,-150.991 213.6663,-140.991 206.6663,-140.9909"/>
</g>
</g>
</svg>
