<svg id="Capa_1" enable-background="new 0 0 512 512" height="512" viewBox="0 0 512 512" width="512" xmlns="http://www.w3.org/2000/svg"><g><path d="m15 286h181v90h-181z" fill="#cce6ff"/><path d="m0 106h30v360h-30z" fill="#405580"/><path d="m512 466h-30v-75l30 15z" fill="#283d66"/><path d="m121 286c-33.091 0-60-26.909-60-60s26.909-60 60-60 60 26.909 60 60-26.909 60-60 60z" fill="#ffd5cc"/><path d="m181 196v210h331v-210z" fill="#9cf"/><path d="m253.9 136h17.1v30h-72.9l30-45h-17.1v-30h72.9z" fill="#405580"/><path d="m376 121h-73.022l30-45h-16.978v-30h73.022l-30 45h16.978z" fill="#283d66"/><path d="m253.9 136h17.1v30h-30v-75h42.9z" fill="#283d66"/><path d="m241 196h271v210h-271z" fill="#80aaff"/></g></svg>