<svg id="Capa_1" enable-background="new 0 0 512 512" height="512" viewBox="0 0 512 512" width="512" xmlns="http://www.w3.org/2000/svg"><g><path d="m379.099 428.143h-40.65v-30h40.65c24.759 0 46.244-16.775 52.249-40.794l10.927-43.705c1.404-5.62.166-11.463-3.4-16.029-3.565-4.566-8.933-7.186-14.727-7.186h-60.145v-30h60.145c15.096 0 29.082 6.824 38.373 18.723 9.29 11.899 12.519 27.123 8.857 41.769l-10.927 43.705c-9.349 37.396-42.803 63.517-81.352 63.517z" fill="#719c32"/><path d="m39.147 226v101.07c0 93.85 76.08 169.93 169.93 169.93s169.93-76.08 169.93-169.93v-101.07z" fill="#bde239"/><path d="m379.007 226v101.07c0 93.85-76.08 169.93-169.93 169.93v-271z" fill="#8bbc43"/><path d="m465.067 0v30c0 65.22-53.07 118.29-118.29 118.29h-137.71c-10.71 0-19.43 8.71-19.43 19.43v34.42h-30v-34.42c0-27.26 22.17-49.43 49.43-49.43h137.71c48.68 0 88.29-39.61 88.29-88.29v-30z" fill="#e6f3ff"/><path d="m396.207 0v34.43c0 27.25-22.17 49.43-49.43 49.43h-137.71c-48.68 0-88.29 39.6-88.29 88.29v29.99h-30v-29.99c0-65.23 53.07-118.29 118.29-118.29h137.71c10.72 0 19.43-8.72 19.43-19.43v-34.43z" fill="#e6f3ff"/><path d="m39.267 482h339.62v30h-339.62z" fill="#8bbc43"/><path d="m209.077 482h169.81v30h-169.81z" fill="#719c32"/></g></svg>