<svg id="Capa_1" enable-background="new 0 0 511.969 511.969" height="512" viewBox="0 0 511.969 511.969" width="512" xmlns="http://www.w3.org/2000/svg"><g><path d="m472.574 253.837c-4.267 0-7.726-3.459-7.726-7.726v-114.489c0-4.267 3.459-7.726 7.726-7.726s7.726 3.459 7.726 7.726v114.488c.001 4.268-3.459 7.727-7.726 7.727z" fill="#db5c6e"/><path d="m64.91 456.577h-36.554v44.766c0 4.252 3.447 7.7 7.7 7.7h12.147c3.676 0 6.84-2.599 7.553-6.205z" fill="#365e7d"/><path d="m255.502 456.577h36.555v44.766c0 4.252-3.447 7.7-7.7 7.7h-12.147c-3.676 0-6.84-2.599-7.553-6.205z" fill="#365e7d"/><path d="m160.944 146.942c0 1.421-.048 2.852-.144 4.299-1.258 19.062-10.671 40.032-24.663 54.286-6.103 6.221-13.081 11.158-20.627 14.099-4.974 1.945-10.195 3.015-15.582 3.015s-10.608-1.07-15.582-3.015c-4.284-1.668-8.383-3.985-12.247-6.808-19.704-14.431-33.187-42.201-33.187-65.876 0-6.04.875-11.546 2.513-16.516 1.631-4.97 4.026-9.398 7.055-13.291 12.235-18.243 16.397-31.342 16.183-40.725-.037-1.867-.251-3.583-.609-5.166-.572-2.535-1.517-4.723-2.712-6.612-.838-1.339-1.808-2.524-2.856-3.572h82.883c-2.531 2.531-4.59 5.852-5.568 10.184-.428 1.893-.649 3.981-.616 6.28.133 9.302 4.435 22.08 16.191 39.611 5.136 6.601 8.443 14.748 9.328 24.438.158 1.742.24 3.531.24 5.369z" fill="#ededed"/><path d="m99.931 222.643c-5.389 0-10.611-1.069-15.585-3.021-4.278-1.661-8.379-3.977-12.241-6.801-19.707-14.432-33.194-42.206-33.194-65.879 0-6.043.883-11.546 2.513-16.519 1.63-4.963 4.029-9.396 7.06-13.29 12.231-18.243 16.395-31.336 16.187-40.722-.042-1.869-.26-3.582-.613-5.171-.571-2.533-1.516-4.714-2.71-6.603-.841-1.339-1.807-2.523-2.855-3.572h24.535c.426 1.049.82 2.232 1.163 3.572.488 1.89.872 4.07 1.111 6.603.145 1.589.228 3.302.249 5.171.083 9.386-1.609 22.479-6.603 40.722-1.236 3.894-2.212 8.327-2.876 13.29-.675 4.973-1.028 10.476-1.028 16.519 0 23.673 5.503 51.447 13.539 65.879 1.568 2.824 3.25 5.139 4.994 6.801 2.025 1.952 4.153 3.021 6.354 3.021z" fill="#dbdbdb"/><path d="m364.325 509.043v-418.509c0-8.601 6.973-15.574 15.574-15.574s15.574 6.973 15.574 15.574v418.509z" fill="#407093"/><path d="m387.686 77.047c-4.651 2.7-7.787 7.725-7.787 13.487v418.513h-15.574v-418.513c0-8.597 6.977-15.574 15.574-15.574 2.835 0 5.493.758 7.787 2.087z" fill="#365e7d"/><path d="m160.325 485.773c-45.98 0-92.608-2.035-138.589-6.049-7.814-.683-14.127-6.816-15.01-14.584-8.967-78.925-8.967-158.961 0-237.886.883-7.769 7.196-13.902 15.01-14.584 45.981-4.014 92.609-6.049 138.589-6.049s92.608 2.035 138.589 6.049c7.814.682 14.127 6.815 15.01 14.584 8.967 78.925 8.967 158.961 0 237.886-.882 7.768-7.195 13.901-15.01 14.584-45.982 4.014-92.609 6.049-138.589 6.049z" fill="#845c47"/><path d="m31.193 353.925h258.267c-.237 31.966-1.968 63.933-5.202 95.766-41.259 3.276-82.837 4.935-123.931 4.935s-82.672-1.659-123.931-4.935c-3.235-31.833-4.966-63.799-5.203-95.766z" fill="#986b54"/><path d="m289.46 338.473h-258.267c.237-31.977 1.968-63.933 5.202-95.766 41.259-3.276 82.837-4.934 123.931-4.934s82.672 1.658 123.931 4.934c3.235 31.832 4.966 63.789 5.203 95.766z" fill="#986b54"/><path d="m498.762 163.919c-10.714 2.555-26.785 5.965-46.338 8.798-4.914.711-10.055 1.391-15.381 2.009-17.359 2.019-36.757 3.42-57.144 3.42s-39.786-1.401-57.144-3.42c-5.326-.618-10.456-1.298-15.37-2.009-19.553-2.833-35.634-6.243-46.348-8.798-8.55-2.04-14.196-10.209-13.063-18.924 7.119-54.847 31.132-107.613 42.577-130.359 3.616-7.18 10.961-11.713 19.007-11.713h140.682c8.046 0 15.391 4.533 19.007 11.713 11.445 22.746 35.459 75.512 42.577 130.359 1.134 8.714-4.522 16.884-13.062 18.924z" fill="#ffd064"/><path d="m340.397 2.933c-4.517 0-8.639 4.516-10.674 11.702-6.427 22.749-23.621 96.228-27.608 151.071-.156 2.149-.083 4.257.187 6.25-17.267-2.668-31.491-5.711-41.262-8.036-8.555-2.035-14.204-10.217-13.072-18.928 7.123-54.832 31.128-107.608 42.58-130.357 3.613-7.185 10.964-11.702 19.001-11.702h30.848z" fill="#ffc250"/><path d="m328.988 2.922c-5.47 27.599-18.08 97.383-21.603 169.794 4.914.711 10.044 1.391 15.37 2.009 3.513-74.626 16.947-146.77 21.994-171.803h-15.761z" fill="#e49542"/><path d="m430.801 2.922h-15.762c5.038 24.941 18.481 97.126 22.005 171.803 5.326-.618 10.467-1.298 15.381-2.009-3.524-72.411-16.154-142.196-21.624-169.794z" fill="#e49542"/><path d="m411.529 477.325h-63.26c-11.599 0-21.003 9.403-21.003 21.003v10.715h105.265v-10.715c.001-11.6-9.402-21.003-21.002-21.003z" fill="#ffd064"/><path d="m377.852 477.323c-11.598 0-21.005 9.407-21.005 21.005v10.715h-29.581v-10.715c0-11.598 9.407-21.005 21.005-21.005z" fill="#ffc250"/><circle cx="160.324" cy="292.003" fill="#ededed" r="18.085"/><circle cx="160.324" cy="400.391" fill="#ededed" r="18.085"/><g fill="#dbdbdb"><path d="m160.943 154.668h-122.176c-4.267 0-7.726-3.459-7.726-7.726s3.459-7.726 7.726-7.726h122.176c4.267 0 7.726 3.459 7.726 7.726.001 4.267-3.458 7.726-7.726 7.726z"/><path d="m141.369 68.792h-82.876c-4.267 0-7.726-3.459-7.726-7.726s3.459-7.726 7.726-7.726h82.875c4.267 0 7.726 3.459 7.726 7.726s-3.458 7.726-7.725 7.726z"/></g></g></svg>