<svg id="bold" enable-background="new 0 0 32 32" height="512" viewBox="0 0 32 32" width="512" xmlns="http://www.w3.org/2000/svg"><path d="m26 32h-20c-3.314 0-6-2.686-6-6v-20c0-3.314 2.686-6 6-6h20c3.314 0 6 2.686 6 6v20c0 3.314-2.686 6-6 6z" fill="#ffe6e2"/><g fill="#fc573b"><path d="m14.665 14.167c-.184 0-.333.149-.333.333v2c0 .184.15.333.333.333s.333-.149.333-.333v-2c.001-.184-.149-.333-.333-.333z"/><path d="m22.826 12.5h-.161v-.167c0-1.011-.823-1.833-1.833-1.833h-11c-1.011 0-1.833.822-1.833 1.833v6.333c0 1.011.823 1.833 1.833 1.833h11c1.011 0 1.833-.822 1.833-1.833v-.166h.161c.643 0 1.167-.523 1.167-1.167v-3.667c0-.643-.524-1.166-1.167-1.166zm-10.661 5.333h-1c-.276 0-.5-.224-.5-.5v-3.667c0-.276.224-.5.5-.5s.5.224.5.5v3.167h.5c.276 0 .5.224.5.5s-.224.5-.5.5zm3.834-1.333c0 .735-.598 1.333-1.333 1.333s-1.333-.598-1.333-1.333v-2c0-.735.598-1.333 1.333-1.333s1.333.598 1.333 1.333zm4.162.901c-.031.223-.206.397-.428.428-.023.003-.045.005-.067.005-.198 0-.38-.118-.46-.303l-.54-1.261-.54 1.261c-.089.206-.301.327-.527.299-.223-.03-.398-.205-.428-.428l-.5-3.667c-.037-.274.154-.526.428-.563.268-.037.525.154.563.428l.256 1.878.289-.674c.158-.368.762-.368.919 0l.289.674.256-1.878c.038-.274.295-.465.563-.428.273.037.465.289.428.563z"/></g></svg>