<?xml version="1.0" encoding="iso-8859-1"?>
<!-- Generator: Adobe Illustrator 19.0.0, SVG Export Plug-In . SVG Version: 6.00 Build 0)  -->
<svg version="1.1" id="Capa_1" xmlns="http://www.w3.org/2000/svg" xmlns:xlink="http://www.w3.org/1999/xlink" x="0px" y="0px"
	 viewBox="0 0 496 496" style="enable-background:new 0 0 496 496;" xml:space="preserve">
<circle style="fill:#92E0C0;" cx="141.656" cy="48" r="40"/>
<path style="fill:#FFEAA7;" d="M389.656,120.44h-48c-35.344,0-64,28.656-64,64v96c0,16.152,12.016,29.368,27.576,31.544L293.656,384
	h24l8,104h40h40l8-104h24l-11.576-72.016c15.56-2.176,27.576-15.392,27.576-31.544v-96C453.656,149.096,425,120.44,389.656,120.44z"
	/>
<g>
	<path style="fill:#FFC729;" d="M282.728,297.56L301.656,184h8c0,9.168,5.2,17.04,12.76,21.08l-17.184,106.904
		C295.768,310.664,287.664,305.232,282.728,297.56z"/>
	<path style="fill:#FFC729;" d="M448.584,297.56L429.656,184h-8c0,9.168-5.2,17.04-12.76,21.08l17.184,106.904
		C435.544,310.664,443.648,305.232,448.584,297.56z"/>
	<polygon style="fill:#FFC729;" points="413.656,384 317.656,384 319.504,408 411.808,408 	"/>
</g>
<path style="fill:#92E0C0;" d="M165.656,120h-48c-35.344,0-64,28.656-64,64v96c0,17.672,14.328,32,32,32h3.368l4.008,152.32
	C93.376,477.496,104.16,488,117.336,488c13.432,0,24.32-10.888,24.32-24.312c0,13.424,10.888,24.312,24.312,24.312
	c13.176,0,23.96-10.504,24.304-23.68L194.288,312h3.368c17.672,0,32-14.328,32-32v-96C229.656,148.656,201,120,165.656,120z"/>
<g>
	<path style="fill:#48C397;" d="M56.424,292.928C61.4,304.144,72.592,312,85.656,312V184L56.424,292.928z"/>
	<path style="fill:#48C397;" d="M197.656,184v128c13.064,0,24.256-7.856,29.232-19.072L197.656,184z"/>
</g>
<circle style="fill:#FFEAA7;" cx="365.656" cy="48" r="40"/>
<path d="M165.656,112h-48c-39.696,0-72,32.296-72,72v96c0,20.536,15.616,37.312,35.568,39.552l3.816,144.976
	C85.496,482.176,99.688,496,117.336,496c9.744,0,18.384-4.424,24.32-11.264c5.928,6.84,14.576,11.264,24.32,11.264
	c17.648,0,31.84-13.824,32.304-31.472l3.816-144.976c19.944-2.24,35.56-19.016,35.56-39.552v-96
	C237.656,144.296,205.352,112,165.656,112z M221.656,280c0,11.568-8.232,21.248-19.144,23.504l3.144-119.296l-16-0.416
	l-7.376,280.32c-0.232,8.912-7.4,15.888-16.304,15.888c-9,0-16.32-7.32-16.32-16.312V328h-16v135.688
	c0,8.992-7.32,16.312-16.32,16.312c-8.912,0-16.08-6.976-16.312-15.888l-7.368-280.32l-16,0.416l3.136,119.296
	C69.888,301.248,61.656,291.568,61.656,280v-96c0-30.872,25.12-56,56-56h48c30.88,0,56,25.128,56,56V280z"/>
<path d="M389.656,112.44h-48c-39.696,0-72,32.296-72,72v96c0,16.992,10.976,31.84,26.528,37.44L284.272,392h25.976l8,104h39.408h16
	h39.408l8-104h25.976l-11.912-74.128c15.552-5.6,26.528-20.44,26.528-37.44v-96C461.656,144.736,429.352,112.44,389.656,112.44z
	 M333.064,480l-6.768-88h31.36v88H333.064z M398.248,480h-24.592v-88h31.36L398.248,480z M445.656,280.44
	c0,9.128-5.312,17.208-13.136,21.2l-14.904-92.76c7.544-6.008,12.04-15.104,12.04-24.88c0-17.648-14.352-32-32-32v16
	c8.824,0,16,7.176,16,16c0,5.832-3.272,11.208-8.528,14.024l-5.032,2.688L428.272,376H303.04l28.176-175.288l-5.032-2.688
	c-5.256-2.816-8.528-8.192-8.528-14.024c0-8.824,7.176-16,16-16v-16c-17.648,0-32,14.352-32,32c0,9.776,4.496,18.872,12.04,24.88
	l-14.904,92.752c-7.824-4-13.136-12.08-13.136-21.2v-96c0-30.872,25.12-56,56-56h48c30.88,0,56,25.128,56,56L445.656,280.44
	L445.656,280.44z"/>
<path d="M493.656,40h-24V24h-16v16h-40.72c-3.832-22.664-23.544-40-47.28-40c-26.472,0-48,21.528-48,48s21.528,48,48,48
	c23.736,0,43.448-17.336,47.28-40h40.72v16h16V56h24V40z M365.656,80c-17.648,0-32-14.352-32-32s14.352-32,32-32s32,14.352,32,32
	S383.304,80,365.656,80z"/>
<path d="M59.312,82.344L32.968,56h61.408c3.824,22.664,23.536,40,47.28,40c26.472,0,48-21.528,48-48s-21.528-48-48-48
	c-23.736,0-43.448,17.336-47.28,40H32.968l26.344-26.344L48,2.344L2.344,48L48,93.656L59.312,82.344z M141.656,16
	c17.648,0,32,14.352,32,32s-14.352,32-32,32s-32-14.352-32-32S124.008,16,141.656,16z"/>
<g>
</g>
<g>
</g>
<g>
</g>
<g>
</g>
<g>
</g>
<g>
</g>
<g>
</g>
<g>
</g>
<g>
</g>
<g>
</g>
<g>
</g>
<g>
</g>
<g>
</g>
<g>
</g>
<g>
</g>
</svg>
