<svg id="Capa_1" enable-background="new 0 0 510 510" height="512" viewBox="0 0 510 510" width="512" xmlns="http://www.w3.org/2000/svg" xmlns:xlink="http://www.w3.org/1999/xlink"><linearGradient id="lg1"><stop offset="0" stop-color="#0b799d"/><stop offset="1" stop-color="#07485e"/></linearGradient><linearGradient id="SVGID_1_" gradientUnits="userSpaceOnUse" x1="227.815" x2="287.676" xlink:href="#lg1" y1="395.246" y2="469.79"/><linearGradient id="lg2"><stop offset="0" stop-color="#07485e" stop-opacity="0"/><stop offset="1" stop-color="#03232e"/></linearGradient><linearGradient id="SVGID_2_" gradientUnits="userSpaceOnUse" x1="300.771" x2="241.438" xlink:href="#lg2" y1="471.755" y2="326.421"/><linearGradient id="SVGID_3_" gradientUnits="userSpaceOnUse" x1="244.984" x2="281.79" xlink:href="#lg1" y1="449.573" y2="550.79"/><linearGradient id="SVGID_4_" gradientUnits="userSpaceOnUse" x1="247.819" x2="258.717" xlink:href="#lg1" y1="267.659" y2="361.377"/><linearGradient id="SVGID_5_" gradientUnits="userSpaceOnUse" x1="251.81" x2="258.953" xlink:href="#lg2" y1="321.616" y2="383.045"/><linearGradient id="SVGID_6_" gradientUnits="userSpaceOnUse" x1="306.156" x2="47.51" xlink:href="#lg2" y1="299.203" y2="177.145"/><linearGradient id="lg3"><stop offset="0" stop-color="#b9dd39"/><stop offset="1" stop-color="#90cc1c"/></linearGradient><linearGradient id="SVGID_7_" gradientUnits="userSpaceOnUse" x1="48.325" x2="69.221" xlink:href="#lg3" y1="325.544" y2="341.464"/><linearGradient id="SVGID_8_" gradientUnits="userSpaceOnUse" x1="158.927" x2="208.452" xlink:href="#lg3" y1="318.311" y2="367.835"/><linearGradient id="SVGID_9_" gradientUnits="userSpaceOnUse" x1="100.615" x2="150.139" xlink:href="#lg3" y1="318.311" y2="367.835"/><linearGradient id="SVGID_10_" gradientUnits="userSpaceOnUse" x1="379.6" x2="379.6" xlink:href="#lg2" y1="360.656" y2="277.675"/><linearGradient id="SVGID_11_" gradientUnits="userSpaceOnUse" x1="202.231" x2="284.727" xlink:href="#lg3" y1="32.256" y2="146.25"/><linearGradient id="SVGID_12_" gradientUnits="userSpaceOnUse" x1="175.326" x2="257.821" xlink:href="#lg3" y1="51.727" y2="165.722"/><linearGradient id="SVGID_13_" gradientUnits="userSpaceOnUse" x1="149.489" x2="231.985" xlink:href="#lg3" y1="70.425" y2="184.419"/><linearGradient id="SVGID_14_" gradientUnits="userSpaceOnUse" x1="315.498" x2="211.785" xlink:href="#lg2" y1="324.634" y2="220.921"/><linearGradient id="SVGID_15_" gradientUnits="userSpaceOnUse" x1="243.86" x2="266.14" xlink:href="#lg3" y1="244.831" y2="275.618"/><g><g><path d="m361.923 448.849c-35.869-11.594-60.172-44.991-60.172-82.686v-31.745h-93.501v31.745c0 37.696-24.303 71.093-60.172 82.686z" fill="url(#SVGID_1_)"/><path d="m361.922 448.849c-35.868-11.594-60.172-44.991-60.172-82.686v-31.745h-93.501v31.745c0 12.077-2.506 23.707-7.076 34.326l.005.01 48.35 48.35z" fill="url(#SVGID_2_)"/><path d="m402.987 490.587h-295.974c-6.223 0-11.267-5.044-11.267-11.267 0-19.975 16.193-36.168 36.168-36.168h246.172c19.975 0 36.168 16.193 36.168 36.168 0 6.222-5.044 11.267-11.267 11.267z" fill="url(#SVGID_3_)"/><g><path d="m478.215 398.606h-446.43c-17.554 0-31.785-14.231-31.785-31.785v-74.811c0-17.555 14.231-31.785 31.785-31.785h446.429c17.555 0 31.785 14.231 31.785 31.785v74.811c.001 17.554-14.23 31.785-31.784 31.785z" fill="url(#SVGID_4_)"/><path d="m0 329.415v37.405c0 17.555 14.231 31.785 31.785 31.785h446.429c17.555 0 31.785-14.231 31.785-31.785v-37.405z" fill="url(#SVGID_5_)"/><path d="m478.215 260.224h-223.215v138.382h223.215c17.555 0 31.785-14.231 31.785-31.785v-74.811c0-17.555-14.231-31.786-31.785-31.786z" fill="url(#SVGID_6_)"/><g><path d="m60.838 352.283h-14.864c-8.525 0-15.436-6.911-15.436-15.436v-14.864c0-8.525 6.911-15.436 15.436-15.436h14.864c8.525 0 15.436 6.911 15.436 15.436v14.864c0 8.525-6.911 15.436-15.436 15.436z" fill="url(#SVGID_7_)"/><path d="m177.464 352.283h-14.864c-8.525 0-15.436-6.911-15.436-15.436v-14.864c0-8.525 6.911-15.436 15.436-15.436h14.864c8.525 0 15.436 6.911 15.436 15.436v14.864c0 8.525-6.911 15.436-15.436 15.436z" fill="url(#SVGID_8_)"/><path d="m119.151 352.283h-14.864c-8.525 0-15.436-6.911-15.436-15.436v-14.864c0-8.525 6.911-15.436 15.436-15.436h14.864c8.525 0 15.436 6.911 15.436 15.436v14.864c0 8.525-6.911 15.436-15.436 15.436z" fill="url(#SVGID_9_)"/></g><path d="m460.609 352.283h-162.017c-9.229 0-16.71-7.481-16.71-16.71v-15.603c0-9.229 7.481-16.71 16.71-16.71h162.017c9.229 0 16.71 7.481 16.71 16.71v15.602c0 9.23-7.482 16.711-16.71 16.711z" fill="url(#SVGID_10_)"/></g></g><g><path d="m403.139 130.173c-6.341 0-12.684-2.396-17.555-7.201-35.016-34.538-81.391-53.559-130.584-53.559s-95.568 19.021-130.584 53.559c-9.83 9.695-25.659 9.586-35.354-.243-9.696-9.83-9.587-25.658.243-35.354 44.431-43.826 103.277-67.962 165.695-67.962 62.419 0 121.264 24.136 165.695 67.961 9.83 9.696 9.938 25.524.243 35.354-4.891 4.96-11.344 7.445-17.799 7.445z" fill="url(#SVGID_11_)"/><path d="m163.511 186.824c-6.49 0-12.974-2.511-17.871-7.517-9.656-9.869-9.483-25.697.386-35.354 29.286-28.651 67.986-44.43 108.974-44.43s79.689 15.779 108.974 44.431c9.869 9.656 10.042 25.484.387 35.354-9.657 9.869-25.484 10.042-35.354.387-19.886-19.456-46.168-30.171-74.007-30.171-27.838 0-54.121 10.715-74.007 30.171-4.864 4.757-11.176 7.129-17.482 7.129z" fill="url(#SVGID_12_)"/><path d="m292.086 241.224c-6.172 0-12.354-2.271-17.188-6.851-5.392-5.107-12.458-7.92-19.897-7.92s-14.505 2.813-19.897 7.92c-10.025 9.496-25.848 9.067-35.342-.957-9.496-10.023-9.067-25.847.957-35.342 14.718-13.942 33.997-21.621 54.283-21.621s39.564 7.679 54.282 21.621c10.024 9.495 10.452 25.318.957 35.342-4.918 5.19-11.53 7.808-18.155 7.808z" fill="url(#SVGID_13_)"/></g><path d="m274 260.224h-36.999c0 5.982 1.77 11.311 6.091 14.794l123.588 123.588h45.702z" fill="url(#SVGID_14_)"/><circle cx="255" cy="260.224" fill="url(#SVGID_15_)" r="19"/></g></svg>