<?xml version="1.0" encoding="UTF-8" standalone="no"?>
<!DOCTYPE svg PUBLIC "-//W3C//DTD SVG 1.1//EN"
 "http://www.w3.org/Graphics/SVG/1.1/DTD/svg11.dtd">
<!-- Generated by graphviz version 2.40.1 (20161225.0304)
 -->
<!-- Title: dependencies Pages: 1 -->
<svg width="510pt" height="211pt"
 viewBox="0.00 0.00 510.00 211.00" xmlns="http://www.w3.org/2000/svg" xmlns:xlink="http://www.w3.org/1999/xlink">
<g id="graph0" class="graph" transform="scale(1 1) rotate(0) translate(4 207)">
<title>dependencies</title>
<polygon fill="#ffffff" stroke="transparent" points="-4,4 -4,-207 506,-207 506,4 -4,4"/>
<text text-anchor="start" x="230.0091" y="-42.4" font-family="sans-serif" font-weight="bold" font-size="14.00" fill="#000000">Legend</text>
<polygon fill="#ffffb3" stroke="transparent" points="17,-10 17,-30 37,-30 37,-10 17,-10"/>
<text text-anchor="start" x="40.629" y="-15.4" font-family="sans-serif" font-size="14.00" fill="#000000"> &#160;Declarations</text>
<polygon fill="#8dd3c7" stroke="transparent" points="130,-10 130,-30 150,-30 150,-10 130,-10"/>
<text text-anchor="start" x="153.7251" y="-15.4" font-family="sans-serif" font-size="14.00" fill="#000000"> &#160;Module</text>
<polygon fill="#80b1d3" stroke="transparent" points="216,-10 216,-30 236,-30 236,-10 216,-10"/>
<text text-anchor="start" x="239.7812" y="-15.4" font-family="sans-serif" font-size="14.00" fill="#000000"> &#160;Bootstrap</text>
<polygon fill="#fdb462" stroke="transparent" points="313,-10 313,-30 333,-30 333,-10 313,-10"/>
<text text-anchor="start" x="336.6732" y="-15.4" font-family="sans-serif" font-size="14.00" fill="#000000"> &#160;Providers</text>
<polygon fill="#fb8072" stroke="transparent" points="409,-10 409,-30 429,-30 429,-10 409,-10"/>
<text text-anchor="start" x="432.7258" y="-15.4" font-family="sans-serif" font-size="14.00" fill="#000000"> &#160;Exports</text>
<g id="clust1" class="cluster">
<title>cluster_SellingModule</title>
<polygon fill="none" stroke="#000000" stroke-dasharray="1,5" points="8,-70 8,-195 494,-195 494,-70 8,-70"/>
</g>
<g id="clust2" class="cluster">
<title>cluster_SellingModule_declarations</title>
<polygon fill="none" stroke="#000000" points="300,-78 300,-130 486,-130 486,-78 300,-78"/>
</g>
<g id="clust4" class="cluster">
<title>cluster_SellingModule_imports</title>
<polygon fill="none" stroke="#000000" points="16,-78 16,-130 292,-130 292,-78 16,-78"/>
</g>
<!-- SellingProductsComponent -->
<g id="node1" class="node">
<title>SellingProductsComponent</title>
<polygon fill="#ffffb3" stroke="#000000" points="477.9944,-122 308.0056,-122 308.0056,-86 477.9944,-86 477.9944,-122"/>
<text text-anchor="middle" x="393" y="-99.8" font-family="Times,serif" font-size="14.00" fill="#000000">SellingProductsComponent</text>
</g>
<!-- SellingModule -->
<g id="node2" class="node">
<title>SellingModule</title>
<polygon fill="#8dd3c7" stroke="#000000" points="261.719,-187 258.719,-191 237.719,-191 234.719,-187 162.281,-187 162.281,-151 261.719,-151 261.719,-187"/>
<text text-anchor="middle" x="212" y="-164.8" font-family="Times,serif" font-size="14.00" fill="#000000">SellingModule</text>
</g>
<!-- SellingProductsComponent&#45;&gt;SellingModule -->
<g id="edge1" class="edge">
<title>SellingProductsComponent&#45;&gt;SellingModule</title>
<path fill="none" stroke="#000000" d="M393,-122.1061C393,-141.3391 393,-169 393,-169 393,-169 271.9382,-169 271.9382,-169"/>
<polygon fill="#000000" stroke="#000000" points="271.9382,-165.5001 261.9382,-169 271.9381,-172.5001 271.9382,-165.5001"/>
</g>
<!-- SellingRoutingModule -->
<g id="node3" class="node">
<title>SellingRoutingModule</title>
<polygon fill="#8dd3c7" stroke="#000000" points="284.337,-122 281.337,-126 260.337,-126 257.337,-122 139.663,-122 139.663,-86 284.337,-86 284.337,-122"/>
<text text-anchor="middle" x="212" y="-99.8" font-family="Times,serif" font-size="14.00" fill="#000000">SellingRoutingModule</text>
</g>
<!-- SellingRoutingModule&#45;&gt;SellingModule -->
<g id="edge2" class="edge">
<title>SellingRoutingModule&#45;&gt;SellingModule</title>
<path fill="none" stroke="#000000" d="M212,-122.1061C212,-122.1061 212,-140.991 212,-140.991"/>
<polygon fill="#000000" stroke="#000000" points="208.5001,-140.9909 212,-150.991 215.5001,-140.991 208.5001,-140.9909"/>
</g>
<!-- SharedModule -->
<g id="node4" class="node">
<title>SharedModule</title>
<polygon fill="#8dd3c7" stroke="#000000" points="122.4231,-122 119.4231,-126 98.4231,-126 95.4231,-122 23.5769,-122 23.5769,-86 122.4231,-86 122.4231,-122"/>
<text text-anchor="middle" x="73" y="-99.8" font-family="Times,serif" font-size="14.00" fill="#000000">SharedModule</text>
</g>
<!-- SharedModule&#45;&gt;SellingModule -->
<g id="edge3" class="edge">
<title>SharedModule&#45;&gt;SellingModule</title>
<path fill="none" stroke="#000000" d="M73,-122.1061C73,-141.3391 73,-169 73,-169 73,-169 152.2104,-169 152.2104,-169"/>
<polygon fill="#000000" stroke="#000000" points="152.2105,-172.5001 162.2104,-169 152.2104,-165.5001 152.2105,-172.5001"/>
</g>
</g>
</svg>
