<?xml version="1.0" encoding="UTF-8" standalone="no"?>
<!DOCTYPE svg PUBLIC "-//W3C//DTD SVG 1.1//EN"
 "http://www.w3.org/Graphics/SVG/1.1/DTD/svg11.dtd">
<!-- Generated by graphviz version 2.40.1 (20161225.0304)
 -->
<!-- Title: dependencies Pages: 1 -->
<svg width="717pt" height="276pt"
 viewBox="0.00 0.00 717.00 276.00" xmlns="http://www.w3.org/2000/svg" xmlns:xlink="http://www.w3.org/1999/xlink">
<g id="graph0" class="graph" transform="scale(1 1) rotate(0) translate(4 272)">
<title>dependencies</title>
<polygon fill="#ffffff" stroke="transparent" points="-4,4 -4,-272 713,-272 713,4 -4,4"/>
<text text-anchor="start" x="333.5091" y="-42.4" font-family="sans-serif" font-weight="bold" font-size="14.00" fill="#000000">Legend</text>
<polygon fill="#ffffb3" stroke="transparent" points="120.5,-10 120.5,-30 140.5,-30 140.5,-10 120.5,-10"/>
<text text-anchor="start" x="144.129" y="-15.4" font-family="sans-serif" font-size="14.00" fill="#000000"> &#160;Declarations</text>
<polygon fill="#8dd3c7" stroke="transparent" points="233.5,-10 233.5,-30 253.5,-30 253.5,-10 233.5,-10"/>
<text text-anchor="start" x="257.2251" y="-15.4" font-family="sans-serif" font-size="14.00" fill="#000000"> &#160;Module</text>
<polygon fill="#80b1d3" stroke="transparent" points="319.5,-10 319.5,-30 339.5,-30 339.5,-10 319.5,-10"/>
<text text-anchor="start" x="343.2812" y="-15.4" font-family="sans-serif" font-size="14.00" fill="#000000"> &#160;Bootstrap</text>
<polygon fill="#fdb462" stroke="transparent" points="416.5,-10 416.5,-30 436.5,-30 436.5,-10 416.5,-10"/>
<text text-anchor="start" x="440.1732" y="-15.4" font-family="sans-serif" font-size="14.00" fill="#000000"> &#160;Providers</text>
<polygon fill="#fb8072" stroke="transparent" points="512.5,-10 512.5,-30 532.5,-30 532.5,-10 512.5,-10"/>
<text text-anchor="start" x="536.2258" y="-15.4" font-family="sans-serif" font-size="14.00" fill="#000000"> &#160;Exports</text>
<g id="clust1" class="cluster">
<title>cluster_MyProfileModule</title>
<polygon fill="none" stroke="#000000" stroke-dasharray="1,5" points="8,-70 8,-260 701,-260 701,-70 8,-70"/>
</g>
<g id="clust2" class="cluster">
<title>cluster_MyProfileModule_declarations</title>
<polygon fill="none" stroke="#000000" points="138,-143 138,-195 693,-195 693,-143 138,-143"/>
</g>
<g id="clust5" class="cluster">
<title>cluster_MyProfileModule_MyProfileComponent_providers</title>
<polygon fill="none" stroke="#000000" points="82,-78 82,-130 388,-130 388,-78 82,-78"/>
</g>
<g id="clust6" class="cluster">
<title>cluster_MyProfileModule_imports</title>
<polygon fill="none" stroke="#000000" points="16,-143 16,-195 130,-195 130,-143 16,-143"/>
</g>
<!-- BusinessCoachListComponent -->
<g id="node1" class="node">
<title>BusinessCoachListComponent</title>
<polygon fill="#ffffb3" stroke="#000000" points="685.1525,-187 496.8475,-187 496.8475,-151 685.1525,-151 685.1525,-187"/>
<text text-anchor="middle" x="591" y="-164.8" font-family="Times,serif" font-size="14.00" fill="#000000">BusinessCoachListComponent</text>
</g>
<!-- MyProfileModule -->
<g id="node4" class="node">
<title>MyProfileModule</title>
<polygon fill="#8dd3c7" stroke="#000000" points="361.594,-252 358.594,-256 337.594,-256 334.594,-252 244.406,-252 244.406,-216 361.594,-216 361.594,-252"/>
<text text-anchor="middle" x="303" y="-229.8" font-family="Times,serif" font-size="14.00" fill="#000000">MyProfileModule</text>
</g>
<!-- BusinessCoachListComponent&#45;&gt;MyProfileModule -->
<g id="edge1" class="edge">
<title>BusinessCoachListComponent&#45;&gt;MyProfileModule</title>
<path fill="none" stroke="#000000" d="M591,-187.1061C591,-206.3391 591,-234 591,-234 591,-234 371.6282,-234 371.6282,-234"/>
<polygon fill="#000000" stroke="#000000" points="371.6283,-230.5001 361.6282,-234 371.6282,-237.5001 371.6283,-230.5001"/>
</g>
<!-- CareerCoachListComponent -->
<g id="node2" class="node">
<title>CareerCoachListComponent</title>
<polygon fill="#ffffb3" stroke="#000000" points="479.1783,-187 302.8217,-187 302.8217,-151 479.1783,-151 479.1783,-187"/>
<text text-anchor="middle" x="391" y="-164.8" font-family="Times,serif" font-size="14.00" fill="#000000">CareerCoachListComponent</text>
</g>
<!-- CareerCoachListComponent&#45;&gt;MyProfileModule -->
<g id="edge2" class="edge">
<title>CareerCoachListComponent&#45;&gt;MyProfileModule</title>
<path fill="none" stroke="#000000" d="M332.229,-187.1061C332.229,-187.1061 332.229,-205.991 332.229,-205.991"/>
<polygon fill="#000000" stroke="#000000" points="328.729,-205.9909 332.229,-215.991 335.729,-205.991 328.729,-205.9909"/>
</g>
<!-- MyProfileComponent -->
<g id="node3" class="node">
<title>MyProfileComponent</title>
<polygon fill="#ffffb3" stroke="#000000" points="284.3767,-187 145.6233,-187 145.6233,-151 284.3767,-151 284.3767,-187"/>
<text text-anchor="middle" x="215" y="-164.8" font-family="Times,serif" font-size="14.00" fill="#000000">MyProfileComponent</text>
</g>
<!-- MyProfileComponent&#45;&gt;MyProfileModule -->
<g id="edge3" class="edge">
<title>MyProfileComponent&#45;&gt;MyProfileModule</title>
<path fill="none" stroke="#000000" d="M264.4457,-187.1061C264.4457,-187.1061 264.4457,-205.991 264.4457,-205.991"/>
<polygon fill="#000000" stroke="#000000" points="260.9457,-205.9909 264.4457,-215.991 267.9457,-205.991 260.9457,-205.9909"/>
</g>
<!-- CommentService -->
<g id="node5" class="node">
<title>CommentService</title>
<ellipse fill="#fdb462" stroke="#000000" cx="302" cy="-104" rx="78.1675" ry="18"/>
<text text-anchor="middle" x="302" y="-99.8" font-family="Times,serif" font-size="14.00" fill="#000000">CommentService</text>
</g>
<!-- CommentService&#45;&gt;MyProfileComponent -->
<g id="edge4" class="edge">
<title>CommentService&#45;&gt;MyProfileComponent</title>
<path fill="none" stroke="#000000" d="M254.1773,-118.4256C254.1773,-118.4256 254.1773,-140.8939 254.1773,-140.8939"/>
<polygon fill="#000000" stroke="#000000" points="250.6774,-140.8938 254.1773,-150.8939 257.6774,-140.8939 250.6774,-140.8938"/>
</g>
<!-- UserService -->
<g id="node6" class="node">
<title>UserService</title>
<ellipse fill="#fdb462" stroke="#000000" cx="148" cy="-104" rx="58.4415" ry="18"/>
<text text-anchor="middle" x="148" y="-99.8" font-family="Times,serif" font-size="14.00" fill="#000000">UserService</text>
</g>
<!-- UserService&#45;&gt;MyProfileComponent -->
<g id="edge5" class="edge">
<title>UserService&#45;&gt;MyProfileComponent</title>
<path fill="none" stroke="#000000" d="M175.891,-120.0674C175.891,-120.0674 175.891,-140.8237 175.891,-140.8237"/>
<polygon fill="#000000" stroke="#000000" points="172.3911,-140.8236 175.891,-150.8237 179.3911,-140.8237 172.3911,-140.8236"/>
</g>
<!-- SharedModule -->
<g id="node7" class="node">
<title>SharedModule</title>
<polygon fill="#8dd3c7" stroke="#000000" points="122.4231,-187 119.4231,-191 98.4231,-191 95.4231,-187 23.5769,-187 23.5769,-151 122.4231,-151 122.4231,-187"/>
<text text-anchor="middle" x="73" y="-164.8" font-family="Times,serif" font-size="14.00" fill="#000000">SharedModule</text>
</g>
<!-- SharedModule&#45;&gt;MyProfileModule -->
<g id="edge6" class="edge">
<title>SharedModule&#45;&gt;MyProfileModule</title>
<path fill="none" stroke="#000000" d="M73,-187.1061C73,-206.3391 73,-234 73,-234 73,-234 234.3662,-234 234.3662,-234"/>
<polygon fill="#000000" stroke="#000000" points="234.3662,-237.5001 244.3662,-234 234.3661,-230.5001 234.3662,-237.5001"/>
</g>
</g>
</svg>
