<?xml version="1.0" encoding="UTF-8" standalone="no"?>
<!DOCTYPE svg PUBLIC "-//W3C//DTD SVG 1.1//EN"
 "http://www.w3.org/Graphics/SVG/1.1/DTD/svg11.dtd">
<!-- Generated by graphviz version 2.40.1 (20161225.0304)
 -->
<!-- Title: dependencies Pages: 1 -->
<svg width="504pt" height="284pt"
 viewBox="0.00 0.00 504.00 284.00" xmlns="http://www.w3.org/2000/svg" xmlns:xlink="http://www.w3.org/1999/xlink">
<g id="graph0" class="graph" transform="scale(1 1) rotate(0) translate(4 280)">
<title>dependencies</title>
<polygon fill="#ffffff" stroke="transparent" points="-4,4 -4,-280 500,-280 500,4 -4,4"/>
<text text-anchor="start" x="227.0091" y="-42.4" font-family="sans-serif" font-weight="bold" font-size="14.00" fill="#000000">Legend</text>
<polygon fill="#ffffb3" stroke="transparent" points="14,-10 14,-30 34,-30 34,-10 14,-10"/>
<text text-anchor="start" x="37.629" y="-15.4" font-family="sans-serif" font-size="14.00" fill="#000000"> &#160;Declarations</text>
<polygon fill="#8dd3c7" stroke="transparent" points="127,-10 127,-30 147,-30 147,-10 127,-10"/>
<text text-anchor="start" x="150.7251" y="-15.4" font-family="sans-serif" font-size="14.00" fill="#000000"> &#160;Module</text>
<polygon fill="#80b1d3" stroke="transparent" points="213,-10 213,-30 233,-30 233,-10 213,-10"/>
<text text-anchor="start" x="236.7812" y="-15.4" font-family="sans-serif" font-size="14.00" fill="#000000"> &#160;Bootstrap</text>
<polygon fill="#fdb462" stroke="transparent" points="310,-10 310,-30 330,-30 330,-10 310,-10"/>
<text text-anchor="start" x="333.6732" y="-15.4" font-family="sans-serif" font-size="14.00" fill="#000000"> &#160;Providers</text>
<polygon fill="#fb8072" stroke="transparent" points="406,-10 406,-30 426,-30 426,-10 406,-10"/>
<text text-anchor="start" x="429.7258" y="-15.4" font-family="sans-serif" font-size="14.00" fill="#000000"> &#160;Exports</text>
<g id="clust1" class="cluster">
<title>cluster_AppServerModule</title>
<polygon fill="none" stroke="#000000" stroke-dasharray="1,5" points="113,-70 113,-268 383,-268 383,-70 113,-70"/>
</g>
<g id="clust3" class="cluster">
<title>cluster_AppServerModule_imports</title>
<polygon fill="none" stroke="#000000" points="121,-78 121,-130 375,-130 375,-78 121,-78"/>
</g>
<g id="clust5" class="cluster">
<title>cluster_AppServerModule_bootstrap</title>
<polygon fill="none" stroke="#000000" points="193,-208 193,-260 317,-260 317,-208 193,-208"/>
</g>
<!-- AppModule -->
<g id="node1" class="node">
<title>AppModule</title>
<polygon fill="#8dd3c7" stroke="#000000" points="366.6571,-122 363.6571,-126 342.6571,-126 339.6571,-122 283.3429,-122 283.3429,-86 366.6571,-86 366.6571,-122"/>
<text text-anchor="middle" x="325" y="-99.8" font-family="Times,serif" font-size="14.00" fill="#000000">AppModule</text>
</g>
<!-- AppServerModule -->
<g id="node3" class="node">
<title>AppServerModule</title>
<polygon fill="#8dd3c7" stroke="#000000" points="315.1895,-187 312.1895,-191 291.1895,-191 288.1895,-187 194.8105,-187 194.8105,-151 315.1895,-151 315.1895,-187"/>
<text text-anchor="middle" x="255" y="-164.8" font-family="Times,serif" font-size="14.00" fill="#000000">AppServerModule</text>
</g>
<!-- AppModule&#45;&gt;AppServerModule -->
<g id="edge1" class="edge">
<title>AppModule&#45;&gt;AppServerModule</title>
<path fill="none" stroke="#000000" d="M299.1332,-122.1061C299.1332,-122.1061 299.1332,-140.991 299.1332,-140.991"/>
<polygon fill="#000000" stroke="#000000" points="295.6333,-140.9909 299.1332,-150.991 302.6333,-140.991 295.6333,-140.9909"/>
</g>
<!-- ServerJsonLdModule -->
<g id="node2" class="node">
<title>ServerJsonLdModule</title>
<polygon fill="#8dd3c7" stroke="#000000" points="265.0254,-122 262.0254,-126 241.0254,-126 238.0254,-122 128.9746,-122 128.9746,-86 265.0254,-86 265.0254,-122"/>
<text text-anchor="middle" x="197" y="-99.8" font-family="Times,serif" font-size="14.00" fill="#000000">ServerJsonLdModule</text>
</g>
<!-- ServerJsonLdModule&#45;&gt;AppServerModule -->
<g id="edge2" class="edge">
<title>ServerJsonLdModule&#45;&gt;AppServerModule</title>
<path fill="none" stroke="#000000" d="M230.0838,-122.1061C230.0838,-122.1061 230.0838,-140.991 230.0838,-140.991"/>
<polygon fill="#000000" stroke="#000000" points="226.5839,-140.9909 230.0838,-150.991 233.5839,-140.991 226.5839,-140.9909"/>
</g>
<!-- AppComponent  -->
<g id="node4" class="node">
<title>AppComponent </title>
<polygon fill="#80b1d3" stroke="#000000" points="309.439,-252 200.561,-252 200.561,-216 309.439,-216 309.439,-252"/>
<text text-anchor="middle" x="255" y="-229.8" font-family="Times,serif" font-size="14.00" fill="#000000">AppComponent </text>
</g>
<!-- AppServerModule&#45;&gt;AppComponent  -->
<g id="edge3" class="edge">
<title>AppServerModule&#45;&gt;AppComponent </title>
<path fill="none" stroke="#000000" stroke-dasharray="1,5" d="M255,-187.1061C255,-187.1061 255,-205.991 255,-205.991"/>
<polygon fill="#000000" stroke="#000000" points="251.5001,-205.9909 255,-215.991 258.5001,-205.991 251.5001,-205.9909"/>
</g>
</g>
</svg>
