<?xml version="1.0" encoding="UTF-8" standalone="no"?>
<!DOCTYPE svg PUBLIC "-//W3C//DTD SVG 1.1//EN"
 "http://www.w3.org/Graphics/SVG/1.1/DTD/svg11.dtd">
<!-- Generated by graphviz version 2.40.1 (20161225.0304)
 -->
<!-- Title: dependencies Pages: 1 -->
<svg width="504pt" height="211pt"
 viewBox="0.00 0.00 504.00 211.00" xmlns="http://www.w3.org/2000/svg" xmlns:xlink="http://www.w3.org/1999/xlink">
<g id="graph0" class="graph" transform="scale(1 1) rotate(0) translate(4 207)">
<title>dependencies</title>
<polygon fill="#ffffff" stroke="transparent" points="-4,4 -4,-207 500,-207 500,4 -4,4"/>
<text text-anchor="start" x="227.0091" y="-42.4" font-family="sans-serif" font-weight="bold" font-size="14.00" fill="#000000">Legend</text>
<polygon fill="#ffffb3" stroke="transparent" points="14,-10 14,-30 34,-30 34,-10 14,-10"/>
<text text-anchor="start" x="37.629" y="-15.4" font-family="sans-serif" font-size="14.00" fill="#000000"> &#160;Declarations</text>
<polygon fill="#8dd3c7" stroke="transparent" points="127,-10 127,-30 147,-30 147,-10 127,-10"/>
<text text-anchor="start" x="150.7251" y="-15.4" font-family="sans-serif" font-size="14.00" fill="#000000"> &#160;Module</text>
<polygon fill="#80b1d3" stroke="transparent" points="213,-10 213,-30 233,-30 233,-10 213,-10"/>
<text text-anchor="start" x="236.7812" y="-15.4" font-family="sans-serif" font-size="14.00" fill="#000000"> &#160;Bootstrap</text>
<polygon fill="#fdb462" stroke="transparent" points="310,-10 310,-30 330,-30 330,-10 310,-10"/>
<text text-anchor="start" x="333.6732" y="-15.4" font-family="sans-serif" font-size="14.00" fill="#000000"> &#160;Providers</text>
<polygon fill="#fb8072" stroke="transparent" points="406,-10 406,-30 426,-30 426,-10 406,-10"/>
<text text-anchor="start" x="429.7258" y="-15.4" font-family="sans-serif" font-size="14.00" fill="#000000"> &#160;Exports</text>
<g id="clust1" class="cluster">
<title>cluster_AddStressManagementModule</title>
<polygon fill="none" stroke="#000000" stroke-dasharray="1,5" points="65,-70 65,-195 431,-195 431,-70 65,-70"/>
</g>
<g id="clust2" class="cluster">
<title>cluster_AddStressManagementModule_declarations</title>
<polygon fill="none" stroke="#000000" points="195,-78 195,-130 423,-130 423,-78 195,-78"/>
</g>
<g id="clust4" class="cluster">
<title>cluster_AddStressManagementModule_imports</title>
<polygon fill="none" stroke="#000000" points="73,-78 73,-130 187,-130 187,-78 73,-78"/>
</g>
<!-- AddStressManagementComponent -->
<g id="node1" class="node">
<title>AddStressManagementComponent</title>
<polygon fill="#ffffb3" stroke="#000000" points="414.9608,-122 203.0392,-122 203.0392,-86 414.9608,-86 414.9608,-122"/>
<text text-anchor="middle" x="309" y="-99.8" font-family="Times,serif" font-size="14.00" fill="#000000">AddStressManagementComponent</text>
</g>
<!-- AddStressManagementModule -->
<g id="node2" class="node">
<title>AddStressManagementModule</title>
<polygon fill="#8dd3c7" stroke="#000000" points="333.1783,-187 330.1783,-191 309.1783,-191 306.1783,-187 142.8217,-187 142.8217,-151 333.1783,-151 333.1783,-187"/>
<text text-anchor="middle" x="238" y="-164.8" font-family="Times,serif" font-size="14.00" fill="#000000">AddStressManagementModule</text>
</g>
<!-- AddStressManagementComponent&#45;&gt;AddStressManagementModule -->
<g id="edge1" class="edge">
<title>AddStressManagementComponent&#45;&gt;AddStressManagementModule</title>
<path fill="none" stroke="#000000" d="M268.0544,-122.1061C268.0544,-122.1061 268.0544,-140.991 268.0544,-140.991"/>
<polygon fill="#000000" stroke="#000000" points="264.5544,-140.9909 268.0544,-150.991 271.5544,-140.991 264.5544,-140.9909"/>
</g>
<!-- SharedModule -->
<g id="node3" class="node">
<title>SharedModule</title>
<polygon fill="#8dd3c7" stroke="#000000" points="179.4231,-122 176.4231,-126 155.4231,-126 152.4231,-122 80.5769,-122 80.5769,-86 179.4231,-86 179.4231,-122"/>
<text text-anchor="middle" x="130" y="-99.8" font-family="Times,serif" font-size="14.00" fill="#000000">SharedModule</text>
</g>
<!-- SharedModule&#45;&gt;AddStressManagementModule -->
<g id="edge2" class="edge">
<title>SharedModule&#45;&gt;AddStressManagementModule</title>
<path fill="none" stroke="#000000" d="M161.061,-122.1061C161.061,-122.1061 161.061,-140.991 161.061,-140.991"/>
<polygon fill="#000000" stroke="#000000" points="157.5611,-140.9909 161.061,-150.991 164.5611,-140.991 157.5611,-140.9909"/>
</g>
</g>
</svg>
