<?xml version="1.0" encoding="UTF-8" standalone="no"?>
<!DOCTYPE svg PUBLIC "-//W3C//DTD SVG 1.1//EN"
 "http://www.w3.org/Graphics/SVG/1.1/DTD/svg11.dtd">
<!-- Generated by graphviz version 2.40.1 (20161225.0304)
 -->
<!-- Title: dependencies Pages: 1 -->
<svg width="504pt" height="211pt"
 viewBox="0.00 0.00 504.00 211.00" xmlns="http://www.w3.org/2000/svg" xmlns:xlink="http://www.w3.org/1999/xlink">
<g id="graph0" class="graph" transform="scale(1 1) rotate(0) translate(4 207)">
<title>dependencies</title>
<polygon fill="#ffffff" stroke="transparent" points="-4,4 -4,-207 500,-207 500,4 -4,4"/>
<text text-anchor="start" x="227.0091" y="-42.4" font-family="sans-serif" font-weight="bold" font-size="14.00" fill="#000000">Legend</text>
<polygon fill="#ffffb3" stroke="transparent" points="14,-10 14,-30 34,-30 34,-10 14,-10"/>
<text text-anchor="start" x="37.629" y="-15.4" font-family="sans-serif" font-size="14.00" fill="#000000"> &#160;Declarations</text>
<polygon fill="#8dd3c7" stroke="transparent" points="127,-10 127,-30 147,-30 147,-10 127,-10"/>
<text text-anchor="start" x="150.7251" y="-15.4" font-family="sans-serif" font-size="14.00" fill="#000000"> &#160;Module</text>
<polygon fill="#80b1d3" stroke="transparent" points="213,-10 213,-30 233,-30 233,-10 213,-10"/>
<text text-anchor="start" x="236.7812" y="-15.4" font-family="sans-serif" font-size="14.00" fill="#000000"> &#160;Bootstrap</text>
<polygon fill="#fdb462" stroke="transparent" points="310,-10 310,-30 330,-30 330,-10 310,-10"/>
<text text-anchor="start" x="333.6732" y="-15.4" font-family="sans-serif" font-size="14.00" fill="#000000"> &#160;Providers</text>
<polygon fill="#fb8072" stroke="transparent" points="406,-10 406,-30 426,-30 426,-10 406,-10"/>
<text text-anchor="start" x="429.7258" y="-15.4" font-family="sans-serif" font-size="14.00" fill="#000000"> &#160;Exports</text>
<g id="clust1" class="cluster">
<title>cluster_AddLeadershipChallengeModule</title>
<polygon fill="none" stroke="#000000" stroke-dasharray="1,5" points="59,-70 59,-195 437,-195 437,-70 59,-70"/>
</g>
<g id="clust2" class="cluster">
<title>cluster_AddLeadershipChallengeModule_declarations</title>
<polygon fill="none" stroke="#000000" points="189,-78 189,-130 429,-130 429,-78 189,-78"/>
</g>
<g id="clust4" class="cluster">
<title>cluster_AddLeadershipChallengeModule_imports</title>
<polygon fill="none" stroke="#000000" points="67,-78 67,-130 181,-130 181,-78 67,-78"/>
</g>
<!-- AddLeadershipChallengeComponent -->
<g id="node1" class="node">
<title>AddLeadershipChallengeComponent</title>
<polygon fill="#ffffb3" stroke="#000000" points="421.3931,-122 196.6069,-122 196.6069,-86 421.3931,-86 421.3931,-122"/>
<text text-anchor="middle" x="309" y="-99.8" font-family="Times,serif" font-size="14.00" fill="#000000">AddLeadershipChallengeComponent</text>
</g>
<!-- AddLeadershipChallengeModule -->
<g id="node2" class="node">
<title>AddLeadershipChallengeModule</title>
<polygon fill="#8dd3c7" stroke="#000000" points="339.1106,-187 336.1106,-191 315.1106,-191 312.1106,-187 136.8894,-187 136.8894,-151 339.1106,-151 339.1106,-187"/>
<text text-anchor="middle" x="238" y="-164.8" font-family="Times,serif" font-size="14.00" fill="#000000">AddLeadershipChallengeModule</text>
</g>
<!-- AddLeadershipChallengeComponent&#45;&gt;AddLeadershipChallengeModule -->
<g id="edge1" class="edge">
<title>AddLeadershipChallengeComponent&#45;&gt;AddLeadershipChallengeModule</title>
<path fill="none" stroke="#000000" d="M268.0544,-122.1061C268.0544,-122.1061 268.0544,-140.991 268.0544,-140.991"/>
<polygon fill="#000000" stroke="#000000" points="264.5544,-140.9909 268.0544,-150.991 271.5544,-140.991 264.5544,-140.9909"/>
</g>
<!-- SharedModule -->
<g id="node3" class="node">
<title>SharedModule</title>
<polygon fill="#8dd3c7" stroke="#000000" points="173.4231,-122 170.4231,-126 149.4231,-126 146.4231,-122 74.5769,-122 74.5769,-86 173.4231,-86 173.4231,-122"/>
<text text-anchor="middle" x="124" y="-99.8" font-family="Times,serif" font-size="14.00" fill="#000000">SharedModule</text>
</g>
<!-- SharedModule&#45;&gt;AddLeadershipChallengeModule -->
<g id="edge2" class="edge">
<title>SharedModule&#45;&gt;AddLeadershipChallengeModule</title>
<path fill="none" stroke="#000000" d="M154.953,-122.1061C154.953,-122.1061 154.953,-140.991 154.953,-140.991"/>
<polygon fill="#000000" stroke="#000000" points="151.4531,-140.9909 154.953,-150.991 158.4531,-140.991 151.4531,-140.9909"/>
</g>
</g>
</svg>
