<?xml version="1.0" encoding="UTF-8" standalone="no"?>
<!DOCTYPE svg PUBLIC "-//W3C//DTD SVG 1.1//EN"
 "http://www.w3.org/Graphics/SVG/1.1/DTD/svg11.dtd">
<!-- Generated by graphviz version 2.40.1 (20161225.0304)
 -->
<!-- Title: dependencies Pages: 1 -->
<svg width="574pt" height="211pt"
 viewBox="0.00 0.00 574.00 211.00" xmlns="http://www.w3.org/2000/svg" xmlns:xlink="http://www.w3.org/1999/xlink">
<g id="graph0" class="graph" transform="scale(1 1) rotate(0) translate(4 207)">
<title>dependencies</title>
<polygon fill="#ffffff" stroke="transparent" points="-4,4 -4,-207 570,-207 570,4 -4,4"/>
<text text-anchor="start" x="262.0091" y="-42.4" font-family="sans-serif" font-weight="bold" font-size="14.00" fill="#000000">Legend</text>
<polygon fill="#ffffb3" stroke="transparent" points="49,-10 49,-30 69,-30 69,-10 49,-10"/>
<text text-anchor="start" x="72.629" y="-15.4" font-family="sans-serif" font-size="14.00" fill="#000000"> &#160;Declarations</text>
<polygon fill="#8dd3c7" stroke="transparent" points="162,-10 162,-30 182,-30 182,-10 162,-10"/>
<text text-anchor="start" x="185.7251" y="-15.4" font-family="sans-serif" font-size="14.00" fill="#000000"> &#160;Module</text>
<polygon fill="#80b1d3" stroke="transparent" points="248,-10 248,-30 268,-30 268,-10 248,-10"/>
<text text-anchor="start" x="271.7812" y="-15.4" font-family="sans-serif" font-size="14.00" fill="#000000"> &#160;Bootstrap</text>
<polygon fill="#fdb462" stroke="transparent" points="345,-10 345,-30 365,-30 365,-10 345,-10"/>
<text text-anchor="start" x="368.6732" y="-15.4" font-family="sans-serif" font-size="14.00" fill="#000000"> &#160;Providers</text>
<polygon fill="#fb8072" stroke="transparent" points="441,-10 441,-30 461,-30 461,-10 441,-10"/>
<text text-anchor="start" x="464.7258" y="-15.4" font-family="sans-serif" font-size="14.00" fill="#000000"> &#160;Exports</text>
<g id="clust1" class="cluster">
<title>cluster_MembershipListModule</title>
<polygon fill="none" stroke="#000000" stroke-dasharray="1,5" points="8,-70 8,-195 558,-195 558,-70 8,-70"/>
</g>
<g id="clust2" class="cluster">
<title>cluster_MembershipListModule_declarations</title>
<polygon fill="none" stroke="#000000" points="138,-78 138,-130 550,-130 550,-78 138,-78"/>
</g>
<g id="clust5" class="cluster">
<title>cluster_MembershipListModule_imports</title>
<polygon fill="none" stroke="#000000" points="16,-78 16,-130 130,-130 130,-78 16,-78"/>
</g>
<!-- InviteMembersDialogComponent -->
<g id="node1" class="node">
<title>InviteMembersDialogComponent</title>
<polygon fill="#ffffb3" stroke="#000000" points="542.4608,-122 337.5392,-122 337.5392,-86 542.4608,-86 542.4608,-122"/>
<text text-anchor="middle" x="440" y="-99.8" font-family="Times,serif" font-size="14.00" fill="#000000">InviteMembersDialogComponent</text>
</g>
<!-- MembershipListModule -->
<g id="node3" class="node">
<title>MembershipListModule</title>
<polygon fill="#8dd3c7" stroke="#000000" points="309.0884,-187 306.0884,-191 285.0884,-191 282.0884,-187 156.9116,-187 156.9116,-151 309.0884,-151 309.0884,-187"/>
<text text-anchor="middle" x="233" y="-164.8" font-family="Times,serif" font-size="14.00" fill="#000000">MembershipListModule</text>
</g>
<!-- InviteMembersDialogComponent&#45;&gt;MembershipListModule -->
<g id="edge1" class="edge">
<title>InviteMembersDialogComponent&#45;&gt;MembershipListModule</title>
<path fill="none" stroke="#000000" d="M440,-122.1061C440,-141.3391 440,-169 440,-169 440,-169 319.1973,-169 319.1973,-169"/>
<polygon fill="#000000" stroke="#000000" points="319.1973,-165.5001 309.1973,-169 319.1973,-172.5001 319.1973,-165.5001"/>
</g>
<!-- MembershipListComponent -->
<g id="node2" class="node">
<title>MembershipListComponent</title>
<polygon fill="#ffffb3" stroke="#000000" points="319.871,-122 146.129,-122 146.129,-86 319.871,-86 319.871,-122"/>
<text text-anchor="middle" x="233" y="-99.8" font-family="Times,serif" font-size="14.00" fill="#000000">MembershipListComponent</text>
</g>
<!-- MembershipListComponent&#45;&gt;MembershipListModule -->
<g id="edge2" class="edge">
<title>MembershipListComponent&#45;&gt;MembershipListModule</title>
<path fill="none" stroke="#000000" d="M233,-122.1061C233,-122.1061 233,-140.991 233,-140.991"/>
<polygon fill="#000000" stroke="#000000" points="229.5001,-140.9909 233,-150.991 236.5001,-140.991 229.5001,-140.9909"/>
</g>
<!-- SharedModule -->
<g id="node4" class="node">
<title>SharedModule</title>
<polygon fill="#8dd3c7" stroke="#000000" points="122.4231,-122 119.4231,-126 98.4231,-126 95.4231,-122 23.5769,-122 23.5769,-86 122.4231,-86 122.4231,-122"/>
<text text-anchor="middle" x="73" y="-99.8" font-family="Times,serif" font-size="14.00" fill="#000000">SharedModule</text>
</g>
<!-- SharedModule&#45;&gt;MembershipListModule -->
<g id="edge3" class="edge">
<title>SharedModule&#45;&gt;MembershipListModule</title>
<path fill="none" stroke="#000000" d="M73,-122.1061C73,-141.3391 73,-169 73,-169 73,-169 146.7488,-169 146.7488,-169"/>
<polygon fill="#000000" stroke="#000000" points="146.7488,-172.5001 156.7488,-169 146.7487,-165.5001 146.7488,-172.5001"/>
</g>
</g>
</svg>
