<?xml version="1.0" encoding="UTF-8" standalone="no"?>
<!DOCTYPE svg PUBLIC "-//W3C//DTD SVG 1.1//EN"
 "http://www.w3.org/Graphics/SVG/1.1/DTD/svg11.dtd">
<!-- Generated by graphviz version 2.40.1 (20161225.0304)
 -->
<!-- Title: dependencies Pages: 1 -->
<svg width="6369pt" height="284pt"
 viewBox="0.00 0.00 6369.00 284.00" xmlns="http://www.w3.org/2000/svg" xmlns:xlink="http://www.w3.org/1999/xlink">
<g id="graph0" class="graph" transform="scale(1 1) rotate(0) translate(4 280)">
<title>dependencies</title>
<polygon fill="#ffffff" stroke="transparent" points="-4,4 -4,-280 6365,-280 6365,4 -4,4"/>
<text text-anchor="start" x="3159.5091" y="-42.4" font-family="sans-serif" font-weight="bold" font-size="14.00" fill="#000000">Legend</text>
<polygon fill="#ffffb3" stroke="transparent" points="2946.5,-10 2946.5,-30 2966.5,-30 2966.5,-10 2946.5,-10"/>
<text text-anchor="start" x="2970.129" y="-15.4" font-family="sans-serif" font-size="14.00" fill="#000000"> &#160;Declarations</text>
<polygon fill="#8dd3c7" stroke="transparent" points="3059.5,-10 3059.5,-30 3079.5,-30 3079.5,-10 3059.5,-10"/>
<text text-anchor="start" x="3083.2251" y="-15.4" font-family="sans-serif" font-size="14.00" fill="#000000"> &#160;Module</text>
<polygon fill="#80b1d3" stroke="transparent" points="3145.5,-10 3145.5,-30 3165.5,-30 3165.5,-10 3145.5,-10"/>
<text text-anchor="start" x="3169.2812" y="-15.4" font-family="sans-serif" font-size="14.00" fill="#000000"> &#160;Bootstrap</text>
<polygon fill="#fdb462" stroke="transparent" points="3242.5,-10 3242.5,-30 3262.5,-30 3262.5,-10 3242.5,-10"/>
<text text-anchor="start" x="3266.1732" y="-15.4" font-family="sans-serif" font-size="14.00" fill="#000000"> &#160;Providers</text>
<polygon fill="#fb8072" stroke="transparent" points="3338.5,-10 3338.5,-30 3358.5,-30 3358.5,-10 3338.5,-10"/>
<text text-anchor="start" x="3362.2258" y="-15.4" font-family="sans-serif" font-size="14.00" fill="#000000"> &#160;Exports</text>
<g id="clust1" class="cluster">
<title>cluster_AppModule</title>
<polygon fill="none" stroke="#000000" stroke-dasharray="1,5" points="8,-70 8,-268 6353,-268 6353,-70 8,-70"/>
</g>
<g id="clust2" class="cluster">
<title>cluster_AppModule_declarations</title>
<polygon fill="none" stroke="#000000" points="390,-78 390,-130 6345,-130 6345,-78 390,-78"/>
</g>
<g id="clust37" class="cluster">
<title>cluster_AppModule_imports</title>
<polygon fill="none" stroke="#000000" points="16,-78 16,-130 382,-130 382,-78 16,-78"/>
</g>
<g id="clust39" class="cluster">
<title>cluster_AppModule_bootstrap</title>
<polygon fill="none" stroke="#000000" points="3081,-208 3081,-260 3205,-260 3205,-208 3081,-208"/>
</g>
<!-- AboutUsComponent -->
<g id="node1" class="node">
<title>AboutUsComponent</title>
<polygon fill="#ffffb3" stroke="#000000" points="6336.8809,-122 6205.1191,-122 6205.1191,-86 6336.8809,-86 6336.8809,-122"/>
<text text-anchor="middle" x="6271" y="-99.8" font-family="Times,serif" font-size="14.00" fill="#000000">AboutUsComponent</text>
</g>
<!-- AppModule -->
<g id="node35" class="node">
<title>AppModule</title>
<polygon fill="#8dd3c7" stroke="#000000" points="3184.6571,-187 3181.6571,-191 3160.6571,-191 3157.6571,-187 3101.3429,-187 3101.3429,-151 3184.6571,-151 3184.6571,-187"/>
<text text-anchor="middle" x="3143" y="-164.8" font-family="Times,serif" font-size="14.00" fill="#000000">AppModule</text>
</g>
<!-- AboutUsComponent&#45;&gt;AppModule -->
<g id="edge1" class="edge">
<title>AboutUsComponent&#45;&gt;AppModule</title>
<path fill="none" stroke="#000000" d="M6271,-122.1985C6271,-146.3563 6271,-186 6271,-186 6271,-186 3194.853,-186 3194.853,-186"/>
<polygon fill="#000000" stroke="#000000" points="3194.8531,-182.5001 3184.853,-186 3194.853,-189.5001 3194.8531,-182.5001"/>
</g>
<!-- AdvocatesInfluencersComponent -->
<g id="node2" class="node">
<title>AdvocatesInfluencersComponent</title>
<polygon fill="#ffffb3" stroke="#000000" points="6186.8792,-122 5983.1208,-122 5983.1208,-86 6186.8792,-86 6186.8792,-122"/>
<text text-anchor="middle" x="6085" y="-99.8" font-family="Times,serif" font-size="14.00" fill="#000000">AdvocatesInfluencersComponent</text>
</g>
<!-- AdvocatesInfluencersComponent&#45;&gt;AppModule -->
<g id="edge2" class="edge">
<title>AdvocatesInfluencersComponent&#45;&gt;AppModule</title>
<path fill="none" stroke="#000000" d="M6085,-122.1532C6085,-145.7566 6085,-184 6085,-184 6085,-184 3194.8712,-184 3194.8712,-184"/>
<polygon fill="#000000" stroke="#000000" points="3194.8712,-180.5001 3184.8712,-184 3194.8712,-187.5001 3194.8712,-180.5001"/>
</g>
<!-- AffordableComponent -->
<g id="node3" class="node">
<title>AffordableComponent</title>
<polygon fill="#ffffb3" stroke="#000000" points="5965.2408,-122 5822.7592,-122 5822.7592,-86 5965.2408,-86 5965.2408,-122"/>
<text text-anchor="middle" x="5894" y="-99.8" font-family="Times,serif" font-size="14.00" fill="#000000">AffordableComponent</text>
</g>
<!-- AffordableComponent&#45;&gt;AppModule -->
<g id="edge3" class="edge">
<title>AffordableComponent&#45;&gt;AppModule</title>
<path fill="none" stroke="#000000" d="M5894,-122.0908C5894,-145.1328 5894,-182 5894,-182 5894,-182 3194.8377,-182 3194.8377,-182"/>
<polygon fill="#000000" stroke="#000000" points="3194.8377,-178.5001 3184.8377,-182 3194.8376,-185.5001 3194.8377,-178.5001"/>
</g>
<!-- AiStrategyComponent -->
<g id="node4" class="node">
<title>AiStrategyComponent</title>
<polygon fill="#ffffb3" stroke="#000000" points="5804.9832,-122 5663.0168,-122 5663.0168,-86 5804.9832,-86 5804.9832,-122"/>
<text text-anchor="middle" x="5734" y="-99.8" font-family="Times,serif" font-size="14.00" fill="#000000">AiStrategyComponent</text>
</g>
<!-- AiStrategyComponent&#45;&gt;AppModule -->
<g id="edge4" class="edge">
<title>AiStrategyComponent&#45;&gt;AppModule</title>
<path fill="none" stroke="#000000" d="M5734,-122.0109C5734,-144.4852 5734,-180 5734,-180 5734,-180 3194.7479,-180 3194.7479,-180"/>
<polygon fill="#000000" stroke="#000000" points="3194.7479,-176.5001 3184.7479,-180 3194.7478,-183.5001 3194.7479,-176.5001"/>
</g>
<!-- AppComponent -->
<g id="node5" class="node">
<title>AppComponent</title>
<polygon fill="#ffffb3" stroke="#000000" points="5644.9399,-122 5539.0601,-122 5539.0601,-86 5644.9399,-86 5644.9399,-122"/>
<text text-anchor="middle" x="5592" y="-99.8" font-family="Times,serif" font-size="14.00" fill="#000000">AppComponent</text>
</g>
<!-- AppComponent&#45;&gt;AppModule -->
<g id="edge5" class="edge">
<title>AppComponent&#45;&gt;AppModule</title>
<path fill="none" stroke="#000000" d="M5592,-122.2921C5592,-144.2057 5592,-178 5592,-178 5592,-178 3194.7352,-178 3194.7352,-178"/>
<polygon fill="#000000" stroke="#000000" points="3194.7352,-174.5001 3184.7352,-178 3194.7352,-181.5001 3194.7352,-174.5001"/>
</g>
<!-- AuthComponent -->
<g id="node6" class="node">
<title>AuthComponent</title>
<polygon fill="#ffffb3" stroke="#000000" points="5521.8301,-122 5412.1699,-122 5412.1699,-86 5521.8301,-86 5521.8301,-122"/>
<text text-anchor="middle" x="5467" y="-99.8" font-family="Times,serif" font-size="14.00" fill="#000000">AuthComponent</text>
</g>
<!-- AuthComponent&#45;&gt;AppModule -->
<g id="edge6" class="edge">
<title>AuthComponent&#45;&gt;AppModule</title>
<path fill="none" stroke="#000000" d="M5467,-122.1686C5467,-143.498 5467,-176 5467,-176 5467,-176 3194.8211,-176 3194.8211,-176"/>
<polygon fill="#000000" stroke="#000000" points="3194.8211,-172.5001 3184.8211,-176 3194.821,-179.5001 3194.8211,-172.5001"/>
</g>
<!-- CommunityImpactStoriesComponent -->
<g id="node7" class="node">
<title>CommunityImpactStoriesComponent</title>
<polygon fill="#ffffb3" stroke="#000000" points="5393.986,-122 5168.014,-122 5168.014,-86 5393.986,-86 5393.986,-122"/>
<text text-anchor="middle" x="5281" y="-99.8" font-family="Times,serif" font-size="14.00" fill="#000000">CommunityImpactStoriesComponent</text>
</g>
<!-- CommunityImpactStoriesComponent&#45;&gt;AppModule -->
<g id="edge7" class="edge">
<title>CommunityImpactStoriesComponent&#45;&gt;AppModule</title>
<path fill="none" stroke="#000000" d="M5281,-122.0267C5281,-142.7672 5281,-174 5281,-174 5281,-174 3194.7487,-174 3194.7487,-174"/>
<polygon fill="#000000" stroke="#000000" points="3194.7487,-170.5001 3184.7487,-174 3194.7487,-177.5001 3194.7487,-170.5001"/>
</g>
<!-- ConfirmCodeComponent -->
<g id="node8" class="node">
<title>ConfirmCodeComponent</title>
<polygon fill="#ffffb3" stroke="#000000" points="5150.3229,-122 4991.6771,-122 4991.6771,-86 5150.3229,-86 5150.3229,-122"/>
<text text-anchor="middle" x="5071" y="-99.8" font-family="Times,serif" font-size="14.00" fill="#000000">ConfirmCodeComponent</text>
</g>
<!-- ConfirmCodeComponent&#45;&gt;AppModule -->
<g id="edge8" class="edge">
<title>ConfirmCodeComponent&#45;&gt;AppModule</title>
<path fill="none" stroke="#000000" d="M5071,-122.2228C5071,-142.3652 5071,-172 5071,-172 5071,-172 3195.0621,-172 3195.0621,-172"/>
<polygon fill="#000000" stroke="#000000" points="3195.0621,-168.5001 3185.0621,-172 3195.062,-175.5001 3195.0621,-168.5001"/>
</g>
<!-- CrmComponent -->
<g id="node9" class="node">
<title>CrmComponent</title>
<polygon fill="#ffffb3" stroke="#000000" points="4974.2204,-122 4867.7796,-122 4867.7796,-86 4974.2204,-86 4974.2204,-122"/>
<text text-anchor="middle" x="4921" y="-99.8" font-family="Times,serif" font-size="14.00" fill="#000000">CrmComponent</text>
</g>
<!-- CrmComponent&#45;&gt;AppModule -->
<g id="edge9" class="edge">
<title>CrmComponent&#45;&gt;AppModule</title>
<path fill="none" stroke="#000000" d="M4921,-122.0348C4921,-141.5762 4921,-170 4921,-170 4921,-170 3194.7639,-170 3194.7639,-170"/>
<polygon fill="#000000" stroke="#000000" points="3194.7639,-166.5001 3184.7639,-170 3194.7639,-173.5001 3194.7639,-166.5001"/>
</g>
<!-- DedicatedTeamComponent -->
<g id="node10" class="node">
<title>DedicatedTeamComponent</title>
<polygon fill="#ffffb3" stroke="#000000" points="4849.951,-122 4680.049,-122 4680.049,-86 4849.951,-86 4849.951,-122"/>
<text text-anchor="middle" x="4765" y="-99.8" font-family="Times,serif" font-size="14.00" fill="#000000">DedicatedTeamComponent</text>
</g>
<!-- DedicatedTeamComponent&#45;&gt;AppModule -->
<g id="edge10" class="edge">
<title>DedicatedTeamComponent&#45;&gt;AppModule</title>
<path fill="none" stroke="#000000" d="M4765,-122.1061C4765,-141.3391 4765,-169 4765,-169 4765,-169 3194.7246,-169 3194.7246,-169"/>
<polygon fill="#000000" stroke="#000000" points="3194.7246,-165.5001 3184.7246,-169 3194.7245,-172.5001 3194.7246,-165.5001"/>
</g>
<!-- DreamJobMentorsComponent -->
<g id="node11" class="node">
<title>DreamJobMentorsComponent</title>
<polygon fill="#ffffb3" stroke="#000000" points="4661.5196,-122 4476.4804,-122 4476.4804,-86 4661.5196,-86 4661.5196,-122"/>
<text text-anchor="middle" x="4569" y="-99.8" font-family="Times,serif" font-size="14.00" fill="#000000">DreamJobMentorsComponent</text>
</g>
<!-- DreamJobMentorsComponent&#45;&gt;AppModule -->
<g id="edge11" class="edge">
<title>DreamJobMentorsComponent&#45;&gt;AppModule</title>
<path fill="none" stroke="#000000" d="M4569,-122.2222C4569,-140.8285 4569,-167 4569,-167 4569,-167 3194.9052,-167 3194.9052,-167"/>
<polygon fill="#000000" stroke="#000000" points="3194.9052,-163.5001 3184.9052,-167 3194.9052,-170.5001 3194.9052,-163.5001"/>
</g>
<!-- EmailMarketingComponent -->
<g id="node12" class="node">
<title>EmailMarketingComponent</title>
<polygon fill="#ffffb3" stroke="#000000" points="4458.587,-122 4285.413,-122 4285.413,-86 4458.587,-86 4458.587,-122"/>
<text text-anchor="middle" x="4372" y="-99.8" font-family="Times,serif" font-size="14.00" fill="#000000">EmailMarketingComponent</text>
</g>
<!-- EmailMarketingComponent&#45;&gt;AppModule -->
<g id="edge12" class="edge">
<title>EmailMarketingComponent&#45;&gt;AppModule</title>
<path fill="none" stroke="#000000" d="M4372,-122.302C4372,-140.2699 4372,-165 4372,-165 4372,-165 3194.9494,-165 3194.9494,-165"/>
<polygon fill="#000000" stroke="#000000" points="3194.9495,-161.5001 3184.9494,-165 3194.9494,-168.5001 3194.9495,-161.5001"/>
</g>
<!-- ExitStrategyComponent -->
<g id="node13" class="node">
<title>ExitStrategyComponent</title>
<polygon fill="#ffffb3" stroke="#000000" points="4267.8201,-122 4116.1799,-122 4116.1799,-86 4267.8201,-86 4267.8201,-122"/>
<text text-anchor="middle" x="4192" y="-99.8" font-family="Times,serif" font-size="14.00" fill="#000000">ExitStrategyComponent</text>
</g>
<!-- ExitStrategyComponent&#45;&gt;AppModule -->
<g id="edge13" class="edge">
<title>ExitStrategyComponent&#45;&gt;AppModule</title>
<path fill="none" stroke="#000000" d="M4192,-122.0225C4192,-139.3734 4192,-163 4192,-163 4192,-163 3194.7694,-163 3194.7694,-163"/>
<polygon fill="#000000" stroke="#000000" points="3194.7694,-159.5001 3184.7694,-163 3194.7693,-166.5001 3194.7694,-159.5001"/>
</g>
<!-- ForgotPasswordComponent -->
<g id="node14" class="node">
<title>ForgotPasswordComponent</title>
<polygon fill="#ffffb3" stroke="#000000" points="4098.3201,-122 3925.6799,-122 3925.6799,-86 4098.3201,-86 4098.3201,-122"/>
<text text-anchor="middle" x="4012" y="-99.8" font-family="Times,serif" font-size="14.00" fill="#000000">ForgotPasswordComponent</text>
</g>
<!-- ForgotPasswordComponent&#45;&gt;AppModule -->
<g id="edge14" class="edge">
<title>ForgotPasswordComponent&#45;&gt;AppModule</title>
<path fill="none" stroke="#000000" d="M4012,-122.0352C4012,-138.7344 4012,-161 4012,-161 4012,-161 3194.9137,-161 3194.9137,-161"/>
<polygon fill="#000000" stroke="#000000" points="3194.9137,-157.5001 3184.9137,-161 3194.9136,-164.5001 3194.9137,-157.5001"/>
</g>
<!-- GetWorkDoneComponent -->
<g id="node15" class="node">
<title>GetWorkDoneComponent</title>
<polygon fill="#ffffb3" stroke="#000000" points="3907.7408,-122 3744.2592,-122 3744.2592,-86 3907.7408,-86 3907.7408,-122"/>
<text text-anchor="middle" x="3826" y="-99.8" font-family="Times,serif" font-size="14.00" fill="#000000">GetWorkDoneComponent</text>
</g>
<!-- GetWorkDoneComponent&#45;&gt;AppModule -->
<g id="edge15" class="edge">
<title>GetWorkDoneComponent&#45;&gt;AppModule</title>
<path fill="none" stroke="#000000" d="M3826,-122.0091C3826,-138.0494 3826,-159 3826,-159 3826,-159 3194.6966,-159 3194.6966,-159"/>
<polygon fill="#000000" stroke="#000000" points="3194.6966,-155.5001 3184.6966,-159 3194.6965,-162.5001 3194.6966,-155.5001"/>
</g>
<!-- InnovateComponent -->
<g id="node16" class="node">
<title>InnovateComponent</title>
<polygon fill="#ffffb3" stroke="#000000" points="3726.3132,-122 3595.6868,-122 3595.6868,-86 3726.3132,-86 3726.3132,-122"/>
<text text-anchor="middle" x="3661" y="-99.8" font-family="Times,serif" font-size="14.00" fill="#000000">InnovateComponent</text>
</g>
<!-- InnovateComponent&#45;&gt;AppModule -->
<g id="edge16" class="edge">
<title>InnovateComponent&#45;&gt;AppModule</title>
<path fill="none" stroke="#000000" d="M3661,-122.2396C3661,-137.5706 3661,-157 3661,-157 3661,-157 3194.9513,-157 3194.9513,-157"/>
<polygon fill="#000000" stroke="#000000" points="3194.9514,-153.5001 3184.9513,-157 3194.9513,-160.5001 3194.9514,-153.5001"/>
</g>
<!-- LeadershipTrainingComponent -->
<g id="node17" class="node">
<title>LeadershipTrainingComponent</title>
<polygon fill="#ffffb3" stroke="#000000" points="3577.7338,-122 3386.2662,-122 3386.2662,-86 3577.7338,-86 3577.7338,-122"/>
<text text-anchor="middle" x="3482" y="-99.8" font-family="Times,serif" font-size="14.00" fill="#000000">LeadershipTrainingComponent</text>
</g>
<!-- LeadershipTrainingComponent&#45;&gt;AppModule -->
<g id="edge17" class="edge">
<title>LeadershipTrainingComponent&#45;&gt;AppModule</title>
<path fill="none" stroke="#000000" d="M3482,-122.1243C3482,-136.7832 3482,-155 3482,-155 3482,-155 3194.9081,-155 3194.9081,-155"/>
<polygon fill="#000000" stroke="#000000" points="3194.9081,-151.5001 3184.9081,-155 3194.908,-158.5001 3194.9081,-151.5001"/>
</g>
<!-- LoaderComponent -->
<g id="node18" class="node">
<title>LoaderComponent</title>
<polygon fill="#ffffb3" stroke="#000000" points="3368.4748,-122 3247.5252,-122 3247.5252,-86 3368.4748,-86 3368.4748,-122"/>
<text text-anchor="middle" x="3308" y="-99.8" font-family="Times,serif" font-size="14.00" fill="#000000">LoaderComponent</text>
</g>
<!-- LoaderComponent&#45;&gt;AppModule -->
<g id="edge18" class="edge">
<title>LoaderComponent&#45;&gt;AppModule</title>
<path fill="none" stroke="#000000" d="M3308,-122.2458C3308,-136.1772 3308,-153 3308,-153 3308,-153 3195.0634,-153 3195.0634,-153"/>
<polygon fill="#000000" stroke="#000000" points="3195.0634,-149.5001 3185.0634,-153 3195.0634,-156.5001 3195.0634,-149.5001"/>
</g>
<!-- MockInterviewsComponent -->
<g id="node19" class="node">
<title>MockInterviewsComponent</title>
<polygon fill="#ffffb3" stroke="#000000" points="3229.5744,-122 3056.4256,-122 3056.4256,-86 3229.5744,-86 3229.5744,-122"/>
<text text-anchor="middle" x="3143" y="-99.8" font-family="Times,serif" font-size="14.00" fill="#000000">MockInterviewsComponent</text>
</g>
<!-- MockInterviewsComponent&#45;&gt;AppModule -->
<g id="edge19" class="edge">
<title>MockInterviewsComponent&#45;&gt;AppModule</title>
<path fill="none" stroke="#000000" d="M3143,-122.1061C3143,-122.1061 3143,-140.991 3143,-140.991"/>
<polygon fill="#000000" stroke="#000000" points="3139.5001,-140.9909 3143,-150.991 3146.5001,-140.991 3139.5001,-140.9909"/>
</g>
<!-- NavBarComponent -->
<g id="node20" class="node">
<title>NavBarComponent</title>
<polygon fill="#ffffb3" stroke="#000000" points="3038.3655,-122 2913.6345,-122 2913.6345,-86 3038.3655,-86 3038.3655,-122"/>
<text text-anchor="middle" x="2976" y="-99.8" font-family="Times,serif" font-size="14.00" fill="#000000">NavBarComponent</text>
</g>
<!-- NavBarComponent&#45;&gt;AppModule -->
<g id="edge20" class="edge">
<title>NavBarComponent&#45;&gt;AppModule</title>
<path fill="none" stroke="#000000" d="M2976,-122.2458C2976,-136.1772 2976,-153 2976,-153 2976,-153 3091.2896,-153 3091.2896,-153"/>
<polygon fill="#000000" stroke="#000000" points="3091.2897,-156.5001 3101.2896,-153 3091.2896,-149.5001 3091.2897,-156.5001"/>
</g>
<!-- PeerNetworkingComponent -->
<g id="node21" class="node">
<title>PeerNetworkingComponent</title>
<polygon fill="#ffffb3" stroke="#000000" points="2895.5744,-122 2722.4256,-122 2722.4256,-86 2895.5744,-86 2895.5744,-122"/>
<text text-anchor="middle" x="2809" y="-99.8" font-family="Times,serif" font-size="14.00" fill="#000000">PeerNetworkingComponent</text>
</g>
<!-- PeerNetworkingComponent&#45;&gt;AppModule -->
<g id="edge21" class="edge">
<title>PeerNetworkingComponent&#45;&gt;AppModule</title>
<path fill="none" stroke="#000000" d="M2809,-122.1243C2809,-136.7832 2809,-155 2809,-155 2809,-155 3091.0369,-155 3091.0369,-155"/>
<polygon fill="#000000" stroke="#000000" points="3091.0369,-158.5001 3101.0369,-155 3091.0368,-151.5001 3091.0369,-158.5001"/>
</g>
<!-- RealProjectsComponent -->
<g id="node22" class="node">
<title>RealProjectsComponent</title>
<polygon fill="#ffffb3" stroke="#000000" points="2704.087,-122 2551.913,-122 2551.913,-86 2704.087,-86 2704.087,-122"/>
<text text-anchor="middle" x="2628" y="-99.8" font-family="Times,serif" font-size="14.00" fill="#000000">RealProjectsComponent</text>
</g>
<!-- RealProjectsComponent&#45;&gt;AppModule -->
<g id="edge22" class="edge">
<title>RealProjectsComponent&#45;&gt;AppModule</title>
<path fill="none" stroke="#000000" d="M2628,-122.2396C2628,-137.5706 2628,-157 2628,-157 2628,-157 3091.2916,-157 3091.2916,-157"/>
<polygon fill="#000000" stroke="#000000" points="3091.2917,-160.5001 3101.2916,-157 3091.2916,-153.5001 3091.2917,-160.5001"/>
</g>
<!-- ReferralNetworkComponent -->
<g id="node23" class="node">
<title>ReferralNetworkComponent</title>
<polygon fill="#ffffb3" stroke="#000000" points="2534.1643,-122 2357.8357,-122 2357.8357,-86 2534.1643,-86 2534.1643,-122"/>
<text text-anchor="middle" x="2446" y="-99.8" font-family="Times,serif" font-size="14.00" fill="#000000">ReferralNetworkComponent</text>
</g>
<!-- ReferralNetworkComponent&#45;&gt;AppModule -->
<g id="edge23" class="edge">
<title>ReferralNetworkComponent&#45;&gt;AppModule</title>
<path fill="none" stroke="#000000" d="M2446,-122.0091C2446,-138.0494 2446,-159 2446,-159 2446,-159 3091.2283,-159 3091.2283,-159"/>
<polygon fill="#000000" stroke="#000000" points="3091.2284,-162.5001 3101.2283,-159 3091.2283,-155.5001 3091.2284,-162.5001"/>
</g>
<!-- ResetPasswordComponent -->
<g id="node24" class="node">
<title>ResetPasswordComponent</title>
<polygon fill="#ffffb3" stroke="#000000" points="2340.087,-122 2173.913,-122 2173.913,-86 2340.087,-86 2340.087,-122"/>
<text text-anchor="middle" x="2257" y="-99.8" font-family="Times,serif" font-size="14.00" fill="#000000">ResetPasswordComponent</text>
</g>
<!-- ResetPasswordComponent&#45;&gt;AppModule -->
<g id="edge24" class="edge">
<title>ResetPasswordComponent&#45;&gt;AppModule</title>
<path fill="none" stroke="#000000" d="M2257,-122.0352C2257,-138.7344 2257,-161 2257,-161 2257,-161 3091.1591,-161 3091.1591,-161"/>
<polygon fill="#000000" stroke="#000000" points="3091.1591,-164.5001 3101.1591,-161 3091.159,-157.5001 3091.1591,-164.5001"/>
</g>
<!-- ResumeGapAnalysisComponent -->
<g id="node25" class="node">
<title>ResumeGapAnalysisComponent</title>
<polygon fill="#ffffb3" stroke="#000000" points="2156.2464,-122 1957.7536,-122 1957.7536,-86 2156.2464,-86 2156.2464,-122"/>
<text text-anchor="middle" x="2057" y="-99.8" font-family="Times,serif" font-size="14.00" fill="#000000">ResumeGapAnalysisComponent</text>
</g>
<!-- ResumeGapAnalysisComponent&#45;&gt;AppModule -->
<g id="edge25" class="edge">
<title>ResumeGapAnalysisComponent&#45;&gt;AppModule</title>
<path fill="none" stroke="#000000" d="M2057,-122.0225C2057,-139.3734 2057,-163 2057,-163 2057,-163 3091.0929,-163 3091.0929,-163"/>
<polygon fill="#000000" stroke="#000000" points="3091.093,-166.5001 3101.0929,-163 3091.0929,-159.5001 3091.093,-166.5001"/>
</g>
<!-- SalesGrowthStrategyComponent -->
<g id="node26" class="node">
<title>SalesGrowthStrategyComponent</title>
<polygon fill="#ffffb3" stroke="#000000" points="1939.2976,-122 1738.7024,-122 1738.7024,-86 1939.2976,-86 1939.2976,-122"/>
<text text-anchor="middle" x="1839" y="-99.8" font-family="Times,serif" font-size="14.00" fill="#000000">SalesGrowthStrategyComponent</text>
</g>
<!-- SalesGrowthStrategyComponent&#45;&gt;AppModule -->
<g id="edge26" class="edge">
<title>SalesGrowthStrategyComponent&#45;&gt;AppModule</title>
<path fill="none" stroke="#000000" d="M1839,-122.302C1839,-140.2699 1839,-165 1839,-165 1839,-165 3091.0905,-165 3091.0905,-165"/>
<polygon fill="#000000" stroke="#000000" points="3091.0905,-168.5001 3101.0905,-165 3091.0905,-161.5001 3091.0905,-168.5001"/>
</g>
<!-- SignInComponent -->
<g id="node27" class="node">
<title>SignInComponent</title>
<polygon fill="#ffffb3" stroke="#000000" points="1721.1667,-122 1602.8333,-122 1602.8333,-86 1721.1667,-86 1721.1667,-122"/>
<text text-anchor="middle" x="1662" y="-99.8" font-family="Times,serif" font-size="14.00" fill="#000000">SignInComponent</text>
</g>
<!-- SignInComponent&#45;&gt;AppModule -->
<g id="edge27" class="edge">
<title>SignInComponent&#45;&gt;AppModule</title>
<path fill="none" stroke="#000000" d="M1662,-122.2222C1662,-140.8285 1662,-167 1662,-167 1662,-167 3091.0622,-167 3091.0622,-167"/>
<polygon fill="#000000" stroke="#000000" points="3091.0622,-170.5001 3101.0622,-167 3091.0621,-163.5001 3091.0622,-170.5001"/>
</g>
<!-- SignUpComponent -->
<g id="node28" class="node">
<title>SignUpComponent</title>
<polygon fill="#ffffb3" stroke="#000000" points="1585.1123,-122 1460.8877,-122 1460.8877,-86 1585.1123,-86 1585.1123,-122"/>
<text text-anchor="middle" x="1523" y="-99.8" font-family="Times,serif" font-size="14.00" fill="#000000">SignUpComponent</text>
</g>
<!-- SignUpComponent&#45;&gt;AppModule -->
<g id="edge28" class="edge">
<title>SignUpComponent&#45;&gt;AppModule</title>
<path fill="none" stroke="#000000" d="M1523,-122.1061C1523,-141.3391 1523,-169 1523,-169 1523,-169 3091.3269,-169 3091.3269,-169"/>
<polygon fill="#000000" stroke="#000000" points="3091.3269,-172.5001 3101.3269,-169 3091.3268,-165.5001 3091.3269,-172.5001"/>
</g>
<!-- SocialMediaMarketingComponent -->
<g id="node29" class="node">
<title>SocialMediaMarketingComponent</title>
<polygon fill="#ffffb3" stroke="#000000" points="1443.4058,-122 1232.5942,-122 1232.5942,-86 1443.4058,-86 1443.4058,-122"/>
<text text-anchor="middle" x="1338" y="-99.8" font-family="Times,serif" font-size="14.00" fill="#000000">SocialMediaMarketingComponent</text>
</g>
<!-- SocialMediaMarketingComponent&#45;&gt;AppModule -->
<g id="edge29" class="edge">
<title>SocialMediaMarketingComponent&#45;&gt;AppModule</title>
<path fill="none" stroke="#000000" d="M1338,-122.0348C1338,-141.5762 1338,-170 1338,-170 1338,-170 3091.0396,-170 3091.0396,-170"/>
<polygon fill="#000000" stroke="#000000" points="3091.0396,-173.5001 3101.0396,-170 3091.0396,-166.5001 3091.0396,-173.5001"/>
</g>
<!-- StickyComponent -->
<g id="node30" class="node">
<title>StickyComponent</title>
<polygon fill="#ffffb3" stroke="#000000" points="1214.6109,-122 1097.3891,-122 1097.3891,-86 1214.6109,-86 1214.6109,-122"/>
<text text-anchor="middle" x="1156" y="-99.8" font-family="Times,serif" font-size="14.00" fill="#000000">StickyComponent</text>
</g>
<!-- StickyComponent&#45;&gt;AppModule -->
<g id="edge30" class="edge">
<title>StickyComponent&#45;&gt;AppModule</title>
<path fill="none" stroke="#000000" d="M1156,-122.2228C1156,-142.3652 1156,-172 1156,-172 1156,-172 3091.0402,-172 3091.0402,-172"/>
<polygon fill="#000000" stroke="#000000" points="3091.0403,-175.5001 3101.0402,-172 3091.0402,-168.5001 3091.0403,-175.5001"/>
</g>
<!-- StressManagementComponent -->
<g id="node31" class="node">
<title>StressManagementComponent</title>
<polygon fill="#ffffb3" stroke="#000000" points="1079.8543,-122 892.1457,-122 892.1457,-86 1079.8543,-86 1079.8543,-122"/>
<text text-anchor="middle" x="986" y="-99.8" font-family="Times,serif" font-size="14.00" fill="#000000">StressManagementComponent</text>
</g>
<!-- StressManagementComponent&#45;&gt;AppModule -->
<g id="edge31" class="edge">
<title>StressManagementComponent&#45;&gt;AppModule</title>
<path fill="none" stroke="#000000" d="M986,-122.0267C986,-142.7672 986,-174 986,-174 986,-174 3090.8803,-174 3090.8803,-174"/>
<polygon fill="#000000" stroke="#000000" points="3090.8803,-177.5001 3100.8803,-174 3090.8802,-170.5001 3090.8803,-177.5001"/>
</g>
<!-- TrainingFromExpertsComponent -->
<g id="node32" class="node">
<title>TrainingFromExpertsComponent</title>
<polygon fill="#ffffb3" stroke="#000000" points="874.1385,-122 671.8615,-122 671.8615,-86 874.1385,-86 874.1385,-122"/>
<text text-anchor="middle" x="773" y="-99.8" font-family="Times,serif" font-size="14.00" fill="#000000">TrainingFromExpertsComponent</text>
</g>
<!-- TrainingFromExpertsComponent&#45;&gt;AppModule -->
<g id="edge32" class="edge">
<title>TrainingFromExpertsComponent&#45;&gt;AppModule</title>
<path fill="none" stroke="#000000" d="M773,-122.1686C773,-143.498 773,-176 773,-176 773,-176 3091.1109,-176 3091.1109,-176"/>
<polygon fill="#000000" stroke="#000000" points="3091.1109,-179.5001 3101.1109,-176 3091.1109,-172.5001 3091.1109,-179.5001"/>
</g>
<!-- ViralComponent -->
<g id="node33" class="node">
<title>ViralComponent</title>
<polygon fill="#ffffb3" stroke="#000000" points="654.0954,-122 543.9046,-122 543.9046,-86 654.0954,-86 654.0954,-122"/>
<text text-anchor="middle" x="599" y="-99.8" font-family="Times,serif" font-size="14.00" fill="#000000">ViralComponent</text>
</g>
<!-- ViralComponent&#45;&gt;AppModule -->
<g id="edge33" class="edge">
<title>ViralComponent&#45;&gt;AppModule</title>
<path fill="none" stroke="#000000" d="M599,-122.2921C599,-144.2057 599,-178 599,-178 599,-178 3091.2285,-178 3091.2285,-178"/>
<polygon fill="#000000" stroke="#000000" points="3091.2285,-181.5001 3101.2285,-178 3091.2285,-174.5001 3091.2285,-181.5001"/>
</g>
<!-- WebsiteComponent -->
<g id="node34" class="node">
<title>WebsiteComponent</title>
<polygon fill="#ffffb3" stroke="#000000" points="525.7022,-122 398.2978,-122 398.2978,-86 525.7022,-86 525.7022,-122"/>
<text text-anchor="middle" x="462" y="-99.8" font-family="Times,serif" font-size="14.00" fill="#000000">WebsiteComponent</text>
</g>
<!-- WebsiteComponent&#45;&gt;AppModule -->
<g id="edge34" class="edge">
<title>WebsiteComponent&#45;&gt;AppModule</title>
<path fill="none" stroke="#000000" d="M462,-122.0109C462,-144.4852 462,-180 462,-180 462,-180 3091.1573,-180 3091.1573,-180"/>
<polygon fill="#000000" stroke="#000000" points="3091.1574,-183.5001 3101.1573,-180 3091.1573,-176.5001 3091.1574,-183.5001"/>
</g>
<!-- AppComponent  -->
<g id="node39" class="node">
<title>AppComponent </title>
<polygon fill="#80b1d3" stroke="#000000" points="3197.439,-252 3088.561,-252 3088.561,-216 3197.439,-216 3197.439,-252"/>
<text text-anchor="middle" x="3143" y="-229.8" font-family="Times,serif" font-size="14.00" fill="#000000">AppComponent </text>
</g>
<!-- AppModule&#45;&gt;AppComponent  -->
<g id="edge38" class="edge">
<title>AppModule&#45;&gt;AppComponent </title>
<path fill="none" stroke="#000000" stroke-dasharray="1,5" d="M3143,-187.1061C3143,-187.1061 3143,-205.991 3143,-205.991"/>
<polygon fill="#000000" stroke="#000000" points="3139.5001,-205.9909 3143,-215.991 3146.5001,-205.991 3139.5001,-205.9909"/>
</g>
<!-- AppRoutingModule -->
<g id="node36" class="node">
<title>AppRoutingModule</title>
<polygon fill="#8dd3c7" stroke="#000000" points="374.2744,-122 371.2744,-126 350.2744,-126 347.2744,-122 245.7256,-122 245.7256,-86 374.2744,-86 374.2744,-122"/>
<text text-anchor="middle" x="310" y="-99.8" font-family="Times,serif" font-size="14.00" fill="#000000">AppRoutingModule</text>
</g>
<!-- AppRoutingModule&#45;&gt;AppModule -->
<g id="edge35" class="edge">
<title>AppRoutingModule&#45;&gt;AppModule</title>
<path fill="none" stroke="#000000" d="M310,-122.0908C310,-145.1328 310,-182 310,-182 310,-182 3091.3085,-182 3091.3085,-182"/>
<polygon fill="#000000" stroke="#000000" points="3091.3086,-185.5001 3101.3085,-182 3091.3085,-178.5001 3091.3086,-185.5001"/>
</g>
<!-- CoreModule -->
<g id="node37" class="node">
<title>CoreModule</title>
<polygon fill="#8dd3c7" stroke="#000000" points="227.2619,-122 224.2619,-126 203.2619,-126 200.2619,-122 140.7381,-122 140.7381,-86 227.2619,-86 227.2619,-122"/>
<text text-anchor="middle" x="184" y="-99.8" font-family="Times,serif" font-size="14.00" fill="#000000">CoreModule</text>
</g>
<!-- CoreModule&#45;&gt;AppModule -->
<g id="edge36" class="edge">
<title>CoreModule&#45;&gt;AppModule</title>
<path fill="none" stroke="#000000" d="M184,-122.1532C184,-145.7566 184,-184 184,-184 184,-184 3091.1706,-184 3091.1706,-184"/>
<polygon fill="#000000" stroke="#000000" points="3091.1707,-187.5001 3101.1706,-184 3091.1706,-180.5001 3091.1707,-187.5001"/>
</g>
<!-- SharedModule -->
<g id="node38" class="node">
<title>SharedModule</title>
<polygon fill="#8dd3c7" stroke="#000000" points="122.4231,-122 119.4231,-126 98.4231,-126 95.4231,-122 23.5769,-122 23.5769,-86 122.4231,-86 122.4231,-122"/>
<text text-anchor="middle" x="73" y="-99.8" font-family="Times,serif" font-size="14.00" fill="#000000">SharedModule</text>
</g>
<!-- SharedModule&#45;&gt;AppModule -->
<g id="edge37" class="edge">
<title>SharedModule&#45;&gt;AppModule</title>
<path fill="none" stroke="#000000" d="M73,-122.1985C73,-146.3563 73,-186 73,-186 73,-186 3091.0595,-186 3091.0595,-186"/>
<polygon fill="#000000" stroke="#000000" points="3091.0596,-189.5001 3101.0595,-186 3091.0595,-182.5001 3091.0596,-189.5001"/>
</g>
</g>
</svg>
