<?xml version="1.0" encoding="UTF-8" standalone="no"?>
<!DOCTYPE svg PUBLIC "-//W3C//DTD SVG 1.1//EN"
 "http://www.w3.org/Graphics/SVG/1.1/DTD/svg11.dtd">
<!-- Generated by graphviz version 2.40.1 (20161225.0304)
 -->
<!-- Title: dependencies Pages: 1 -->
<svg width="752pt" height="211pt"
 viewBox="0.00 0.00 752.00 211.00" xmlns="http://www.w3.org/2000/svg" xmlns:xlink="http://www.w3.org/1999/xlink">
<g id="graph0" class="graph" transform="scale(1 1) rotate(0) translate(4 207)">
<title>dependencies</title>
<polygon fill="#ffffff" stroke="transparent" points="-4,4 -4,-207 748,-207 748,4 -4,4"/>
<text text-anchor="start" x="351.0091" y="-42.4" font-family="sans-serif" font-weight="bold" font-size="14.00" fill="#000000">Legend</text>
<polygon fill="#ffffb3" stroke="transparent" points="138,-10 138,-30 158,-30 158,-10 138,-10"/>
<text text-anchor="start" x="161.629" y="-15.4" font-family="sans-serif" font-size="14.00" fill="#000000"> &#160;Declarations</text>
<polygon fill="#8dd3c7" stroke="transparent" points="251,-10 251,-30 271,-30 271,-10 251,-10"/>
<text text-anchor="start" x="274.7251" y="-15.4" font-family="sans-serif" font-size="14.00" fill="#000000"> &#160;Module</text>
<polygon fill="#80b1d3" stroke="transparent" points="337,-10 337,-30 357,-30 357,-10 337,-10"/>
<text text-anchor="start" x="360.7812" y="-15.4" font-family="sans-serif" font-size="14.00" fill="#000000"> &#160;Bootstrap</text>
<polygon fill="#fdb462" stroke="transparent" points="434,-10 434,-30 454,-30 454,-10 434,-10"/>
<text text-anchor="start" x="457.6732" y="-15.4" font-family="sans-serif" font-size="14.00" fill="#000000"> &#160;Providers</text>
<polygon fill="#fb8072" stroke="transparent" points="530,-10 530,-30 550,-30 550,-10 530,-10"/>
<text text-anchor="start" x="553.7258" y="-15.4" font-family="sans-serif" font-size="14.00" fill="#000000"> &#160;Exports</text>
<g id="clust1" class="cluster">
<title>cluster_MembershipModule</title>
<polygon fill="none" stroke="#000000" stroke-dasharray="1,5" points="8,-70 8,-195 736,-195 736,-70 8,-70"/>
</g>
<g id="clust2" class="cluster">
<title>cluster_MembershipModule_declarations</title>
<polygon fill="none" stroke="#000000" points="138,-78 138,-130 728,-130 728,-78 138,-78"/>
</g>
<g id="clust6" class="cluster">
<title>cluster_MembershipModule_imports</title>
<polygon fill="none" stroke="#000000" points="16,-78 16,-130 130,-130 130,-78 16,-78"/>
</g>
<!-- MembershipComponent -->
<g id="node1" class="node">
<title>MembershipComponent</title>
<polygon fill="#ffffb3" stroke="#000000" points="720.0926,-122 567.9074,-122 567.9074,-86 720.0926,-86 720.0926,-122"/>
<text text-anchor="middle" x="644" y="-99.8" font-family="Times,serif" font-size="14.00" fill="#000000">MembershipComponent</text>
</g>
<!-- MembershipModule -->
<g id="node4" class="node">
<title>MembershipModule</title>
<polygon fill="#8dd3c7" stroke="#000000" points="414.3104,-187 411.3104,-191 390.3104,-191 387.3104,-187 283.6896,-187 283.6896,-151 414.3104,-151 414.3104,-187"/>
<text text-anchor="middle" x="349" y="-164.8" font-family="Times,serif" font-size="14.00" fill="#000000">MembershipModule</text>
</g>
<!-- MembershipComponent&#45;&gt;MembershipModule -->
<g id="edge1" class="edge">
<title>MembershipComponent&#45;&gt;MembershipModule</title>
<path fill="none" stroke="#000000" d="M644,-122.1061C644,-141.3391 644,-169 644,-169 644,-169 424.4701,-169 424.4701,-169"/>
<polygon fill="#000000" stroke="#000000" points="424.4701,-165.5001 414.4701,-169 424.47,-172.5001 424.4701,-165.5001"/>
</g>
<!-- SubscriptionDialogComponent -->
<g id="node2" class="node">
<title>SubscriptionDialogComponent</title>
<polygon fill="#ffffb3" stroke="#000000" points="550.2091,-122 359.7909,-122 359.7909,-86 550.2091,-86 550.2091,-122"/>
<text text-anchor="middle" x="455" y="-99.8" font-family="Times,serif" font-size="14.00" fill="#000000">SubscriptionDialogComponent</text>
</g>
<!-- SubscriptionDialogComponent&#45;&gt;MembershipModule -->
<g id="edge2" class="edge">
<title>SubscriptionDialogComponent&#45;&gt;MembershipModule</title>
<path fill="none" stroke="#000000" d="M387.0252,-122.1061C387.0252,-122.1061 387.0252,-140.991 387.0252,-140.991"/>
<polygon fill="#000000" stroke="#000000" points="383.5253,-140.9909 387.0252,-150.991 390.5253,-140.991 383.5253,-140.9909"/>
</g>
<!-- SubscriptionSuccessComponent -->
<g id="node3" class="node">
<title>SubscriptionSuccessComponent</title>
<polygon fill="#ffffb3" stroke="#000000" points="342.4227,-122 145.5773,-122 145.5773,-86 342.4227,-86 342.4227,-122"/>
<text text-anchor="middle" x="244" y="-99.8" font-family="Times,serif" font-size="14.00" fill="#000000">SubscriptionSuccessComponent</text>
</g>
<!-- SubscriptionSuccessComponent&#45;&gt;MembershipModule -->
<g id="edge3" class="edge">
<title>SubscriptionSuccessComponent&#45;&gt;MembershipModule</title>
<path fill="none" stroke="#000000" d="M313.0281,-122.1061C313.0281,-122.1061 313.0281,-140.991 313.0281,-140.991"/>
<polygon fill="#000000" stroke="#000000" points="309.5281,-140.9909 313.0281,-150.991 316.5281,-140.991 309.5281,-140.9909"/>
</g>
<!-- SharedModule -->
<g id="node5" class="node">
<title>SharedModule</title>
<polygon fill="#8dd3c7" stroke="#000000" points="122.4231,-122 119.4231,-126 98.4231,-126 95.4231,-122 23.5769,-122 23.5769,-86 122.4231,-86 122.4231,-122"/>
<text text-anchor="middle" x="73" y="-99.8" font-family="Times,serif" font-size="14.00" fill="#000000">SharedModule</text>
</g>
<!-- SharedModule&#45;&gt;MembershipModule -->
<g id="edge4" class="edge">
<title>SharedModule&#45;&gt;MembershipModule</title>
<path fill="none" stroke="#000000" d="M73,-122.1061C73,-141.3391 73,-169 73,-169 73,-169 273.5919,-169 273.5919,-169"/>
<polygon fill="#000000" stroke="#000000" points="273.5919,-172.5001 283.5919,-169 273.5918,-165.5001 273.5919,-172.5001"/>
</g>
</g>
</svg>
