<svg height="512pt" viewBox="0 0 512 512" width="512pt" xmlns="http://www.w3.org/2000/svg"><path d="m241 165c0-8.289062-6.710938-15-15-15h-23.789062l34.394531-34.394531c4.292969-4.292969 5.582031-10.738281 3.253906-16.347657-2.316406-5.609374-7.796875-9.257812-13.859375-9.257812h-60c-8.289062 0-15 6.710938-15 15s6.710938 15 15 15h23.789062l-34.394531 34.394531c-4.292969 4.292969-5.582031 10.738281-3.253906 16.347657 2.316406 5.609374 7.792969 9.257812 13.859375 9.257812h60c8.289062 0 15-6.710938 15-15zm0 0"/><path d="m272.144531 80.742188c2.3125 5.609374 7.792969 9.257812 13.855469 9.257812h60c8.289062 0 15-6.710938 15-15s-6.710938-15-15-15h-23.789062l34.394531-34.394531c4.292969-4.292969 5.582031-10.738281 3.253906-16.347657-2.316406-5.609374-7.796875-9.257812-13.859375-9.257812h-60c-8.289062 0-15 6.710938-15 15s6.710938 15 15 15h23.789062l-34.394531 34.394531c-4.292969 4.292969-5.582031 10.738281-3.25 16.347657zm0 0"/><path d="m467 240h-211c-24.8125 0-45 20.1875-45 45v60c0 8.289062 6.710938 15 15 15h286v-75c0-24.8125-20.1875-45-45-45zm0 0"/><path d="m181 345v-15h-151v-165c0-8.289062-6.710938-15-15-15s-15 6.710938-15 15v332c0 8.289062 6.710938 15 15 15s15-6.710938 15-15v-46h452v46c0 8.285156 6.714844 15 15 15s15-6.714844 15-15v-107h-286c-24.851562 0-45-20.148438-45-45zm0 0"/><path d="m181 255c0 24.851562-20.148438 45-45 45s-45-20.148438-45-45 20.148438-45 45-45 45 20.148438 45 45zm0 0"/></svg>