<?xml version="1.0" encoding="iso-8859-1"?>
<!-- Generator: Adobe Illustrator 19.0.0, SVG Export Plug-In . SVG Version: 6.00 Build 0)  -->
<svg version="1.1" id="Capa_1" xmlns="http://www.w3.org/2000/svg" xmlns:xlink="http://www.w3.org/1999/xlink" x="0px" y="0px"
	 viewBox="0 0 479.617 479.617" style="enable-background:new 0 0 479.617 479.617;" xml:space="preserve">
<g>
	<g>
		<path d="M314.819,13.383c-5.248-0.056-10.472,0.698-15.49,2.234c-19.475-20.257-51.684-20.891-71.941-1.416
			c-2.703,2.599-5.111,5.488-7.179,8.616h-4.4c-28.173,0.95-50.241,24.559-49.29,52.732c0.898,26.623,22.119,48.078,48.73,49.268
			v-0.32c14.576,24.076,45.909,31.778,69.985,17.203c10.112-6.122,17.781-15.568,21.695-26.723c2.253,0.313,4.525,0.473,6.8,0.48
			c28.187,0.301,51.281-22.305,51.582-50.492S343.006,13.684,314.819,13.383z M260.129,103.537c-0.869,0.66-1.953,0.974-3.04,0.88
			h-23.12c-1.287,0.105-2.568-0.265-3.6-1.04c-1.331-1.416-1.331-3.624,0-5.04c0.533-0.747,1.68-2.08,3.44-4l5.04-5.6l4.16-4.64
			l3.2-3.68l2.08-2.56h-12.8c-1.324,0.046-2.647-0.116-3.92-0.48c-0.88,0-1.36-1.12-1.36-2.4c-0.032-0.893,0.352-1.75,1.04-2.32
			c0.82-0.636,1.845-0.949,2.88-0.88h19.28c1.405-0.069,2.805,0.205,4.08,0.8c0.978,0.579,1.537,1.668,1.44,2.8
			c0.079,0.45,0.079,0.91,0,1.36c-0.156,0.428-0.372,0.832-0.64,1.2l-0.96,1.12l-1.44,1.6l-15.36,17.2h16.48
			c1.099-0.079,2.186,0.264,3.04,0.96c0.681,0.609,1.062,1.486,1.04,2.4C261.129,102.095,260.777,102.945,260.129,103.537z
			 M310.689,77.457c-1.077,0.815-2.413,1.212-3.76,1.12h-28.32c-1.599,0.128-3.19-0.326-4.48-1.28
			c-1.021-0.911-1.579-2.233-1.52-3.6c-0.021-1.08,0.348-2.131,1.04-2.96l0,0.08c0.693-0.907,2.133-2.587,4.32-5.04l6.32-6.96
			l5.28-5.84l4-4.64c1.067-1.28,1.92-2.347,2.56-3.2h-16c-1.646,0.066-3.292-0.123-4.88-0.56c-1.12,0-1.68-1.36-1.68-3.04
			c-0.039-1.106,0.433-2.168,1.28-2.88c1.032-0.775,2.313-1.145,3.6-1.04h24c1.759-0.099,3.516,0.23,5.12,0.96
			c1.218,0.735,1.903,2.105,1.76,3.52c0.105,0.582,0.105,1.178,0,1.76c-0.198,0.54-0.467,1.051-0.8,1.52l-1.12,1.44l-1.84,2
			l-19.28,21.52h20.64c1.36-0.093,2.705,0.336,3.76,1.2c0.853,0.776,1.321,1.888,1.28,3.04
			C311.996,75.681,311.526,76.738,310.689,77.457z"/>
	</g>
</g>
<g>
	<g>
		<circle cx="194.049" cy="159.777" r="18.72"/>
	</g>
</g>
<g>
	<g>
		<circle cx="152.129" cy="198.097" r="13.12"/>
	</g>
</g>
<g>
	<g>
		<circle cx="131.169" cy="277.377" r="52.16"/>
	</g>
</g>
<g>
	<g>
		<path d="M201.649,239.937c-4.296-0.003-7.828,3.387-8,7.68v110.32c0,4.418,3.582,8,8,8h220c4.418,0,8-3.582,8-8
			C429.649,353.138,427.009,239.937,201.649,239.937z"/>
	</g>
</g>
<g>
	<g>
		<path d="M421.649,373.938h-240.64v-20.4c0-8.837-7.163-16-16-16h-67.68c-8.837,0-16,7.163-16,16v20.4h-15.36v-156.96
			c0-4.418-3.582-8-8-8c-4.418,0-8,3.582-8,8v254.64c0,4.418,3.582,8,8,8c4.418,0,8-3.582,8-8v-28h347.68v28c0,4.418,3.582,8,8,8
			s8-3.582,8-8v-89.68C429.649,377.519,426.067,373.938,421.649,373.938z M413.649,427.378H65.969v-37.44h347.68V427.378z"/>
	</g>
</g>
<g>
</g>
<g>
</g>
<g>
</g>
<g>
</g>
<g>
</g>
<g>
</g>
<g>
</g>
<g>
</g>
<g>
</g>
<g>
</g>
<g>
</g>
<g>
</g>
<g>
</g>
<g>
</g>
<g>
</g>
</svg>
