<?xml version="1.0" encoding="utf-8"?>
<!-- Generator: Adobe Illustrator 22.0.1, SVG Export Plug-In . SVG Version: 6.00 Build 0)  -->
<svg version="1.1" id="Capa_1" xmlns="http://www.w3.org/2000/svg" xmlns:xlink="http://www.w3.org/1999/xlink" x="0px" y="0px"
	 viewBox="0 0 256 256" style="enable-background:new 0 0 256 256;" xml:space="preserve">
<style type="text/css">
	.st0{fill:#010002;}
	.st1{fill:#1D1D1B;}
</style>
<g>
	<g>
		<circle class="st0" cx="53.7" cy="21.5" r="21.5"/>
		<path class="st0" d="M61.2,53.4c-5.4-1.1-11.2-1-16.5,0.2C8.9,57.8-2.8,99.2,0.5,130.9c1.4,13.7,23,13.8,21.5,0
			c-1.2-11.5-0.7-28.9,5.4-41.3c0,15,0,30,0,45.1c0,0.5,0.1,1,0.1,1.5c0,0.2-0.1,0.4-0.1,0.7c0,35.8-0.1,71.5-1.5,107.2
			c-0.7,15.9,24,15.8,24.6,0c1.2-28,1.4-56,1.5-84c1.2,0.1,2.3,0.1,3.5,0c0.1,28,0.4,56,1.5,84c0.7,15.8,25.3,15.9,24.6,0
			c-1.5-35.7-1.5-71.5-1.5-107.2c0-1.1-0.1-2.1-0.4-3.1c0-15.5-0.6-31.1-0.4-46.6c7.3,12.4,8,31.4,6.7,43.6
			c-1.4,13.8,20.1,13.7,21.5,0C111,98.6,98.8,56,61.2,53.4z"/>
	</g>
</g>
<g>
	<path class="st1" d="M232.5,62h-15.1v-1.3c0-4.5-3.6-8.1-8.1-8.1h-35c-4.5,0-8.1,3.6-8.1,8.1V62h-15.1c-13,0-23.5,10.5-23.5,23.5
		v147c0,13,10.5,23.5,23.5,23.5h81.3c13,0,23.5-10.5,23.5-23.5v-147C256,72.5,245.5,62,232.5,62z M238.6,232.4c0,3.3-2.7,6-6,6
		h-81.3c-3.3,0-6-2.7-6-6v-147c0-3.3,2.7-6,6-6h81.3c3.3,0,6,2.7,6,6L238.6,232.4L238.6,232.4z"/>
	<rect x="161.6" y="191.6" class="st1" width="60.5" height="27.4"/>
</g>
</svg>
