<svg height="512" viewBox="0 0 58 56" width="512" xmlns="http://www.w3.org/2000/svg"><g id="Page-1" fill="none" fill-rule="evenodd"><g id="054---Coffee" fill="rgb(0,0,0)" fill-rule="nonzero"><path id="Shape" d="m57.95 29.41c-.16.97-1.81 9.59-10.45 9.59-4.79 0-6.97 3.2-7.95 5.95.3949809-2.0110383.9603533-3.9848237 1.69-5.9 1.7862141-1.3878203 3.9988696-2.1124119 6.26-2.05 6.84 0 8.26-6.6 8.47-7.92.0919367-.514172-.0511518-1.0424989-.39-1.44-.338064-.4073656-.840633-.6421424-1.37-.64h-6.79c.172126-.6589035.3089871-1.3265183.41-2h6.38c1.1134832.0003823 2.1705259.4901408 2.8907209 1.3393546.720195.8492139 1.0307487 1.9720492.8492791 3.0706454z"/><path id="Shape" d="m10.017 23.106h4.983c.5522847 0 1-.4477153 1-1s-.4477153-1-1-1h-5v-3c0-.5522847.4477153-1 1-1h34c.5522847 0 1 .4477153 1 1v3h-25c-.5522847 0-1 .4477153-1 1s.4477153 1 1 1h24.982c-.1114117 3.1469355-1.1943163 6.1822122-3.1 8.689-1.768 2.347-4.1 6.543-5.4 13.311h-5.542c.033-.336.059-.672.06-1.005.0628624-2.084304-.7223157-4.1049827-2.176-5.6-2.865-2.844-7.744-2.806-11.9-.24-.8481843-2.9010881-2.7348673-5.3883058-5.3-6.987-1.5730954-2.4455976-2.4724182-5.2632686-2.607-8.168z"/><path id="Shape" d="m13.571 51.643c-.2696854-.738867-.4031776-1.5205075-.394-2.307.143373-2.8662917 1.3887676-5.5663186 3.476-7.536 1.9790277-2.0964022 4.6950639-3.342014 7.575-3.474 1.5512304-.0511655 3.0582519.5215315 4.184 1.59.053.053.09.12.141.175-.6408079.3678914-1.3568331.5853661-2.094.636-3.1258854.2433647-5.6107626 2.7235774-5.86 5.849-.1226573 2.2452442-1.9184674 4.0367416-4.164 4.154-1.01136.084168-1.9905215.3963099-2.864.913z"/><path id="Shape" d="m16.211 39.5c-.331.278-.656.57-.97.884-2.4762834 2.3347033-3.9358525 5.5490593-4.064 8.95-.0266792 1.4933535.3621153 2.9647487 1.123 4.25-.4583302.3863919-.9620437.7154848-1.5.98-.2718719-1.1931657-.82682136-2.3034075-1.618-3.237-.89324404-.9651939-1.3809274-2.2370377-1.362-3.552-.01362872-1.319643.47423988-2.5952496 1.365-3.569 2.3533884-2.7381444 2.3533884-6.7848556 0-9.523-.6359879-.727193-1.07617148-1.6044627-1.279-2.549.16-.013.32-.028.475-.028 3.519.011 6.598 2.958 7.83 7.394z"/><path id="Shape" d="m0 43.6c-.008-5.06 2.5-9.539 5.971-10.991.26813092 1.2083586.82733375 2.3329433 1.629 3.276.89318166.9648318 1.38087555 2.236345 1.362 3.551.01415869 1.3199225-.47418286 2.595831-1.366 3.569-2.35253911 2.7384591-2.35253911 6.7845409 0 9.523.63756079.7284468 1.07788967 1.6080717 1.279 2.555-.155.012-.311.023-.472.023-4.646-.006-8.411-5.167-8.403-11.506z"/><path id="Shape" d="m14.764 53.519c-.053-.053-.09-.12-.141-.175.6406833-.3680264 1.3568178-.5851923 2.094-.635 3.1262489-.2437772 5.6113504-2.7242146 5.861-5.85.1201918-2.2471963 1.916661-4.0415082 4.164-4.159 1.0115543-.0846084 1.9907635-.3974493 2.864-.915.269996.7415575.4034827 1.5258768.394 2.315-.143261 2.8658222-1.3882842 5.5654625-3.475 7.535-3.753 3.752-9.025 4.598-11.761 1.884z"/><path id="Shape" d="m49 48.166c.0016319.2904185-.1285683.5658986-.354.749l-3.729 2.985c-.1703708.136185-.381889.2105689-.6.211h-15.511c1.2538333-1.4551486 2.1855731-3.1591352 2.734-5h16.51c.5248322.0005519.9500003.4261675.95.951z"/><path id="Shape" d="m21 13c-.5522847 0-1-.4477153-1-1 .0185694-1.0159952.5077024-1.9658147 1.324-2.571.481-.441.676-.638.676-1.1s-.2-.656-.676-1.1c-.8151602-.60391664-1.3041945-1.55169771-1.324-2.566.018509-1.01569299.5081586-1.96505881 1.325-2.569.48-.441.675-.637.675-1.094 0-.55228475.4477153-1 1-1s1 .44771525 1 1c-.0188858 1.01508697-.5080508 1.96386006-1.324 2.568-.481.441-.676.637-.676 1.1s.2.656.676 1.1c.8140982.60347875 1.3029697 1.54983656 1.324 2.563-.0196402 1.01517252-.5086105 1.9639373-1.324 2.569-.476.444-.676.641-.676 1.1 0 .5522847-.4477153 1-1 1z"/><path id="Shape" d="m27 13c-.5522847 0-1-.4477153-1-1 .0185694-1.0159952.5077024-1.9658147 1.324-2.571.481-.441.676-.638.676-1.1s-.2-.656-.676-1.1c-.8151602-.60391664-1.3041945-1.55169771-1.324-2.566.018509-1.01569299.5081586-1.96505881 1.325-2.569.48-.441.675-.637.675-1.094 0-.55228475.4477153-1 1-1s1 .44771525 1 1c-.0188858 1.01508697-.5080508 1.96386006-1.324 2.568-.481.441-.676.637-.676 1.1s.2.656.676 1.1c.8140982.60347875 1.3029697 1.54983656 1.324 2.563-.0196402 1.01517252-.5086105 1.9639373-1.324 2.569-.476.444-.676.641-.676 1.1 0 .5522847-.4477153 1-1 1z"/><path id="Shape" d="m33 13c-.5522847 0-1-.4477153-1-1 .0185694-1.0159952.5077024-1.9658147 1.324-2.571.481-.441.676-.638.676-1.1s-.2-.656-.676-1.1c-.8151602-.60391664-1.3041945-1.55169771-1.324-2.566.018509-1.01569299.5081586-1.96505881 1.325-2.569.48-.441.675-.637.675-1.094 0-.55228475.4477153-1 1-1s1 .44771525 1 1c-.0188858 1.01508697-.5080508 1.96386006-1.324 2.568-.481.441-.676.637-.676 1.1s.2.656.676 1.1c.8140982.60347875 1.3029697 1.54983656 1.324 2.563-.0196402 1.01517252-.5086105 1.9639373-1.324 2.569-.476.444-.676.641-.676 1.1 0 .5522847-.4477153 1-1 1z"/></g></g></svg>