<?xml version="1.0" encoding="UTF-8" standalone="no"?>
<!DOCTYPE svg PUBLIC "-//W3C//DTD SVG 1.1//EN"
 "http://www.w3.org/Graphics/SVG/1.1/DTD/svg11.dtd">
<!-- Generated by graphviz version 2.40.1 (20161225.0304)
 -->
<!-- Title: dependencies Pages: 1 -->
<svg width="828pt" height="211pt"
 viewBox="0.00 0.00 828.00 211.00" xmlns="http://www.w3.org/2000/svg" xmlns:xlink="http://www.w3.org/1999/xlink">
<g id="graph0" class="graph" transform="scale(1 1) rotate(0) translate(4 207)">
<title>dependencies</title>
<polygon fill="#ffffff" stroke="transparent" points="-4,4 -4,-207 824,-207 824,4 -4,4"/>
<text text-anchor="start" x="389.0091" y="-42.4" font-family="sans-serif" font-weight="bold" font-size="14.00" fill="#000000">Legend</text>
<polygon fill="#ffffb3" stroke="transparent" points="176,-10 176,-30 196,-30 196,-10 176,-10"/>
<text text-anchor="start" x="199.629" y="-15.4" font-family="sans-serif" font-size="14.00" fill="#000000"> &#160;Declarations</text>
<polygon fill="#8dd3c7" stroke="transparent" points="289,-10 289,-30 309,-30 309,-10 289,-10"/>
<text text-anchor="start" x="312.7251" y="-15.4" font-family="sans-serif" font-size="14.00" fill="#000000"> &#160;Module</text>
<polygon fill="#80b1d3" stroke="transparent" points="375,-10 375,-30 395,-30 395,-10 375,-10"/>
<text text-anchor="start" x="398.7812" y="-15.4" font-family="sans-serif" font-size="14.00" fill="#000000"> &#160;Bootstrap</text>
<polygon fill="#fdb462" stroke="transparent" points="472,-10 472,-30 492,-30 492,-10 472,-10"/>
<text text-anchor="start" x="495.6732" y="-15.4" font-family="sans-serif" font-size="14.00" fill="#000000"> &#160;Providers</text>
<polygon fill="#fb8072" stroke="transparent" points="568,-10 568,-30 588,-30 588,-10 568,-10"/>
<text text-anchor="start" x="591.7258" y="-15.4" font-family="sans-serif" font-size="14.00" fill="#000000"> &#160;Exports</text>
<g id="clust1" class="cluster">
<title>cluster_CompaniesModule</title>
<polygon fill="none" stroke="#000000" stroke-dasharray="1,5" points="8,-70 8,-195 812,-195 812,-70 8,-70"/>
</g>
<g id="clust2" class="cluster">
<title>cluster_CompaniesModule_declarations</title>
<polygon fill="none" stroke="#000000" points="272,-78 272,-130 804,-130 804,-78 272,-78"/>
</g>
<g id="clust6" class="cluster">
<title>cluster_CompaniesModule_imports</title>
<polygon fill="none" stroke="#000000" points="16,-78 16,-130 264,-130 264,-78 16,-78"/>
</g>
<!-- AddCompanyComponent -->
<g id="node1" class="node">
<title>AddCompanyComponent</title>
<polygon fill="#ffffb3" stroke="#000000" points="795.8808,-122 636.1192,-122 636.1192,-86 795.8808,-86 795.8808,-122"/>
<text text-anchor="middle" x="716" y="-99.8" font-family="Times,serif" font-size="14.00" fill="#000000">AddCompanyComponent</text>
</g>
<!-- CompaniesModule -->
<g id="node4" class="node">
<title>CompaniesModule</title>
<polygon fill="#8dd3c7" stroke="#000000" points="429.0423,-187 426.0423,-191 405.0423,-191 402.0423,-187 306.9577,-187 306.9577,-151 429.0423,-151 429.0423,-187"/>
<text text-anchor="middle" x="368" y="-164.8" font-family="Times,serif" font-size="14.00" fill="#000000">CompaniesModule</text>
</g>
<!-- AddCompanyComponent&#45;&gt;CompaniesModule -->
<g id="edge1" class="edge">
<title>AddCompanyComponent&#45;&gt;CompaniesModule</title>
<path fill="none" stroke="#000000" d="M716,-122.2843C716,-143.3211 716,-175 716,-175 716,-175 439.4143,-175 439.4143,-175"/>
<polygon fill="#000000" stroke="#000000" points="439.4144,-171.5001 429.4143,-175 439.4143,-178.5001 439.4144,-171.5001"/>
</g>
<!-- CompaniesComponent -->
<g id="node2" class="node">
<title>CompaniesComponent</title>
<polygon fill="#ffffb3" stroke="#000000" points="618.3244,-122 473.6756,-122 473.6756,-86 618.3244,-86 618.3244,-122"/>
<text text-anchor="middle" x="546" y="-99.8" font-family="Times,serif" font-size="14.00" fill="#000000">CompaniesComponent</text>
</g>
<!-- CompaniesComponent&#45;&gt;CompaniesModule -->
<g id="edge2" class="edge">
<title>CompaniesComponent&#45;&gt;CompaniesModule</title>
<path fill="none" stroke="#000000" d="M546,-122.0225C546,-139.3734 546,-163 546,-163 546,-163 439.2575,-163 439.2575,-163"/>
<polygon fill="#000000" stroke="#000000" points="439.2575,-159.5001 429.2575,-163 439.2575,-166.5001 439.2575,-159.5001"/>
</g>
<!-- CompanyDetailsComponent -->
<g id="node3" class="node">
<title>CompanyDetailsComponent</title>
<polygon fill="#ffffb3" stroke="#000000" points="455.9269,-122 280.0731,-122 280.0731,-86 455.9269,-86 455.9269,-122"/>
<text text-anchor="middle" x="368" y="-99.8" font-family="Times,serif" font-size="14.00" fill="#000000">CompanyDetailsComponent</text>
</g>
<!-- CompanyDetailsComponent&#45;&gt;CompaniesModule -->
<g id="edge3" class="edge">
<title>CompanyDetailsComponent&#45;&gt;CompaniesModule</title>
<path fill="none" stroke="#000000" d="M368,-122.1061C368,-122.1061 368,-140.991 368,-140.991"/>
<polygon fill="#000000" stroke="#000000" points="364.5001,-140.9909 368,-150.991 371.5001,-140.991 364.5001,-140.9909"/>
</g>
<!-- AddEventModule -->
<g id="node5" class="node">
<title>AddEventModule</title>
<polygon fill="#8dd3c7" stroke="#000000" points="256.3146,-122 253.3146,-126 232.3146,-126 229.3146,-122 139.6854,-122 139.6854,-86 256.3146,-86 256.3146,-122"/>
<text text-anchor="middle" x="198" y="-99.8" font-family="Times,serif" font-size="14.00" fill="#000000">AddEventModule</text>
</g>
<!-- AddEventModule&#45;&gt;CompaniesModule -->
<g id="edge4" class="edge">
<title>AddEventModule&#45;&gt;CompaniesModule</title>
<path fill="none" stroke="#000000" d="M198,-122.0225C198,-139.3734 198,-163 198,-163 198,-163 296.6261,-163 296.6261,-163"/>
<polygon fill="#000000" stroke="#000000" points="296.6261,-166.5001 306.6261,-163 296.6261,-159.5001 296.6261,-166.5001"/>
</g>
<!-- SharedModule -->
<g id="node6" class="node">
<title>SharedModule</title>
<polygon fill="#8dd3c7" stroke="#000000" points="122.4231,-122 119.4231,-126 98.4231,-126 95.4231,-122 23.5769,-122 23.5769,-86 122.4231,-86 122.4231,-122"/>
<text text-anchor="middle" x="73" y="-99.8" font-family="Times,serif" font-size="14.00" fill="#000000">SharedModule</text>
</g>
<!-- SharedModule&#45;&gt;CompaniesModule -->
<g id="edge5" class="edge">
<title>SharedModule&#45;&gt;CompaniesModule</title>
<path fill="none" stroke="#000000" d="M73,-122.2843C73,-143.3211 73,-175 73,-175 73,-175 296.8758,-175 296.8758,-175"/>
<polygon fill="#000000" stroke="#000000" points="296.8758,-178.5001 306.8758,-175 296.8758,-171.5001 296.8758,-178.5001"/>
</g>
</g>
</svg>
