<?xml version="1.0" encoding="UTF-8" standalone="no"?>
<!DOCTYPE svg PUBLIC "-//W3C//DTD SVG 1.1//EN"
 "http://www.w3.org/Graphics/SVG/1.1/DTD/svg11.dtd">
<!-- Generated by graphviz version 2.40.1 (20161225.0304)
 -->
<!-- Title: dependencies Pages: 1 -->
<svg width="504pt" height="211pt"
 viewBox="0.00 0.00 504.00 211.00" xmlns="http://www.w3.org/2000/svg" xmlns:xlink="http://www.w3.org/1999/xlink">
<g id="graph0" class="graph" transform="scale(1 1) rotate(0) translate(4 207)">
<title>dependencies</title>
<polygon fill="#ffffff" stroke="transparent" points="-4,4 -4,-207 500,-207 500,4 -4,4"/>
<text text-anchor="start" x="227.0091" y="-42.4" font-family="sans-serif" font-weight="bold" font-size="14.00" fill="#000000">Legend</text>
<polygon fill="#ffffb3" stroke="transparent" points="14,-10 14,-30 34,-30 34,-10 14,-10"/>
<text text-anchor="start" x="37.629" y="-15.4" font-family="sans-serif" font-size="14.00" fill="#000000"> &#160;Declarations</text>
<polygon fill="#8dd3c7" stroke="transparent" points="127,-10 127,-30 147,-30 147,-10 127,-10"/>
<text text-anchor="start" x="150.7251" y="-15.4" font-family="sans-serif" font-size="14.00" fill="#000000"> &#160;Module</text>
<polygon fill="#80b1d3" stroke="transparent" points="213,-10 213,-30 233,-30 233,-10 213,-10"/>
<text text-anchor="start" x="236.7812" y="-15.4" font-family="sans-serif" font-size="14.00" fill="#000000"> &#160;Bootstrap</text>
<polygon fill="#fdb462" stroke="transparent" points="310,-10 310,-30 330,-30 330,-10 310,-10"/>
<text text-anchor="start" x="333.6732" y="-15.4" font-family="sans-serif" font-size="14.00" fill="#000000"> &#160;Providers</text>
<polygon fill="#fb8072" stroke="transparent" points="406,-10 406,-30 426,-30 426,-10 406,-10"/>
<text text-anchor="start" x="429.7258" y="-15.4" font-family="sans-serif" font-size="14.00" fill="#000000"> &#160;Exports</text>
<g id="clust1" class="cluster">
<title>cluster_AddRequirementModule</title>
<polygon fill="none" stroke="#000000" stroke-dasharray="1,5" points="79,-70 79,-195 417,-195 417,-70 79,-70"/>
</g>
<g id="clust2" class="cluster">
<title>cluster_AddRequirementModule_declarations</title>
<polygon fill="none" stroke="#000000" points="209,-78 209,-130 409,-130 409,-78 209,-78"/>
</g>
<g id="clust4" class="cluster">
<title>cluster_AddRequirementModule_imports</title>
<polygon fill="none" stroke="#000000" points="87,-78 87,-130 201,-130 201,-78 87,-78"/>
</g>
<!-- AddRequirementsComponent -->
<g id="node1" class="node">
<title>AddRequirementsComponent</title>
<polygon fill="#ffffb3" stroke="#000000" points="400.6965,-122 217.3035,-122 217.3035,-86 400.6965,-86 400.6965,-122"/>
<text text-anchor="middle" x="309" y="-99.8" font-family="Times,serif" font-size="14.00" fill="#000000">AddRequirementsComponent</text>
</g>
<!-- AddRequirementModule -->
<g id="node2" class="node">
<title>AddRequirementModule</title>
<polygon fill="#8dd3c7" stroke="#000000" points="314.9692,-187 311.9692,-191 290.9692,-191 287.9692,-187 159.0308,-187 159.0308,-151 314.9692,-151 314.9692,-187"/>
<text text-anchor="middle" x="237" y="-164.8" font-family="Times,serif" font-size="14.00" fill="#000000">AddRequirementModule</text>
</g>
<!-- AddRequirementsComponent&#45;&gt;AddRequirementModule -->
<g id="edge1" class="edge">
<title>AddRequirementsComponent&#45;&gt;AddRequirementModule</title>
<path fill="none" stroke="#000000" d="M266.1932,-122.1061C266.1932,-122.1061 266.1932,-140.991 266.1932,-140.991"/>
<polygon fill="#000000" stroke="#000000" points="262.6933,-140.9909 266.1932,-150.991 269.6933,-140.991 262.6933,-140.9909"/>
</g>
<!-- SharedModule -->
<g id="node3" class="node">
<title>SharedModule</title>
<polygon fill="#8dd3c7" stroke="#000000" points="193.4231,-122 190.4231,-126 169.4231,-126 166.4231,-122 94.5769,-122 94.5769,-86 193.4231,-86 193.4231,-122"/>
<text text-anchor="middle" x="144" y="-99.8" font-family="Times,serif" font-size="14.00" fill="#000000">SharedModule</text>
</g>
<!-- SharedModule&#45;&gt;AddRequirementModule -->
<g id="edge2" class="edge">
<title>SharedModule&#45;&gt;AddRequirementModule</title>
<path fill="none" stroke="#000000" d="M176.1133,-122.1061C176.1133,-122.1061 176.1133,-140.991 176.1133,-140.991"/>
<polygon fill="#000000" stroke="#000000" points="172.6133,-140.9909 176.1133,-150.991 179.6133,-140.991 172.6133,-140.9909"/>
</g>
</g>
</svg>
