<?xml version="1.0" encoding="UTF-8" standalone="no"?>
<!DOCTYPE svg PUBLIC "-//W3C//DTD SVG 1.1//EN"
 "http://www.w3.org/Graphics/SVG/1.1/DTD/svg11.dtd">
<!-- Generated by graphviz version 2.40.1 (20161225.0304)
 -->
<!-- Title: dependencies Pages: 1 -->
<svg width="504pt" height="211pt"
 viewBox="0.00 0.00 504.00 211.00" xmlns="http://www.w3.org/2000/svg" xmlns:xlink="http://www.w3.org/1999/xlink">
<g id="graph0" class="graph" transform="scale(1 1) rotate(0) translate(4 207)">
<title>dependencies</title>
<polygon fill="#ffffff" stroke="transparent" points="-4,4 -4,-207 500,-207 500,4 -4,4"/>
<text text-anchor="start" x="227.0091" y="-42.4" font-family="sans-serif" font-weight="bold" font-size="14.00" fill="#000000">Legend</text>
<polygon fill="#ffffb3" stroke="transparent" points="14,-10 14,-30 34,-30 34,-10 14,-10"/>
<text text-anchor="start" x="37.629" y="-15.4" font-family="sans-serif" font-size="14.00" fill="#000000"> &#160;Declarations</text>
<polygon fill="#8dd3c7" stroke="transparent" points="127,-10 127,-30 147,-30 147,-10 127,-10"/>
<text text-anchor="start" x="150.7251" y="-15.4" font-family="sans-serif" font-size="14.00" fill="#000000"> &#160;Module</text>
<polygon fill="#80b1d3" stroke="transparent" points="213,-10 213,-30 233,-30 233,-10 213,-10"/>
<text text-anchor="start" x="236.7812" y="-15.4" font-family="sans-serif" font-size="14.00" fill="#000000"> &#160;Bootstrap</text>
<polygon fill="#fdb462" stroke="transparent" points="310,-10 310,-30 330,-30 330,-10 310,-10"/>
<text text-anchor="start" x="333.6732" y="-15.4" font-family="sans-serif" font-size="14.00" fill="#000000"> &#160;Providers</text>
<polygon fill="#fb8072" stroke="transparent" points="406,-10 406,-30 426,-30 426,-10 406,-10"/>
<text text-anchor="start" x="429.7258" y="-15.4" font-family="sans-serif" font-size="14.00" fill="#000000"> &#160;Exports</text>
<g id="clust1" class="cluster">
<title>cluster_AddBusinessCoachModule</title>
<polygon fill="none" stroke="#000000" stroke-dasharray="1,5" points="76,-70 76,-195 420,-195 420,-70 76,-70"/>
</g>
<g id="clust2" class="cluster">
<title>cluster_AddBusinessCoachModule_declarations</title>
<polygon fill="none" stroke="#000000" points="206,-78 206,-130 412,-130 412,-78 206,-78"/>
</g>
<g id="clust4" class="cluster">
<title>cluster_AddBusinessCoachModule_imports</title>
<polygon fill="none" stroke="#000000" points="84,-78 84,-130 198,-130 198,-78 84,-78"/>
</g>
<!-- AddBusinessCoachComponent -->
<g id="node1" class="node">
<title>AddBusinessCoachComponent</title>
<polygon fill="#ffffb3" stroke="#000000" points="404.4804,-122 213.5196,-122 213.5196,-86 404.4804,-86 404.4804,-122"/>
<text text-anchor="middle" x="309" y="-99.8" font-family="Times,serif" font-size="14.00" fill="#000000">AddBusinessCoachComponent</text>
</g>
<!-- AddBusinessCoachModule -->
<g id="node2" class="node">
<title>AddBusinessCoachModule</title>
<polygon fill="#8dd3c7" stroke="#000000" points="323.6979,-187 320.6979,-191 299.6979,-191 296.6979,-187 154.3021,-187 154.3021,-151 323.6979,-151 323.6979,-187"/>
<text text-anchor="middle" x="239" y="-164.8" font-family="Times,serif" font-size="14.00" fill="#000000">AddBusinessCoachModule</text>
</g>
<!-- AddBusinessCoachComponent&#45;&gt;AddBusinessCoachModule -->
<g id="edge1" class="edge">
<title>AddBusinessCoachComponent&#45;&gt;AddBusinessCoachModule</title>
<path fill="none" stroke="#000000" d="M268.5544,-122.1061C268.5544,-122.1061 268.5544,-140.991 268.5544,-140.991"/>
<polygon fill="#000000" stroke="#000000" points="265.0544,-140.9909 268.5544,-150.991 272.0544,-140.991 265.0544,-140.9909"/>
</g>
<!-- SharedModule -->
<g id="node3" class="node">
<title>SharedModule</title>
<polygon fill="#8dd3c7" stroke="#000000" points="190.4231,-122 187.4231,-126 166.4231,-126 163.4231,-122 91.5769,-122 91.5769,-86 190.4231,-86 190.4231,-122"/>
<text text-anchor="middle" x="141" y="-99.8" font-family="Times,serif" font-size="14.00" fill="#000000">SharedModule</text>
</g>
<!-- SharedModule&#45;&gt;AddBusinessCoachModule -->
<g id="edge2" class="edge">
<title>SharedModule&#45;&gt;AddBusinessCoachModule</title>
<path fill="none" stroke="#000000" d="M172.3061,-122.1061C172.3061,-122.1061 172.3061,-140.991 172.3061,-140.991"/>
<polygon fill="#000000" stroke="#000000" points="168.8062,-140.9909 172.3061,-150.991 175.8062,-140.991 168.8062,-140.9909"/>
</g>
</g>
</svg>
